<svg id="グループ_9052" data-name="グループ 9052" xmlns="http://www.w3.org/2000/svg" xmlns:xlink="http://www.w3.org/1999/xlink" width="245" height="198" viewBox="0 0 245 198">
  <defs>
    <style>
      .cls-1 {
        fill: none;
      }

      .cls-2 {
        clip-path: url(#clip-path);
      }

      .cls-3 {
        fill: #b0d1b5;
      }

      .cls-4 {
        fill: #73aec5;
      }
    </style>
    <clipPath id="clip-path">
      <rect id="長方形_4618" data-name="長方形 4618" class="cls-1" width="245" height="198"/>
    </clipPath>
  </defs>
  <g id="グループ_9051" data-name="グループ 9051" class="cls-2">
    <path id="パス_112" data-name="パス 112" class="cls-3" d="M105.555,147.418q-.423.871-.816,1.756c.035-.814.077-1.627.1-2.441.094-3.794-.946-7.609.125-11.328.517-1.795-2.353-2.247-2.866-.468-1.136,3.95-.09,8.056-.193,12.087-.033,1.274-.087,2.546-.148,3.819a24.513,24.513,0,0,0-1.534-3.072,1.68,1.68,0,0,0-2.171-.751c-5.724,2.145.233,13.217,1.76,16.568a1.813,1.813,0,0,0,.2.335,7.185,7.185,0,0,0,1.387,2.827,1.636,1.636,0,0,0,2.758-.513c.17-.615.32-1.235.467-1.857a1.646,1.646,0,0,0,.352-.341c3.051-4.038,2.707-9.189,3.581-13.94a1.294,1.294,0,0,0-.189-.951c.085-.208.155-.42.246-.628.857-1.941-2.159-2.947-3.057-1.1" transform="translate(-0.044 0.126)"/>
    <path id="パス_113" data-name="パス 113" class="cls-3" d="M165.033,126.444a.6.6,0,0,0-.944-.06c-2.752,2.935-3.673,6.229-4.458,10.111-.413,2.043-.873,4.072-1.323,6.107-.051.229-.1.458-.153.688.2-4.922.724-9.84.834-14.766.069-3.095.262-6.178.4-9.27.158-3.418-.787-7.052.1-10.394a.921.921,0,0,0-1.778-.477c-.68,2.56-.3,4.894-.15,7.515.2,3.509-.269,7.06-.371,10.575-.214,7.386-1.144,14.83-.935,22.216-.078.159-.154.31-.229.439a10.988,10.988,0,0,0-.671-4.1,21.461,21.461,0,0,0-.026-2.252c.068-1.66.186-3.3.131-4.7a41.389,41.389,0,0,0-1.52-9.879.6.6,0,0,0-.759-.367c-3.874,1.755-3.842,4.678-2.845,7.883-1.369,4.443.3,11.388,2.686,14.78l.013.02h0l.007.011a.593.593,0,0,0,.268.206c.014.005.027,0,.04.008a.571.571,0,0,0,.068.012c.174.652.371,1.3.607,1.939a.6.6,0,0,0,1.157-.242c0-.013,0-.026,0-.039a.538.538,0,0,0,.946-.108l.012-.028c-.019.34-.033.682-.032,1.026a.6.6,0,0,0,.927.448c6.472-4.226,8.866-13.045,8.707-20.65a8.51,8.51,0,0,0-.717-6.653m-13.254,17.337a20.42,20.42,0,0,1-.541-5.168c.222.538.465,1.074.722,1.609l.015.219c-.073,1.289-.185,2.507-.2,3.34m.216-11.772c-.04-.267-.076-.474-.1-.593a.552.552,0,0,0-.6-.385c.154-.645.452-1.087.972-1.1q-.165,1.039-.265,2.078m1.64-1.233a15.527,15.527,0,0,1,.621,4.625,45.706,45.706,0,0,1-.621-4.625m6.774,17.948c-.693,1.038-2.516,4.436-3.006,2.608-.007-.023,0-.051-.009-.075a.678.678,0,0,0,.056-.063,52.071,52.071,0,0,0,5.086-10.514c.673-1.211,1.305-2.435,1.845-3.649a26.05,26.05,0,0,1-3.972,11.693m4.426-18.776a.533.533,0,0,0-.368.3c-.168.365-.311.74-.465,1.11,0-.011,0-.022,0-.033.01-.722-1.012-.668-1.18-.062-.846,3.023-1.85,5.977-2.948,8.9.573-3.948,1.375-9.3,3.35-10.718q.5-2.015,1.142-.59a1.146,1.146,0,0,1,.466,1.093" transform="translate(-0.069 0.102)"/>
    <path id="パス_114" data-name="パス 114" class="cls-3" d="M121.854,100.979a.84.84,0,0,0-1.212-.506c-4.261,2.274-3.693,8.74-3.818,12.818-.049,1.633-.485,3.755-.8,5.916-1.981-8.3-3.133-16.986-4.306-25.242-.209-1.473-2.458-.962-2.25.5,1.137,8,2.263,16.417,4.136,24.488-2.36-6.7-5.619-13.395-11.459-15.126-.868-.257-1.6.553-1.8,1.282-1.306,4.653,2.211,8.709,4.51,12.475,3.225,5.283,5.192,11.321,8.9,16.277a1.571,1.571,0,0,0,1.429.667c2.61-.356,3.326-3.159,2.994-5.577a.918.918,0,0,0,.291-.349.784.784,0,0,0,.462-1.159l0-.053a.658.658,0,0,0,.556-.447.9.9,0,0,0,.918-.377c1.943-3.131,1.471-6.959,1.8-10.494.482-5.132,1.528-10.131-.353-15.093m-17.045,8.169a1.828,1.828,0,0,0-1.149.283,8.453,8.453,0,0,1-.374-1.677,8.672,8.672,0,0,1,1.523,1.393m14.111,5.186a54.805,54.805,0,0,0-.478,7.312c-.024.292-.051.584-.076.875a21.977,21.977,0,0,1,.61-9.065c-.02.292-.037.585-.056.878m.977-9.2c-.277,1.6-.472,3.2-.63,4.8a.9.9,0,0,0-.739.17c.023-.469.043-.94.086-1.409.12-1.335.283-4.989,1.747-5.614.41-.175.643.534.771,1.589a.8.8,0,0,0-1.235.46m1.241,5.89c-.124,1.338-.16,2.922-.221,4.578a17.6,17.6,0,0,0-.251-2.261c.2-1.593.419-3.187.59-4.786-.024,1.087-.078,2.032-.118,2.468" transform="translate(-0.046 0.088)"/>
    <path id="パス_115" data-name="パス 115" class="cls-3" d="M150.8,88.52c-.069-.852-1.079-1.7-1.911-1.088a24.508,24.508,0,0,0-7.78,10.266,113.022,113.022,0,0,1,1.863-11.41c1.7-7.571,5.117-14.637,7.044-22.154.238-.931-1.227-1.208-1.466-.278-1.926,7.517-5.339,14.58-7.044,22.155a121.72,121.72,0,0,0-2.054,13.084c-.252-3.708-.646-7.406-2.927-10.268a.7.7,0,0,0-1.084-.065c-4.355,5.094-1.032,15.475,1.982,20.489a.666.666,0,0,0,.987.132.782.782,0,0,0,1.269.361,1.314,1.314,0,0,0,1.619-.372,1.129,1.129,0,0,0,.645-.529c3.522-6.333,9.483-12.575,8.858-20.324m-12.451,16.862c-.291-1.149-.567-2.3-.814-3.455-.013-.567-.035-1.133-.063-1.7a7.772,7.772,0,0,1,.877,5.153M135.953,90.4c1.535,2.4,1.945,5.366,2.171,8.386a6.328,6.328,0,0,0-.823-.84,31.814,31.814,0,0,0-.942-5.277c-.216-.779-1.344-.467-1.333.275a44.273,44.273,0,0,0,.791,7.372,14.865,14.865,0,0,0-.095,1.517c-1.187-4.033-1.6-8.523.231-11.434" transform="translate(-0.061 0.06)"/>
    <path id="パス_116" data-name="パス 116" class="cls-3" d="M128.965,60.38c-2.641-.7-3.912,3.466-4.292,5.211-.318,1.459-.547,2.9-.76,4.334.094-7.685.341-15.587,2.81-22.516.412-1.155-1.351-1.881-1.764-.723-2.614,7.337-2.819,15.675-2.93,23.753-.047-.106-.093-.214-.142-.319a20.113,20.113,0,0,0-3.519-8.929,1.351,1.351,0,0,0-2.277.45c-2.441,5.451.181,14.771,3.657,19.3a1.339,1.339,0,0,0,1.769.2,1.51,1.51,0,0,0,.8-.22.883.883,0,0,0,1.366-.686c.016-.29.026-.586.039-.878a.534.534,0,0,0,.8-.025c.016-.021.03-.044.047-.066a.493.493,0,0,0,.267-.268c.039-.09.077-.183.116-.273a31.976,31.976,0,0,0,4.992-12.312c.318-1.562,1.282-5.432-.978-6.036m-3.956,15.227a33.541,33.541,0,0,1,.812-4.338c.425-1.354.923-2.691,1.425-3.991a33.246,33.246,0,0,1-2.237,8.329m4.134-11.294a22.907,22.907,0,0,1-.525,2.81c-.145.627-.307,1.25-.477,1.871a21.068,21.068,0,0,0,.346-5.045c-.033-.529-.865-.786-1.077-.226-.274.722-.563,1.458-.855,2.2a.581.581,0,0,0-.59.414c-.236.763-.444,1.532-.661,2.3.163-2.03.45-4.195,1.5-5.721,1.567-2.271,2.542-.6,2.335,1.394" transform="translate(-0.053 0.044)"/>
    <path id="パス_117" data-name="パス 117" class="cls-3" d="M92.57,82.33a.7.7,0,0,0-1.006-.414c-3.661,1.729-4.578,5.742-5.231,9.437-1.052,5.953-2.811,11.8-3.77,17.766C82.947,92.743,86.532,76.7,87.891,60.4a.751.751,0,0,0-1.493-.16c-1,12.005-3.21,23.873-4.46,35.837-.429-6.239-1.946-12.289-6.637-16.011a1.308,1.308,0,0,0-2.141.69c-1.839,7.857-.293,16.522,3.254,23.772a17.928,17.928,0,0,0,3.69,7.837c.727.835,2.087.1,2.152-.879a.743.743,0,0,0,1.092.575,1.424,1.424,0,0,0,1.892-.539.658.658,0,0,0,.579-.485c.216-.786.456-1.593.706-2.418a.587.587,0,0,0,.348-.3c2.279-4.6,3.436-9.588,4.767-14.522.988-3.659,2.192-7.742.93-11.468M75.479,86.555a1.225,1.225,0,0,0-.462-.454c.045-.816.129-1.627.242-2.432,2.6,3.063,3.684,7.257,4.081,11.675a40.774,40.774,0,0,0-3.861-8.788m14.831,6.9c-.127.47-.251.943-.376,1.414a20.066,20.066,0,0,0-.07-4.856c-.108-.73-1.146-.584-1.327.011a69.854,69.854,0,0,0-2.886,16.79c-.266.856-.524,1.69-.761,2.492a.573.573,0,0,0-.382.448l-.368.208a.628.628,0,0,0-.2-.644c.795-4.454,2.173-8.754,3.027-13.209.592-3.083.71-6.334,1.973-9.247.993-2.284,2.2-3.932,2.808-.73.384,2.025-.9,5.324-1.433,7.321" transform="translate(-0.033 0.056)"/>
    <path id="パス_118" data-name="パス 118" class="cls-3" d="M179.807,53.469a.583.583,0,0,0-.939-.339c-3.682,2.577-4.639,7.581-5.4,11.745-.591,3.237-1.1,6.518-1.494,9.783-.432,3.571-.226,7.18-.5,10.744-.879-8.194-.428-16.528.207-24.722.652-8.422,3.382-17.422,1.938-25.829-.193-1.128-1.985-1.033-1.79.1,1.331,7.749-.906,16.307-1.786,24.265a9.2,9.2,0,0,0-1.812-3.4,1.482,1.482,0,0,0-2.329.012c-2.65,4.465-1.345,10.067-.654,14.911.854,5.978-.367,12.569,2.389,18.1a1.575,1.575,0,0,0,.519.6c-.006.269,0,.536-.014.806a1.491,1.491,0,0,0,2.362,1.361l.44-.319a.608.608,0,0,0,.724-.005c.2-.155.367-.344.552-.514a5.917,5.917,0,0,0,.221.641.584.584,0,0,0,1.055-.035,14.646,14.646,0,0,0,1.454-4.327c2.178-4.356,2.876-10.318,3.082-15.651,1.218-3.792,2.4-7.68,2.22-11.589a15.9,15.9,0,0,0-.446-6.347m-12.172,13.8c-.017.011-.034.021-.05.033a20.728,20.728,0,0,1-.29-7.073,19.073,19.073,0,0,1,.34,7.04m7.135.557a100.422,100.422,0,0,1-1.712,13.047c.209-3.814.283-7.662.858-11.427.09-.589.417-2.582.9-4.927-.016,1.14,0,2.265-.043,3.306m2.021-8a32.715,32.715,0,0,0-1,10.574.915.915,0,0,0,.052.209c-.064.162-.129.327-.184.471.189-2.776-.39-8.873,1.136-11.255m1.578,3.866q.346-1.871.759-3.733a5.57,5.57,0,0,1,.064.918c-.23.914-.518,1.866-.823,2.815m1.115-8.056a.576.576,0,0,0-.763-.275,6.17,6.17,0,0,0-1.808,1.372c.592-1.473,1.223-2.379,1.847-2.131.669.267.971,1.011,1.023,2.046-.087-.337-.185-.675-.3-1.012" transform="translate(-0.076 0.032)"/>
    <path id="パス_119" data-name="パス 119" class="cls-3" d="M149.34,17.792a.677.677,0,0,0-.91-.29c-2.317,1.447-2.833,4.75-3.249,7.229-.245,1.459-.4,2.934-.526,4.412-.288-2.252-.629-4.5-.785-6.746-.338-4.866-.652-9.737-.724-14.614a.639.639,0,0,0-1.277.013c.072,4.88.413,9.744.724,14.614.138,2.174.458,4.339.742,6.5a9.04,9.04,0,0,0-.669-1.4q-.213-.677-.465-1.348c-.247-.954-.512-1.91-.76-2.875a.668.668,0,0,0-.887-.446.576.576,0,0,0-.569-.342.628.628,0,0,0-.9.558,15.317,15.317,0,0,0,.149,2.873,10.4,10.4,0,0,0,.32,3.312,12.234,12.234,0,0,0,2.386,6.1c.05.088.1.174.155.261a.522.522,0,0,0-.017.106c0,.185.015.36.031.53a.769.769,0,0,0,0,.292c0,.023.013.041.018.064,0,.284.01.572.012.853a.653.653,0,0,0,.655.656,4.228,4.228,0,0,0,.561.6.689.689,0,0,0,1.041-.114,2.7,2.7,0,0,0,.622-.13.652.652,0,0,0,1.008-.326c.048-.119.1-.238.147-.358a.646.646,0,0,0,.089-.192.662.662,0,0,0,1.063-.3c1.818-6.19,4.417-13.115,2.023-19.488m-1.314,4.326a92.665,92.665,0,0,0-2.247,10.2,39.968,39.968,0,0,1,1.345-10.207c.331-1.109.61-2.469,1.35-2.256.449.13.6.951.625,1.949a.7.7,0,0,0-1.074.311" transform="translate(-0.064 0.007)"/>
    <path id="パス_120" data-name="パス 120" class="cls-3" d="M112.33,30.325a1.257,1.257,0,0,0-1.494-.219c-2.407,1.266-3.28,3.512-3.546,6.118a37.8,37.8,0,0,0,.066,3.791,15.875,15.875,0,0,0-.672,4.666c-.009.015-.02.027-.029.042-.16-.832-.356-1.957-.6-3.233-.185-9.049-.433-18.094,1.205-27.048.149-.815-1.1-1.136-1.254-.313A110.265,110.265,0,0,0,104.661,35.4c-1.223-4.23-3-7.667-5.6-5.739-2.257,1.674-.884,6.543-.334,8.684.776,3.018,2.115,7.745,5.188,9.251a.973.973,0,0,0,.945-.067c0,.137,0,.275,0,.412a.647.647,0,0,0,1.292-.02c0-.07,0-.139,0-.209a.964.964,0,0,0,1.09-.111,4.945,4.945,0,0,0,.566-.517,1.4,1.4,0,0,0,1.078-.3c3.745-3.212,7.12-12.238,3.446-16.454m-11.958.868c.981-.107,1.761,1.275,2.394,3.252-.287-.571-.57-1.1-.835-1.577-.469-.844-1.62-.306-1.664.512-.208,3.8,1.816,6.994,2.785,10.514-2.316-4.075-4.836-12.465-2.68-12.7" transform="translate(-0.045 0.013)"/>
    <path id="パス_121" data-name="パス 121" class="cls-3" d="M198.055,146.683c-3.423,4.469-7.271,9.045-10.069,13.973,1.534-4.4,3.488-8.633,5.424-12.865,3.707-8.1,6.967-16.177,6.969-25.218,0-1.421-2.215-1.662-2.215-.226,0,10.953-5.023,20.325-9.3,30.1-.427.973-.824,1.949-1.209,2.928a50.906,50.906,0,0,0,1.306-6.977c.308-2.961.9-7.187-1.445-9.492a1.715,1.715,0,0,0-2.659.1,13.758,13.758,0,0,0-2.836,6.741c-.723,3.915-1.556,7.712-2.4,11.6a28.471,28.471,0,0,0,1.123,16.983,1.465,1.465,0,0,0,2,.823c.466,1.072,2.2.773,2.112-.4a.724.724,0,0,0,1.094.188c6.806-6.83,14.035-17.8,13.468-27.933-.039-.685-.993-.792-1.354-.32m-.151,2.656c-.462,8-5.855,16.665-11.167,22.568a20.628,20.628,0,0,1,.9-2.525,113.252,113.252,0,0,0,6.609-9.868.8.8,0,0,0-.822-1.184.785.785,0,0,0-1.457-.108c-.193.414-.4.816-.6,1.226-1.505,2.929-3.358,5.674-4.748,8.613a25.513,25.513,0,0,1,1.432-4.282c2.407-5.177,6.288-9.894,9.851-14.44M186,143.679a26.665,26.665,0,0,1-.691,6.833,1.989,1.989,0,0,0-.114.185,25.642,25.642,0,0,0-1.178,2.807c.582-3.2.773-6.835,1.983-9.825" transform="translate(-0.082 0.115)"/>
    <path id="パス_122" data-name="パス 122" class="cls-3" d="M211.323,65.551c.947-1.314-1.126-2.727-2.07-1.417-3.152,4.373-6.48,8.706-8.626,13.692a42.919,42.919,0,0,0-2.4,7.753c.837-5.689,1.211-13.318-3.023-11.251-2.169,1.059-1.661,5.852-1.626,7.667A52.63,52.63,0,0,0,194.842,93.9a.912.912,0,0,0,.5.566c.022.141.045.283.064.421v.239a.814.814,0,0,0,.074.345,14.3,14.3,0,0,0,.278,1.6c.121.505.764.932,1.228.5a2.22,2.22,0,0,0,.741-1.049.717.717,0,0,0,.005-.519.23.23,0,0,1,.026,0c0,.038,0,.084,0,.118a.782.782,0,0,0,.365.651c-.021.135-.053.269-.071.405a.98.98,0,0,0,1.609.8c2.719-2.461,4.9-5.953,6.723-9.094,1.089-1.871,3.966-6.262,1.9-8.356-2.671-2.708-5.518.935-7.579,5.428a40.424,40.424,0,0,1,2.286-7.294c2.073-4.775,5.31-8.918,8.331-13.111m-15.72,21a14.771,14.771,0,0,1,.2-4.542c.064.3.121.6.168.9-.174,1.208-.287,2.421-.369,3.637m1.177-7.674c-.05.188-.085.378-.131.567-.019-.05-.033-.1-.053-.151a.777.777,0,0,0-1.414,0c-.02.035-.034.074-.054.11.014-.2.021-.41.038-.611.092-1.1.07-4.1,1.922-2.018a2.652,2.652,0,0,1,.516,1.459.92.92,0,0,0-.824.643m10.036,4.532a10.555,10.555,0,0,1-.429,1.365,3.053,3.053,0,0,0-.448-2.768c.856-.4,1.172.11.877,1.4" transform="translate(-0.089 0.06)"/>
    <path id="パス_123" data-name="パス 123" class="cls-3" d="M227.139,170.334a.733.733,0,0,0-1.229-.216c-4.889,4.514-5.561,11.718-5.62,18.363-2.121-10.492-1.585-21.226-.679-31.906.154-1.814-2.673-1.67-2.825.122-.735,8.655-1.191,17.333-.257,25.894a26.025,26.025,0,0,0-7.9-9.986,1.17,1.17,0,0,0-1.607.383c-2.128,4.405.185,9.008,2.387,12.928,2.156,3.836,4,9.656,8.073,11.779a1.184,1.184,0,0,0,1.777-.956,1.228,1.228,0,0,0,.924-1.361l-.009-.059a1.444,1.444,0,0,0,1.4-1.256.686.686,0,0,0,.132-.293.719.719,0,0,0,.587-.533l.005-.019a.738.738,0,0,0,.584-.08c2.686-1.8,2.247-6.193,2.755-8.962.863-4.715,3.367-9.042,1.5-13.842m-18.567,5.2a26.451,26.451,0,0,1,7.33,11.675c-1.365-2.8-2.42-5.7-4.433-8.149a1.18,1.18,0,0,0-2.023.772,10.187,10.187,0,0,0,.109,1.448,9.439,9.439,0,0,1-.983-5.746m14.668,14.881a36.536,36.536,0,0,1,.877-5.39,18.252,18.252,0,0,1-.877,5.39m2.105-10.837c.185-.924.353-1.851.464-2.79.093-.778-1.017-1.232-1.36-.443a39.423,39.423,0,0,0-2.7,10.5c.146-5.4.922-10.984,4.38-14.878.635,2.618-.031,5.1-.786,7.614" transform="translate(-0.095 0.147)"/>
    <path id="パス_124" data-name="パス 124" class="cls-3" d="M244.34,133.02a.759.759,0,0,0-1.268-.259c-4.952,4.455-2.354,12.188-5.576,17.215.706-11.541-.4-23.168,2.2-34.543.265-1.159-1.491-1.808-1.76-.632-1.878,8.217-1.876,16.543-1.983,24.88-.671-2.973-1.318-5.863-3.231-8.487a.757.757,0,0,0-1.291.073c-1.32,2.762-.716,5.35.036,8.218,1.046,3.985.947,8.2,2.453,12.061a.757.757,0,0,0,1.123.385,3.735,3.735,0,0,0,.3-.286c.019.073.036.147.055.22a3.649,3.649,0,0,0-.173.741.916.916,0,0,0,.141.584c-.009.1-.015.2-.025.3a.935.935,0,0,0,1.863.157c.015-.148.024-.3.038-.443a1.548,1.548,0,0,0,.278-.259c.188.556,1.146.717,1.376.093.245-.665.519-1.325.808-1.984a.812.812,0,0,0,.874-.358c3.2-5.109,5.9-11.673,3.757-17.673m-12.041.3a16.018,16.018,0,0,1,1.23,2.881.667.667,0,0,0-.89.544c-.047.379-.061.758-.081,1.136a10.069,10.069,0,0,1-.26-4.56m11.208,5.942a11.14,11.14,0,0,0-.226-2.051c-.161-.782-1.266-.56-1.441.082-.227.836-.48,1.68-.736,2.527a11.227,11.227,0,0,1,2.172-5.1,13.125,13.125,0,0,1,.231,4.545" transform="translate(-0.106 0.108)"/>
    <path id="パス_125" data-name="パス 125" class="cls-4" d="M92.438,53.443c-.157-1.726-2.666-1.77-3.218-.287-.062.166-.113.336-.171.5a1.473,1.473,0,0,0-1.439.085c0-.011-.007-.022-.011-.032a1.5,1.5,0,0,0-1.839-.9,1.577,1.577,0,0,0-1.875,1.015c-1.139,3-1.508,12.187,3.056,12.6,5.128.47,5.8-9.641,5.5-12.985" transform="translate(-0.038 0.049)"/>
    <path id="パス_126" data-name="パス 126" class="cls-4" d="M114.362,84.838a1.272,1.272,0,0,0-1.879-.706,4.688,4.688,0,0,0-.931.92,1.263,1.263,0,0,0-1.609.193,6.676,6.676,0,0,0-.648,1.106,1.242,1.242,0,0,0-1.119.22,1.09,1.09,0,0,0-1.525.567c-1.311,2.946.857,10.461,4.933,9.9,4.484-.621,3.741-9.219,2.779-12.2" transform="translate(-0.049 0.079)"/>
    <path id="パス_127" data-name="パス 127" class="cls-4" d="M105.881,128.106a1.412,1.412,0,0,0-2.4-.25,5.212,5.212,0,0,0-.785,1.579,1.684,1.684,0,0,0-.937-.1,1.437,1.437,0,0,0-2.635-.04c-1.271,3.06.373,9.33,3.9,10.288,2.277.62,4.411-1.432,5.071-3.463.966-2.971-1.037-5.467-2.208-8.014" transform="translate(-0.046 0.12)"/>
    <path id="パス_129" data-name="パス 129" class="cls-4" d="M163.362,96.529a1.7,1.7,0,0,0-3.05-.536c-.146.247-.269.5-.395.757a4.957,4.957,0,0,0-.365-.488,3.866,3.866,0,0,0-4.241.571c-.876,2.955-4.088,13.5,2.395,12.6,2.47-.342,3.8-3.2,4.593-5.253.835-2.168,1.823-5.331,1.063-7.652" transform="translate(-0.071 0.09)"/>
    <path id="パス_130" data-name="パス 130" class="cls-3" d="M15.257,103.494a.716.716,0,0,0-.944-.047c-2.753,2.276-3.673,4.831-4.458,7.841-.413,1.583-.873,3.158-1.323,4.735-.051.178-.1.355-.153.534.2-3.817.724-7.631.834-11.451.069-2.4.262-4.792.4-7.189.158-2.652-.787-5.47.1-8.062.3-.89-1.474-1.259-1.779-.369-.68,1.985-.3,3.795-.149,5.827a74.347,74.347,0,0,1-.371,8.2c-.215,5.728-1.144,11.5-.935,17.23-.078.123-.155.239-.229.34a6.814,6.814,0,0,0-.671-3.18,12.914,12.914,0,0,0-.026-1.747c.068-1.287.186-2.557.131-3.643a25.529,25.529,0,0,0-1.52-7.662.655.655,0,0,0-.759-.284C-.463,105.93-.431,108.2.567,110.683c-1.369,3.445.3,8.831,2.686,11.462l.013.016h0l.007.008a.609.609,0,0,0,.268.16c.013,0,.027,0,.04.006s.046.006.068.01a14.5,14.5,0,0,0,.607,1.5.633.633,0,0,0,1.157-.188v-.03a.616.616,0,0,0,.946-.084l.012-.021c-.019.263-.033.527-.032.795,0,.358.574.526.927.348,6.472-3.278,8.866-10.118,8.707-16.016a5.312,5.312,0,0,0-.717-5.159M2,116.938a12.439,12.439,0,0,1-.541-4.007c.222.417.465.833.722,1.247l.015.17c-.073,1-.185,1.944-.2,2.589m.216-9.129c-.041-.207-.076-.368-.1-.459-.063-.212-.339-.311-.6-.3a1.028,1.028,0,0,1,.972-.853q-.165.8-.265,1.612m1.64-.957a9.559,9.559,0,0,1,.621,3.587,27.977,27.977,0,0,1-.621-3.587m6.774,13.919c-.693.806-2.516,3.441-3.006,2.024-.007-.019,0-.041-.01-.059a.535.535,0,0,0,.057-.048,37.456,37.456,0,0,0,5.086-8.155,33.691,33.691,0,0,0,1.845-2.831,17.422,17.422,0,0,1-3.972,9.069m4.426-14.561a.523.523,0,0,0-.368.236c-.168.283-.311.574-.465.861v-.026c.011-.56-1.011-.517-1.179-.048a71.247,71.247,0,0,1-2.948,6.9c.573-3.062,1.375-7.211,3.35-8.312q.5-1.563,1.142-.457a.813.813,0,0,1,.466.848" transform="translate(0 0.084)"/>
    <path id="パス_131" data-name="パス 131" class="cls-4" d="M13.586,80.294a1.906,1.906,0,0,0-3.05-.415c-.146.192-.269.389-.395.587a4.154,4.154,0,0,0-.365-.378,1.949,1.949,0,0,0-1.908-.3,1.771,1.771,0,0,0-2.333.741C4.66,82.82,1.446,91,7.93,90.3c2.47-.265,3.8-2.485,4.593-4.074.835-1.682,1.823-4.135,1.063-5.935" transform="translate(-0.002 0.075)"/>
    <path id="パス_132" data-name="パス 132" class="cls-4" d="M201.284,109.8a.851.851,0,0,0-1.1.46,11.772,11.772,0,0,0-.492,1.251c-.009-.011-.016-.024-.026-.035a.853.853,0,0,0-1.18-.139c-.044.035-.078.076-.12.112-.116-.3-.223-.6-.364-.879a.853.853,0,0,0-1.55.016,10.43,10.43,0,0,0-.56,1.465.9.9,0,0,0-.3-.144c0-.116,0-.233,0-.349.005-1.072-1.663-1.3-1.667-.217-.014,3.231-.722,14.471,5.172,13.049,2.79-.674,3.72-4.458,4.115-6.889.4-2.48.642-6.292-1.93-7.7m-3.07,13a.674.674,0,0,0,.2-.306,20.6,20.6,0,0,0,.547-2.316c.015.312.029.626.045.932a.787.787,0,0,0,.929.692,2.1,2.1,0,0,1-1.724,1m2.487-2.283c.12-2.081.554-4.426.132-6.5a13.194,13.194,0,0,1,.473-2c1.088,1.764.621,5.892-.6,8.5" transform="translate(-0.089 0.104)"/>
    <path id="パス_133" data-name="パス 133" class="cls-4" d="M222.99,144.555a3.1,3.1,0,0,0-4.524-.619,4.272,4.272,0,0,0-.924,1.113,3.2,3.2,0,0,0-1.5.142,1.682,1.682,0,0,0-3.165.709c-.05,3.613-1.281,10.142,2.64,12.288,4.672,2.557,7.872-4.229,8.293-7.839.218-1.872.344-4.184-.821-5.793m-2.486,5.783c-.017.119-.046.257-.083.406a12.283,12.283,0,0,0-.227-2.913c.073-.341.16-.677.247-1.017a13.935,13.935,0,0,1,.063,3.523" transform="translate(-0.098 0.135)"/>
    <path id="パス_134" data-name="パス 134" class="cls-4" d="M240.487,106.72a2.553,2.553,0,0,0-3.47.188c-.061.064-.106.151-.164.221a1.185,1.185,0,0,0-1.653.857c-.416,2.44-2.528,9.331,1.69,9.878,3.242.421,4.64-5.064,4.725-7.469.045-1.279-.087-2.79-1.127-3.675m-1.089,4.255a11.935,11.935,0,0,1-.784,2.6c.01-.11.014-.221.025-.331a10.854,10.854,0,0,0,.427-3.347,1.073,1.073,0,0,0-.77-1.053c.192-.43.47-.739.928-.3s.233,1.9.174,2.429" transform="translate(-0.108 0.1)"/>
    <path id="パス_135" data-name="パス 135" class="cls-3" d="M50.575,83.814a.732.732,0,0,0-1.228-.216c-4.889,4.514-5.561,11.718-5.62,18.363-2.121-10.492-1.585-21.226-.679-31.906.154-1.814-2.673-1.67-2.825.122-.735,8.655-1.191,17.333-.257,25.894a26.026,26.026,0,0,0-7.9-9.986,1.17,1.17,0,0,0-1.607.383c-2.128,4.405.185,9.007,2.387,12.928,2.156,3.836,4,9.656,8.073,11.779a1.184,1.184,0,0,0,1.777-.956,1.228,1.228,0,0,0,.924-1.361l-.009-.059a1.445,1.445,0,0,0,1.4-1.256.691.691,0,0,0,.132-.293.719.719,0,0,0,.587-.532l0-.019a.738.738,0,0,0,.584-.08c2.686-1.8,2.247-6.193,2.755-8.962.863-4.715,3.367-9.042,1.5-13.842m-18.565,5.2a26.467,26.467,0,0,1,7.329,11.676c-1.365-2.8-2.42-5.7-4.433-8.149a1.179,1.179,0,0,0-2.022.772,10.044,10.044,0,0,0,.108,1.448,9.433,9.433,0,0,1-.982-5.747M46.677,103.9a36.4,36.4,0,0,1,.877-5.39,18.252,18.252,0,0,1-.877,5.39m2.105-10.837c.185-.924.353-1.851.465-2.791.092-.777-1.018-1.231-1.361-.442a39.424,39.424,0,0,0-2.7,10.5c.146-5.4.922-10.984,4.38-14.878.636,2.618-.031,5.1-.786,7.614" transform="translate(-0.014 0.065)"/>
    <path id="パス_136" data-name="パス 136" class="cls-3" d="M67.777,46.5a.759.759,0,0,0-1.268-.259c-4.952,4.455-2.354,12.188-5.576,17.215.706-11.542-.4-23.168,2.2-34.543.265-1.159-1.491-1.808-1.76-.632C59.5,36.5,59.5,44.824,59.392,53.162c-.67-2.973-1.318-5.863-3.231-8.487a.756.756,0,0,0-1.29.073c-1.321,2.762-.717,5.35.035,8.218,1.046,3.985.947,8.2,2.454,12.061a.755.755,0,0,0,1.122.385,3.591,3.591,0,0,0,.3-.286c.018.073.035.147.054.22a3.718,3.718,0,0,0-.173.741.911.911,0,0,0,.142.584c-.01.1-.016.2-.026.3a.935.935,0,0,0,1.863.157c.015-.148.024-.3.038-.443a1.516,1.516,0,0,0,.278-.259c.188.556,1.146.717,1.376.093.245-.665.519-1.325.809-1.984a.811.811,0,0,0,.873-.358c3.2-5.109,5.9-11.673,3.757-17.673m-12.041.3a16.019,16.019,0,0,1,1.23,2.881.668.668,0,0,0-.89.543c-.047.38-.061.759-.081,1.137a10.083,10.083,0,0,1-.26-4.56m11.208,5.942a11.225,11.225,0,0,0-.225-2.051c-.162-.782-1.267-.56-1.442.082-.227.836-.48,1.68-.736,2.527a11.238,11.238,0,0,1,2.172-5.1,13.1,13.1,0,0,1,.231,4.545" transform="translate(-0.025 0.026)"/>
    <path id="パス_137" data-name="パス 137" class="cls-4" d="M46.427,58.036a3.1,3.1,0,0,0-4.524-.619,4.272,4.272,0,0,0-.924,1.113,3.2,3.2,0,0,0-1.5.142,1.682,1.682,0,0,0-3.166.709c-.05,3.613-1.281,10.142,2.64,12.288,4.673,2.557,7.872-4.229,8.293-7.839.218-1.872.344-4.184-.821-5.793M43.941,63.82a3.927,3.927,0,0,1-.083.406,12.231,12.231,0,0,0-.227-2.913c.073-.341.16-.677.247-1.017a13.934,13.934,0,0,1,.063,3.523" transform="translate(-0.017 0.054)"/>
    <path id="パス_138" data-name="パス 138" class="cls-4" d="M63.923,20.2a2.552,2.552,0,0,0-3.47.188c-.061.064-.106.151-.164.221a1.185,1.185,0,0,0-1.653.858c-.416,2.439-2.528,9.33,1.69,9.877,3.243.421,4.64-5.064,4.725-7.469.045-1.279-.087-2.79-1.127-3.675m-1.088,4.255a11.935,11.935,0,0,1-.784,2.6c.01-.11.014-.221.025-.331a10.855,10.855,0,0,0,.427-3.347,1.073,1.073,0,0,0-.77-1.053c.192-.431.47-.74.928-.3s.233,1.9.174,2.429" transform="translate(-0.027 0.019)"/>
    <path id="パス_139" data-name="パス 139" class="cls-4" d="M216.14,56.185a2.409,2.409,0,0,0-.969.166,2.733,2.733,0,0,0-1.313.129c.116-.154.236-.311.346-.461.543-.738-.494-1.744-1.044-.995l-.189.251a.757.757,0,0,0-.861-.414c-3.163.795-4.377,6.075-4.421,8.843a.73.73,0,0,0,.595.691,4.188,4.188,0,0,0,.2,1.312c-.026.145-.071.281-.09.429a.736.736,0,0,0,.707.9c.045,0,.085-.006.128-.006,2.6,3.022,6.035-1.3,7.236-3.46.826-1.482,3.27-7.207-.322-7.384m-6.12,9.159a7.984,7.984,0,0,1,1.094-2.414.619.619,0,0,0,.228.107,2.751,2.751,0,0,0,.913.036,3.086,3.086,0,0,0-.8,1.529,3.137,3.137,0,0,1-1.386.864c-.018-.039-.034-.08-.05-.122m2.612-3.882a9.067,9.067,0,0,1,2.015-2.912,6.515,6.515,0,0,1-2.015,2.912m2.569,1.409a10.855,10.855,0,0,1-1.888,2.671,2.894,2.894,0,0,1-1.781.84,4.78,4.78,0,0,0,.775-.621.692.692,0,0,0,.155-.072,6.965,6.965,0,0,0,2.417-2.751.729.729,0,0,0-.587-1.057,13.124,13.124,0,0,0,2.08-3.777c.463.9-.752,4.014-1.17,4.766" transform="translate(-0.096 0.052)"/>
    <path id="パス_140" data-name="パス 140" class="cls-4" d="M175.64,26.113a1.551,1.551,0,0,0-2.966-.079c-.119.287-.2.589-.3.884a1.343,1.343,0,0,0-.877.3c-.017-.021-.028-.043-.045-.064a1.469,1.469,0,0,0-2.327.178,1.485,1.485,0,0,0-.7.583c-.8,1.394-.494,4.015-.311,5.558.211,1.789,1.047,3.778,3.153,3.741,4.776-.084,5.56-7.742,4.373-11.1" transform="translate(-0.077 0.024)"/>
    <path id="パス_141" data-name="パス 141" class="cls-4" d="M153.518,55.132a2.123,2.123,0,0,0-2.978-.283,4.557,4.557,0,0,0-1.007,1.222,1,1,0,0,0-.755.211,6.867,6.867,0,0,0-.9.93c.095-.5.2-1,.344-1.474.439-1.5-1.946-1.915-2.382-.431-.669,2.275-2.01,13.616,3.175,11.534,2.731-1.1,4.4-4.992,5.1-7.6.382-1.414.507-2.984-.6-4.106m-5.369,9.527c-.318-.183-.433-1.132-.488-1.752.055-.122.108-.246.16-.371-.01.222-.033.443-.03.667a1.058,1.058,0,0,0,.848,1.026c-.015.011-.028.026-.042.037-.351.268-.629.289-.448.393m3.633-6.032a13.769,13.769,0,0,1-1.361,3.309,42.585,42.585,0,0,1,1.44-4.958.6.6,0,0,1,.047-.079.431.431,0,0,1,.01.072,5.42,5.42,0,0,1-.136,1.656" transform="translate(-0.067 0.051)"/>
    <path id="パス_142" data-name="パス 142" class="cls-4" d="M128.735,39.465a1.678,1.678,0,0,0-2.283-.449,2.859,2.859,0,0,0-.59.505l0-.011a.54.54,0,0,0-.617-.334c.013-.03.029-.063.041-.092a2.282,2.282,0,0,0-1.864-.672c-1.687,1.392-2.858,5.349-1.642,7.308a2.48,2.48,0,0,0,.786.841,2.63,2.63,0,0,0,1.221,1.135c2.767,1.183,4.606-2.461,5.1-4.544.26-1.091.569-2.684-.147-3.686M127.521,40c.777.277.341,2.106.224,2.655,0,.024-.013.054-.019.08-.413-.509-1.357-.049-1.031.614a2.009,2.009,0,0,1-.46,1.919c.039-.77.142-1.535.173-2.312a.684.684,0,0,0-.312-.575q.045-.368.057-.737c.006-.017.011-.036.018-.053.177-.448.654-1.84,1.349-1.591m-4.228,5.36a4.023,4.023,0,0,1,.23-2.531c-.027.221-.059.44-.073.669a.646.646,0,0,0,.755.664c-.017.136-.037.277-.05.408-.29.424-.592.747-.862.791m.769,1.026a3.432,3.432,0,0,0,.423-.387.593.593,0,0,0,.52.007c0,.226.013.451.034.679a1.435,1.435,0,0,1-.977-.3" transform="translate(-0.056 0.036)"/>
    <path id="パス_143" data-name="パス 143" class="cls-4" d="M109.1,5.921c-.311-.575-1.05-.421-1.432-.074a5.392,5.392,0,0,0-1.213,1.639c-.046-.083-.082-.166-.135-.248a.824.824,0,0,0-1.048-.306c-.1-.121-.193-.249-.307-.361a.891.891,0,0,0-1.326.19.752.752,0,0,0-1.2.363c-.94,2.855-.664,11.07,4.045,10.335,4.279-.669,4.155-8.7,2.621-11.537m-1.2,7.784a5.916,5.916,0,0,0-.13-2.266.705.705,0,0,0-.526-.56,11.022,11.022,0,0,1,.8-2.531,12.233,12.233,0,0,1-.149,5.357" transform="translate(-0.047 0.005)"/>
    <path id="パス_144" data-name="パス 144" class="cls-4" d="M143.307.489a1.151,1.151,0,0,0-1.971.148c-.078.193-.144.388-.21.584a.945.945,0,0,0-.4-.055.993.993,0,0,0-1.508.472c-.784,1.963-1.082,9.061,2.738,7.8,1.616-.535,1.94-2.653,2.036-4.1.1-1.532.133-3.476-.688-4.843" transform="translate(-0.064 0)"/>
  </g>
</svg>
