<svg xmlns="http://www.w3.org/2000/svg" width="69.58" height="78.639" viewBox="0 0 69.58 78.639">
  <defs>
    <style>
      .cls-1 {
        fill: #b0d1b5;
      }

      .cls-2 {
        fill: #73aec5;
      }
    </style>
  </defs>
  <g id="グループ_9082" data-name="グループ 9082" transform="translate(-724.921 -130.361)">
    <path id="パス_117" data-name="パス 117" class="cls-1" d="M87.472,76.59a.523.523,0,0,0-.752-.31c-2.737,1.292-3.422,4.293-3.91,7.054-.786,4.45-2.1,8.822-2.818,13.28.287-12.241,2.967-24.235,3.982-36.417a.562.562,0,0,0-1.116-.12c-.748,8.974-2.4,17.845-3.334,26.789C79.2,82.2,78.07,77.682,74.563,74.9a.978.978,0,0,0-1.6.516A27.232,27.232,0,0,0,75.4,93.185a13.4,13.4,0,0,0,2.759,5.859c.543.624,1.56.075,1.609-.657a.556.556,0,0,0,.817.429,1.064,1.064,0,0,0,1.414-.4.492.492,0,0,0,.433-.363c.161-.587.341-1.191.528-1.808a.439.439,0,0,0,.26-.225,58.011,58.011,0,0,0,3.563-10.855c.738-2.736,1.639-5.788.695-8.573M74.7,79.748a.916.916,0,0,0-.345-.34c.034-.61.1-1.216.181-1.818,1.944,2.29,2.754,5.425,3.051,8.727A30.48,30.48,0,0,0,74.7,79.748m11.087,5.16c-.095.352-.188.7-.281,1.057a15,15,0,0,0-.052-3.63c-.081-.545-.857-.436-.992.008A52.218,52.218,0,0,0,82.3,94.895c-.2.64-.392,1.263-.569,1.863a.428.428,0,0,0-.285.335l-.275.156a.469.469,0,0,0-.153-.481c.594-3.33,1.624-6.544,2.262-9.874.442-2.3.531-4.735,1.475-6.912.742-1.707,1.644-2.939,2.1-.545.287,1.514-.669,3.98-1.071,5.473" transform="translate(706.622 100.686)"/>
    <path id="パス_125" data-name="パス 125" class="cls-2" d="M90.092,53.1c-.117-1.29-1.993-1.323-2.405-.215-.046.124-.084.251-.128.377a1.1,1.1,0,0,0-1.076.064c0-.008-.005-.016-.008-.024a1.121,1.121,0,0,0-1.375-.676,1.178,1.178,0,0,0-1.4.759c-.852,2.239-1.128,9.11,2.284,9.423,3.833.352,4.337-7.207,4.11-9.707" transform="translate(703.9 102.575)"/>
    <path id="パス_130" data-name="パス 130" class="cls-1" d="M11.4,99.828a.535.535,0,0,0-.705-.035,10.058,10.058,0,0,0-3.332,5.862c-.309,1.184-.652,2.361-.989,3.54-.038.133-.077.266-.114.4.152-2.853.541-5.7.623-8.56.052-1.794.2-3.582.3-5.374.118-1.982-.588-4.089.075-6.026.227-.665-1.1-.941-1.33-.276a10.311,10.311,0,0,0-.111,4.356,55.576,55.576,0,0,1-.277,6.13c-.161,4.282-.856,8.6-.7,12.88-.058.092-.116.179-.171.254a5.094,5.094,0,0,0-.5-2.377,9.654,9.654,0,0,0-.019-1.306c.051-.962.139-1.912.1-2.724a19.083,19.083,0,0,0-1.136-5.728.49.49,0,0,0-.567-.212c-2.9,1.018-2.872,2.712-2.126,4.57-1.024,2.575.221,6.6,2.008,8.568l.01.012h0l.005.006a.455.455,0,0,0,.2.12c.01,0,.02,0,.03,0s.034,0,.051.007a10.84,10.84,0,0,0,.454,1.124.473.473,0,0,0,.865-.141v-.022a.461.461,0,0,0,.707-.063l.009-.016c-.014.2-.025.394-.024.594,0,.268.429.394.693.26,4.838-2.45,6.628-7.563,6.509-11.973a3.971,3.971,0,0,0-.536-3.856M1.5,109.879a9.3,9.3,0,0,1-.4-3c.166.312.347.623.539.932l.011.127c-.055.747-.138,1.453-.146,1.936m.161-6.824c-.031-.155-.057-.275-.078-.343-.047-.159-.253-.233-.451-.224a.769.769,0,0,1,.726-.637q-.123.6-.2,1.2m1.226-.715a7.145,7.145,0,0,1,.464,2.682,20.914,20.914,0,0,1-.464-2.682m5.064,10.4c-.518.6-1.881,2.572-2.247,1.513-.005-.014,0-.031-.007-.044a.4.4,0,0,0,.043-.036,28,28,0,0,0,3.8-6.1,25.186,25.186,0,0,0,1.379-2.116,13.023,13.023,0,0,1-2.969,6.779m3.309-10.885a.391.391,0,0,0-.275.177c-.126.212-.232.429-.347.643v-.019c.008-.418-.755-.387-.882-.036a53.259,53.259,0,0,1-2.2,5.157c.428-2.289,1.028-5.39,2.5-6.213q.371-1.168.854-.342a.608.608,0,0,1,.348.634" transform="translate(724.921 93.289)"/>
    <path id="パス_131" data-name="パス 131" class="cls-2" d="M11.157,80.039a1.425,1.425,0,0,0-2.28-.311c-.109.144-.2.291-.3.438a3.105,3.105,0,0,0-.273-.283,1.457,1.457,0,0,0-1.426-.223,1.324,1.324,0,0,0-1.744.554c-.655,1.713-3.057,7.827,1.79,7.306,1.846-.2,2.844-1.858,3.433-3.045.624-1.257,1.363-3.091.794-4.436" transform="translate(723.918 95.729)"/>
    <path id="パス_135" data-name="パス 135" class="cls-1" d="M45.283,80.014a.547.547,0,0,0-.918-.162c-3.654,3.375-4.157,8.76-4.2,13.727-1.586-7.843-1.185-15.867-.507-23.851.115-1.356-2-1.248-2.112.091a100.4,100.4,0,0,0-.192,19.357,19.455,19.455,0,0,0-5.906-7.465.875.875,0,0,0-1.2.287c-1.591,3.293.138,6.733,1.784,9.664,1.612,2.867,2.991,7.218,6.035,8.805a.885.885,0,0,0,1.328-.715.918.918,0,0,0,.69-1.018l-.007-.044a1.08,1.08,0,0,0,1.05-.939.517.517,0,0,0,.1-.219.537.537,0,0,0,.439-.4l0-.014a.552.552,0,0,0,.436-.06c2.008-1.346,1.68-4.629,2.059-6.7.645-3.525,2.517-6.759,1.121-10.347M31.405,83.9a19.785,19.785,0,0,1,5.478,8.728,29.24,29.24,0,0,0-3.314-6.091.881.881,0,0,0-1.512.577,7.508,7.508,0,0,0,.081,1.083,7.052,7.052,0,0,1-.734-4.3M42.369,95.026A27.213,27.213,0,0,1,43.025,91a13.644,13.644,0,0,1-.655,4.029m1.574-8.1c.138-.691.264-1.383.347-2.086.069-.581-.761-.92-1.018-.331a29.471,29.471,0,0,0-2.017,7.847c.109-4.036.689-8.211,3.274-11.122a10.667,10.667,0,0,1-.587,5.692" transform="translate(717.434 98.378)"/>
    <path id="パス_136" data-name="パス 136" class="cls-1" d="M64.322,41.743a.568.568,0,0,0-.948-.194c-3.7,3.33-1.76,9.111-4.169,12.869.528-8.628-.3-17.319,1.647-25.822.2-.866-1.115-1.351-1.316-.472-1.4,6.142-1.4,12.366-1.482,18.6a16.169,16.169,0,0,0-2.415-6.344.565.565,0,0,0-.965.055c-.988,2.064-.536,4,.026,6.143.782,2.979.708,6.132,1.834,9.016a.565.565,0,0,0,.839.288,2.685,2.685,0,0,0,.227-.214c.013.055.026.11.04.165a2.779,2.779,0,0,0-.129.554.681.681,0,0,0,.106.436c-.007.074-.012.147-.019.221a.7.7,0,0,0,1.393.117c.011-.111.018-.221.028-.331a1.133,1.133,0,0,0,.208-.194c.14.415.857.536,1.029.07.183-.5.388-.991.6-1.483a.606.606,0,0,0,.652-.268c2.39-3.819,4.41-8.726,2.809-13.211m-9,.227a11.975,11.975,0,0,1,.92,2.153.5.5,0,0,0-.665.406c-.035.284-.046.567-.061.85a7.538,7.538,0,0,1-.194-3.409M63.7,46.412a8.391,8.391,0,0,0-.168-1.533c-.121-.584-.947-.418-1.078.061-.17.625-.359,1.256-.55,1.889a8.4,8.4,0,0,1,1.624-3.815,9.793,9.793,0,0,1,.173,3.4" transform="translate(711.245 108.727)"/>
    <path id="パス_137" data-name="パス 137" class="cls-2" d="M43.818,57.7a2.317,2.317,0,0,0-3.382-.462,3.193,3.193,0,0,0-.69.832,2.389,2.389,0,0,0-1.121.106,1.258,1.258,0,0,0-2.366.53c-.037,2.7-.958,7.581,1.973,9.185,3.493,1.912,5.885-3.161,6.2-5.86.163-1.4.257-3.128-.613-4.331M41.96,62.022a2.937,2.937,0,0,1-.062.3,9.143,9.143,0,0,0-.17-2.177c.055-.255.12-.506.185-.76a10.417,10.417,0,0,1,.047,2.634" transform="translate(715.796 101.415)"/>
    <path id="パス_138" data-name="パス 138" class="cls-2" d="M62.362,20.05a1.908,1.908,0,0,0-2.594.141c-.046.048-.079.113-.123.165A.886.886,0,0,0,58.409,21c-.311,1.823-1.89,6.974,1.263,7.384C62.1,28.7,63.141,24.6,63.2,22.8a3.355,3.355,0,0,0-.843-2.748m-.814,3.181a8.922,8.922,0,0,1-.586,1.947c.007-.082.01-.165.019-.248a8.114,8.114,0,0,0,.319-2.5.8.8,0,0,0-.575-.787c.143-.322.351-.553.693-.226s.174,1.423.13,1.816" transform="translate(710.323 110.754)"/>
  </g>
</svg>
