<svg xmlns="http://www.w3.org/2000/svg" xmlns:xlink="http://www.w3.org/1999/xlink" width="59" height="59" viewBox="0 0 59 59">
  <defs>
    <style>
      .cls-1 {
        fill: none;
      }

      .cls-2 {
        clip-path: url(#clip-path);
      }
    </style>
    <clipPath id="clip-path">
      <rect id="長方形_4628" data-name="長方形 4628" class="cls-1" width="59" height="59"/>
    </clipPath>
  </defs>
  <g id="グループ_9097" data-name="グループ 9097" transform="translate(-325 -3837)">
    <g id="グループ_9096" data-name="グループ 9096" transform="translate(325 3837)">
      <g id="グループ_9095" data-name="グループ 9095" class="cls-2">
        <path id="パス_373" data-name="パス 373" d="M36.092,0H55.233V13.357H59V55.2h-.72q-10.807,0-21.613-.006a.879.879,0,0,0-.849.416,7.556,7.556,0,0,1-12.6-.006.832.832,0,0,0-.794-.412q-11.21.017-22.42.01V13.369H3.805V0H22.946a1.754,1.754,0,0,0,.32.1A9.022,9.022,0,0,1,26.79,1.246c.96.576,1.851,1.264,2.816,1.933.046-.04.162-.134.27-.237a10.108,10.108,0,0,1,4-2.4C34.6.316,35.352.178,36.092,0M53.284,1.943c-.149-.016-.225-.032-.3-.032-5.265,0-10.53-.012-15.794,0a8.316,8.316,0,0,0-6.376,2.837,1.473,1.473,0,0,0-.338.908q-.029,9.651-.014,19.3v.695H28.578v-.79q0-9.593-.016-19.186a1.546,1.546,0,0,0-.362-.956A8.535,8.535,0,0,0,21.581,1.9c-5.073.012-10.145,0-15.218,0-.2,0-.4.02-.61.031V41.867c1.2,0,2.364,0,3.53,0a26.268,26.268,0,0,1,18.9,7.582c.1.1.22.17.407.313V27.647h1.888V49.674l.245.2a2.729,2.729,0,0,1,.377-.64,25.226,25.226,0,0,1,14.448-7.036c2.332-.3,4.712-.23,7.071-.326.221-.009.443,0,.668,0ZM1.938,53.292h.791q10.378,0,20.755-.009a.829.829,0,0,1,.879.524,5.7,5.7,0,0,0,10.308.011.829.829,0,0,1,.872-.536q10.406.022,20.813.01h.726V15.256H55.225V43.8H53.3v5.684h-.686c-1.71,0-3.421-.03-5.131.008-1.92.042-3.848.046-5.754.243a34.269,34.269,0,0,0-11.7,3.431,1.012,1.012,0,0,1-1.01.009,34.681,34.681,0,0,0-14.8-3.644c-2.593-.046-5.188-.033-7.782-.046-.222,0-.444,0-.726,0v-5.72H3.78V15.257H1.938Zm23.376-3.781a24.471,24.471,0,0,0-17.657-5.69v3.71c3.014.066,5.99.047,8.954.222a35.646,35.646,0,0,1,8.7,1.759m26.08-5.675a24.188,24.188,0,0,0-17.683,5.729c5.725-2.1,11.687-2.087,17.683-1.94Z" transform="translate(0 0.001)"/>
        <path id="パス_374" data-name="パス 374" d="M95.629,43.028a3.22,3.22,0,0,1,2.289.708,2.979,2.979,0,0,1,.87,3.147c-.418,1.79-.8,3.587-1.173,5.24a21.879,21.879,0,0,1,2.219,2.04,6.508,6.508,0,0,1,1.227,6.025c-.989,3.883-2.036,7.751-3.085,11.619a3.429,3.429,0,0,1-3.362,2.64,3.4,3.4,0,0,1-3.3-2.633c-1.1-4.073-2.244-8.135-3.2-12.241a6.163,6.163,0,0,1,2.1-6.236,1.43,1.43,0,0,0,.505-1.382c-.244-2.889-.473-5.779-.665-8.671a2.726,2.726,0,0,1,1.948-2.967A2.759,2.759,0,0,1,95.492,42.3c.055.222.085.451.137.729M90.421,61.147H92.7v1.9h-1.76l.508,1.911h3.165v1.9h-2.66c.41,1.539.78,2.985,1.183,4.422a1.536,1.536,0,0,0,1.518,1.257,1.562,1.562,0,0,0,1.506-1.278c1.034-3.851,2.1-7.695,3.071-11.56a4.8,4.8,0,0,0-6.029-5.95,4.518,4.518,0,0,0-3.141,3.589h4.556v1.876H89.923l.5,1.933m2.2-9.26c1.057-.151,1.057-.151,1.057-1.133q0-3.656,0-7.311c0-.211.058-.474-.044-.62a1.726,1.726,0,0,0-.73-.682.7.7,0,0,0-.889.533,2,2,0,0,0-.055.735c.095,1.359.2,2.716.31,4.074q.174,2.2.353,4.406m3.038-6.874V51.63q.784-2.746,1.318-5.517c.159-.823-.4-1.236-1.318-1.1" transform="translate(-77.498 -35.427)"/>
        <path id="パス_375" data-name="パス 375" d="M291.9,108.319l.7-1.729a8.551,8.551,0,1,1-11.662,9.265,8.528,8.528,0,0,1,6.508-9.676c.8-.206.987-.453.988-1.3q0-3.889,0-7.778v-.648h1.891v3.821c1.793-1.348,3.749-.9,5.679-.991a4.993,4.993,0,0,1-1.348,4.3,5.148,5.148,0,0,1-4.251,1.392c-.038.215-.072.381-.1.549a2.682,2.682,0,0,1-2.093,2.4,7.18,7.18,0,0,0-4.416,2.984,6.645,6.645,0,1,0,12.224,3.5,6.418,6.418,0,0,0-3.5-5.762c-.182-.1-.372-.194-.63-.328m-1.291-5.273c1.636.2,3.1-.627,3.268-1.844-1.68-.14-2.987.6-3.268,1.844" transform="translate(-247.501 -85.001)"/>
        <rect id="長方形_4626" data-name="長方形 4626" width="7.561" height="1.839" transform="translate(43.834 3.843)"/>
        <rect id="長方形_4627" data-name="長方形 4627" width="7.561" height="1.841" transform="translate(43.835 7.65)"/>
        <path id="パス_376" data-name="パス 376" d="M357.709,213.724h-1.832a2.958,2.958,0,0,0-2.865-2.858v-1.791a4.6,4.6,0,0,1,4.7,4.649" transform="translate(-311.094 -184.241)"/>
      </g>
    </g>
  </g>
</svg>
