<svg id="グループ_9099" data-name="グループ 9099" xmlns="http://www.w3.org/2000/svg" xmlns:xlink="http://www.w3.org/1999/xlink" width="87.986" height="85.653" viewBox="0 0 87.986 85.653">
  <defs>
    <style>
      .cls-1 {
        fill: none;
      }

      .cls-2 {
        clip-path: url(#clip-path);
      }

      .cls-3 {
        fill: url(#linear-gradient);
      }

      .cls-4 {
        fill: #1e1613;
      }

      .cls-5 {
        fill: #e1c35e;
      }

      .cls-6 {
        fill: #fefefe;
      }
    </style>
    <clipPath id="clip-path">
      <rect id="長方形_4629" data-name="長方形 4629" class="cls-1" width="87.986" height="85.653"/>
    </clipPath>
    <linearGradient id="linear-gradient" x1="0.5" x2="0.5" y2="1" gradientUnits="objectBoundingBox">
      <stop offset="0" stop-color="#f87537"/>
      <stop offset="1" stop-color="#fba81f"/>
    </linearGradient>
  </defs>
  <g id="グループ_9098" data-name="グループ 9098" class="cls-2">
    <path id="パス_377" data-name="パス 377" class="cls-3" d="M297.223,255.249c.449,1.59,1.268,3.03,1.86,4.562.109.281.236.555.352.834.394.947.329.985-.67,1.118a26.553,26.553,0,0,0-8.924,2.916c-1.192.627-2.4,1.459-3.915,1.209a3.586,3.586,0,0,0-1.382.123.938.938,0,0,1-1.265-.535,2.477,2.477,0,0,0-1.616-1.058,10.17,10.17,0,0,0-3.229-.557c-.06-.952-.073-1.909-.121-2.86-.118-2.31-.265-4.621-.336-6.93-.061-1.966-.309-3.928-.2-5.9a1.215,1.215,0,0,0-.019-.41,5.824,5.824,0,0,1,.1-3.132A34.745,34.745,0,0,1,280,238.595a11.947,11.947,0,0,1,1.913-3.435l.174.035a15.926,15.926,0,0,1-.686,2.645c-.5,1.653-.712,3.367-1.134,5.036-.053.208.044.436-.348.281-.268-.106-.681-.2-.818.258-.116.382.129.594.411.806.226.169.681.2.489.7-.109.286-.245.623.115.863.427.286.714.018.995-.263,3.51,1.278,6.981.874,10.426-.267a3.81,3.81,0,0,0,2.057-1.562,1.486,1.486,0,0,0,.334-1.078c-.381-1.67.347-3.092.94-4.55a1.8,1.8,0,0,0,.066-.4l-.013.017a.769.769,0,0,0,.327-.494.925.925,0,0,1,.086-.307,33.094,33.094,0,0,1,5.581-6.1c.271-.22.539-.306.8-.074.363.323-.057.476-.212.633a31.582,31.582,0,0,0-4.284,5.31,17.957,17.957,0,0,0-3.105,11.7c.273,2.635.991,5.094,3.11,6.91m-16.773-6.032a1.1,1.1,0,0,0-1.086.5,3.131,3.131,0,0,0,.473,3.577.815.815,0,0,0,.6.225c.233-.027.548.076.619-.252.061-.28.121-.609-.275-.756a1.132,1.132,0,0,1-.669-1.045c-.038-.356-.269-.944.291-1.051s.446.466.515.811a.9.9,0,0,0,.035.16c.167.416.539.351.84.286s.334-.346.195-.592c-.12-.212-.051-.429-.085-.641a1.383,1.383,0,0,0-1.453-1.222" transform="translate(-231.71 -192.464)"/>
    <path id="パス_378" data-name="パス 378" class="cls-3" d="M296.389,31.507a18.428,18.428,0,0,0-.768-2.136,2.091,2.091,0,0,0-2.077-1.305c-1.015-.037-2.036.031-3.048-.038a8.078,8.078,0,0,1-4.282-1.1,13.8,13.8,0,0,1-2.366-2.685,6.583,6.583,0,0,1-.673-1.023,2.118,2.118,0,0,0-1.977-.912.811.811,0,0,0-.839.992c.054.4.166.784.26,1.215-1.454-1.113-1.015-3.053-.082-4.141a8.088,8.088,0,0,1,2.678-1.944,13.3,13.3,0,0,1,6.54-1.028,16.836,16.836,0,0,1,4.615,1.151,4.725,4.725,0,0,1,2.269,1.573c.448.584,1.1,1.023,1.5,1.634a10.335,10.335,0,0,1,1.3,8.717,4.664,4.664,0,0,0-3.048,1.027" transform="translate(-233.464 -14.512)"/>
    <path id="パス_379" data-name="パス 379" class="cls-4" d="M143.639,251.752a11.947,11.947,0,0,0-1.913,3.435,34.758,34.758,0,0,0-2.152,6.035,5.823,5.823,0,0,0-.1,3.132,1.22,1.22,0,0,1,.02.41c-.1,1.972.143,3.934.2,5.9.072,2.31.218,4.621.336,6.93.049.952.061,1.908.121,2.86-.054.086-.15.169-.156.259-.027.358-.236.455-.552.445-.377-.012-.441-.274-.443-.563-.008-.852-.047-1.708.01-2.556.051-.747-.274-1.45-.179-2.191.044-.343-.293-.384-.463-.487-1.542-.928-2.986-2.008-4.441-3.051q-3.784-2.714-7.4-5.667c-1.248-1.014-2.444-2.088-3.695-3.1a1.606,1.606,0,0,1-.7-1.881,27.072,27.072,0,0,0,.512-2.745,6.333,6.333,0,0,0-.348-3.039c-.162-.55-.837-.634-1.3-.882a14.444,14.444,0,0,0-3.376-1.6c-1.6-.38-2.57.549-3.563,1.53-.476.47-.632,1.269-1.508,1.359a.521.521,0,0,1-.512-.209.349.349,0,0,1,0-.515c1.227-1.4,2.345-2.946,4.334-3.346a4.149,4.149,0,0,1,2.495.345,11.29,11.29,0,0,1,1.972.925c.248.171.6.289.381-.279a.456.456,0,0,1,.22-.538.652.652,0,0,1,.763.065c.1.095.237.2.259.312.376,1.977,2.078,2.659,3.5,3.6q5.065,3.351,10.139,6.687c.4.267.782.579,1.2.812s.714.441.371.935c-.3.439-.614.253-.958.024q-4.932-3.295-9.876-6.572c-.833-.553-1.682-1.082-2.523-1.623-.186-.12-.412-.28-.593-.129-.1.083-.09.366-.047.539a7.792,7.792,0,0,1-.381,4.376c-.142.425-.111.639.192.9a173.423,173.423,0,0,0,14.736,11.289,1.2,1.2,0,0,0,.608.273c-.315-2.353-.182-4.721-.484-7.065-.09-.7.086-1.442-.02-2.14-.536-3.525.906-6.6,2.153-9.716a25.959,25.959,0,0,1,2.122-4.193c.226-.36.44-.779.926-.539.47.232.209.646.089,1a.717.717,0,0,0,.007.246" transform="translate(-93.436 -209.057)"/>
    <path id="パス_380" data-name="パス 380" class="cls-4" d="M73.866,355.058a4.651,4.651,0,0,1-.289-3.232,1.1,1.1,0,0,0-.25-.91q-3.612-5.831-7.242-11.652c-.22-.352-.45-.721-.033-.988.454-.291.788-.011,1.058.427q3.569,5.783,7.168,11.548a2,2,0,0,1,.387,1.989,3.28,3.28,0,0,0,.541,2.861c.07.108.073.261.26.25,1.1-.068,2.163.4,3.313.318-.487-.691-.947-1.329-1.389-1.979a3.211,3.211,0,0,1-.414-.774,1.539,1.539,0,0,1,.2-1.754,1.452,1.452,0,0,1,1.749-.04,13.154,13.154,0,0,1,1.506.939.525.525,0,0,1,.176.786.566.566,0,0,1-.866.115c-.359-.245-.7-.52-1.051-.772a.427.427,0,0,0-.535-.041c-.185.169-.115.4.017.593a10.077,10.077,0,0,0,1.213,1.737c.2.189.51.38.542.6.16,1.109,1.1.861,1.77,1.084a.458.458,0,0,0,.39-.047c.124-.123.045-.3-.041-.444-.3-.516-.588-1.044-.91-1.547-.212-.331-.242-.663.1-.837a.614.614,0,0,1,.906.252c.363.689.837,1.329,1.127,2.045a1.522,1.522,0,0,0,1.418.926,43.81,43.81,0,0,0,5.485.18.521.521,0,0,0,.547-.262c.213-.45.64-.758.989-.436.292.27.063.809-.2,1.185-.521.743-1.364.692-2.107.813a14.982,14.982,0,0,1-3.171-.194c-1.175-.06-2.341-.312-3.512-.468-1.626-.217-3.252-.43-4.88-.63-1.5-.184-3-.335-4.5-.524-1.571-.2-3.137-.438-4.709-.636-1.066-.134-2.139-.22-3.207-.341-.986-.112-1.962-.281-2.954-.367-1.568-.137-3.124-.4-4.684-.621-1.48-.208-2.958-.433-4.439-.636a9.26,9.26,0,0,1-1.6-.191c-.4-.125-.666-.305-.59-.721s.429-.482.818-.428c2.407.332,4.824.605,7.231.906,1.518.19,3.072.423,4.6.679,1.511.252,3.058.38,4.588.564,1.473.177,2.938.41,4.408.608.322.043.65.04,1.06.064" transform="translate(-42.696 -282.282)"/>
    <path id="パス_381" data-name="パス 381" class="cls-4" d="M371.061,242.01c-2.119-1.816-2.836-4.275-3.11-6.91a17.957,17.957,0,0,1,3.105-11.7,31.582,31.582,0,0,1,4.284-5.31c.155-.157.575-.31.212-.633-.261-.232-.529-.147-.8.074a33.092,33.092,0,0,0-5.581,6.1.921.921,0,0,0-.086.307c-.226.087-.27.295-.327.494l.013-.017a16.042,16.042,0,0,0-1.525,2.414c-.211.331-.337.966-.91.648-.473-.263-.326-.7-.073-1.162a31.861,31.861,0,0,1,7.74-9.522c.263-.217.219-.37,0-.593a.49.49,0,0,1,.014-.731.475.475,0,0,1,.672-.034c.453.458.774.141,1.119-.122a5.484,5.484,0,0,0,.446-.327c.383-.37.725-.425,1,.042s-.141.639-.456.85a5.584,5.584,0,0,0-.586.513c.868,1.168,2.093,1.921,3.023,3.007.983,1.148,1.822,2.4,2.8,3.543a1.021,1.021,0,0,1,.241.5c.037.289.109.649-.241.8-.3.13-.515-.1-.686-.325-.788-1.023-1.586-2.038-2.35-3.079a25.983,25.983,0,0,0-2.087-2.193c-.3-.328-.533-.123-.749.115a33.234,33.234,0,0,0-5.184,7A16.83,16.83,0,0,0,369,232.1c-.259,3.133.123,6.162,2.351,8.651a2,2,0,0,0,.349.339c.37.25.917.447.507,1.021-.38.532-.783.185-1.145-.1" transform="translate(-305.548 -179.224)"/>
    <path id="パス_382" data-name="パス 382" class="cls-4" d="M55.442,438.4c.262.118.5.188.507.6a7.7,7.7,0,0,0,1.459,4.414,10.96,10.96,0,0,0,4.958,3.708,29.921,29.921,0,0,0,7.26,1.659c1.97.3,3.943.582,5.922.816,1.371.162,2.754.225,4.131.339,1.943.162,3.884.385,5.83.474.952.044,1.9.162,2.848.187.375.01.753-.014.756.508,0,.463-.324.477-.683.494a39.973,39.973,0,0,1-5.523-.31c-.915-.086-1.841-.118-2.762-.178-2.1-.136-4.184-.439-6.277-.634-1.556-.146-3.106-.347-4.647-.566a31.981,31.981,0,0,1-6.6-1.482,13.61,13.61,0,0,1-5.454-3.481,7.85,7.85,0,0,1-2.236-5.957c.025-.4.252-.474.515-.589" transform="translate(-45.839 -365.958)"/>
    <path id="パス_383" data-name="パス 383" class="cls-4" d="M476.488,307.247c.105,1.43-.944,1.961-1.938,2.507a47.492,47.492,0,0,1-8.143,3.455c-.449.147-.752.182-.933-.249-.218-.52.178-.781.575-.9.969-.294,1.916-.643,2.863-1a45.293,45.293,0,0,0,5.708-2.664,1.357,1.357,0,0,0,.626-1.8c-.95-2.234-1.929-4.456-2.9-6.682q-2.05-4.7-4.1-9.4-.951-2.178-1.9-4.357a8.71,8.71,0,0,1-.39-.975c-.083-.279-.046-.586.295-.663.269-.061.559-.141.73.275.442,1.073.949,2.119,1.414,3.183q1.83,4.186,3.645,8.379c1.213,2.8,2.43,5.593,3.623,8.4a5.291,5.291,0,0,1,.83,2.5" transform="translate(-388.51 -237.46)"/>
    <path id="パス_384" data-name="パス 384" class="cls-3" d="M404.466,43.254c.052-1.141.3-2.268.4-3.384a8.876,8.876,0,0,0-.313-3.695,1.462,1.462,0,0,0-1.022-.843,9.342,9.342,0,0,0-1.829-4.918c.506-.108.879-.518,1.444-.536a4.1,4.1,0,0,1,3.762,2.3c1.044,1.726.594,3.36,0,4.947a16.353,16.353,0,0,0-.788,5.927c0,.394.274.941-.238,1.174-.492.224-.863-.173-1.212-.482a.724.724,0,0,1-.2-.494" transform="translate(-335.324 -24.938)"/>
    <path id="パス_385" data-name="パス 385" class="cls-4" d="M288.928,5.476a9.342,9.342,0,0,1,1.829,4.918,5.78,5.78,0,0,1-.063.9.511.511,0,0,1-.645.434c-.341-.048-.486-.193-.48-.526a8.713,8.713,0,0,0-3.17-6.674,14.335,14.335,0,0,0-3.474-2.131A12.555,12.555,0,0,0,278.1,1.2a12.073,12.073,0,0,0-5.131.829,14.8,14.8,0,0,0-3.982,2.24c-.475.376-.878.812-1.309,1.223-.3.281-.6.46-.909.147s-.138-.636.141-.927A14.75,14.75,0,0,1,275.977.12a14.23,14.23,0,0,1,5.262.3,12.665,12.665,0,0,1,5.716,3c.687.655,1.317,1.368,1.973,2.055" transform="translate(-222.554 0)"/>
    <path id="パス_386" data-name="パス 386" class="cls-4" d="M266.913,55.766c-.073-.316-.442-.676.022-.933.406-.224.7.054.972.36a19.138,19.138,0,0,0,3.4,2.922c.247.171.5.447.92.2a20.213,20.213,0,0,1-1.4-2.132c-.16-.307-.172-.47.055-.7s.407-.183.712-.082c.553.184.628.705.842,1.065a13.841,13.841,0,0,0,2.883,3.287c.995.871,2.242.839,3.423.945,1.145.1,2.307.023,3.461.022.3,0,.628-.037.684.389s-.2.505-.564.621c-1.01.317-2.049,0-3.283.22a8.523,8.523,0,0,0,2.527,1.046,2.894,2.894,0,0,0,1.262.214.575.575,0,0,1,.7.534c.006.4-.3.585-.721.608a9.375,9.375,0,0,1-3.664-.984,11.642,11.642,0,0,1-3.186-1.735c-1.005-.768-2.275-.857-3.37-1.4a19.484,19.484,0,0,1-4.388-3.131,8.536,8.536,0,0,0-1.283-1.329" transform="translate(-222.636 -45.705)"/>
    <path id="パス_387" data-name="パス 387" class="cls-4" d="M348.816,436.545a11.669,11.669,0,0,0,4.007-.589c1.11-.255,2.189-.641,3.284-.961.346-.1.754-.2.92.23s-.075.72-.509.862a27.129,27.129,0,0,1-7.5,1.678,1.534,1.534,0,0,1-1.506-1.022c-.205-.417.425-1.248,1.053-1.475a58.9,58.9,0,0,1,10.391-2.978,9.788,9.788,0,0,1,4.806.176,3.508,3.508,0,0,1,2.361,2.657c.058.242.3.762-.344.8-.452.024-.741,0-.8-.621-.114-1.187-1.224-1.937-2.81-2.027a21.28,21.28,0,0,0-6.432.979c-2.147.542-4.257,1.194-6.353,1.9a.794.794,0,0,0-.565.4" transform="translate(-290.055 -360.686)"/>
    <path id="パス_388" data-name="パス 388" class="cls-4" d="M274.729,138.788c0-.467.02-.935-.005-1.4s.124-.685.645-.7c.578-.021.556.312.512.676a10.212,10.212,0,0,0,.07,2.943,9.121,9.121,0,0,0,1.818,4.616,6.415,6.415,0,0,0,3.329,2.191,7.544,7.544,0,0,0,6.013-1.232,16.431,16.431,0,0,0,2.448-2.128c.269-.261.552-.443.842-.178a.672.672,0,0,1-.041,1.018,11.715,11.715,0,0,1-5.174,3.483c-.589.179-.853.358-.5,1.022a16.387,16.387,0,0,1,.866,2.168.783.783,0,0,1-.084.909c-.149.137-.372.331-.579.163-.264-.214-.566-.34-.621-.83a4.477,4.477,0,0,0-1.257-2.752,2.256,2.256,0,0,0-1.277-.337,6.642,6.642,0,0,1-4.633-2.538,10.234,10.234,0,0,1-2.369-7.089" transform="translate(-229.327 -114.098)"/>
    <path id="パス_389" data-name="パス 389" class="cls-4" d="M142.217,283.029a3.27,3.27,0,0,1-1.784,3.154c-.347.22-.325.451-.126.788,1.27,2.161,2.561,4.308,3.925,6.411,1.344,2.072,2.715,4.124,4.167,6.122.216.3.557.728.075,1.063-.451.313-.743-.035-1-.394a142.994,142.994,0,0,1-7.937-12.288c-.418-.736-.555-.753-1.077-.113a3.185,3.185,0,0,1-.484.545c-.345.264-.724.224-.793-.229-.065-.427-.192-.861.4-1.247a17.094,17.094,0,0,0,2.831-2.126,2.484,2.484,0,0,0-.426-3.845,3.292,3.292,0,0,0-.424-.194c-.456-.2-.37-.609-.251-.9.128-.315.442-.285.773-.15a3.413,3.413,0,0,1,2.132,3.408" transform="translate(-114.468 -233.337)"/>
    <path id="パス_390" data-name="パス 390" class="cls-4" d="M70.221,391.086c-.6-.867-1.852-1.322-2.451-.918a1.424,1.424,0,0,0-.534,1.671,1.573,1.573,0,0,0,1.45,1.108,6.884,6.884,0,0,0,1.315.018.437.437,0,0,1,.514.407.526.526,0,0,1-.311.595,2.965,2.965,0,0,1-4.139-2.347,2.2,2.2,0,0,1,.232-1.478,2.7,2.7,0,0,1,3.974-.576,1.649,1.649,0,0,0,2.164.27,3.135,3.135,0,0,1,3.813,1.416,9.79,9.79,0,0,1,.672,1.565c.26.772.592,1.445,1.479,1.645a.46.46,0,0,1,.319.7.656.656,0,0,1-.937.379,3.812,3.812,0,0,1-2-2.5,6.056,6.056,0,0,0-.6-1.341,2.187,2.187,0,0,0-2.763-.643c-.28.176-.386.325-.1.621a4.284,4.284,0,0,0,1.7,1.24c.364.118.5.291.46.641-.052.422-.366.4-.679.4a3.223,3.223,0,0,1-2.132-1.2c-.183-.519-.653-.817-.958-1.242-.1-.1-.093-.349-.34-.236l.014.018c.058-.169,0-.229-.171-.181Z" transform="translate(-55.131 -324.664)"/>
    <path id="パス_391" data-name="パス 391" class="cls-4" d="M288.672,264.014c-.281.281-.567.549-.995.263-.36-.24-.223-.577-.115-.863.191-.5-.263-.529-.489-.7-.282-.211-.527-.424-.411-.806.138-.454.55-.363.818-.258.392.154.3-.074.348-.281.422-1.669.637-3.383,1.134-5.036a15.915,15.915,0,0,0,.686-2.645,3.207,3.207,0,0,0,.328-.62c.109-.22.32-.5.678-.262.227.151.5.138.355.622a60.475,60.475,0,0,0-1.776,6.648c-.126.68-.284,1.354-.429,2.03-.077.363.25.4.441.479a8.3,8.3,0,0,0,4.068.48,12.253,12.253,0,0,0,3.584-.788,13.273,13.273,0,0,1,2.105-.9c.383-.089.725-.222,1.029.154.244.3.235.56-.12.732a18.634,18.634,0,0,1-5.788,1.842,10.483,10.483,0,0,1-5.02-.352c-.121-.044-.491-.162-.431.258" transform="translate(-239.271 -210.961)"/>
    <path id="パス_392" data-name="パス 392" class="cls-4" d="M404.135,18.9a7.319,7.319,0,0,1,3.992,1.274c1.255.776,1.7,2.078,2.3,3.231a5.459,5.459,0,0,1,.305,2.027c.07,1.879-.751,3.462-1.282,5.149-.317,1.006-.66,2.008-.9,3.033a2.457,2.457,0,0,0,.152,1.592c.216.461.288.976-.232,1.138-.625.195-.807-.415-.923-.88a5.967,5.967,0,0,1,.292-3.454c.476-1.381.944-2.766,1.384-4.158a6.061,6.061,0,0,0-2.77-7.319,3.942,3.942,0,0,0-2.939-.372c-.353.1-.757.2-.9-.372s.225-.757.615-.874a3.263,3.263,0,0,1,.9-.016" transform="translate(-336.067 -15.759)"/>
    <path id="パス_393" data-name="パス 393" class="cls-4" d="M347.6,201.141c-.214-1.444.867-2.2,1.775-2.964q1.518-1.283,3.013-2.592c.551-.481,1.085-.981,1.634-1.464a.737.737,0,0,1,1.061.01c.256.3.07.626-.3.932-1.764,1.463-3.49,2.974-5.2,4.5a2.625,2.625,0,0,0-.23,3.653c.348.48.624.232.913-.057.989-.991,1.988-1.973,2.963-2.977.342-.353.752-.589,1.128-.242.462.426.017.764-.293,1.071A14.389,14.389,0,0,0,352,203.129a3.257,3.257,0,0,1-1.591,1.372,1.5,1.5,0,0,1-2.093-.661,4.618,4.618,0,0,1-.722-2.7" transform="translate(-290.138 -161.862)"/>
    <path id="パス_394" data-name="パス 394" class="cls-4" d="M425.485,294.851a12.019,12.019,0,0,1,1.717-6.023c.041-.07.123-.119.154-.191a.66.66,0,0,1,.977-.286c.288.16.159.562-.017.867a11.8,11.8,0,0,0-1.385,3.311,10.626,10.626,0,0,0,1.739,8.73,11.458,11.458,0,0,0,3.177,3.026c.364.24.96.385.614,1.007-.373.671-1.013.318-1.331.06-2.83-2.3-5.154-4.922-5.494-8.8-.049-.563-.124-1.128-.152-1.7" transform="translate(-355.18 -240.616)"/>
    <path id="パス_395" data-name="パス 395" class="cls-4" d="M282.709,454.14a7.569,7.569,0,0,0-1.7.174c-.551.035-.315.483-.275.684a6.891,6.891,0,0,1-5.659,8.045,4.781,4.781,0,0,1-.534.15c-.312.017-.7.115-.775-.364a.62.62,0,0,1,.542-.773,6.3,6.3,0,0,0,3.214-1.458,6.092,6.092,0,0,0,1.438-7.447c-.1-.238-.236-.479.106-.684.3-.181.606-.258.766.083.436.936,1.285.653,1.913.544a20.7,20.7,0,0,1,2.438-.115c.189-.011.478-.107.463.268-.01.248.115.5-.275.653a3.6,3.6,0,0,1-1.666.239" transform="translate(-228.524 -377.576)"/>
    <path id="パス_396" data-name="パス 396" class="cls-4" d="M383.445,98.9a.724.724,0,0,0,.2.494,4.837,4.837,0,0,1-3.756,5.782,2.839,2.839,0,0,1-2.718-.625c-.217-.19-.641-.308-.337-.784a.627.627,0,0,1,.913-.19,2.462,2.462,0,0,0,3.035.081,3.41,3.41,0,0,0,1.717-2.6,2.768,2.768,0,0,0-3.891-3.025,1.59,1.59,0,0,0-.779.775.854.854,0,0,1-.724.571.56.56,0,0,1-.537-.433.759.759,0,0,1,.287-.936,2.2,2.2,0,0,0,.367-.434,4.664,4.664,0,0,1,3.048-1.027,4.279,4.279,0,0,1,3.169,2.347" transform="translate(-314.303 -80.583)"/>
    <path id="パス_397" data-name="パス 397" class="cls-4" d="M389.187,460.239a2.33,2.33,0,0,1-2.451-1.467c-.173-.361-.241-.232-.5-.189a10.08,10.08,0,0,1-2.166.365c-.332-.016-.677.046-.7-.459a.6.6,0,0,1,.6-.7,15.04,15.04,0,0,0,5.1-1.515c.32-.142.708-.351.9.029a.7.7,0,0,1-.407.949,10.769,10.769,0,0,0-1.159.578c-.235.156-.834.021-.658.5a1.079,1.079,0,0,0,.97.763,4.761,4.761,0,0,0,2.733-.725,4.224,4.224,0,0,0,1.543-1.5c.169-.312.5-.606.878-.386s.374.622.141.994a5.871,5.871,0,0,1-3.062,2.426,3.117,3.117,0,0,1-1.774.339" transform="translate(-320.027 -380.722)"/>
    <path id="パス_398" data-name="パス 398" class="cls-4" d="M42.543,355.355c.114.115.223.234.342.344a.6.6,0,0,1,.138.743.536.536,0,0,1-.728.2c-1.4-.525-2.776-2.992-1.485-4.418.716-.791,2.22-.506,3,.333a4.709,4.709,0,0,1,1.066,3.871c-.03.32-.182.608-.63.577s-.522-.287-.509-.662c.012-.328-.019-.657-.032-.986a2.285,2.285,0,0,0-1.07-2.308c-.27-.192-.6-.327-.894-.03a.816.816,0,0,0-.264.955,2.466,2.466,0,0,0,1.068,1.383" transform="translate(-33.636 -293.634)"/>
    <path id="パス_399" data-name="パス 399" class="cls-4" d="M82.059,342.86c-.038-1.139.855-1.479,1.6-1.922a2.006,2.006,0,0,1,2.3.223,2.484,2.484,0,0,1,.351.345c1,1.033.971,1.461-.2,2.281-.262.184-.582.292-.823.5-.425.363-.675.038-.867-.226-.227-.314.017-.559.279-.74.157-.108.334-.187.5-.289.632-.4.622-.742-.052-1.079-.734-.367-1.227.068-1.713.543-.513.5.019.837.248,1.084a4.055,4.055,0,0,1,.671,1.18c.166.367-.117.635-.405.8a.411.411,0,0,1-.587-.282,5.564,5.564,0,0,0-1.091-1.684,1.643,1.643,0,0,1-.208-.731" transform="translate(-68.499 -284.379)"/>
    <path id="パス_400" data-name="パス 400" class="cls-4" d="M241.5,52.1a4.569,4.569,0,0,1,1.2-3.443c.809-.895,1.824-.83,2.859-.813.237,0,.259.133.243.317a.68.68,0,0,1-.666.682,2.446,2.446,0,0,0-2.477,2.808c.009,1.3.025,2.592,1.034,3.614.264.267.057.509-.164.691a.55.55,0,0,1-.8-.028A3.693,3.693,0,0,1,241.7,53.8c-.116-.593-.4-1.2-.2-1.7" transform="translate(-201.536 -39.935)"/>
    <path id="パス_401" data-name="パス 401" class="cls-4" d="M325.656,477.4c-1.375,0-2.749-.012-4.124.008-.4.006-.722-.077-.748-.514-.031-.5.342-.649.762-.651,2.8-.007,5.609,0,8.413-.006.427,0,.7.195.717.615.019.485-.331.554-.731.552-1.43-.008-2.859,0-4.289,0" transform="translate(-267.777 -397.548)"/>
    <path id="パス_402" data-name="パス 402" class="cls-4" d="M111.99,281.8a7.981,7.981,0,0,1,3.61-6.331c.326-.226.8-.4,1.1.028.324.477-.108.69-.452.929a6.67,6.67,0,0,0-3.1,5.633c-.006.411.236,1-.574.993s-.524-.591-.573-1a2.116,2.116,0,0,1,0-.247" transform="translate(-93.48 -229.752)"/>
    <path id="パス_403" data-name="パス 403" class="cls-4" d="M121,306.557c.111-1.492,1.265-2.927,2.635-4.222a.739.739,0,0,1,1.031.046c.356.365-.047.587-.261.794a6.042,6.042,0,0,0-2.074,3.107c-.124.642-.751,1.479.528,1.772.237.054.185.505.048.736a.67.67,0,0,1-.839.324c-.69-.222-1.068-.936-1.068-2.556" transform="translate(-101.011 -252.222)"/>
    <path id="パス_404" data-name="パス 404" class="cls-4" d="M1.847,328.382c1.609-.171,2.712,1.1,2.489,2.872-.04.32-.218.414-.493.418a.458.458,0,0,1-.519-.412c-.06-.344-.114-.689-.194-1.029a1.1,1.1,0,0,0-1.47-.677c-.254.169-.506.337-.437.7.061.325.235.562.584.567.389,0,.56.2.539.556-.018.325-.236.4-.545.48-.474.116-.972.128-1.206-.255a2.161,2.161,0,0,1-.464-2.092c.345-.8.849-1.3,1.717-1.131" transform="translate(0 -274.094)"/>
    <path id="パス_405" data-name="パス 405" class="cls-4" d="M140.98,403.264a.688.688,0,0,1-.444.927.821.821,0,0,1-.938-.4c-.694-.9-.748-1.291-.2-2.169a1.919,1.919,0,0,1,2.235-.688,2.339,2.339,0,0,1,1.349,1.872,1.825,1.825,0,0,1,0,.411c-.047.315.189.788-.376.84s-.784-.284-.8-.8a.975.975,0,0,0-.53-1.238.712.712,0,0,0-1.016.415c-.291.688.469.561.729.83" transform="translate(-116.056 -334.607)"/>
    <path id="パス_406" data-name="パス 406" class="cls-4" d="M33.216,404.382c.321.357.67.794.162,1.167-.491.359-.94.018-1.209-.443a1.955,1.955,0,0,1,0-2.012,1.678,1.678,0,0,1,1.758-.724,1.979,1.979,0,0,1,1.305,1.677c-.059.6-.406.7-1,.291a2.617,2.617,0,0,1-.158-.36.524.524,0,0,0-.731-.4.474.474,0,0,0-.131.8" transform="translate(-26.621 -335.875)"/>
    <path id="パス_407" data-name="パス 407" class="cls-4" d="M263.673,90.841a11.121,11.121,0,0,0,.232-1.49.486.486,0,0,1,.588-.437c.284.063.618.194.515.59a6.384,6.384,0,0,0,.65,4.365.425.425,0,0,1-.267.606c-.312.077-.66.115-.852-.273a11.865,11.865,0,0,1-.865-3.359" transform="translate(-220.105 -74.212)"/>
    <path id="パス_408" data-name="パス 408" class="cls-3" d="M260.048,60.89a8.533,8.533,0,0,1,1.283,1.329A4.388,4.388,0,0,0,259.583,64a.539.539,0,0,1-.568.377c-.323-.039-.342-.324-.409-.545-.358-1.192.032-1.976,1.442-2.942" transform="translate(-215.771 -50.829)"/>
    <path id="パス_409" data-name="パス 409" class="cls-4" d="M309.5,168.259c-.678-.054-1.136.066-1.578-.177a.5.5,0,0,1-.282-.676c.1-.213.206-.486.653-.4a3.787,3.787,0,0,0,2.96-.471c.274-.185.746-.292.936.061a.688.688,0,0,1-.384.993,4.2,4.2,0,0,1-2.3.669" transform="translate(-256.77 -138.875)"/>
    <path id="パス_410" data-name="パス 410" class="cls-4" d="M321.971,114.558c.2-.346-.167-.937.6-.877.66.052.693.49.629.893-.094.589.588,1.036.206,1.673-.159.265-.263.562-.584.574a.559.559,0,0,1-.579-.557c-.024-.49-.487-.35-.7-.557-.292-.288-.985-.319-.742-.957.236-.622.752-.392,1.173-.191" transform="translate(-267.749 -94.893)"/>
    <path id="パス_411" data-name="パス 411" class="cls-4" d="M318.45,229.887c-.187-.6.177-1.223.382-1.871a.765.765,0,0,1,1.094-.529c.4.186.115.561.056.912a11.765,11.765,0,0,0-.38,2.29c.01.389.051.894-.543.866-.5-.024-.645-.413-.611-.879.016-.219,0-.44,0-.79" transform="translate(-265.788 -189.829)"/>
    <path id="パス_412" data-name="パス 412" class="cls-4" d="M280.662,119.7c-.453.573.079,1.107-.034,1.66-.061.3-.108.519-.448.568s-.638-.053-.667-.389c-.045-.524-.4-.653-.787-.77s-.766-.357-.709-.741c.054-.362.473-.467.866-.413.169.023.4.106.405-.219,0-.374.122-.659.566-.6.536.07.489.635.806.9" transform="translate(-232.075 -99.161)"/>
    <path id="パス_413" data-name="パス 413" class="cls-5" d="M78.2,399.384c.3.426.775.723.958,1.242-.966-.2-1.934-.4-2.9-.612a3.792,3.792,0,0,1-.856-.275.61.61,0,0,1-.32-.831.845.845,0,0,1,.982-.553c.615.042,1.011.656,1.654.6l-.017.034c-.025.138.05.181.171.181l-.014-.018c.031.2.1.333.34.236" transform="translate(-62.633 -332.529)"/>
    <path id="パス_414" data-name="パス 414" class="cls-5" d="M48.151,360.849a2.466,2.466,0,0,1-1.068-1.383.816.816,0,0,1,.264-.955c.29-.3.624-.161.894.03a2.285,2.285,0,0,1,1.07,2.308h-1.16" transform="translate(-39.244 -299.128)"/>
    <path id="パス_415" data-name="パス 415" class="cls-4" d="M301.124,143.752a.446.446,0,0,1,.469.234,6.1,6.1,0,0,0,.634.962c.174.179.047.536-.193.792-.3.318-.535.042-.688-.074a1.516,1.516,0,0,1-.729-1.5.432.432,0,0,1,.508-.41" transform="translate(-250.927 -119.991)"/>
    <path id="パス_416" data-name="パス 416" class="cls-5" d="M146.834,408.8c-.259-.269-1.02-.142-.729-.83a.712.712,0,0,1,1.016-.415.975.975,0,0,1,.53,1.238l-.817.008" transform="translate(-121.909 -340.147)"/>
    <path id="パス_417" data-name="パス 417" class="cls-5" d="M39.1,410.329a.474.474,0,0,1,.131-.8.524.524,0,0,1,.731.4,2.616,2.616,0,0,0,.158.36l-1.02.043" transform="translate(-32.502 -341.822)"/>
    <path id="パス_418" data-name="パス 418" class="cls-4" d="M287.651,343.4a1.383,1.383,0,0,1,1.453,1.222c.034.212-.035.428.085.641.139.246.1.528-.195.592s-.673.13-.84-.286a.9.9,0,0,1-.035-.16c-.069-.345.056-.92-.515-.811s-.33.7-.291,1.051a1.132,1.132,0,0,0,.669,1.045c.4.147.335.476.275.756-.071.328-.386.224-.619.252a.815.815,0,0,1-.6-.225,3.131,3.131,0,0,1-.473-3.577,1.1,1.1,0,0,1,1.086-.5" transform="translate(-238.911 -286.646)"/>
    <path id="パス_419" data-name="パス 419" class="cls-6" d="M382.557,271.139c.057-.2.1-.407.327-.494a.77.77,0,0,1-.327.494" transform="translate(-319.346 -225.925)"/>
    <path id="パス_420" data-name="パス 420" class="cls-6" d="M92.5,403.267c-.235.1-.309-.039-.34-.236.247-.113.24.139.34.236" transform="translate(-76.935 -336.413)"/>
    <path id="パス_421" data-name="パス 421" class="cls-6" d="M91.364,402.292c-.121,0-.2-.043-.171-.181.172-.048.229.012.171.181" transform="translate(-76.121 -335.655)"/>
  </g>
</svg>
