<svg id="グループ_9100" data-name="グループ 9100" xmlns="http://www.w3.org/2000/svg" xmlns:xlink="http://www.w3.org/1999/xlink" width="84.503" height="117.743" viewBox="0 0 84.503 117.743">
  <defs>
    <style>
      .cls-1 {
        fill: none;
      }

      .cls-2 {
        clip-path: url(#clip-path);
      }

      .cls-3 {
        fill: url(#linear-gradient);
      }

      .cls-4 {
        fill: #242021;
      }

      .cls-5 {
        fill: #272324;
      }

      .cls-6 {
        fill: #fcfcfc;
      }

      .cls-7 {
        fill: #d1d3d4;
      }
    </style>
    <clipPath id="clip-path">
      <rect id="長方形_4630" data-name="長方形 4630" class="cls-1" width="84.503" height="117.743"/>
    </clipPath>
    <linearGradient id="linear-gradient" x1="0.5" x2="0.5" y2="1" gradientUnits="objectBoundingBox">
      <stop offset="0" stop-color="#f87537"/>
      <stop offset="1" stop-color="#fba81f"/>
    </linearGradient>
  </defs>
  <g id="グループ_9101" data-name="グループ 9101" class="cls-2">
    <path id="パス_422" data-name="パス 422" class="cls-3" d="M271.572,109.687a19.57,19.57,0,0,1,1.18-2.54c.559.518.94.113,1.225-.3a10.29,10.29,0,0,1,3.195-3.051,7.567,7.567,0,0,1,4.093-1.3,16.961,16.961,0,0,0-4.273,3.79c-.287.384-.437.748-.117,1.072.407.412.8.112,1.111-.231.4-.444.771-.923,1.195-1.346a11.111,11.111,0,0,1,5.979-3.154c-.15.832.7,1.289.769,2.037-.486.331-.448.739-.262,1.243a75.053,75.053,0,0,1,2.569,8.6,91.061,91.061,0,0,1,1.941,10.654c.321,2.785.587,5.566.71,8.362.046,1.05.319,1.251,1.33.812-.1,1.456.209,2.891.217,4.342a15.672,15.672,0,0,1-2.78.652,43.562,43.562,0,0,0-5.1,1.159,8.282,8.282,0,0,1-1.851.193c-.077-.268-.149-.537-.232-.8a.55.55,0,0,0-.774-.332c-.28.088-.609.309-.512.677a57.761,57.761,0,0,1,1.016,6.125,10.965,10.965,0,0,1,.432,3.514l-2.079-.2a9.078,9.078,0,0,0-2.734-.486,45.741,45.741,0,0,0-5.079-.632c-.276-.439-.716-.418-1.151-.41a43.57,43.57,0,0,1,.528-5.2c.127-.768.153-1.54.326-2.316.135-.6-.04-1.361.067-2.077.068-.455.343-1.21-.563-1.349.156-2.462.227-4.931.573-7.379a13.576,13.576,0,0,1,1.718.723c.421.244.794.169.937-.157s.216-.823-.347-1.024a12.032,12.032,0,0,1-1.479-.6,22.793,22.793,0,0,1-5.888-4.349c-.338-.346-.634-.506-1.048-.17a8.988,8.988,0,0,1-.388-2.508c.763-.465.864-1.327,1.211-2.037,1.415-2.886,2.809-5.781,4.223-8.667.215-.44.429-.854.113-1.327m8.8,12.953c-.091-.969-.015-1.936-.153-2.921a16.9,16.9,0,0,0-4.641-9.387c-.439-.469-.984-1.078-1.573-.466-.563.585.188,1.009.569,1.374a15.643,15.643,0,0,1,4.624,10.9,14.21,14.21,0,0,1-.829,5.449c-.147.424-.122.707.312.8.391.084.75.13.95-.464a13.935,13.935,0,0,0,.741-5.288m-4.24,22.272a6.4,6.4,0,0,0,4.106-1.341c.322-.256.807-.505.355-1.063-.4-.493-.731-.273-1.126.017a4.418,4.418,0,0,1-5.561.169.59.59,0,0,0-.853.06.627.627,0,0,0,.026.864,1.474,1.474,0,0,0,.487.444,5.4,5.4,0,0,0,2.566.85" transform="translate(-215.107 -82.883)"/>
    <path id="パス_423" data-name="パス 423" class="cls-3" d="M41.857,303.69a1.185,1.185,0,0,0-.185.869,18.654,18.654,0,0,1-7.074,1.856,26.819,26.819,0,0,1-8.491-.521c-1.992-.464-2.052-.359-2.463-2.372a36.7,36.7,0,0,1-.7-6.447,79.876,79.876,0,0,1,.381-13.1,33.029,33.029,0,0,1,.854-5.526.916.916,0,0,0-.69-1.289l.219-2.3a20,20,0,0,0,6.876,2.124,26.52,26.52,0,0,0,4.95.159,19.192,19.192,0,0,0,7.248-2.049c.432-.237.814-.412.795.394-.087,3.579.156,7.153-.13,10.744-.235,2.948-.412,5.9-.819,8.828-.34,2.449-.595,4.911-1.023,7.344a1.914,1.914,0,0,0,.251,1.285" transform="translate(-18.485 -222.276)"/>
    <path id="パス_424" data-name="パス 424" class="cls-3" d="M169.332,398.69c-.527-.1-.777.723-1.368.41a1.957,1.957,0,0,0,.244-1.27c0-5.065-.051-10.13.03-15.194.024-1.507-.158-2.668-1.791-3.16a6.588,6.588,0,0,1-1.126-.651c-.735-.4-1.5-.757-2.209-1.191-.3-.183-.876-.509-.193-.888,1.809-1,3.612-2.011,5.4-3.057,1.977-1.158,4.023-2.2,6.036-3.293.384-.209.362-.593.283-.924-.1-.411-.512-.251-.718-.192a6.2,6.2,0,0,0-1.282.586c-3.357,1.87-6.726,3.72-10.052,5.643-1.171.677-2.233.916-3.358,0a2.608,2.608,0,0,0-.558-.341c-1.192-.545-2.189-1.488-3.527-1.734.036-.63.785-.651.979-1.145.283.252.345.821.993.478,4.283-2.263,8.715-4.234,12.954-6.583.353-.2.825-.379.765-.947a15.468,15.468,0,0,0,2.466-1.218c2.795-1.369,5.615-2.687,8.412-4.051.491-.24.69-.122.777.372q.961,5.466,1.925,10.931c.618,3.5.707,7.051.974,10.584.136,1.8.339,3.589.519,5.383.027.27.033.549-.234.669-.779.35-1.346,1.08-2.228,1.239a.961.961,0,0,0-1.2.093c-.918.656-1.9,1.225-2.854,1.83q-4.967,3.148-9.937,6.291c-.654.412-.714.826-.124,1.328M178.512,375c-.2-.076-.4.091-.58.188-2.816,1.518-5.617,3.063-8.434,4.579-.451.242-.516.6-.292.925.2.3.461.6,1,.232.9-.613,1.919-1.052,2.88-1.581,1.931-1.063,3.852-2.146,5.789-3.2a.6.6,0,0,0,.356-.769c-.092-.337-.362-.41-.72-.375" transform="translate(-125.46 -291.004)"/>
    <path id="パス_425" data-name="パス 425" class="cls-3" d="M154.031,438.24q.008-.657.016-1.315c.342.154.7.284,1.025.466,3.158,1.76,6.274,3.6,9.487,5.255a2.392,2.392,0,0,1,1.474,2.417q-.009,6.977,0,13.955c0,.595-.027.851-.724.411-2.929-1.85-5.892-3.648-8.869-5.42-.395-.235-.87-.742-1.431-.215-1.224-.468-.986-1.514-.977-2.47a1.076,1.076,0,0,0,.583-1c-.015-3.754-.01-7.509-.006-11.263,0-.422-.079-.762-.578-.82" transform="translate(-124.543 -353.334)"/>
    <path id="パス_426" data-name="パス 426" class="cls-4" d="M17.923,286.866a.916.916,0,0,1,.69,1.289,33.048,33.048,0,0,0-.854,5.526,79.9,79.9,0,0,0-.381,13.1,36.754,36.754,0,0,0,.7,6.447c.411,2.013.471,1.908,2.463,2.372a26.818,26.818,0,0,0,8.491.521,18.655,18.655,0,0,0,7.074-1.856c.251.233.856.009.779.688-.064.563-.383.716-.85.845-.689.19-1.177.347-1.334,1.368-.548,3.546-1.363,7.052-2.078,10.572-.172.847-.392,1.686-.513,2.54-.07.49-.3.838-.738.776s-.666-.351-.536-.963c.656-3.112,1.217-6.244,1.83-9.365.219-1.115.507-2.216.732-3.33.091-.45.135-.8-.607-.561a6.866,6.866,0,0,1-2.87.485c.088,1.616.222,3.178.247,4.742.04,2.486-.132,4.982.048,7.455.165,2.254.085,4.5.148,6.746.012.443.092.945-.609.925-.656-.018-.484-.521-.542-.9-.355-2.338-.056-4.694-.2-7.034-.229-3.709-.16-7.42-.168-11.131,0-.624-.278-.709-.729-.619a7.727,7.727,0,0,1-3.447,0c-.5-.126-.7.139-.612.631.317,1.744.659,3.485.946,5.234s.516,3.513.779,5.268c.331,2.208.638,4.421,1.033,6.617a.743.743,0,0,1-.538.96c-.416.106-.63-.271-.7-.705-.306-1.933-.642-3.86-.948-5.793-.286-1.8-.648-3.6-.863-5.409-.224-1.884-.8-3.708-.861-5.611-.043-1.269-.263-1.446-1.571-1.587a16.3,16.3,0,0,1-2.065-.462c-.441-.107-.867-.385-.616.509a18.8,18.8,0,0,1,.42,2.963c.045.389.03.78-.531.818-.488.034-.542-.262-.624-.643-.485-2.252-.777-4.535-1.154-6.8a58.038,58.038,0,0,1-.72-6.991c-.112-2.573-.07-5.157-.013-7.734a59.52,59.52,0,0,1,.7-7.376,5.915,5.915,0,0,0,.144-2.787,1.986,1.986,0,0,1,1.045-1.734" transform="translate(-12.917 -231.984)"/>
    <path id="パス_427" data-name="パス 427" class="cls-4" d="M153.356,430.986c.561-.527,1.037-.02,1.431.215,2.977,1.772,5.94,3.57,8.87,5.42.7.44.725.184.724-.411q-.007-6.977,0-13.955a2.392,2.392,0,0,0-1.473-2.417c-3.213-1.654-6.329-3.495-9.487-5.255-.327-.182-.683-.312-1.025-.466-.3-.441-.883-.926.177-1.16,1.339.246,2.335,1.189,3.527,1.734a2.6,2.6,0,0,1,.558.341c1.124.915,2.187.676,3.357,0,3.326-1.923,6.7-3.773,10.052-5.643a6.193,6.193,0,0,1,1.282-.586c.206-.059.619-.218.718.192.079.331.1.715-.283.924-2.013,1.1-4.059,2.135-6.036,3.293-1.785,1.046-3.588,2.055-5.4,3.057-.684.379-.107.7.192.888.714.435,1.474.791,2.209,1.192a6.575,6.575,0,0,0,1.126.651c1.633.492,1.815,1.653,1.791,3.16-.081,5.063-.031,10.129-.03,15.194a1.958,1.958,0,0,1-.244,1.27,1.066,1.066,0,0,1-1.02-.085c-2.665-1.666-5.381-3.248-8.066-4.881-.945-.575-1.825-1.258-2.781-1.811-.48-.277-.446-.507-.171-.86" transform="translate(-122.891 -330.527)"/>
    <path id="パス_428" data-name="パス 428" class="cls-4" d="M34.224,293.342a1.914,1.914,0,0,1-.251-1.285c.428-2.433.683-4.9,1.023-7.344.407-2.931.584-5.88.819-8.828.286-3.591.043-7.165.13-10.744.02-.805-.363-.631-.795-.394A19.191,19.191,0,0,1,27.9,266.8a26.52,26.52,0,0,1-4.95-.159,19.994,19.994,0,0,1-6.876-2.124,16.445,16.445,0,0,0-1.768-.751c-.508-.12-.68-.63-.851-1.025a.483.483,0,0,1,.508-.672c.62.031,1.187-.1,1.724.592a5.33,5.33,0,0,0,2.753,1.472,4.993,4.993,0,0,0,2.563.543c.47-.083,1.295.518,2.046.682a16.313,16.313,0,0,0,3.019.138,13.819,13.819,0,0,0,3.636-.356,21.006,21.006,0,0,0,5.215-1.715c1.414-.754,2.051-.372,2.174,1.22a64.608,64.608,0,0,1,.186,7.749c-.131,3.078-.271,6.162-.6,9.224-.385,3.639-.976,7.256-1.465,10.884a.892.892,0,0,1-1,.842" transform="translate(-10.852 -211.928)"/>
    <path id="パス_429" data-name="パス 429" class="cls-4" d="M299.433,343.191a45.745,45.745,0,0,1,5.079.632,9.081,9.081,0,0,1,2.734.486c.1.614-.075.924-.787.977a13.2,13.2,0,0,1-3-.3c-.647-.1-1.172-.463-1.015.747.367,2.827.52,5.68.8,8.519.259,2.618.571,5.229.789,7.853.2,2.462.53,4.915.762,7.378.256,2.711.521,5.42.77,8.132.1,1.045.2,2.1.332,3.145.061.485.629.825.343,1.422-.053.111.328.384.666.389a9.5,9.5,0,0,1,2.509.565c.31.091.783.067.688.566a.731.731,0,0,1-.938.577c-.819-.164-1.628-.378-2.443-.566-.846-.2-1.689-.406-2.542-.567-.473-.09-.75-.3-.754-.8,0-.563.393-.6.791-.544.616.08.59-.309.545-.7-.312-2.733-.652-5.463-.942-8.2-.168-1.591-.228-3.194-.394-4.785-.224-2.143-.56-4.275-.738-6.42-.122-1.47-.229-2.94-.4-4.4a38.994,38.994,0,0,1-.522-5.12c.023-1.527-.643-2.937-.471-4.475a20.284,20.284,0,0,0-.17-2.331c-.006-.6-.474-.91-1.1-.865a.927.927,0,0,1-.961-.416c-.2-.382.149-.632.365-.894" transform="translate(-241.801 -277.533)"/>
    <path id="パス_430" data-name="パス 430" class="cls-5" d="M79.679,166.186c.856-.438.956-.793.394-1.414-1.026-1.134-1.831-2.448-2.927-3.529a.663.663,0,0,1,.06-1,.588.588,0,0,1,.917.118c1.324,1.844,3.049,3.367,4.126,5.427a10.779,10.779,0,0,1,.9,2.373c.216.838,0,1.208-.863,1.114a4.444,4.444,0,0,1-2.871-1.3c-1.3-1.368-1.634-1.393-2.976-.11a5.543,5.543,0,0,1-3.442,1.464c-.534.056-.592-.251-.712-.507a.614.614,0,0,1,.3-.881,1.937,1.937,0,0,1,.9-.19A2.621,2.621,0,0,0,76.067,166a1.1,1.1,0,0,1,1.419-.714c.166-.254.048-.407-.077-.458-1.9-.766-3.805-1.283-5.674.091a1.1,1.1,0,0,1-1.167.031.645.645,0,0,1-.226-.466c.384-.348.445-1.035,1.063-1.116a24.145,24.145,0,0,1,2.8-.642c.7-.013.693-.465.246-.905a4.472,4.472,0,0,1-.619-.7c-.247-.372-.5-.755-.1-1.09.376-.312.755-.1,1.058.259.465.554,1,1.052,1.428,1.636a6.253,6.253,0,0,0,2.073,1.857,2.251,2.251,0,0,1,1.235,2.257c-.032.13.021.178.149.152" transform="translate(-56.879 -129.287)"/>
    <path id="パス_431" data-name="パス 431" class="cls-4" d="M376.123,397.5q0-8.606,0-17.213c0-.981.251-1.166.985-.878a.374.374,0,0,1,.281.4c.008.127.015.255.015.382q-.01,17.069-.034,34.138c0,.481.347,1.256-.664,1.246-1.06-.01-.575-.771-.577-1.246-.016-4.048-.009-8.1-.009-12.145q0-2.343,0-4.686" transform="translate(-304.083 -306.722)"/>
    <path id="パス_432" data-name="パス 432" class="cls-4" d="M410.91,381c-.207-2.091-.484-4.178-.592-6.274-.053-1.038-.285-2.058-.236-3.1a3.421,3.421,0,0,0-.146-1.492c-.125-.315-.214-.895.431-.938.512-.034.854.1.9.78.22,3.355.545,6.7.769,10.058.156,2.344.364,4.689.563,7.032.213,2.5.4,5.008.587,7.512.161,2.117.371,4.234.532,6.354.029.385.141.877-.5.935-.6.055-.55-.393-.695-.789a13.6,13.6,0,0,1-.282-2.8c-.285-1.892-.21-3.836-.434-5.741-.312-2.644-.328-5.311-.724-7.951-.175-1.17-.052-2.392-.176-3.586" transform="translate(-331.438 -298.559)"/>
    <path id="パス_433" data-name="パス 433" class="cls-4" d="M294.906,96.456a11.111,11.111,0,0,0-5.979,3.154c-.424.423-.791.9-1.195,1.346-.312.343-.7.643-1.111.231-.32-.324-.17-.688.117-1.072a16.954,16.954,0,0,1,4.273-3.789,7.563,7.563,0,0,0-4.093,1.3,10.286,10.286,0,0,0-3.195,3.051c-.285.416-.665.821-1.225.3a.557.557,0,0,1-.049-.81,13.085,13.085,0,0,1,1.838-2.213c.162-.165.505-.311.368-.59-.158-.321-.422-.017-.645,0-1.868.155-3.715.14-5.252-1.152-.309-.26-1-.513-.573-1.09.326-.439.793-.229,1.247.047a5.112,5.112,0,0,0,3.307,1.054,11.494,11.494,0,0,0,2.3-.589c.511-.179.99-.328,1.386.108s.75.264,1.163.062a11.75,11.75,0,0,1,7.042-.731c.337.048.73-.066.839.4.113.485-.188.759-.56.981m-9.259.418a1,1,0,0,0,.843-.58,1,1,0,0,0-.843.58m-.358.191c-.316-.049-.54-.085-.6.211-.01.051.082.176.121.174a.532.532,0,0,0,.478-.385" transform="translate(-224.855 -76.716)"/>
    <path id="パス_434" data-name="パス 434" class="cls-3" d="M290.883,7.2a6.073,6.073,0,0,1,4.675,4.889c.189,1.022.2,2.076.3,3.115.044.47-.1.6-.594.465a2.046,2.046,0,0,0-1.579.179c-.482.274-.671.159-.691-.407-.041-1.2-.175-2.4-.18-3.607,0-.639-.214-.77-.82-.805a11.048,11.048,0,0,1-5.156-1.386,1.849,1.849,0,0,1-.915-2.193c1.462-.7,3.029-.31,4.547-.433a.382.382,0,0,0,.415.182" transform="translate(-231.165 -5.677)"/>
    <path id="パス_435" data-name="パス 435" class="cls-4" d="M374.81,143.5c-1.011.439-1.284.239-1.33-.812-.123-2.8-.389-5.578-.71-8.362a91.031,91.031,0,0,0-1.941-10.654,75,75,0,0,0-2.569-8.6c-.186-.5-.224-.912.262-1.243.565,0,.8.311.969.838a52.785,52.785,0,0,1,1.952,5.759c.673,3.31,1.6,6.563,2.1,9.919a24.5,24.5,0,0,0,.816,4.572,10.2,10.2,0,0,1,.049,2.172,28.549,28.549,0,0,1,.236,4.353c-.057.69.344,1.351.169,2.057" transform="translate(-297.703 -92.05)"/>
    <path id="パス_436" data-name="パス 436" class="cls-3" d="M329.185,579.528c-.2.585-.722.488-1.165.56.045-.455.124-.9-.565-.951-1.785-.121-3.569-.268-5.353-.4,1.142-1.854,2.562-3.5,3.85-5.25a4.486,4.486,0,0,0,.933-1.4,40.981,40.981,0,0,1,3.856,1.684c-.392.319-.176.75-.208,1.135-.641.112-1.106.23-.83,1.141a2.18,2.18,0,0,1-.4,2.208.963.963,0,0,0-.112,1.274" transform="translate(-260.479 -462.638)"/>
    <path id="パス_437" data-name="パス 437" class="cls-5" d="M49.657,25.27a1.822,1.822,0,0,0,.217.61c.251.291.445.522,0,.793a.7.7,0,0,1-1-.191,11.128,11.128,0,0,1-1.479-2.7,16.882,16.882,0,0,1-.859-2.8,4.977,4.977,0,0,1,.083-2.013A13.292,13.292,0,0,1,47.9,14.683a11.316,11.316,0,0,1,7.04-5.49A17.087,17.087,0,0,1,59,9a.535.535,0,0,1,.617.564c.026.381-.141.562-.555.6a25.644,25.644,0,0,0-3.132.155,9.583,9.583,0,0,0-7.791,7.821,8.266,8.266,0,0,0,.459,4.74c.294.726.593,1.466.907,2.194-.03.132.045.182.157.2" transform="translate(-37.57 -7.257)"/>
    <path id="パス_438" data-name="パス 438" class="cls-5" d="M181.6,174.666a1.2,1.2,0,0,1-.812,1.2,24.063,24.063,0,0,0-2.3,1.615c-.377.261-.585.241-.886-.058-.346-.344-.235-.63.067-.881.649-.54,1.33-1.043,1.967-1.6.132-.115.646-.088.323-.483-.207-.253-.44-.59-.867-.291-.61.427-1.228.844-1.844,1.263a1.266,1.266,0,0,1-1.69,0c-1.289-.96-2.653-1.826-4.027-2.664-.416-.254-.572-.545-.4-.908.228-.478.733-.4,1.076-.187,1.009.62,1.993,1.284,2.956,1.974a1.973,1.973,0,0,0,2.99-.434c.251-.322.033-.472-.163-.595-1.354-.845-2.2-2.25-3.506-3.156-.381-.264-.97-.655-.5-1.255.491-.627.9-.167,1.329.207q3.012,2.655,5.857,5.488c.217.215.525.394.433.766" transform="translate(-138.334 -135.774)"/>
    <path id="パス_439" data-name="パス 439" class="cls-4" d="M312.933,38.888c1.011-1.425,1.613-1.515,3.065-1.117,1.077.295,1.594,1.349,1.844,2.683.269,1.437-.616,2.121-1.485,2.795a3.225,3.225,0,0,1-3.335.355.789.789,0,0,1-.511-1.134c.21-.46.615-.354,1.048-.138a2.2,2.2,0,0,0,2.753-.706,2.253,2.253,0,0,0-.337-2.345c-.574-.551-1.181-.643-1.7.024-.683.879-1.647.3-2.452.527-.168.048-.283-.252-.347-.491a6.558,6.558,0,0,1-.175-2.414,18.883,18.883,0,0,0-.19-2.922c-.018-.371-.085-.813.5-.817.535,0,.882.3.833.808-.122,1.273.348,2.507.192,3.776a1.462,1.462,0,0,0,.293,1.119" transform="translate(-251.582 -26.837)"/>
    <path id="パス_440" data-name="パス 440" class="cls-3" d="M59.876,30.309a7.764,7.764,0,0,1,8.082-6.838,6.957,6.957,0,0,1-3.873,4.677c-1.393.621-2.975.817-4.209,2.16" transform="translate(-48.421 -18.954)"/>
    <path id="パス_441" data-name="パス 441" class="cls-5" d="M5.846,193.039a5.874,5.874,0,0,1-4.759-2.965A7.49,7.49,0,0,1,.061,187.54c-.066-.4-.2-.976.406-1.077.418-.069.792.022.958.666A5.7,5.7,0,0,0,3.212,190.6a4.424,4.424,0,0,0,4.284.932c1.253-.4,2.525-.748,3.751-1.253a4.451,4.451,0,0,1,1.491-.082c.4,0,.661.1.7.572a.61.61,0,0,1-.554.734c-2.025.079-3.755,1.224-5.709,1.527a8.836,8.836,0,0,1-1.332.01" transform="translate(0 -150.775)"/>
    <path id="パス_442" data-name="パス 442" class="cls-5" d="M227.595,521.827c-.59-.5-.53-.916.124-1.328q4.976-3.133,9.937-6.291c.955-.605,1.936-1.174,2.854-1.831a.96.96,0,0,1,1.2-.093c.243.594-.089.941-.539,1.226-3.665,2.318-7.32,4.651-11.005,6.936a6.577,6.577,0,0,1-2.566,1.381" transform="translate(-183.723 -414.141)"/>
    <path id="パス_443" data-name="パス 443" class="cls-5" d="M174.8,386.446c.06.568-.411.751-.765.947-4.239,2.35-8.671,4.32-12.954,6.583-.648.342-.709-.226-.992-.478-.192-.585.347-.727.645-.87,3.614-1.74,7.119-3.7,10.8-5.316a14.165,14.165,0,0,0,1.765-.992,1.079,1.079,0,0,1,1.506.126" transform="translate(-129.427 -312.212)"/>
    <path id="パス_444" data-name="パス 444" class="cls-5" d="M220.006,154.247a2.331,2.331,0,0,1-2.018-.649,2.2,2.2,0,0,0-1.543-.5,1.344,1.344,0,0,1-1.375-1.068,1.613,1.613,0,0,1,.551-1.828,7.206,7.206,0,0,1,2.754-1.258c.371-.1.859-.226,1.037.337s-.168.782-.638.918a6.891,6.891,0,0,0-1.973.761c-.253.168-.55.3-.418.628s.5.146.765.177c.392.046.586-.334.891-.488.282-.142.5-.413.838-.168.322.233.228.609.174.879-.143.715.283,1.257,1.047,1.1a2.241,2.241,0,0,0,1.907-1.3c.2-.545.576-.778,1.095-.552.647.282.273.756.065,1.1a3.266,3.266,0,0,1-3.159,1.92" transform="translate(-173.861 -120.377)"/>
    <path id="パス_445" data-name="パス 445" class="cls-5" d="M64.38,548.851c.1-.371-.5-.9.21-1.121a.951.951,0,0,1,1.171.54,23.038,23.038,0,0,0,1.481,1.941c.806,1.024,3.474,1.3,4.435.47.258-.223.227-.4-.009-.616-.418-.391-.817-.8-1.219-1.213-.287-.292-.609-.654-.227-1.014a.832.832,0,0,1,1.115.022,29.77,29.77,0,0,0,2.317,2.116c.268.187.211.549-.017.846a4.388,4.388,0,0,1-1.178.933c-2.409,1.16-4.666,1.064-6.706-.816l.017.019c.04-.783-.5-1.241-.969-1.743l.015.016c-.053-.232-.255-.168-.406-.2l.021.018-.051-.2" transform="translate(-51.948 -442.864)"/>
    <path id="パス_446" data-name="パス 446" class="cls-5" d="M369.677,312.346c.181.287.526.34.762.533s.475.439.3.8a.561.561,0,0,1-.73.3c-.708-.318-1.785-.117-1.91-1.317-.04-.38-.412-.2-.626-.208a20.272,20.272,0,0,1-3.383-.166c-.578-.131-1.022-.267-.926-.913s.683-.506,1.074-.437a11.922,11.922,0,0,0,7.576-1.007c.526-.262.991-.643,1.5-.936.4-.226.884-.4,1.2.047.385.544-.212.809-.513,1.035a11.7,11.7,0,0,1-3.453,1.783,1.7,1.7,0,0,0-.872.487" transform="translate(-293.674 -249.692)"/>
    <path id="パス_447" data-name="パス 447" class="cls-5" d="M3.76,134.958c-.71.037-.981-.482-.678-1.09q.877-1.76,1.849-3.471c.618-1.085,1.269-2.192,1.835-3.326.483-.969,1.18-1.889,1.765-2.842a.772.772,0,0,1,1.155-.242c.4.257.233.662.028,1.017-1.083,1.872-2.245,3.705-3.209,5.637a30.493,30.493,0,0,0-1.849,3.443,1.334,1.334,0,0,1-.895.874" transform="translate(-2.393 -100.137)"/>
    <path id="パス_448" data-name="パス 448" class="cls-3" d="M404.258,559.06a2.655,2.655,0,0,0,.192,1.295,1.194,1.194,0,0,0-.54.942,4.718,4.718,0,0,1-4.828,3.648c.226-1.139.438-2.28.687-3.413a4.188,4.188,0,0,0,.079-1.125,10.409,10.409,0,0,0,4.411-1.346" transform="translate(-322.731 -452.103)"/>
    <path id="パス_449" data-name="パス 449" class="cls-5" d="M92.585,26.634c-.443-.042-.725.306-1.081.465-1.051.469-1.107.467-1.564-.688A7.832,7.832,0,0,1,87.3,28.318c-.361.12-.924.626-1.182-.116-.192-.554.094-.839.69-1.079A4.9,4.9,0,0,0,89.9,23.259c.11-.6.4-.89.945-.772.615.134.266.58.245.968a7.59,7.59,0,0,1-1.146,2.958c2.254-.945,2.708-1.465,3.225-3.8a.6.6,0,0,1,.709-.559c.509.007.418.353.439.663a4.185,4.185,0,0,1-1.265,3.2c-.195.212-.572.324-.485.729Z" transform="translate(-69.598 -17.836)"/>
    <path id="パス_450" data-name="パス 450" class="cls-4" d="M214.069,236.743a10.133,10.133,0,0,1-8.582-4.935,3.448,3.448,0,0,1-.391-.834.747.747,0,0,1,.49-.922c.358-.152.518.126.689.443a9.013,9.013,0,0,0,6.1,4.782,7.6,7.6,0,0,0,3.023.009c.516-.093,1.147-.388,1.318.377.145.65-.394.736-.933.9a12.309,12.309,0,0,1-1.717.18" transform="translate(-165.831 -186.005)"/>
    <path id="パス_451" data-name="パス 451" class="cls-5" d="M268.515,140.013c.315.473.1.887-.113,1.327-1.414,2.886-2.808,5.781-4.223,8.667-.348.71-.449,1.572-1.212,2.037-.8-.218-.919-.649-.555-1.388,1.611-3.269,3.218-6.54,4.743-9.85a1.128,1.128,0,0,1,1.36-.793" transform="translate(-212.05 -113.209)"/>
    <path id="パス_452" data-name="パス 452" class="cls-4" d="M150.99,443.8c.5.058.578.4.578.82,0,3.754-.009,7.509.006,11.263a1.076,1.076,0,0,1-.582,1c-.567-.1-.746-.463-.744-1.014q.018-5.562,0-11.125c0-.539.082-.953.742-.945" transform="translate(-121.502 -358.893)"/>
    <path id="パス_453" data-name="パス 453" class="cls-4" d="M365.611,350.451a38.736,38.736,0,0,0,4.82-.62c1.536-.148,3.051-.5,4.585-.691a.773.773,0,0,1,.95.682c.039.571-.358.593-.818.641-1.885.2-3.75.532-5.613.9s-3.778.322-5.627.8c-.391.1-.65-.226-.73-.584a.532.532,0,0,1,.423-.724c.731-.13,1.393-.652,2.011-.394" transform="translate(-293.677 -282.337)"/>
    <path id="パス_454" data-name="パス 454" class="cls-5" d="M289.206,569.322c-2.318,0-3.545,1.232-3.458,3.317a2.709,2.709,0,0,0,.414,1.127c.206.41.358.813-.122,1.058-.449.23-.785-.114-1.024-.461a4.387,4.387,0,0,1,.413-4.787,4.435,4.435,0,0,1,4.647-1.462,13.3,13.3,0,0,1,2.158.542c.322.119.755.249.578.7a.769.769,0,0,1-1.075.491,5.427,5.427,0,0,0-2.532-.525" transform="translate(-230.059 -459.319)"/>
    <path id="パス_455" data-name="パス 455" class="cls-4" d="M114.388,62.038a3.268,3.268,0,0,1-1.474.726c-.229.071-.688.263-.775-.213s-.033-1.179.464-1.242c2.187-.282,2.711-1.94,3.16-3.643.408-1.547.1-3.145.187-4.718.02-.36-.1-.818.486-.856a.7.7,0,0,1,.823.724c.041,2.413.219,4.844-.918,7.112a7.261,7.261,0,0,1-1.738,1.967c-.14-.055-.176.046-.215.143" transform="translate(-90.658 -42.124)"/>
    <path id="パス_456" data-name="パス 456" class="cls-4" d="M362.983,290.711a43.594,43.594,0,0,1,5.1-1.159,15.63,15.63,0,0,0,2.78-.652,31.639,31.639,0,0,0,3.146-.563c.567-.156.944-.1,1.086.417s-.336.718-.731.818c-.86.217-1.734.379-2.6.559-2.35.486-4.706.945-7.05,1.463-1.263.279-1.636.129-1.727-.883" transform="translate(-293.539 -233.112)"/>
    <path id="パス_457" data-name="パス 457" class="cls-5" d="M346.748,306.268a10.968,10.968,0,0,0-.432-3.514,57.846,57.846,0,0,0-1.016-6.125c-.1-.368.232-.59.512-.677a.55.55,0,0,1,.774.332c.083.266.155.535.231.8a39.406,39.406,0,0,0,.639,4.589c.244,1.748.58,3.483.854,5.227a.73.73,0,0,1-.741.893c-.515.048-.642-.3-.59-.744a.969.969,0,0,0-.232-.783" transform="translate(-279.225 -239.295)"/>
    <path id="パス_458" data-name="パス 458" class="cls-5" d="M327.894,10.609c.128.453-.165.918-.2,1.421-.03.486-.077.976-.787.894-.762-.087-.627-.7-.524-1.089a6.754,6.754,0,0,0-.2-3.671,7.143,7.143,0,0,0-3.273-4.151c-.386-.243-1-.438-.65-1,.307-.486.928-.353,1.368-.07A8.344,8.344,0,0,1,327.5,8.061a8.494,8.494,0,0,1,.4,2.548" transform="translate(-260.523 -2.177)"/>
    <path id="パス_459" data-name="パス 459" class="cls-4" d="M289.765,283.829c.907.139.631.895.563,1.35-.107.715.068,1.473-.067,2.077-.174.775-.2,1.548-.326,2.316a43.605,43.605,0,0,0-.528,5.2.8.8,0,0,1-1.071.321c-.392-.137-.3-.525-.276-.825.123-1.333.267-2.665.41-4,.176-1.64.381-3.277.528-4.919.057-.634.091-1.228.768-1.527" transform="translate(-232.926 -229.528)"/>
    <path id="パス_460" data-name="パス 460" class="cls-5" d="M333.1,561.348a41,41,0,0,0-3.856-1.684c-1.13-.523-2.254-1.057-3.391-1.562-.432-.192-1-.3-.789-.932s.722-.462,1.173-.267c2,.865,4,1.729,5.989,2.61.993.439,1.959.938,2.958,1.363.452.192.724.467.524.919-.21.474-.685.409-1.082.254-.52-.2-1.018-.465-1.525-.7" transform="translate(-262.839 -450.215)"/>
    <path id="パス_461" data-name="パス 461" class="cls-5" d="M121.511,121.855c1.117-.091,1,.892,1.192,1.428a22.215,22.215,0,0,1,1,8.136c-.008.393.037.783-.536.8-.546.02-.523-.34-.627-.734-.443-1.675-.1-3.409-.619-5.133-.353-1.18-.453-2.5-.878-3.72-.114-.328-.127-.822.472-.781" transform="translate(-97.833 -98.538)"/>
    <path id="パス_462" data-name="パス 462" class="cls-5" d="M267.315,215.31c.414-.336.71-.176,1.048.169a22.793,22.793,0,0,0,5.888,4.349,11.991,11.991,0,0,0,1.479.6c.563.2.489.7.347,1.024s-.517.4-.937.157a13.55,13.55,0,0,0-1.718-.723,28.46,28.46,0,0,1-5.926-4.354.817.817,0,0,1-.181-1.226" transform="translate(-216.01 -173.968)"/>
    <path id="パス_463" data-name="パス 463" class="cls-5" d="M74.412,117.3a5.6,5.6,0,0,1-5.128-2.871c-.305-.477-.482-.969.294-1.265.532-.2.514-.251.661.346.22.891,2.158,2.277,3.173,2.417,1.19.165,2.136-.469,3.185-.773.381-.11.792-.727,1.161-.1.386.651.275,1.146-.6,1.423a12.956,12.956,0,0,1-2.556.82l-.193.006" transform="translate(-55.819 -91.399)"/>
    <path id="パス_464" data-name="パス 464" class="cls-5" d="M279.218,1.344c-1.518.123-3.085-.269-4.547.433a1.474,1.474,0,0,0-1.321,1.116c-.073.27-.164.6.23.819.462.258.434.632.1,1.02S273.1,5,272.742,4.7C271.4,3.588,271.781,1.8,273.6.77,275.3-.2,277.17,0,279,.058c.586.02.705.546.615,1.077-.147.045-.331.018-.4.209" transform="translate(-219.915 0)"/>
    <path id="パス_465" data-name="パス 465" class="cls-4" d="M302.812,605.95c1.784.136,3.568.283,5.353.4.689.047.61.5.565.951a7.565,7.565,0,0,1-3.656.136c-1.348-.181-2.7-.017-4.045-.292-.661-.136-1.371-.053-2.056-.205-.433-.1-.728-.311-.725-.719,0-.491.442-.4.785-.448,1.272-.162,2.512.3,3.779.172" transform="translate(-241.188 -489.855)"/>
    <path id="パス_466" data-name="パス 466" class="cls-5" d="M391.021,570.3a4.718,4.718,0,0,0,4.828-3.648,1.194,1.194,0,0,1,.54-.942c.523-.083.82-.006.777.671a5.361,5.361,0,0,1-2.839,4.309,6.488,6.488,0,0,1-3.913.991,1.887,1.887,0,0,1-.791-.244c-.289-.152-.572-.339-.5-.722.081-.415.429-.389.751-.391.381,0,.763-.016,1.144-.024" transform="translate(-314.67 -457.463)"/>
    <path id="パス_467" data-name="パス 467" class="cls-4" d="M435.441,298.676c0,1.592,0,2.864,0,4.135a1.479,1.479,0,0,1-.057.655.753.753,0,0,1-.828.494c-.411-.077-.461-.352-.459-.7.01-2.817-.036-5.633.178-8.447a.56.56,0,0,1,.572-.578.643.643,0,0,1,.694.7c-.242,1.355.013,2.712-.1,3.742" transform="translate(-351.046 -237.945)"/>
    <path id="パス_468" data-name="パス 468" class="cls-3" d="M72.159,564.913c2.04,1.881,4.3,1.976,6.706.816.394.5.332,1.26.918,1.658a7.419,7.419,0,0,1-4.512.5,1.43,1.43,0,0,0-1.183.29l-.345.009c-.057-.144-.118-.287-.17-.432-.363-1-1.214-1.759-1.413-2.841" transform="translate(-58.354 -456.836)"/>
    <path id="パス_469" data-name="パス 469" class="cls-5" d="M113.811,540.694a1.57,1.57,0,0,1-.8,1.44.739.739,0,0,1-1.033-.072c-.266-.342-.141-.663.2-.97.623-.553.558-1.019-.178-1.687-.76-.689-1.811-.719-2.685-1.156a3.882,3.882,0,0,0-.6-.217c-.588-.181-.881-.64-.629-1.146.184-.368.734-.251,1.1-.071a24.835,24.835,0,0,1,3.333,1.365,2.825,2.825,0,0,1,1.284,2.514" transform="translate(-87.34 -433.976)"/>
    <path id="パス_470" data-name="パス 470" class="cls-4" d="M170.7,218.807a4.233,4.233,0,0,0,2.018-.3c.356-.193.98-.319,1.227.289s-.313.811-.688.926a6.711,6.711,0,0,1-5.42-.16c-.547-.3-.7-.654-.372-1.211.22-.372.379-.778.589-1.156a.592.592,0,0,1,.816-.27c.281.149.6.356.48.816-.281,1.059-.269,1.062.873,1.063h.477" transform="translate(-135.286 -175.368)"/>
    <path id="パス_471" data-name="パス 471" class="cls-5" d="M125.269,215.007a26.544,26.544,0,0,1-.443,3.547,6.775,6.775,0,0,0-.139,2.354c.045.525-.209.737-.729.75-.473.012-.881-.044-.789-.633a26.684,26.684,0,0,1,.415-3.671c.236-.785.092-1.611.344-2.382.13-.4-.021-.986.719-.97.786.017.587.575.622,1.005" transform="translate(-99.595 -173.059)"/>
    <path id="パス_472" data-name="パス 472" class="cls-5" d="M398.677,551.767a10.409,10.409,0,0,1-4.411,1.346,11.421,11.421,0,0,1-1.558-.245.73.73,0,0,1-.51-.9c.092-.473.481-.506.812-.408,2.034.6,3.765-.17,5.421-1.2.486-.3.881-.549,1.278.033.432.635-.27.682-.531.95a6.259,6.259,0,0,1-.5.422" transform="translate(-317.15 -444.81)"/>
    <path id="パス_473" data-name="パス 473" class="cls-5" d="M66.875,61.534a2.82,2.82,0,0,1-2.648-2.2,2.786,2.786,0,0,1,1.522-2.468,2.572,2.572,0,0,1,1.765-.037c.608.192.286.618-.014.946-.184.2-.412.11-.622.145-.7.115-1.365.453-1.292,1.2a1.21,1.21,0,0,0,1.4,1.088c.758-.075.994.274.834.95-.126.534-.582.366-.944.376" transform="translate(-51.918 -45.842)"/>
    <path id="パス_474" data-name="パス 474" class="cls-5" d="M162.961,194.76c.578-.3.7.4,1.061.624,1.227.768,2.4,1.621,3.594,2.441.128.088.3.15.373.271.191.319.652.624.257,1.048a.764.764,0,0,1-1.1.011c-1.236-.877-2.5-1.718-3.726-2.606a8.066,8.066,0,0,0-.861-.5.768.768,0,0,1-.46-.936c.118-.374.469-.367.862-.35" transform="translate(-131.056 -157.439)"/>
    <path id="パス_475" data-name="パス 475" class="cls-4" d="M82.192,577.826a1.429,1.429,0,0,1,1.183-.29,7.42,7.42,0,0,0,4.512-.5,4.718,4.718,0,0,1,.716-.185c.3-.032.583.053.653.408a.612.612,0,0,1-.289.743,9.414,9.414,0,0,1-6.1.778.782.782,0,0,1-.677-.953" transform="translate(-66.458 -466.485)"/>
    <path id="パス_476" data-name="パス 476" class="cls-5" d="M157.36,167.692a.508.508,0,0,1-.207.363,48.759,48.759,0,0,1-4.383,3.568c-.334.215-.685.308-.955-.161-.21-.364-.086-.592.194-.825,1.37-1.145,2.745-2.285,4.1-3.454.324-.28.653-.176.982-.152s.247.308.274.661" transform="translate(-122.686 -135.045)"/>
    <path id="パス_477" data-name="パス 477" class="cls-5" d="M61.778,556.719c.2,1.082,1.051,1.84,1.413,2.841.053.146.113.288.17.432-.832.859-1.034.789-1.562-.25-.659-1.3-1.41-2.545-2.135-3.806-.54-.938-.511-1.009.593-1.155l.2.046-.021-.018c.09.16.15.377.406.2L60.826,555a2.591,2.591,0,0,0,.969,1.743Z" transform="translate(-47.972 -448.643)"/>
    <path id="パス_478" data-name="パス 478" class="cls-5" d="M27.32,228.719c-.516-.964.29-1.828.207-2.78a.8.8,0,0,1,.851-.9c.728.024.326.6.462.918.444,1.04-.475,2.029-.07,3.131.139.379-.325,1.065-.415,1.65a.545.545,0,0,1-.663.409.845.845,0,0,1-.594-.761c-.073-.583.422-1.078.223-1.665" transform="translate(-21.907 -181.983)"/>
    <path id="パス_479" data-name="パス 479" class="cls-4" d="M245.676,144.015a4.8,4.8,0,0,1,4.007,1.793c.291.332.4.715.005.976-.3.2-.717.377-1.025-.09a3.075,3.075,0,0,0-3.077-1.336,4.113,4.113,0,0,1-.667,0,.729.729,0,0,1-.745-.8c0-.562.4-.549.8-.545.254,0,.509,0,.7,0" transform="translate(-197.46 -116.458)"/>
    <path id="パス_480" data-name="パス 480" class="cls-5" d="M266.184,43.194c.11-.573.088-.787-.385-.845a.706.706,0,0,1-.7-.839c.091-.554.529-.474.892-.458.815.037,1.613.245,2.441.205a.62.62,0,0,1,.649.673.71.71,0,0,1-.781.66c-.315.006-.883-.214-.665.508.157.521.345,1.05-.1,1.5a.527.527,0,0,1-.707-.023,2.407,2.407,0,0,1-.639-1.382" transform="translate(-214.369 -33.187)"/>
    <path id="パス_481" data-name="パス 481" class="cls-4" d="M119.733,33.077a2.75,2.75,0,0,0,2.877-2.3c.124-.648.435-.839,1.02-.751.654.1.328.623.314.907a3.949,3.949,0,0,1-2.89,3.292c-1.209.257-1.6-.09-1.3-1.162l-.019.018" transform="translate(-96.765 -24.262)"/>
    <path id="パス_482" data-name="パス 482" class="cls-5" d="M237.565,212.264a7.191,7.191,0,0,1-1.593-.828,21.43,21.43,0,0,0-2.388-1.219.619.619,0,0,1-.439-.726c.058-.422.386-.443.716-.444a1.389,1.389,0,0,1,.719.166c1.172.645,2.349,1.283,3.555,1.86.452.216.4.54.34.859-.059.342-.363.4-.911.333" transform="translate(-188.532 -169.052)"/>
    <path id="パス_483" data-name="パス 483" class="cls-5" d="M44.8,108.057c.344-.028.582.078.632.431.056.4.009.816-.393.979a21.042,21.042,0,0,0-2.585,1.6c-.3.175-.782.605-1.1-.057-.238-.5-.139-.831.407-1.132a24.426,24.426,0,0,0,2.369-1.588.9.9,0,0,1,.668-.232" transform="translate(-33.349 -87.378)"/>
    <path id="パス_484" data-name="パス 484" class="cls-5" d="M358.336,591.442a.963.963,0,0,1,.113-1.274,2.18,2.18,0,0,0,.4-2.208c-.276-.91.189-1.029.83-1.141a3.524,3.524,0,0,1-.255,4.218,1.051,1.051,0,0,1-1.092.4" transform="translate(-289.629 -474.552)"/>
    <path id="パス_485" data-name="パス 485" class="cls-4" d="M100.119,60.1c-.042-.638.232-1.187.219-1.793a.651.651,0,0,1,1.137-.3c.273.439.573.377.93.4.227.017.546-.11.577.291.024.312.081.655-.288.82a2.607,2.607,0,0,0-1.5,1.259.609.609,0,0,1-.706.166.728.728,0,0,1-.365-.845" transform="translate(-80.95 -46.715)"/>
    <path id="パス_486" data-name="パス 486" class="cls-5" d="M260.8,60.018c.274-.009.537.056.59.353a.64.64,0,0,1-.4.834c-.183.07-.572.077-.514.418.039.228.311.261.53.326.562.166.459.64.347,1.013-.132.44-.543.373-.88.269a1.617,1.617,0,0,1,.33-3.213" transform="translate(-209.525 -48.535)"/>
    <path id="パス_487" data-name="パス 487" class="cls-5" d="M57.282,181.74c.073.576-.039.791-.327.865a.75.75,0,0,1-.928-.407,23.463,23.463,0,0,0-.976-2.588.524.524,0,0,1,.231-.741c.328-.141.8-.224.948.127a9.747,9.747,0,0,1,1.052,2.743" transform="translate(-44.464 -144.551)"/>
    <path id="パス_488" data-name="パス 488" class="cls-5" d="M272.73,81.67a.7.7,0,0,1-.648-.626c-.067-.4.082-.689.539-.715a1.935,1.935,0,0,0,1.582-.788c.162-.228.322-.534.638-.167.246.285.737.473.351,1a3.694,3.694,0,0,1-2.462,1.293" transform="translate(-220.016 -64.05)"/>
    <path id="パス_489" data-name="パス 489" class="cls-5" d="M96.147,87.869a3.026,3.026,0,0,1-1.6-.619c-.259-.237-.7-.472-.332-.926.306-.375.683-.6,1.138-.184a1.209,1.209,0,0,0,.927.38c.43-.035.778.009.687.587-.074.471-.2.873-.823.762" transform="translate(-76.078 -69.48)"/>
    <path id="パス_490" data-name="パス 490" class="cls-5" d="M117.639,77.021c.66.023.785.275.795.691.011.471-.323.611-.641.641-.508.047-.483-.392-.5-.733-.013-.368.141-.609.342-.6" transform="translate(-94.855 -62.286)"/>
    <path id="パス_491" data-name="パス 491" class="cls-6" d="M309.977,6.14c.07-.192.255-.164.4-.209q.007.2.013.392a.382.382,0,0,1-.415-.182" transform="translate(-250.673 -4.796)"/>
    <path id="パス_492" data-name="パス 492" class="cls-6" d="M97.186,135.333l.193-.006-.093.222-.1-.216" transform="translate(-78.593 -109.437)"/>
    <path id="パス_493" data-name="パス 493" class="cls-6" d="M64.408,554.189l-.2-.046.147-.151.051.2" transform="translate(-51.926 -448.005)"/>
    <path id="パス_494" data-name="パス 494" class="cls-6" d="M118.506,192.224c-.128.026-.181-.022-.149-.152l.149.152" transform="translate(-95.707 -155.326)"/>
    <path id="パス_495" data-name="パス 495" class="cls-6" d="M62.481,93.295c-.112-.021-.187-.071-.157-.2l.157.2" transform="translate(-50.395 -75.282)"/>
    <path id="パス_496" data-name="パス 496" class="cls-6" d="M124.036,103.42c.039-.1.075-.2.215-.143l-.215.143" transform="translate(-100.306 -83.506)"/>
    <path id="パス_497" data-name="パス 497" class="cls-5" d="M313.374,152.718a13.934,13.934,0,0,1-.741,5.288c-.2.594-.559.548-.95.464-.434-.093-.458-.376-.312-.8a14.21,14.21,0,0,0,.829-5.449,15.645,15.645,0,0,0-4.624-10.9c-.381-.365-1.132-.789-.569-1.374.589-.612,1.134,0,1.573.466a16.9,16.9,0,0,1,4.641,9.387c.139.985.062,1.952.153,2.921" transform="translate(-248.108 -112.961)"/>
    <path id="パス_498" data-name="パス 498" class="cls-5" d="M305.287,312.827a5.4,5.4,0,0,1-2.566-.85,1.474,1.474,0,0,1-.487-.444.627.627,0,0,1-.026-.864.59.59,0,0,1,.853-.059,4.418,4.418,0,0,0,5.561-.169c.4-.291.726-.511,1.126-.017.452.558-.033.807-.355,1.063a6.4,6.4,0,0,1-4.106,1.341" transform="translate(-244.261 -250.799)"/>
    <path id="パス_499" data-name="パス 499" class="cls-5" d="M237.435,438.952c.358-.035.628.039.72.375a.6.6,0,0,1-.356.769c-1.937,1.052-3.858,2.135-5.789,3.2-.96.529-1.978.968-2.879,1.581-.54.368-.8.069-1-.232-.224-.33-.159-.682.292-.925,2.817-1.515,5.619-3.06,8.434-4.579.181-.1.376-.265.58-.188" transform="translate(-184.383 -354.958)"/>
    <path id="パス_500" data-name="パス 500" class="cls-5" d="M317.76,102.914a1,1,0,0,1,.843-.58,1,1,0,0,1-.843.58" transform="translate(-256.967 -82.756)"/>
    <path id="パス_501" data-name="パス 501" class="cls-6" d="M313.356,106.221a.532.532,0,0,1-.478.385c-.039,0-.13-.123-.121-.174.058-.3.282-.261.6-.211" transform="translate(-252.922 -85.872)"/>
    <path id="パス_502" data-name="パス 502" class="cls-7" d="M68.152,557.648a2.591,2.591,0,0,1-.969-1.743c.466.5,1.009.96.969,1.743" transform="translate(-54.33 -449.552)"/>
    <path id="パス_503" data-name="パス 503" class="cls-7" d="M65.545,555.131c-.256.174-.316-.044-.406-.2.152.035.353-.029.406.2" transform="translate(-52.677 -448.761)"/>
  </g>
</svg>
