<svg xmlns="http://www.w3.org/2000/svg" xmlns:xlink="http://www.w3.org/1999/xlink" width="138.175" height="139.5" viewBox="0 0 138.175 139.5">
  <defs>
    <style>
      .cls-1 {
        fill: none;
      }

      .cls-2 {
        clip-path: url(#clip-path);
      }

      .cls-3 {
        fill: #6170e2;
      }

      .cls-4 {
        fill: #d1d3d4;
      }

      .cls-5 {
        fill: #242021;
      }

      .cls-6 {
        fill: #282424;
      }

      .cls-7 {
        fill: #262223;
      }

      .cls-8 {
        fill: #6561e2;
      }
    </style>
    <clipPath id="clip-path">
      <rect id="長方形_4583" data-name="長方形 4583" class="cls-1" width="88.175" height="106.157"/>
    </clipPath>
  </defs>
  <g id="グループ_9130" data-name="グループ 9130" transform="translate(5823 678.965)">
    <g id="グループ_9129" data-name="グループ 9129" transform="translate(-5863.913 -3172)">
      <g id="グループ_9040" data-name="グループ 9040" transform="translate(90.913 2526.379)">
        <g id="グループ_8988" data-name="グループ 8988" class="cls-2">
          <path id="パス_21" data-name="パス 21" class="cls-3" d="M108.826,138.764c-.171,1.653-.328,3.309-.518,4.96-.243,2.113-.469,4.23-.782,6.332-.407,2.735-.839,5.467-1.354,8.18q-1.107,5.831-2.667,11.549a115.637,115.637,0,0,1-3.836,11.664,69.485,69.485,0,0,1-7.5,14.637c-1.7,2.436-3.253,5-5.091,7.327q-.583.739-1.17,1.474a.652.652,0,0,1-.9.2.773.773,0,0,1-.3-.982c.333-.883.658-1.772.942-2.675a6.753,6.753,0,0,0,.316-2.825,3.712,3.712,0,0,0-2.421-3.1,8.242,8.242,0,0,0-5.6-.5,25.27,25.27,0,0,0-8.3,4.175,6.035,6.035,0,0,0-2.181,2.844,6.241,6.241,0,0,0,.406,4.528c.463,1.143.994,2.255,1.451,3.4,1.092,2.736.356,4.544-1.953,6.086a24.721,24.721,0,0,1-7.385,2.912,23.283,23.283,0,0,1-6.883.988,19.485,19.485,0,0,1-7.56-1.782,31.3,31.3,0,0,1-7.74-4.985c-.911-.795-1.745-1.685-2.675-2.448a1.868,1.868,0,0,1-.595-2.1,51.949,51.949,0,0,1,4.584-12.671,38.929,38.929,0,0,1,3.734-5.917,37.818,37.818,0,0,1,4.813-5.081,42.728,42.728,0,0,1,9.06-5.584c2.543-1.306,5.012-2.774,7.441-4.317,2.083-1.324,4.136-2.7,6.125-4.179a93.562,93.562,0,0,0,7.492-6.155c1.843-1.694,3.635-3.442,5.329-5.305a39.6,39.6,0,0,0,5.146-7.363,39.294,39.294,0,0,1,6.883-9.285,3.167,3.167,0,0,1,1.17-.854,16.9,16.9,0,0,0,.066,3.334,11.754,11.754,0,0,0,2.321,5.313c.242.32.474.579.883.419s.452-.55.391-.943a9.7,9.7,0,0,1-.014-2.546,16.554,16.554,0,0,1,4.56-10.048,11.528,11.528,0,0,1,2.634-2.091c.139-.078.311-.313.411.065a24.913,24.913,0,0,0,1.269,3.336m-51.6,64.816a7.916,7.916,0,0,0,3.049-.424,4.728,4.728,0,0,0,3.4-3.759c.356-1.889-.195-3.772-2.374-4.3a5.916,5.916,0,0,0-3,.094,11.352,11.352,0,0,0-6.939,5.284c-.1.169-.239.343-.143.579s.139.534.436.573a.886.886,0,0,0,.877-.5A9.621,9.621,0,0,1,54.5,198.74c1.771-1.483,3.688-2.607,6.029-2.4a2.027,2.027,0,0,1,1.938,2.538,3.742,3.742,0,0,1-2.438,2.947,10.2,10.2,0,0,1-4.1.387c-.47-.011-.86.2-.874.631a.733.733,0,0,0,.855.743c.436-.022.873,0,1.309,0" transform="translate(-30.134 -117.085)"/>
          <path id="パス_22" data-name="パス 22" class="cls-4" d="M447.264,59.195c-.025-.579.665-.766.64-1.346.388.244.662.086.94-.244a4.16,4.16,0,0,1,.494-.665,1.829,1.829,0,0,1,2.072-.1c.643.282.895.082.992-.63a15.417,15.417,0,0,0,.107-2.241,2.513,2.513,0,0,1,.178-1.129c2.04,1.581,4.207,2.072,6.572.89.109.528.655.767.75,1.3a.736.736,0,0,0,.179,1.282,2.4,2.4,0,0,1,.714.507,4.776,4.776,0,0,1,1.088,2.682c.058.36.113.742.456.876s.541-.207.762-.423a5.5,5.5,0,0,1-.9,4.466,2.774,2.774,0,0,0-.158,2.423.812.812,0,0,0,.7.663c-.147.571.078.949.636.933a1,1,0,0,1,1.08.8,1.294,1.294,0,0,1-.373,1.445,2.781,2.781,0,0,1-1.749.708,3.717,3.717,0,0,1-3.054-1.651A14.476,14.476,0,0,1,457.1,65.91a12.656,12.656,0,0,1-.963-2.894c-.118-.823-.46-1.036-1.152-.684a14.15,14.15,0,0,0-3.76,2.782,17.57,17.57,0,0,0-4.728,9.2,8.481,8.481,0,0,1-.46,2.143c-.264-.63-.459-1.27-.656-1.91a8.211,8.211,0,0,1-.329-3.66,10.476,10.476,0,0,1,4.309-7.4.708.708,0,0,0,.306-1.012c-.268-.446-.6-.382-1.01-.1a11.824,11.824,0,0,0-3.324,3.646c-.611,0-.855.618-1.3.9a1.967,1.967,0,0,1-1.109.476c-.1-1.9-.518-2.358-2.286-2.848a4.987,4.987,0,0,0-2.9.337,18.415,18.415,0,0,0-4.546,2.417,35.308,35.308,0,0,1,.468-3.777c.67-.525.669-.907,0-1.394-.239-.174-.472-.356-.7-.542-1.849-1.487-1.642-3.367.2-5.165a3.816,3.816,0,0,0,.39,1.865c1.222,2.944,3.664,3.925,6.353,4.242a10.355,10.355,0,0,0,7.091-1.879c.65-.437.725-.74.28-1.45" transform="translate(-377.704 -45.755)"/>
          <path id="パス_23" data-name="パス 23" class="cls-5" d="M28.495,342.571a35.707,35.707,0,0,1-11.177-1.684,45.74,45.74,0,0,1-7.141-2.987c-1.84-.939-3.733-1.761-5.57-2.706A11.7,11.7,0,0,1,1.531,333,5.533,5.533,0,0,1,.01,329.286a13.19,13.19,0,0,1,1.287-5.92c1.655-3.746,3.266-7.509,4.784-11.322A22.15,22.15,0,0,1,9.3,306.557a38.492,38.492,0,0,1,9.2-8.057q3.158-2.111,6.466-3.934c3.16-1.735,6.335-3.442,9.472-5.223a75.22,75.22,0,0,0,7.945-5.066,48.32,48.32,0,0,0,4.551-3.864,33.552,33.552,0,0,0,5.552-6.918.81.81,0,0,1,.829-.456c.257.025.326.169.439.371a.656.656,0,0,1-.12.707,35.707,35.707,0,0,1-5.77,7.251,50.881,50.881,0,0,1-7.851,6.14c-1.834,1.172-3.693,2.3-5.6,3.343-2.981,1.635-5.973,3.247-8.936,4.921a80.16,80.16,0,0,0-8.676,5.532,49.125,49.125,0,0,0-4.658,3.912,23.665,23.665,0,0,0-5.317,8.392c-1.047,2.571-2.051,5.161-3.235,7.669a25.451,25.451,0,0,0-2.028,5.244,8.591,8.591,0,0,0-.234,3.381,4.345,4.345,0,0,0,2.176,3.046,62.523,62.523,0,0,0,6.782,3.48c1.673.8,3.32,1.656,5.04,2.335A35.1,35.1,0,0,0,20.6,340.4a38.3,38.3,0,0,0,5.024.745,33.9,33.9,0,0,0,5.2-.058,32.014,32.014,0,0,0,7.05-1.33,36.361,36.361,0,0,0,12.91-7.108c1.113-.944,2.127-2.005,3.179-3.022.256-.247.428-.594.685-.838.3-.287.675-.474,1.032-.091s.2.757-.116,1.1a39.46,39.46,0,0,1-9.085,7.56,38.639,38.639,0,0,1-7.771,3.5,35.922,35.922,0,0,1-5.949,1.422,27.993,27.993,0,0,1-4.267.283" transform="translate(0 -236.419)"/>
          <path id="パス_24" data-name="パス 24" class="cls-5" d="M481.457,192.22c.321,0,.648.349.5.877a7.818,7.818,0,0,0-.105,1.844c-.077,2.2-.248,4.386-.481,6.574-.157,1.477-.312,2.952-.517,4.422-.358,2.573-.787,5.127-1.333,7.667a110.939,110.939,0,0,1-2.919,10.783c-.848,2.626-1.822,5.2-2.854,7.752-.924,2.284-1.953,4.511-3.027,6.712-1.355,2.777-2.861,5.463-4.457,8.094-1.4,2.311-2.925,4.527-4.446,6.745-.615.9-1.287,1.751-1.962,2.6-.2.246-.491.4-.8.108a.75.75,0,0,1-.108-1.087c.463-.636.914-1.283,1.4-1.9a71.832,71.832,0,0,0,4.249-6.2,99.538,99.538,0,0,0,4.995-8.955,107.278,107.278,0,0,0,5.032-12.036,111.314,111.314,0,0,0,3.6-12.721c.576-2.576,1.015-5.176,1.375-7.8.253-1.838.477-3.678.631-5.53.19-2.288.375-4.572.389-6.873,0-.381-.134-1.111.826-1.078" transform="translate(-401.426 -166.441)"/>
          <path id="パス_25" data-name="パス 25" class="cls-6" d="M530.48,126.111a11.829,11.829,0,0,1,3.324-3.646c.409-.279.742-.342,1.01.1a.708.708,0,0,1-.306,1.012,10.477,10.477,0,0,0-4.309,7.4,8.206,8.206,0,0,0,.329,3.66c.2.639.393,1.28.656,1.91a8.482,8.482,0,0,0,.46-2.143,17.57,17.57,0,0,1,4.728-9.2,14.149,14.149,0,0,1,3.76-2.782c.692-.353,1.034-.139,1.152.684a12.637,12.637,0,0,0,.963,2.894,14.477,14.477,0,0,0,2.291,3.835,3.717,3.717,0,0,0,3.054,1.651,2.781,2.781,0,0,0,1.749-.708,1.294,1.294,0,0,0,.373-1.445,1,1,0,0,0-1.08-.8c-.558.016-.783-.363-.636-.933.067-.367.335-.38.6-.4a2.225,2.225,0,0,1,2.278,1.694,2.709,2.709,0,0,1-.747,2.91,4.283,4.283,0,0,1-6.137-.532,20.962,20.962,0,0,1-2.452-3.751,24.883,24.883,0,0,1-1.269-3.336c-.1-.379-.273-.144-.412-.066a11.529,11.529,0,0,0-2.634,2.091,16.555,16.555,0,0,0-4.56,10.048,9.7,9.7,0,0,0,.014,2.546c.061.392.031.778-.391.943s-.641-.1-.883-.419a11.754,11.754,0,0,1-2.322-5.313,16.91,16.91,0,0,1-.065-3.334,13.21,13.21,0,0,1,1.456-4.58" transform="translate(-462.854 -105.851)"/>
          <path id="パス_26" data-name="パス 26" class="cls-5" d="M571.123,7.977c-2.365,1.182-4.532.691-6.572-.89a2.518,2.518,0,0,0-.178,1.129,15.41,15.41,0,0,1-.107,2.241c-.1.712-.349.912-.992.63a1.829,1.829,0,0,0-2.071.1,4.151,4.151,0,0,0-.495.665c-.278.33-.552.489-.94.244a.727.727,0,0,1-.083-1.042,3.01,3.01,0,0,1,2.874-1.6c.46.026.588-.1.584-.61-.008-1.126.069-2.253.109-3.38a.672.672,0,0,1,1.225-.444,4.778,4.778,0,0,0,1.7,1.575l-.739-3.042c-.147-.6-.264-1.219-.452-1.808a.76.76,0,0,1,.254-.892,3.309,3.309,0,0,1,3.574-.572,3.272,3.272,0,0,1,2.3,2.795c.045.34.314.366.519.49a2.169,2.169,0,0,1,1.24,2.093,1.39,1.39,0,0,1-.363.953c-.488.433-.909.937-1.391,1.373m-1.543-.863c-.184-.329-.343-.671-.06-1.03s.621-.265.964-.123c.1.04.2.06.3.09a.633.633,0,0,0,.789-.357.54.54,0,0,0-.275-.775c-1.12-.269-1.352-1.124-1.63-2.18a2.273,2.273,0,0,0-2.941-1.288c-.323.117-.4.3-.307.656.279,1.069.579,2.136.769,3.224.089.511.528,1.015.136,1.6-.089.132.087.185.2.217a3.073,3.073,0,0,0,2.053-.031" transform="translate(-489.568 -0.001)"/>
          <path id="パス_27" data-name="パス 27" class="cls-7" d="M438.436,60.316c.445.711.369,1.014-.28,1.45a10.355,10.355,0,0,1-7.091,1.879c-2.689-.316-5.131-1.3-6.353-4.242a3.816,3.816,0,0,1-.39-1.865c-1.842,1.8-2.049,3.679-.2,5.165.231.186.464.368.7.542.668.486.669.868,0,1.394a3.267,3.267,0,0,1-1.852-1.169c-1.875-1.774-1.762-4.148-.282-6.14a12.369,12.369,0,0,1,3.014-2.956c.314-.211.678-.407.991,0s.1.711-.189,1.02a3.4,3.4,0,0,0,.072,4.732,6.181,6.181,0,0,0,3.83,2.069,9.384,9.384,0,0,0,6.344-1.164c.538-.292.982-.864,1.684-.715" transform="translate(-368.877 -46.877)"/>
          <path id="パス_28" data-name="パス 28" class="cls-7" d="M436.314,179.857a4.661,4.661,0,0,1,.643-1.446,39.349,39.349,0,0,1,3.551-5.418,46.377,46.377,0,0,1,4.36-4.672.851.851,0,0,1,1.1.058c.3.413.047.718-.216.951a36.819,36.819,0,0,0-7.508,9.335c-.285.5-.539,1.015-.775,1.54-.164.367-.413.5-.75.385a.593.593,0,0,1-.409-.733" transform="translate(-381.762 -145.596)"/>
          <path id="パス_29" data-name="パス 29" class="cls-7" d="M438.067,142.13a18.414,18.414,0,0,1,4.546-2.416,4.986,4.986,0,0,1,2.9-.337c1.769.49,2.188.947,2.286,2.848.026.472-.17.81-.615.778-.4-.028-.627-.346-.66-.8a1.485,1.485,0,0,0-1.748-1.593,9.468,9.468,0,0,0-2.953.924,17.159,17.159,0,0,0-3.456,2.052c-.351.245-.659.459-.963.043a.788.788,0,0,1,.221-1.147c.141-.123.292-.232.439-.347" transform="translate(-382.587 -120.59)"/>
          <path id="パス_30" data-name="パス 30" class="cls-6" d="M659.589,74.123c-.22.216-.422.555-.761.423s-.4-.516-.457-.875a4.776,4.776,0,0,0-1.088-2.682,2.4,2.4,0,0,0-.714-.507.736.736,0,0,1-.18-1.282,2.59,2.59,0,0,1,2.314,1.546,6.535,6.535,0,0,1,.885,3.378" transform="translate(-574.085 -59.919)"/>
          <path id="パス_31" data-name="パス 31" class="cls-6" d="M174.415,589.2c-.437,0-.874-.017-1.309,0a.733.733,0,0,1-.855-.743c.013-.435.4-.642.874-.631a10.2,10.2,0,0,0,4.1-.387,3.742,3.742,0,0,0,2.438-2.947,2.027,2.027,0,0,0-1.938-2.538c-2.342-.205-4.258.919-6.029,2.4a9.62,9.62,0,0,0-1.975,2.379.886.886,0,0,1-.877.5c-.3-.039-.34-.337-.436-.573s.042-.41.143-.579a11.352,11.352,0,0,1,6.939-5.284,5.915,5.915,0,0,1,3-.094c2.18.532,2.73,2.415,2.374,4.3a4.729,4.729,0,0,1-3.4,3.759,7.915,7.915,0,0,1-3.049.424" transform="translate(-147.326 -502.707)"/>
          <path id="パス_32" data-name="パス 32" class="cls-4" d="M617.723,15.606a3.074,3.074,0,0,1-2.054.031c-.115-.032-.291-.085-.2-.217.392-.581-.046-1.085-.136-1.6-.19-1.088-.49-2.155-.769-3.224-.092-.353-.016-.538.307-.656a2.273,2.273,0,0,1,2.941,1.288c.278,1.055.511,1.911,1.63,2.18a.54.54,0,0,1,.275.775.633.633,0,0,1-.789.357c-.1-.03-.2-.05-.3-.09-.343-.142-.682-.235-.964.123s-.124.7.06,1.03" transform="translate(-537.711 -8.493)"/>
        </g>
      </g>
      <g id="グループ_9062" data-name="グループ 9062" transform="matrix(0.951, 0.309, -0.309, 0.951, 73.717, 2493.035)">
        <g id="グループ_8988-2" data-name="グループ 8988" class="cls-2">
          <path id="パス_21-2" data-name="パス 21" class="cls-8" d="M108.826,138.764c-.171,1.653-.328,3.309-.518,4.96-.243,2.113-.469,4.23-.782,6.332-.407,2.735-.839,5.467-1.354,8.18q-1.107,5.831-2.667,11.549a115.637,115.637,0,0,1-3.836,11.664,69.485,69.485,0,0,1-7.5,14.637c-1.7,2.436-3.253,5-5.091,7.327q-.583.739-1.17,1.474a.652.652,0,0,1-.9.2.773.773,0,0,1-.3-.982c.333-.883.658-1.772.942-2.675a6.753,6.753,0,0,0,.316-2.825,3.712,3.712,0,0,0-2.421-3.1,8.242,8.242,0,0,0-5.6-.5,25.27,25.27,0,0,0-8.3,4.175,6.035,6.035,0,0,0-2.181,2.844,6.241,6.241,0,0,0,.406,4.528c.463,1.143.994,2.255,1.451,3.4,1.092,2.736.356,4.544-1.953,6.086a24.721,24.721,0,0,1-7.385,2.912,23.283,23.283,0,0,1-6.883.988,19.485,19.485,0,0,1-7.56-1.782,31.3,31.3,0,0,1-7.74-4.985c-.911-.795-1.745-1.685-2.675-2.448a1.868,1.868,0,0,1-.595-2.1,51.949,51.949,0,0,1,4.584-12.671,38.929,38.929,0,0,1,3.734-5.917,37.818,37.818,0,0,1,4.813-5.081,42.728,42.728,0,0,1,9.06-5.584c2.543-1.306,5.012-2.774,7.441-4.317,2.083-1.324,4.136-2.7,6.125-4.179a93.562,93.562,0,0,0,7.492-6.155c1.843-1.694,3.635-3.442,5.329-5.305a39.6,39.6,0,0,0,5.146-7.363,39.294,39.294,0,0,1,6.883-9.285,3.167,3.167,0,0,1,1.17-.854,16.9,16.9,0,0,0,.066,3.334,11.754,11.754,0,0,0,2.321,5.313c.242.32.474.579.883.419s.452-.55.391-.943a9.7,9.7,0,0,1-.014-2.546,16.554,16.554,0,0,1,4.56-10.048,11.528,11.528,0,0,1,2.634-2.091c.139-.078.311-.313.411.065a24.913,24.913,0,0,0,1.269,3.336m-51.6,64.816a7.916,7.916,0,0,0,3.049-.424,4.728,4.728,0,0,0,3.4-3.759c.356-1.889-.195-3.772-2.374-4.3a5.916,5.916,0,0,0-3,.094,11.352,11.352,0,0,0-6.939,5.284c-.1.169-.239.343-.143.579s.139.534.436.573a.886.886,0,0,0,.877-.5A9.621,9.621,0,0,1,54.5,198.74c1.771-1.483,3.688-2.607,6.029-2.4a2.027,2.027,0,0,1,1.938,2.538,3.742,3.742,0,0,1-2.438,2.947,10.2,10.2,0,0,1-4.1.387c-.47-.011-.86.2-.874.631a.733.733,0,0,0,.855.743c.436-.022.873,0,1.309,0" transform="translate(-30.134 -117.085)"/>
          <path id="パス_22-2" data-name="パス 22" class="cls-4" d="M447.264,59.195c-.025-.579.665-.766.64-1.346.388.244.662.086.94-.244a4.16,4.16,0,0,1,.494-.665,1.829,1.829,0,0,1,2.072-.1c.643.282.895.082.992-.63a15.417,15.417,0,0,0,.107-2.241,2.513,2.513,0,0,1,.178-1.129c2.04,1.581,4.207,2.072,6.572.89.109.528.655.767.75,1.3a.736.736,0,0,0,.179,1.282,2.4,2.4,0,0,1,.714.507,4.776,4.776,0,0,1,1.088,2.682c.058.36.113.742.456.876s.541-.207.762-.423a5.5,5.5,0,0,1-.9,4.466,2.774,2.774,0,0,0-.158,2.423.812.812,0,0,0,.7.663c-.147.571.078.949.636.933a1,1,0,0,1,1.08.8,1.294,1.294,0,0,1-.373,1.445,2.781,2.781,0,0,1-1.749.708,3.717,3.717,0,0,1-3.054-1.651A14.476,14.476,0,0,1,457.1,65.91a12.656,12.656,0,0,1-.963-2.894c-.118-.823-.46-1.036-1.152-.684a14.15,14.15,0,0,0-3.76,2.782,17.57,17.57,0,0,0-4.728,9.2,8.481,8.481,0,0,1-.46,2.143c-.264-.63-.459-1.27-.656-1.91a8.211,8.211,0,0,1-.329-3.66,10.476,10.476,0,0,1,4.309-7.4.708.708,0,0,0,.306-1.012c-.268-.446-.6-.382-1.01-.1a11.824,11.824,0,0,0-3.324,3.646c-.611,0-.855.618-1.3.9a1.967,1.967,0,0,1-1.109.476c-.1-1.9-.518-2.358-2.286-2.848a4.987,4.987,0,0,0-2.9.337,18.415,18.415,0,0,0-4.546,2.417,35.308,35.308,0,0,1,.468-3.777c.67-.525.669-.907,0-1.394-.239-.174-.472-.356-.7-.542-1.849-1.487-1.642-3.367.2-5.165a3.816,3.816,0,0,0,.39,1.865c1.222,2.944,3.664,3.925,6.353,4.242a10.355,10.355,0,0,0,7.091-1.879c.65-.437.725-.74.28-1.45" transform="translate(-377.704 -45.755)"/>
          <path id="パス_23-2" data-name="パス 23" class="cls-5" d="M28.495,342.571a35.707,35.707,0,0,1-11.177-1.684,45.74,45.74,0,0,1-7.141-2.987c-1.84-.939-3.733-1.761-5.57-2.706A11.7,11.7,0,0,1,1.531,333,5.533,5.533,0,0,1,.01,329.286a13.19,13.19,0,0,1,1.287-5.92c1.655-3.746,3.266-7.509,4.784-11.322A22.15,22.15,0,0,1,9.3,306.557a38.492,38.492,0,0,1,9.2-8.057q3.158-2.111,6.466-3.934c3.16-1.735,6.335-3.442,9.472-5.223a75.22,75.22,0,0,0,7.945-5.066,48.32,48.32,0,0,0,4.551-3.864,33.552,33.552,0,0,0,5.552-6.918.81.81,0,0,1,.829-.456c.257.025.326.169.439.371a.656.656,0,0,1-.12.707,35.707,35.707,0,0,1-5.77,7.251,50.881,50.881,0,0,1-7.851,6.14c-1.834,1.172-3.693,2.3-5.6,3.343-2.981,1.635-5.973,3.247-8.936,4.921a80.16,80.16,0,0,0-8.676,5.532,49.125,49.125,0,0,0-4.658,3.912,23.665,23.665,0,0,0-5.317,8.392c-1.047,2.571-2.051,5.161-3.235,7.669a25.451,25.451,0,0,0-2.028,5.244,8.591,8.591,0,0,0-.234,3.381,4.345,4.345,0,0,0,2.176,3.046,62.523,62.523,0,0,0,6.782,3.48c1.673.8,3.32,1.656,5.04,2.335A35.1,35.1,0,0,0,20.6,340.4a38.3,38.3,0,0,0,5.024.745,33.9,33.9,0,0,0,5.2-.058,32.014,32.014,0,0,0,7.05-1.33,36.361,36.361,0,0,0,12.91-7.108c1.113-.944,2.127-2.005,3.179-3.022.256-.247.428-.594.685-.838.3-.287.675-.474,1.032-.091s.2.757-.116,1.1a39.46,39.46,0,0,1-9.085,7.56,38.639,38.639,0,0,1-7.771,3.5,35.922,35.922,0,0,1-5.949,1.422,27.993,27.993,0,0,1-4.267.283" transform="translate(0 -236.419)"/>
          <path id="パス_24-2" data-name="パス 24" class="cls-5" d="M481.457,192.22c.321,0,.648.349.5.877a7.818,7.818,0,0,0-.105,1.844c-.077,2.2-.248,4.386-.481,6.574-.157,1.477-.312,2.952-.517,4.422-.358,2.573-.787,5.127-1.333,7.667a110.939,110.939,0,0,1-2.919,10.783c-.848,2.626-1.822,5.2-2.854,7.752-.924,2.284-1.953,4.511-3.027,6.712-1.355,2.777-2.861,5.463-4.457,8.094-1.4,2.311-2.925,4.527-4.446,6.745-.615.9-1.287,1.751-1.962,2.6-.2.246-.491.4-.8.108a.75.75,0,0,1-.108-1.087c.463-.636.914-1.283,1.4-1.9a71.832,71.832,0,0,0,4.249-6.2,99.538,99.538,0,0,0,4.995-8.955,107.278,107.278,0,0,0,5.032-12.036,111.314,111.314,0,0,0,3.6-12.721c.576-2.576,1.015-5.176,1.375-7.8.253-1.838.477-3.678.631-5.53.19-2.288.375-4.572.389-6.873,0-.381-.134-1.111.826-1.078" transform="translate(-401.426 -166.441)"/>
          <path id="パス_25-2" data-name="パス 25" class="cls-6" d="M530.48,126.111a11.829,11.829,0,0,1,3.324-3.646c.409-.279.742-.342,1.01.1a.708.708,0,0,1-.306,1.012,10.477,10.477,0,0,0-4.309,7.4,8.206,8.206,0,0,0,.329,3.66c.2.639.393,1.28.656,1.91a8.482,8.482,0,0,0,.46-2.143,17.57,17.57,0,0,1,4.728-9.2,14.149,14.149,0,0,1,3.76-2.782c.692-.353,1.034-.139,1.152.684a12.637,12.637,0,0,0,.963,2.894,14.477,14.477,0,0,0,2.291,3.835,3.717,3.717,0,0,0,3.054,1.651,2.781,2.781,0,0,0,1.749-.708,1.294,1.294,0,0,0,.373-1.445,1,1,0,0,0-1.08-.8c-.558.016-.783-.363-.636-.933.067-.367.335-.38.6-.4a2.225,2.225,0,0,1,2.278,1.694,2.709,2.709,0,0,1-.747,2.91,4.283,4.283,0,0,1-6.137-.532,20.962,20.962,0,0,1-2.452-3.751,24.883,24.883,0,0,1-1.269-3.336c-.1-.379-.273-.144-.412-.066a11.529,11.529,0,0,0-2.634,2.091,16.555,16.555,0,0,0-4.56,10.048,9.7,9.7,0,0,0,.014,2.546c.061.392.031.778-.391.943s-.641-.1-.883-.419a11.754,11.754,0,0,1-2.322-5.313,16.91,16.91,0,0,1-.065-3.334,13.21,13.21,0,0,1,1.456-4.58" transform="translate(-462.854 -105.851)"/>
          <path id="パス_26-2" data-name="パス 26" class="cls-5" d="M571.123,7.977c-2.365,1.182-4.532.691-6.572-.89a2.518,2.518,0,0,0-.178,1.129,15.41,15.41,0,0,1-.107,2.241c-.1.712-.349.912-.992.63a1.829,1.829,0,0,0-2.071.1,4.151,4.151,0,0,0-.495.665c-.278.33-.552.489-.94.244a.727.727,0,0,1-.083-1.042,3.01,3.01,0,0,1,2.874-1.6c.46.026.588-.1.584-.61-.008-1.126.069-2.253.109-3.38a.672.672,0,0,1,1.225-.444,4.778,4.778,0,0,0,1.7,1.575l-.739-3.042c-.147-.6-.264-1.219-.452-1.808a.76.76,0,0,1,.254-.892,3.309,3.309,0,0,1,3.574-.572,3.272,3.272,0,0,1,2.3,2.795c.045.34.314.366.519.49a2.169,2.169,0,0,1,1.24,2.093,1.39,1.39,0,0,1-.363.953c-.488.433-.909.937-1.391,1.373m-1.543-.863c-.184-.329-.343-.671-.06-1.03s.621-.265.964-.123c.1.04.2.06.3.09a.633.633,0,0,0,.789-.357.54.54,0,0,0-.275-.775c-1.12-.269-1.352-1.124-1.63-2.18a2.273,2.273,0,0,0-2.941-1.288c-.323.117-.4.3-.307.656.279,1.069.579,2.136.769,3.224.089.511.528,1.015.136,1.6-.089.132.087.185.2.217a3.073,3.073,0,0,0,2.053-.031" transform="translate(-489.568 -0.001)"/>
          <path id="パス_27-2" data-name="パス 27" class="cls-7" d="M438.436,60.316c.445.711.369,1.014-.28,1.45a10.355,10.355,0,0,1-7.091,1.879c-2.689-.316-5.131-1.3-6.353-4.242a3.816,3.816,0,0,1-.39-1.865c-1.842,1.8-2.049,3.679-.2,5.165.231.186.464.368.7.542.668.486.669.868,0,1.394a3.267,3.267,0,0,1-1.852-1.169c-1.875-1.774-1.762-4.148-.282-6.14a12.369,12.369,0,0,1,3.014-2.956c.314-.211.678-.407.991,0s.1.711-.189,1.02a3.4,3.4,0,0,0,.072,4.732,6.181,6.181,0,0,0,3.83,2.069,9.384,9.384,0,0,0,6.344-1.164c.538-.292.982-.864,1.684-.715" transform="translate(-368.877 -46.877)"/>
          <path id="パス_28-2" data-name="パス 28" class="cls-7" d="M436.314,179.857a4.661,4.661,0,0,1,.643-1.446,39.349,39.349,0,0,1,3.551-5.418,46.377,46.377,0,0,1,4.36-4.672.851.851,0,0,1,1.1.058c.3.413.047.718-.216.951a36.819,36.819,0,0,0-7.508,9.335c-.285.5-.539,1.015-.775,1.54-.164.367-.413.5-.75.385a.593.593,0,0,1-.409-.733" transform="translate(-381.762 -145.596)"/>
          <path id="パス_29-2" data-name="パス 29" class="cls-7" d="M438.067,142.13a18.414,18.414,0,0,1,4.546-2.416,4.986,4.986,0,0,1,2.9-.337c1.769.49,2.188.947,2.286,2.848.026.472-.17.81-.615.778-.4-.028-.627-.346-.66-.8a1.485,1.485,0,0,0-1.748-1.593,9.468,9.468,0,0,0-2.953.924,17.159,17.159,0,0,0-3.456,2.052c-.351.245-.659.459-.963.043a.788.788,0,0,1,.221-1.147c.141-.123.292-.232.439-.347" transform="translate(-382.587 -120.59)"/>
          <path id="パス_30-2" data-name="パス 30" class="cls-6" d="M659.589,74.123c-.22.216-.422.555-.761.423s-.4-.516-.457-.875a4.776,4.776,0,0,0-1.088-2.682,2.4,2.4,0,0,0-.714-.507.736.736,0,0,1-.18-1.282,2.59,2.59,0,0,1,2.314,1.546,6.535,6.535,0,0,1,.885,3.378" transform="translate(-574.085 -59.919)"/>
          <path id="パス_31-2" data-name="パス 31" class="cls-6" d="M174.415,589.2c-.437,0-.874-.017-1.309,0a.733.733,0,0,1-.855-.743c.013-.435.4-.642.874-.631a10.2,10.2,0,0,0,4.1-.387,3.742,3.742,0,0,0,2.438-2.947,2.027,2.027,0,0,0-1.938-2.538c-2.342-.205-4.258.919-6.029,2.4a9.62,9.62,0,0,0-1.975,2.379.886.886,0,0,1-.877.5c-.3-.039-.34-.337-.436-.573s.042-.41.143-.579a11.352,11.352,0,0,1,6.939-5.284,5.915,5.915,0,0,1,3-.094c2.18.532,2.73,2.415,2.374,4.3a4.729,4.729,0,0,1-3.4,3.759,7.915,7.915,0,0,1-3.049.424" transform="translate(-147.326 -502.707)"/>
          <path id="パス_32-2" data-name="パス 32" class="cls-4" d="M617.723,15.606a3.074,3.074,0,0,1-2.054.031c-.115-.032-.291-.085-.2-.217.392-.581-.046-1.085-.136-1.6-.19-1.088-.49-2.155-.769-3.224-.092-.353-.016-.538.307-.656a2.273,2.273,0,0,1,2.941,1.288c.278,1.055.511,1.911,1.63,2.18a.54.54,0,0,1,.275.775.633.633,0,0,1-.789.357c-.1-.03-.2-.05-.3-.09-.343-.142-.682-.235-.964.123s-.124.7.06,1.03" transform="translate(-537.711 -8.493)"/>
        </g>
      </g>
    </g>
  </g>
</svg>
