<svg xmlns="http://www.w3.org/2000/svg" width="295.851" height="131.519" viewBox="0 0 295.851 131.519">
  <defs>
    <style>
      .cls-1 {
        fill: #b3b3b3;
      }

      .cls-2 {
        fill: #999;
      }
    </style>
  </defs>
  <g id="グループ_9058" data-name="グループ 9058" transform="translate(8421.407 -1575.304)">
    <path id="パス_167" data-name="パス 167" class="cls-1" d="M1183.018,619.983c-.329.678-.751-.211-1.043-.33-.368-.132-.929-.2-1.318-.345-.228-.08-.443-.193-.779-.313-.086-.028-.478.037-.53-.033-.561-.776-1.973-.33-3.408-.74-.742-.2-1.219-.739-1.806-.908a15.508,15.508,0,0,1-1.8-.908,9.119,9.119,0,0,1,.642-1.822,9.639,9.639,0,0,1,2.9.443c.064.027.006.256.249.281a4.184,4.184,0,0,1,2.07.923,5.605,5.605,0,0,0,1.539.894,3.382,3.382,0,0,1,.525.3c.094.072.146.507.232.546.129.075.413-.052.518.032s.158.508.244.547c.118.063.424-.052.53.033.451.414.623,1.223,1.243,1.4" transform="translate(-9510.84 1047.073)"/>
    <path id="パス_168" data-name="パス 168" class="cls-1" d="M1211.838,629.883c-.437.8-.971-.236-1.307-.346-.435-.149-.906-.222-1.308-.346a8.984,8.984,0,0,1-2.6-.956,1.674,1.674,0,0,0-1.308-.347c-.728.134-.485-.582-.758-.843-1.907-.493-4.028-.779-5.479-1.675.031-.518.065-1.059.1-1.59a3.621,3.621,0,0,1,2.946-.35s.061.257.248.281a3.982,3.982,0,0,1,.795.048c.019.035-.038.263-.016.264.432.172,1.095.212,1.307.346.309.2.458.849.741,1.108.314.307.956.137,1.01.871a1.575,1.575,0,0,1,1.043.329,7.128,7.128,0,0,1,1.276.877c.138.1-.059.24.249.281.045,0,.222-.02.264.016.254.2.439.613.747.843a7.323,7.323,0,0,0,2.053,1.188" transform="translate(-9522.478 1043.286)"/>
    <path id="パス_169" data-name="パス 169" class="cls-1" d="M1243.269,617.049c.412.491-.324.966-.611,1.291-.071.085-.507.158-.545.233-.163.312-.187.7-.6,1.026-.232.2-.778.251-1.091.465-.162.112.029.256-.281.25-.365,0-.091.392-.3.513-.254.162-.559.1-.811.216-.228.119-.4.418-.562.5-.514.245-1.155.239-1.621.432s-.954.562-1.372.712c-.6.23-1.042.18-1.621.434-1.009.192-1.3,1.182-2.476,1.188.625-.98,1.655-1.361,2.541-2.248a9.4,9.4,0,0,1,1.406-1.242c.382-.276.813-.6,1.389-.979a22.57,22.57,0,0,0,3.075-2.47c1.4.118,1.654-.442,3.474-.319" transform="translate(-9536.533 1046.008)"/>
    <path id="パス_170" data-name="パス 170" class="cls-1" d="M1265.686,609.634c.061.434-.612.383-.844.746-.061.085.048.467-.033.53-.138.09-.953.008-1.34.184-.114.048-.2.474-.3.514-.147.057-.392-.1-.529-.032-.161.077-.159.422-.3.513-.1.059-.458-.116-.531-.033-.034.032.019.245-.016.265-.375.165-.687.036-1.075.2-.136.059.019.244-.28.248-.389,0-.607.474-1.093.465s-1.7.749-2.707.632a4.137,4.137,0,0,1,1.448-1.772,11.879,11.879,0,0,1,4.135-2.406c.091-.038.459.095.53.033.272-.293.794.038,1.075-.2.306-.28.05-.085.263.016.389.168,1.156-.051,1.591.1" transform="translate(-9547.523 1049.339)"/>
    <path id="パス_171" data-name="パス 171" class="cls-1" d="M1269.29,545.925c.177.888-.52,1.064-.894,1.54-.311.391-.6.927-.875,1.276-.311.391-.566.917-.875,1.276-.324.39-.825.635-1.124.993-.144.17-.164.334-.3.515s-.569.43-.843.745c-.2.23-.136.567-.313.777-.144.169-.4.32-.564.51-.687.723-1.734,1.168-2,2.269-.392-.1-.146-.685-.21-1.076-.037-.314-.3-.572-.2-1.076.232-1.072,2.36-2.36,3.136-3.274.454-.538,1.093-1.375,1.718-2.021.994-1.025,1.948-1.786,2.546-2.5l.8.049" transform="translate(-9549.449 1076.965)"/>
    <path id="パス_172" data-name="パス 172" class="cls-1" d="M1246.043,564.521c.46.427.594,1.144,1.244,1.406-.711,1.839-2.333,2.648-3.19,4.324-1.87.527-3.068,1.816-5.177,2.076a9.212,9.212,0,0,1-2.74,1.159c-.091.039-.459-.094-.518-.032a1.871,1.871,0,0,1-.563.5c-.138.081-1.05.158-1.367.447-.359-.109.007-.465.3-.512.28-.427.114-.6.852-.734.27-.061.134-.2.281-.259a11.9,11.9,0,0,0,1.373-.712c.55-.289,1.392-.469,1.686-1.493a3.291,3.291,0,0,0,1.918-.946,7.753,7.753,0,0,0,.843-.746c.2-.21.346-.588.579-.762.093-.072.447.115.529.032.368-.387.844-.768,1.405-1.242.912-.774,1.644-1.7,2.546-2.5" transform="translate(-9537.489 1068.853)"/>
    <path id="パス_173" data-name="パス 173" class="cls-1" d="M1213.417,573.67c-.332-.008-.329-.407-.5-.561-.211-.18-.524-.121-.778-.314-.169-.121-.349-.453-.5-.564a10.523,10.523,0,0,1-1.773-1.435c-.323-.33-.67-.806-1.005-1.124a17.713,17.713,0,0,1-2.269-2c-.061-.093.116-.447.032-.529a2.1,2.1,0,0,1-.73-1.108c-.026-.1.107-.471.033-.532-.032-.023-.244.019-.264-.016-.1-.284-.152-.973-.465-1.092-.076-.558.231-.693.33-1.041a1.448,1.448,0,0,1,.778.313c.094.071.157.5.232.545.494.263.512.133.762.579.121.206.491.485.746.842.164.221.054.568.218.812.072.092.457-.049.529.032s-.115.435-.032.53c.321.362.643.5,1.021.859.22.214.5.618.746.844.085.082.459-.061.53.032a3,3,0,0,0,.5.562,7.867,7.867,0,0,1,.746.842c.2.323.032.722.2,1.076.068.16.45.438.5.562.208.577.252,1.3.415,1.885" transform="translate(-9525.137 1069.361)"/>
    <path id="パス_174" data-name="パス 174" class="cls-1" d="M1193.145,548.224c.138.119.679,1.05.2,1.076-.137-.12-.692.09-.794-.049-.072-.094.118-.468.033-.529s-.469.059-.531-.033a13.306,13.306,0,0,0-1.756-1.7c-.471-.439-.768-1-1.242-1.4-.5-.454-1.054-.685-1.524-1.168-.833-.85-1.664-1.941-2.5-2.811-.437-.458-.776-.89-1.243-1.406-.362-.41-.984-.747-1.259-1.14-.161-.243-.03-.589-.216-.81-.082-.106-.453-.195-.513-.3s.116-.457.032-.528c-.032-.024-.244.018-.265-.016-.038-.1.106-.458.032-.529-.46-.427-.7-1.881-.881-2.977q.025-.4.049-.8a1.3,1.3,0,0,0,.78.314,69.268,69.268,0,0,0,4.674,6.134c.269.315.789.525,1.011.859.073.094-.106.459-.032.53a25.586,25.586,0,0,1,2.248,2.53c.5.651.938,1.33,1.476,1.951.165.2.6.126.777.325.072.081-.116.446-.031.518a9.9,9.9,0,0,1,1.506,1.431c.06.094-.115.447-.032.53" transform="translate(-9514.49 1082.523)"/>
    <path id="パス_175" data-name="パス 175" class="cls-1" d="M1287.244,598.131a.643.643,0,0,1,.292-.248c.291-.059.968.115,1.589.1.58,1.044,1.494,1.122.617,2.962-.051.107-.253-.025-.282.25a7.407,7.407,0,0,1-.312.777c-.072.084-.459-.106-.53-.033-.131.146-.162.655-.314.779-.093.081-.447-.117-.529-.033-.475.524-.879.611-2.182.929a13.5,13.5,0,0,1-1.623.444c-1.36.138-2.693-.353-3.736.038.083-.252-.031-.568.05-.807s.23-.129.282-.249a6.133,6.133,0,0,1,.324-.777c.06-.1.5-.136.534-.234a3.484,3.484,0,0,1,.606-1.026c.179-.2.659-.27.828-.481.192-.243.1-.569.313-.777a11.947,11.947,0,0,1,1.124-.995c.093-.072.447.116.53.033a4.771,4.771,0,0,1,.3-.514,11.6,11.6,0,0,1,2.124-.136" transform="translate(-9557.785 1054.344)"/>
    <path id="パス_176" data-name="パス 176" class="cls-1" d="M1279.958,563.163c-.18.222.139,1.161-.081,1.324-.024.011-.253-.049-.266-.015a4.762,4.762,0,0,1-1.173,1.788,6.535,6.535,0,0,1-.578.763c-.093.071-.458-.117-.529-.032-.058.062-.241.482-.3.512-.319.136-1.972.2-2.692.368s-2.661-.131-4.252.005c-.368.033-.525.244-.811.216-.375-.034-.633-.525-1.026-.594-.461-.072-.609.349-1.076.2-.761-.246-1.183-1.124-1.806-.908a2.708,2.708,0,0,0-1.54-.891c-.121-.75.664-.724,1.124-.994.426-.251.972-.506,1.373-.714.171-.09.413-.429.562-.5.308-.147.526-.1.81-.216.115-.048.035-.207.281-.248a8.755,8.755,0,0,0,1.075-.2c.171-.056.427-.451.563-.5s.373.057.529.032c.437-.084,2.151-.4,3.227-.6.247-.051.624-.062,1.341-.195.235-.031.28-.216.558-.232a8.635,8.635,0,0,1,4.2.8c.208.224.109.727.481.826" transform="translate(-9550.644 1070.153)"/>
    <path id="パス_177" data-name="パス 177" class="cls-1" d="M1283.987,528.172a8.286,8.286,0,0,1,.151,1.869c-.012.033-.256.041-.281.249-.088.693-.537.444-.594,1.027-.043.329-1.258,1.352-1.715,1.767-1.022.946-2.247,1.778-3.075,2.47-.035.208-.922.753-.811.217-1.159-.06-.218-2.052-.1-2.665a19.264,19.264,0,0,1,.708-2.891c.172-.455.409-.884.611-1.292.049-.086-.049-.468.033-.531.033-.019.251.049.263.017.05-.085-.048-.467.032-.53.325-.235.1-.381.314-.779.076-.138.473-.114.546-.232.278-.393.261-.836.594-1.026.1-.061.458.115.53.032.034-.032-.018-.257.016-.266.1-.037.469.107.529.032.641-.693,1.248.254,2.1.662a6.484,6.484,0,0,1,.15,1.869" transform="translate(-9556.419 1085.876)"/>
    <path id="パス_178" data-name="パス 178" class="cls-1" d="M1261.964,622.694a3.4,3.4,0,0,1,.382,2.415c-.253,0-.229.319-.3.515-.977.261-1.172.88-2.43.647-.078,0-.49.025-.53-.032-.021-.024.037-.252.016-.265a9.809,9.809,0,0,1-1.309-.334c-.224-.147-.3-.64-.48-.839-.094-.094-.447.062-.53-.033s.1-.425.032-.529c-.32-.374-.726-.8-1-1.124-.156-.186-.626-.116-.779-.314s-.041-.6-.217-.81c-.4-.512-.512-1.052-1.275-.877.438-.636,1.79-.83,2.724-.9a11.954,11.954,0,0,1,3.709.227c.075.028-.005.255.248.281a3.16,3.16,0,0,1,1.276.875c.093.106.448.472.5.563s-.117.458-.032.529" transform="translate(-9546.173 1044.639)"/>
    <path id="パス_179" data-name="パス 179" class="cls-1" d="M1256.214,595.1c.056.159.982,2.242.367,2.681-.371.266-.116.813-.362,1.573-.026.077-.255.007-.281.249a12.132,12.132,0,0,1-1.514,2.843c-.7,1.076-1.453,2.348-2.265,2.253-.567-.876-.546-2.471-.832-3.772-.016-.1.1-.481.032-.531-.671-.628-.273-1.7-.087-2.939.148-.966-.031-2.018.162-2.649.015-.054.256-.018.282-.249.138-1.176.824-1.545,1.469-2.3.223.18.891.11,1.043.329.031.036-.047.241-.016.266.1.05.481-.05.53.033.032.034-.047.24-.016.263a2.812,2.812,0,0,1,1.487,1.952" transform="translate(-9545.061 1056.787)"/>
    <path id="パス_180" data-name="パス 180" class="cls-1" d="M1258.062,544.788a12.824,12.824,0,0,1-.9,6.058c-.581.087-.687-.7-.994-1.124a5.882,5.882,0,0,0-.5-.561c-.331-.375-.391-.489-.449-1.357-.006-.077.086-.482.032-.528a1.263,1.263,0,0,1-.464-1.093c.308.052.165-.354.3-.512.082-.1.5-.149.546-.234.147-.234-.034-.521.3-.512a2.432,2.432,0,0,0,1.093-.465c.476,0,.542.355,1.042.329" transform="translate(-9546.709 1077.582)"/>
    <path id="パス_181" data-name="パス 181" class="cls-1" d="M1247.479,527c.075.759-.85,1.411-.924,2.069-.009.123-.223.375-.3.515-.162.3-.691,1.52-1.421,1.507-.288.005-1.219,1.443-1.7,1.768-.1.059-.458-.117-.529-.033a4.6,4.6,0,0,1-1.654.961,29.644,29.644,0,0,1-3.287,1.4c-.231-1.644.678-3.281,1.628-4.7.085-.128.241.058.271-.251.083-.625.754-.75,1.151-1.259.072-.084-.06-.458.032-.529.024-.021.241.047.264.016.05-.086-.05-.468.032-.53.036-.019.589-.552.844-.746.22-.164.557-.043.811-.216.357-.245.232-.373.825-.481,0,0,.788-.2.811-.217.427-.462,2.364-.276,3.146.724" transform="translate(-9539.249 1085.596)"/>
    <path id="パス_182" data-name="パス 182" class="cls-1" d="M1234.986,495.459c.041,3.148-.823,5.3-1.529,7.627-1.289.232-1.852,1.294-3.276,1.394-.195-.621-.948-.977-1.227-1.669-.085-.228.135-.568.049-.806-.027-.09-.207-.058-.249-.281-.1-.527.064-.495-.216-.81-.021-.024.26-1.712.427-2.633.151-.855.247-1.889.41-2.367.027-.075.254,0,.281-.25a3.074,3.074,0,0,1,.3-.512,6.508,6.508,0,0,1,.33-1.043,8.062,8.062,0,0,1,1.107-.729c.592-.451.584-.829,1.373-.715,1.438.2,1.233,1.75,2.221,2.795" transform="translate(-9535.294 1100.125)"/>
    <path id="パス_183" data-name="パス 183" class="cls-1" d="M1227,650.308a17.072,17.072,0,0,1,.087,2.93c-.258,1.855-1.393,3.214-2.146,4.653-.8,0-.066-1.276-.432-1.621-.011-.011-.267.006-.266-.016-.034-.323.3-.456.3-.513-.06-1.021-.026-1.917-.087-2.929-.022-.533-.358-1.029-.431-1.621-.057-.524.15-1.2.114-1.854-.047-.889-.055-1.819-.072-3.194a4.706,4.706,0,0,0,.048-.795c-.029-.224-.249-.281-.231-.557.024-.4.284-.846.346-1.308.034-.2-.147-2.112.145-2.382.352-.311-.04-.048.065-1.06.024-.2.349-.266.3-.512-.019-.081-.3-.008-.25-.283a6.384,6.384,0,0,0,.33-1.042,13.774,13.774,0,0,1,.474-3.427c.235-.041.248.116.248.281a27.256,27.256,0,0,0,.336,3.211c.157.863.544,1.772.631,2.7s.005,2.1.071,3.194c.053.756.061,1.343.117,2.411.007.077-.085.482-.032.529.022.013.267-.005.266.016.067,1.078.024,2.151.071,3.194" transform="translate(-9533.269 1038.291)"/>
    <path id="パス_184" data-name="パス 184" class="cls-1" d="M1231.2,519.819c.4,1.033.355.9.136,2.135-.274,1.567-.264,3.938-.606,5.545-.158.755-.254,1.625-.4,2.113-.141.523-.75,1.04-.625,1.558-.287.17-.022.529-.347,1.307-.026.054-.214.054-.281.247-.042.131.053.413-.032.532-.158.233-.9.676-1.14,1.259-1.015-.971-.515-2.811-.536-4.284-.014-.668-.2-1.243-.151-1.872a35.627,35.627,0,0,1,.789-4.216c.142-.678.255-1.447.394-2.1,0-.011.258-.051.282-.249a6.5,6.5,0,0,1,.113-1.854c.039-.086.255,0,.281-.249a3.42,3.42,0,0,1,.3-.515c.12-.147.476-.356.562-.5.184-.289.1-.547.313-.778.632.182.623,1.068.946,1.918" transform="translate(-9534.717 1089.136)"/>
    <path id="パス_185" data-name="パス 185" class="cls-1" d="M1229.5,552.718c.056.546-.043.519.215.823-.023,0-.28,2.6-.458,3.161s-.655,2.186-.99,3.129c-.027.087.037.48-.033.53-.29.215-.5,1.331-.643,1.821a22.084,22.084,0,0,1-.989,3.129c-.144.347-.176,1.253-.86,1.011-.71-1.771.163-4.11-.123-6.654-.072-.624-.155-.352.064-1.059a8.635,8.635,0,0,0,.081-1.324c.064-.494.431-.528.081-1.324.539-.133.4-.629.61-1.292.056-.184.281-.227.282-.249.114-.414-.238-.48-.218-.8.031.057.267-.206.282-.26.124-.4.186-1.76.412-2.378.026-.077.253,0,.281-.251.045-.373.543-.541.594-1.025a1.132,1.132,0,0,1,.016-.265c.115-.247.367-.575.6-1.026.31-.027.47.084.512.3.262,1.345.145,2.523.287,4" transform="translate(-9533.953 1075.861)"/>
    <path id="パス_186" data-name="パス 186" class="cls-1" d="M1224.161,591.94c0,.034-.246-.125-.246-.291,0-.2.313-.413.312-.779,0-.577-.1-.936-.15-1.871-.007-.077.085-.482.032-.529-.483-.45.1-.205.065-1.06-.022,0-.248-.114-.249-.281a3.751,3.751,0,0,0,.049-.794c-.335-.32-.124-.307.065-1.059.043-.707-.8-.637-.715-1.373-.049-.435.284-.448.315-.777.412-.4,1.372-.162,2.135-.136a7.589,7.589,0,0,1,.269,4.269,24.236,24.236,0,0,0-.54,4.486c.082,2.287-.073,6.608-.037,9.312.006-.088-.275.116-.282.249-.015.242.251.6.2,1.076-.135,1.287-.526,2.626-.774,3.94a30.8,30.8,0,0,1-.757,3.686c-.6-.28-.376-1.086-.432-1.633-.241-2.583.353-6.5.334-9.813-.044,0-.246-.125-.247-.282.005-.441.291-.435.312-.777.023-.376-.205-.976-.183-1.341a6.6,6.6,0,0,0,.346-1.319c.073-1,.161-1.894.177-2.9" transform="translate(-9533.023 1060.858)"/>
    <path id="パス_187" data-name="パス 187" class="cls-1" d="M1218.635,541.1l-3.443-.211c.1-.547-.772-.235-1.027-.594-.042-.047.059-.229.017-.264-.211-.179-.243-.381-.5-.563a10.434,10.434,0,0,1-1.534-1.156,10.783,10.783,0,0,1-.745-.845c-.06-.1.116-.458.032-.529-.042-.047-.494-.263-.514-.3-.138-.462.036-1.137-.151-1.87-.008-.044-.216-.1-.249-.281a2.948,2.948,0,0,1-.2-1.075,3.038,3.038,0,0,1,3.881-2.432c.044.015.019.257.25.281.516.066.894.6,1.259,1.151.254.381.395.779.713,1.373.081.137.45.427.5.563s-.067.371-.032.528c.042.235.149.463.217.812a7.643,7.643,0,0,1,.4,2.15c.233.545.384,1.152.979,1.388a4.3,4.3,0,0,0,.152,1.87" transform="translate(-9527.364 1083.494)"/>
    <path id="パス_188" data-name="パス 188" class="cls-1" d="M1194.268,607.833c-.02.665-.6,1.492-.692,2.616a3.781,3.781,0,0,1-2.055-1.189c-.241-.2-.516-.607-.745-.842-.219-.214-.577-.346-.761-.579-.175-.21-.2-.733-.465-1.091-.143-.2-.675-.375-.763-.581-.108-.226.22-.881.065-1.058-.61-.691-.428-1.876-.314-3.741a14.218,14.218,0,0,1,.163-2.659c.026-.066.256-.007.292-.247.034-.374.532-.544.6-1.027.031-.353.429-.517.843-.746,1.708-.947,2.67,1.06,3.264,3.124a23.715,23.715,0,0,1,.583,3.5,6.2,6.2,0,0,1-.146,2.384s.278.327.233.546c0,.022-.258.04-.281.248a3.793,3.793,0,0,0-.066,1.06c.016.09.245.359.249.281" transform="translate(-9517.842 1054.963)"/>
    <path id="パス_189" data-name="パス 189" class="cls-1" d="M1187.377,561.843c.242.027.445.337.5.561-.256.928-1.484,1.085-2.48,1.445-.431.151-1.081.265-1.633.431a8.964,8.964,0,0,1-1.356.449c-1.939.179-4.041-.4-6.075-.638-.2-.234-.273-.6-.481-.826-.083-.095-.446.06-.529-.033s.115-.427.033-.531c-.165-.207-.336-.319-.5-.561-.375-.555-.491-.473-.184-1.341.028-.088-.037-.478.032-.529a3.494,3.494,0,0,1,3.244-.865,31.858,31.858,0,0,1,3.409.74c.492.119.715.265,1.043.33a33.234,33.234,0,0,1,3.7.493c.088.028-.015.253.248.281.374.045.545.53,1.027.594" transform="translate(-9511.782 1071.109)"/>
    <path id="パス_190" data-name="パス 190" class="cls-1" d="M1187.06,630.815a5.374,5.374,0,0,1-1.221,2.582,8.022,8.022,0,0,1-1.718,2.022c-.1.06-.458-.117-.541-.033a4.645,4.645,0,0,1-.3.514,4.933,4.933,0,0,1-1.87.151,5.452,5.452,0,0,1-1.557-.626c.049-.784-.438-1.344.13-2.118.109-.137.251.059.281-.249.038-.263.332-.189.547-.232.037-.429.345-.576.577-.761a9.188,9.188,0,0,1,2.448-.913c.1-.038.471.094.541.033.392-.43,1.227.229,1.6-.168.226-.252.581-.264,1.075-.2" transform="translate(-9514.05 1040.025)"/>
    <path id="パス_191" data-name="パス 191" class="cls-1" d="M1174.569,520.644q-.1,1.72-.211,3.442c-2.653-.073-5.271-.178-6.275-1.712l.178-2.914c.608.027.611-.382,1.108-.729a5.868,5.868,0,0,1,.562-.5c.09-.05.459.106.529.032a.553.553,0,0,1,.546-.232c1.728-.006,2.685,1.559,3.562,2.611" transform="translate(-9508.993 1089.079)"/>
    <path id="パス_192" data-name="パス 192" class="cls-1" d="M1164.5,604.1a6.013,6.013,0,0,1,.119,2.4c-.582-.079-.864.17-.843.747-.841-.384-1.849-.014-2.648-.161-.417-.071-.451-.239-.778-.314s-.769.063-1.072-.066c-.1-.04.027-.254-.248-.281-.186-.023-.685-.574-1.01-.859-.2-.179-.61-.358-.763-.579-.059-.1.117-.458.032-.529-.334-.32-.371-.255-.48-.827a8.763,8.763,0,0,1,.276-4.514c.581-.816,3.7-.371,4.53.012.106.051-.026.253.249.281a8.2,8.2,0,0,1,1.755,1.713c.062.094-.115.447-.032.53a3.882,3.882,0,0,1,.913,2.448" transform="translate(-9504.013 1054.004)"/>
    <path id="パス_193" data-name="パス 193" class="cls-2" d="M1524.809,666.639q.656-.017,1.316-.01c0-.1-.036-.209-.043-.306a2.936,2.936,0,0,1,.052-.853,2.827,2.827,0,0,0-.046-.333,8.982,8.982,0,0,1,.005-1.186,4.292,4.292,0,0,1,.051-.854c.039-.28-.069-.343.1-.521.044-.049-.065-.267-.046-.332.005-.022.148-.006.167-.023.03-.04-.053-.283-.046-.333.033-1.034-.242-2.1-.272-3.186a13.266,13.266,0,0,0,.033-2.207l-.83.115c.015.217-.183.258-.1.522-.013.009-.167.016-.166.023-.041.88.043,1.792.036,2.7-.015.961-.049,2.349-.114,2.9-.006.107.053.225.046.333-.017.792-.031,1.3-.049,2.038-.017.5-.058,1-.092,1.506" transform="translate(-9664.192 1028.838)"/>
    <path id="パス_194" data-name="パス 194" class="cls-2" d="M1524.678,640.068a14.444,14.444,0,0,1-.008-3.731c.068-.785-.188-2.07-.081-3.037a.323.323,0,0,1,.143-.189,8.9,8.9,0,0,1-.063-1.685c.011-.064.158-.029.142-.188-.008-.119-.071-.873.194-1.05-.221-.625-.292-.835-.018-1.352.186.017.157.317.379.286a5.344,5.344,0,0,1,.132,2.189c-.011.377.033.794,0,1.187-.031.336-.19.718-.194,1.043,0,.537.2,1.129.229,1.661s-.086,1.161-.1,1.708c-.021.616.1,1.212.063,1.684,0,.036-.156.043-.143.189a.7.7,0,0,1,.023.167,22.052,22.052,0,0,0-.365,2.259c-.367-.309-.263-.726-.328-1.141" transform="translate(-9664.08 1040.873)"/>
    <path id="パス_195" data-name="パス 195" class="cls-2" d="M1498.632,637.27c.144.065.425.111.71.241.12.054.274.237.379.286a7.659,7.659,0,0,1,1.278.669c.162.1.19.2.385.286a1.86,1.86,0,0,1,.355.12c.056.049-.023.292.046.332a18.22,18.22,0,0,1,1.914,1.6c.161.14.377.28.568.43.151.12.244.333.4.452.333.264.836.435,1.111.693.212.2.266.591.448.784a4.326,4.326,0,0,0,.568.43c.242.22.512.388.758.58.157.119.242.115.378.286a3.62,3.62,0,0,0,.213.309c.249.22.534.342.757.573.161.154.25.593.59.6-.248.352-.817.106-1.352.017-.254-.042-.693-.108-1.044-.194a8.006,8.006,0,0,1-1.232-.337c-.2-.092-.825-.155-1.231-.338-.068-.032-.168-.139-.189-.143-.186-.065-.444.006-.688-.073-.082-.031-.154-.3-.212-.309a4.606,4.606,0,0,1-.885-.223c-.1-.044.006-.157-.182-.144-.223.024-.308-.282-.552-.263-.215.023-.581-.223-.9-.384-.1-.05.007-.156-.19-.143-.222.024-.3-.284-.544-.263a5.1,5.1,0,0,1-1.3-.836c-.057-.049.016-.292-.046-.332-.039-.024-.128.045-.166.023a.645.645,0,0,1-.189-.143c-.146-.135-.253-.3-.4-.453-.049-.05-.327-.074-.355-.12-.045-.077.014-.262-.046-.332s-.32-.068-.355-.12c-.055-.085.013-.257-.046-.333s-.32-.068-.356-.12a2.78,2.78,0,0,1-.281-.807,3.611,3.611,0,0,1,.841-2.488c.141-.054.168.041.19.143a1.108,1.108,0,0,1,.853.051" transform="translate(-9651.969 1037.294)"/>
    <path id="パス_196" data-name="パス 196" class="cls-2" d="M1527.569,645.267a5.423,5.423,0,0,1,.956-1.656c.318-.4.9-.871,1.334-1.37.244-.28.47-.685.715-.952.057-.05.3.023.332-.046.1-.148.128-.505.429-.567s.3-.415.43-.568a4.5,4.5,0,0,0,.453-.4c.181-.223.684-.616,1.055-.993.155-.155.322-.221.452-.4a2.323,2.323,0,0,0,.263-.544c.254-.2.541-.068.807-.281.128-.1.138-.436.264-.546.057-.05.3.016.332-.046s.07-.313.121-.355.3.015.332-.046c.155-.255.112-.263.453-.4,0,0,.464-.22.476-.236a1.16,1.16,0,0,1,.452-.4c.059-.029.3,0,.332-.046.012-.015-.036-.158-.023-.167.237-.116.708-.181.974-.3a6.925,6.925,0,0,0,.785-.447c.2,0,.293-.076.309-.212.2,0,.188.285.234.475-1.042,1.337-2.2,2.6-3.172,4-.308-.085-.385.179-.476.235a7.218,7.218,0,0,0-.762.612c-.088.076.05.156-.143.189-.261.05-.517.4-.762.614-.132.117-.186.286-.286.378-.056.057-.3-.008-.333.046-.069.116-.4.556-.595.6-.267.051-.516.4-.768.615-.126.11-.179.279-.286.379-.049.049-.291-.016-.332.046-.079.138-.144.436-.263.545-.05.049-.291-.016-.332.046-.156.254-.584.369-1.094.659-.045.028-.01.135-.143.189-.094.034-.249-.008-.332.046s-.208.332-.286.379a7.438,7.438,0,0,1-1.9.939" transform="translate(-9665.393 1038.503)"/>
    <path id="パス_197" data-name="パス 197" class="cls-2" d="M1531.388,625.727c-1.315-.023-1.667-1.335-2.053-2.595.564-.211.679.16,1.186.006.423.6,1.2,1.626.867,2.589" transform="translate(-9666.161 1043.382)"/>
    <path id="パス_198" data-name="パス 198" class="cls-2" d="M1526.577,622.995c.184,1.076,1.529,2.025.768,3.112-.275-.16-.76-.043-.756-.573a.89.89,0,0,1-.258-.642,1.469,1.469,0,0,0-.115-.831,2.287,2.287,0,0,1-.018-1.352c.155.057.319.1.378.286" transform="translate(-9664.755 1043.538)"/>
    <path id="パス_199" data-name="パス 199" class="cls-2" d="M1522.826,627.022c-.109.177-.118.778-.6.59a5.816,5.816,0,0,1,1.013-3.7c.16-.015.159.182.212.31a9.739,9.739,0,0,1-.223,2.063c-.025.074-.128.039-.143.189-.039.38-.12.306-.263.545" transform="translate(-9663.061 1043.013)"/>
    <path id="パス_200" data-name="パス 200" class="cls-2" d="M1518.044,626.03c-.088-1.6,1.535-1.913,2.131-3,.334.018-.087.591-.217.877-.083.167-.213.241-.287.379-.074.123-.016.4-.1.52-.105.156-.339.252-.453.4-.167.221-.7,1.085-1.078.827" transform="translate(-9661.248 1043.4)"/>
    <path id="パス_201" data-name="パス 201" class="cls-2" d="M1525.064,611.106c-.055-.041.016-.291-.045-.332-.177-.1-.267-.084-.38-.287-.028-.053.008-.3-.046-.333a2.935,2.935,0,0,1-.322-2.325c.038-.083.122-.144.143-.19.044-.1.027-.42.1-.521.142-.2.637-.137.6-.59,1.787-.333,2.4.9,2.86,2.313a1.229,1.229,0,0,0-.263.544,1.812,1.812,0,0,1-.549.923c-.093.1-.192.294-.287.379s-.208.325-.286.378c-.159.12-.528-.04-.476.235-.163-.211-.8-.01-1.043-.194" transform="translate(-9663.91 1050.601)"/>
    <path id="パス_202" data-name="パス 202" class="cls-2" d="M1525.472,615.487c.557-.211.671.16,1.186.005a2.96,2.96,0,0,0,1.69-1.25c.717-.219.76.446,1.262.5.341,1.6.172,2.819-.9,3.349-.765.077-1.346-.4-2.017.11-.237-.539-.891-.525-1.444-.647-.36-1.015.526-1.1.221-2.069" transform="translate(-9664.346 1047.241)"/>
    <path id="パス_203" data-name="パス 203" class="cls-2" d="M1518.027,614.142c.313-.128.315-.023.475-.236s1.1.024,1.519-.04c-.284.5.077.659.47.95.347.27-.014.052-.263.545-.033.068.095.283.046.332-.018.024-.162,0-.167.023-.019.066.09.291.046.332-.152.169-.152.473,0,1.193-.769.367-.96,1.17-1.925.774a2.709,2.709,0,0,1-1.377-1.333c-.022-.06-.154.014-.191-.15a1.825,1.825,0,0,1,.029-1.02c.08-.187.2-.225.292-.379a1.91,1.91,0,0,1,1.049-.991" transform="translate(-9660.621 1047.406)"/>
    <path id="パス_204" data-name="パス 204" class="cls-2" d="M1368.121,637.406q.883-.023,1.771-.012c0-.129-.049-.281-.058-.411a3.965,3.965,0,0,1,.07-1.149,3.78,3.78,0,0,0-.062-.448,12.127,12.127,0,0,1,.007-1.6,5.762,5.762,0,0,1,.069-1.149c.052-.377-.093-.462.129-.7.059-.066-.088-.359-.062-.447.007-.029.2-.008.224-.031.04-.054-.071-.38-.062-.447.045-1.392-.325-2.832-.365-4.288a17.864,17.864,0,0,0,.045-2.969l-1.117.155c.021.292-.246.347-.132.7-.017.012-.224.022-.223.031-.054,1.185.059,2.412.049,3.639-.02,1.294-.066,3.162-.154,3.9-.008.144.072.3.062.447-.023,1.066-.041,1.753-.066,2.743-.023.671-.078,1.351-.124,2.027" transform="translate(-9596.022 1043.082)"/>
    <path id="パス_205" data-name="パス 205" class="cls-2" d="M1367.944,601.648a19.419,19.419,0,0,1-.01-5.021c.091-1.057-.253-2.786-.11-4.087a.437.437,0,0,1,.192-.255,11.962,11.962,0,0,1-.085-2.268c.015-.086.212-.038.191-.253-.011-.16-.1-1.174.261-1.414-.3-.841-.393-1.123-.024-1.819.25.023.211.427.509.385a7.183,7.183,0,0,1,.179,2.946c-.015.506.044,1.068-.006,1.6-.042.452-.256.966-.262,1.4,0,.722.267,1.52.309,2.235s-.115,1.564-.137,2.3c-.028.83.141,1.632.085,2.266,0,.049-.211.058-.192.255a.95.95,0,0,1,.032.224,29.435,29.435,0,0,0-.491,3.039c-.494-.415-.354-.976-.441-1.534" transform="translate(-9595.871 1059.277)"/>
    <path id="パス_206" data-name="パス 206" class="cls-2" d="M1332.894,597.884c.193.088.572.149.956.324.162.072.368.319.51.386a10.3,10.3,0,0,1,1.72.9c.218.131.256.269.519.385a2.473,2.473,0,0,1,.478.162c.075.066-.031.393.062.447a24.609,24.609,0,0,1,2.576,2.15c.217.189.508.377.763.579.2.161.328.447.54.609.448.356,1.125.585,1.5.932.287.275.358.795.6,1.055a5.861,5.861,0,0,0,.763.579c.326.3.69.522,1.02.78.212.16.325.154.51.384a4.617,4.617,0,0,0,.285.416c.335.3.719.461,1.02.771.216.207.336.8.793.8-.333.473-1.1.143-1.82.024-.341-.057-.932-.146-1.4-.261a10.682,10.682,0,0,1-1.657-.454c-.274-.123-1.111-.208-1.658-.455-.092-.043-.225-.187-.255-.193-.25-.087-.6.007-.926-.1-.11-.041-.207-.4-.285-.416a6.177,6.177,0,0,1-1.191-.3c-.13-.059.009-.211-.245-.194-.3.032-.414-.38-.742-.354-.289.031-.782-.3-1.211-.516-.133-.068.009-.21-.255-.193-.3.032-.4-.381-.732-.354a6.857,6.857,0,0,1-1.75-1.125c-.076-.065.021-.392-.062-.447-.052-.032-.173.061-.224.031a.881.881,0,0,1-.255-.193c-.2-.182-.341-.409-.54-.61-.067-.067-.441-.1-.479-.161-.061-.1.019-.353-.062-.446-.067-.076-.431-.092-.477-.161-.073-.114.019-.345-.062-.449-.07-.084-.431-.092-.479-.161a3.739,3.739,0,0,1-.378-1.086c-.239-1.315.505-2.246,1.132-3.348.189-.073.225.055.255.193a1.5,1.5,0,0,1,1.148.069" transform="translate(-9579.573 1054.462)"/>
    <path id="パス_207" data-name="パス 207" class="cls-2" d="M1371.835,608.646a7.3,7.3,0,0,1,1.286-2.229c.428-.543,1.205-1.173,1.8-1.843.328-.377.632-.923.962-1.282.076-.067.4.03.447-.062.134-.2.172-.68.578-.763s.4-.559.579-.764a6.1,6.1,0,0,0,.609-.539c.243-.3.92-.829,1.42-1.336.208-.209.434-.3.609-.54a3.142,3.142,0,0,0,.354-.733c.342-.275.728-.091,1.086-.378.172-.138.185-.586.355-.734.077-.067.4.021.447-.062s.094-.421.163-.477.4.02.447-.062c.209-.342.151-.354.609-.54,0,0,.624-.3.64-.316a1.563,1.563,0,0,1,.608-.541c.08-.039.408,0,.447-.062.016-.02-.049-.212-.03-.224.32-.157.953-.245,1.311-.409a9.258,9.258,0,0,0,1.056-.6c.266,0,.395-.1.417-.285.275,0,.253.382.315.638-1.4,1.8-2.963,3.5-4.268,5.378-.414-.114-.517.242-.64.316a9.839,9.839,0,0,0-1.025.824c-.118.1.067.21-.193.255-.351.068-.7.534-1.026.827-.177.157-.251.385-.385.508-.075.077-.4-.011-.447.062-.093.156-.533.747-.8.8-.36.069-.695.534-1.034.827-.17.147-.241.375-.385.51-.067.066-.391-.022-.447.062-.107.185-.194.587-.355.732-.066.066-.391-.022-.447.062-.21.341-.786.5-1.472.887-.061.037-.013.181-.192.255-.128.045-.335-.011-.448.062s-.28.447-.385.51a10,10,0,0,1-2.559,1.264" transform="translate(-9597.638 1056.088)"/>
    <path id="パス_208" data-name="パス 208" class="cls-2" d="M1376.974,582.351c-1.77-.031-2.243-1.8-2.762-3.492.758-.285.912.216,1.6.007.569.813,1.614,2.189,1.167,3.485" transform="translate(-9598.673 1062.655)"/>
    <path id="パス_209" data-name="パス 209" class="cls-2" d="M1370.5,578.674c.248,1.447,2.057,2.725,1.034,4.187-.371-.215-1.023-.058-1.018-.771a1.2,1.2,0,0,1-.347-.863,1.967,1.967,0,0,0-.155-1.118,3.087,3.087,0,0,1-.024-1.82c.209.076.429.141.51.385" transform="translate(-9596.779 1062.863)"/>
    <path id="パス_210" data-name="パス 210" class="cls-2" d="M1365.452,584.093c-.147.238-.159,1.047-.8.794a7.829,7.829,0,0,1,1.363-4.974c.216-.021.215.246.286.417a13.123,13.123,0,0,1-.3,2.776c-.035.1-.173.052-.193.254-.052.512-.161.412-.354.734" transform="translate(-9594.498 1062.157)"/>
    <path id="パス_211" data-name="パス 211" class="cls-2" d="M1359.017,582.758c-.118-2.159,2.065-2.574,2.868-4.044.45.024-.117.795-.293,1.18-.111.224-.286.324-.385.51-.1.166-.021.534-.13.7-.141.21-.456.339-.608.54-.225.3-.937,1.46-1.451,1.113" transform="translate(-9592.06 1062.679)"/>
    <path id="パス_212" data-name="パス 212" class="cls-2" d="M1368.465,562.675c-.075-.056.021-.391-.062-.446-.238-.138-.358-.112-.51-.386-.038-.071.011-.4-.062-.447-.476-.285-.779-2.408-.433-3.13.051-.111.163-.193.193-.255.059-.131.036-.565.132-.7.191-.263.856-.185.8-.794,2.406-.449,3.224,1.206,3.849,3.113a1.655,1.655,0,0,0-.354.732,2.431,2.431,0,0,1-.74,1.242c-.124.13-.258.4-.386.51s-.28.437-.385.508c-.214.162-.71-.054-.64.316-.22-.284-1.075-.012-1.4-.261" transform="translate(-9595.644 1072.369)"/>
    <path id="パス_213" data-name="パス 213" class="cls-2" d="M1369.014,568.571c.75-.285.9.216,1.6.007a3.984,3.984,0,0,0,2.274-1.682c.965-.295,1.022.6,1.7.677.459,2.158.231,3.794-1.209,4.507-1.029.1-1.812-.537-2.714.148-.319-.725-1.2-.708-1.943-.871-.484-1.366.708-1.475.3-2.785" transform="translate(-9596.23 1067.846)"/>
    <path id="パス_214" data-name="パス 214" class="cls-2" d="M1358.994,566.761c.422-.172.424-.03.639-.317s1.487.032,2.044-.054c-.382.67.1.888.633,1.279.468.363-.019.07-.355.733-.044.091.128.381.062.447-.024.032-.218,0-.224.031-.026.089.121.391.062.446-.2.229-.2.637,0,1.606-1.034.493-1.291,1.574-2.59,1.042a3.652,3.652,0,0,1-1.854-1.794c-.029-.081-.206.019-.256-.2a2.468,2.468,0,0,1,.038-1.373c.108-.252.271-.3.394-.51a2.569,2.569,0,0,1,1.411-1.334" transform="translate(-9591.216 1068.07)"/>
    <path id="パス_215" data-name="パス 215" class="cls-2" d="M1431.909,646.467q.741-.02,1.487-.011c0-.108-.041-.236-.049-.345a3.318,3.318,0,0,1,.059-.964,3.137,3.137,0,0,0-.052-.376,10.146,10.146,0,0,1,.006-1.339,4.812,4.812,0,0,1,.058-.965c.044-.317-.077-.388.109-.589.049-.055-.073-.3-.052-.376.006-.024.167-.006.188-.025.034-.045-.06-.319-.052-.376.037-1.169-.273-2.378-.307-3.6a15,15,0,0,0,.037-2.493l-.938.13c.017.245-.207.292-.111.59-.014.01-.188.019-.188.026-.045.995.05,2.025.041,3.056-.018,1.086-.056,2.655-.129,3.278-.007.121.06.255.052.376-.019.895-.035,1.472-.056,2.3-.019.563-.066,1.135-.1,1.7" transform="translate(-9623.774 1038.188)"/>
    <path id="パス_216" data-name="パス 216" class="cls-2" d="M1431.76,616.441a16.316,16.316,0,0,1-.009-4.216c.077-.887-.212-2.339-.092-3.431a.364.364,0,0,1,.161-.214,10.086,10.086,0,0,1-.072-1.9c.013-.073.179-.033.161-.213-.01-.134-.08-.986.219-1.187-.25-.707-.33-.943-.02-1.528.21.019.177.358.428.324a6.045,6.045,0,0,1,.15,2.473c-.012.425.037.9,0,1.341-.035.379-.215.811-.22,1.179,0,.606.224,1.276.26,1.877s-.1,1.313-.115,1.93c-.023.7.118,1.37.072,1.9,0,.041-.177.049-.161.214a.771.771,0,0,1,.026.188,24.793,24.793,0,0,0-.412,2.552c-.415-.349-.3-.82-.371-1.289" transform="translate(-9623.647 1051.787)"/>
    <path id="パス_217" data-name="パス 217" class="cls-2" d="M1402.33,613.281c.162.073.48.125.8.272.136.061.309.268.428.324a8.613,8.613,0,0,1,1.444.756c.182.11.215.226.436.323a2.125,2.125,0,0,1,.4.136c.063.055-.026.33.052.376a20.5,20.5,0,0,1,2.163,1.8c.182.159.427.316.641.486.171.135.275.376.453.511.376.3.945.492,1.256.783.24.231.3.668.506.886a4.906,4.906,0,0,0,.641.486c.274.249.579.438.856.655.178.134.273.129.428.323a3.907,3.907,0,0,0,.24.35c.281.248.6.387.856.647.182.174.282.67.667.673-.28.4-.924.12-1.528.02-.286-.047-.782-.122-1.18-.219a9.028,9.028,0,0,1-1.391-.381c-.23-.1-.933-.175-1.392-.382-.077-.037-.189-.158-.214-.162-.21-.073-.5.006-.777-.084-.093-.034-.174-.334-.24-.349a5.188,5.188,0,0,1-1-.252c-.11-.049.007-.177-.206-.163-.251.027-.347-.319-.623-.3-.243.026-.657-.252-1.017-.433-.111-.057.008-.176-.214-.162-.251.027-.338-.32-.615-.3a5.76,5.76,0,0,1-1.47-.945c-.063-.055.018-.329-.052-.375-.044-.026-.145.051-.188.026a.736.736,0,0,1-.215-.162c-.164-.153-.286-.344-.453-.512-.056-.056-.37-.084-.4-.136-.051-.088.015-.3-.052-.375s-.361-.077-.4-.135c-.062-.1.015-.29-.053-.376-.058-.071-.362-.077-.4-.136a3.134,3.134,0,0,1-.318-.912c-.2-1.1.424-1.885.95-2.811.159-.062.189.046.214.162a1.253,1.253,0,0,1,.964.058" transform="translate(-9609.963 1047.743)"/>
    <path id="パス_218" data-name="パス 218" class="cls-2" d="M1435.027,622.317a6.143,6.143,0,0,1,1.08-1.872c.359-.456,1.012-.985,1.508-1.548.275-.316.531-.774.808-1.076.064-.057.338.025.375-.052.112-.167.145-.571.485-.641s.334-.469.486-.642a5.029,5.029,0,0,0,.511-.453c.2-.252.772-.7,1.192-1.122.175-.175.365-.25.511-.453a2.619,2.619,0,0,0,.3-.615c.287-.231.611-.077.912-.318.144-.116.155-.493.3-.616.064-.056.338.018.375-.052s.079-.354.137-.4.337.018.376-.052c.175-.288.126-.3.511-.453,0,0,.524-.248.538-.266a1.3,1.3,0,0,1,.511-.454c.067-.032.343,0,.375-.052.013-.017-.041-.178-.026-.188.268-.132.8-.206,1.1-.344a7.718,7.718,0,0,0,.886-.505c.224,0,.332-.085.35-.239.23,0,.212.321.265.536-1.177,1.511-2.488,2.935-3.584,4.516-.348-.1-.434.2-.538.266a8.157,8.157,0,0,0-.86.692c-.1.086.056.176-.162.214-.294.057-.584.449-.861.694-.149.132-.211.323-.323.427-.063.065-.336-.009-.376.052-.078.131-.447.628-.672.675-.3.058-.584.448-.868.695-.142.123-.2.315-.324.428-.056.055-.329-.018-.375.052-.09.156-.163.493-.3.615-.056.055-.329-.019-.375.052-.176.286-.66.417-1.237.745-.051.032-.011.153-.162.214-.107.038-.281-.009-.376.052s-.234.375-.323.428a8.361,8.361,0,0,1-2.149,1.062" transform="translate(-9625.131 1049.109)"/>
    <path id="パス_219" data-name="パス 219" class="cls-2" d="M1439.343,600.237c-1.486-.025-1.883-1.509-2.319-2.932.636-.239.766.181,1.339.006.478.683,1.355,1.838.98,2.926" transform="translate(-9626 1054.623)"/>
    <path id="パス_220" data-name="パス 220" class="cls-2" d="M1433.906,597.15c.208,1.216,1.728,2.289.868,3.516-.311-.181-.859-.049-.854-.647a1.006,1.006,0,0,1-.292-.725c.032-.452.045-.3-.13-.939a2.6,2.6,0,0,1-.021-1.528c.176.064.36.118.428.323" transform="translate(-9624.409 1054.798)"/>
    <path id="パス_221" data-name="パス 221" class="cls-2" d="M1429.668,601.7c-.123.2-.133.879-.673.667a6.57,6.57,0,0,1,1.145-4.177c.181-.018.18.207.24.35a11.024,11.024,0,0,1-.252,2.331c-.029.084-.145.045-.162.213-.044.43-.135.346-.3.616" transform="translate(-9622.494 1054.205)"/>
    <path id="パス_222" data-name="パス 222" class="cls-2" d="M1424.265,600.58c-.1-1.813,1.734-2.161,2.408-3.4.378.02-.1.668-.246.991-.093.188-.241.272-.323.428-.084.139-.018.449-.11.588-.119.177-.384.285-.511.454-.189.25-.787,1.226-1.219.935" transform="translate(-9620.447 1054.643)"/>
    <path id="パス_223" data-name="パス 223" class="cls-2" d="M1432.2,583.717c-.062-.047.018-.329-.052-.375-.2-.115-.3-.094-.428-.324-.032-.059.01-.336-.052-.375a3.318,3.318,0,0,1-.364-2.628c.043-.094.137-.163.162-.214.049-.11.03-.475.111-.589.16-.221.719-.155.673-.667,2.02-.376,2.707,1.013,3.231,2.614a1.389,1.389,0,0,0-.3.615,2.048,2.048,0,0,1-.621,1.043c-.105.11-.217.333-.324.428s-.236.367-.323.427c-.18.136-.6-.045-.537.266-.184-.238-.9-.011-1.178-.219" transform="translate(-9623.456 1062.779)"/>
    <path id="パス_224" data-name="パス 224" class="cls-2" d="M1432.658,588.666c.629-.239.758.181,1.34.006a3.344,3.344,0,0,0,1.91-1.413c.811-.247.859.5,1.426.568.385,1.812.194,3.186-1.015,3.784-.864.087-1.521-.451-2.279.124-.267-.609-1.007-.594-1.631-.731-.406-1.147.594-1.238.25-2.338" transform="translate(-9623.948 1058.983)"/>
    <path id="パス_225" data-name="パス 225" class="cls-2" d="M1424.245,587.147c.354-.145.355-.025.537-.266s1.248.027,1.716-.045c-.321.563.088.745.532,1.073.393.306-.016.059-.3.616-.037.077.107.32.052.376-.02.027-.183,0-.188.027-.022.075.1.328.051.375-.172.192-.172.534,0,1.348-.868.414-1.085,1.322-2.175.875a3.062,3.062,0,0,1-1.556-1.507c-.024-.068-.174.016-.215-.169a2.075,2.075,0,0,1,.032-1.152c.09-.212.228-.254.331-.428a2.158,2.158,0,0,1,1.185-1.121" transform="translate(-9619.739 1059.17)"/>
    <path id="パス_226" data-name="パス 226" class="cls-2" d="M1133.642,669.222q.987-.019,1.978-.011c0-.108-.054-.236-.064-.345a2.518,2.518,0,0,1,.078-.964,2.416,2.416,0,0,0-.07-.376,7.647,7.647,0,0,1,.008-1.339,3.663,3.663,0,0,1,.077-.965c.058-.317-.1-.388.144-.589.066-.055-.1-.3-.069-.375.008-.024.223-.007.251-.026.044-.045-.08-.319-.069-.376.05-1.169-.363-2.378-.409-3.6a11.263,11.263,0,0,0,.05-2.493l-1.248.13c.023.245-.275.292-.147.59-.019.01-.25.019-.249.026-.061.995.065,2.025.054,3.056-.023,1.086-.074,2.655-.172,3.278-.01.121.08.255.069.376-.025.895-.047,1.472-.074,2.3-.025.563-.088,1.135-.138,1.7" transform="translate(-9494.009 1028.288)"/>
    <path id="パス_227" data-name="パス 227" class="cls-2" d="M1133.445,639.2a12.271,12.271,0,0,1-.011-4.216c.1-.888-.283-2.339-.123-3.431.019-.123.215-.214.215-.214.025-.736-.281-1.182-.1-1.9.018-.073.238-.033.214-.213-.013-.134-.107-.986.292-1.187-.332-.707-.439-.943-.026-1.528.279.019.235.358.568.324a4.593,4.593,0,0,1,.2,2.474c-.016.425.05.9-.006,1.341-.046.379-.286.811-.292,1.179,0,.606.3,1.276.345,1.877a17.8,17.8,0,0,1-.153,1.93c-.032.7.157,1.37.095,1.9,0,.041-.235.049-.215.214.01.055.048.146.035.188a19.309,19.309,0,0,0-.549,2.552c-.552-.349-.395-.82-.493-1.289" transform="translate(-9493.839 1041.887)"/>
    <path id="パス_228" data-name="パス 228" class="cls-2" d="M1094.283,636.036c.215.073.638.125,1.068.272.181.061.411.268.569.324a13.217,13.217,0,0,1,1.921.756c.243.11.285.226.579.323a3.537,3.537,0,0,1,.535.136c.083.055-.036.33.069.376a27.08,27.08,0,0,1,2.878,1.8c.242.159.567.316.853.486.227.135.366.375.6.511.5.3,1.258.492,1.671.783.319.231.4.668.673.886a6.727,6.727,0,0,0,.853.486c.364.249.771.438,1.139.655a2.169,2.169,0,0,1,.57.323,4.13,4.13,0,0,0,.318.35c.374.248.8.387,1.138.647.242.174.377.67.888.673-.373.4-1.23.12-2.033.02-.381-.047-1.041-.122-1.569-.219a15.272,15.272,0,0,1-1.852-.381c-.306-.1-1.241-.175-1.852-.382-.1-.037-.252-.158-.285-.162-.279-.073-.667.006-1.034-.083-.124-.034-.232-.335-.319-.349a8.8,8.8,0,0,1-1.33-.252c-.146-.049.01-.177-.273-.163-.335.027-.463-.319-.829-.3a4.472,4.472,0,0,1-1.353-.433c-.149-.057.01-.177-.285-.162-.334.027-.451-.32-.818-.3a8.33,8.33,0,0,1-1.956-.945c-.085-.055.024-.329-.07-.375-.058-.027-.193.051-.25.026a1.013,1.013,0,0,1-.285-.162c-.219-.153-.381-.344-.6-.512-.074-.056-.492-.084-.534-.136-.069-.088.02-.3-.07-.375-.075-.064-.48-.077-.533-.135-.083-.1.02-.29-.07-.376-.077-.071-.482-.077-.535-.136a2.687,2.687,0,0,1-.422-.912c-.267-1.1.565-1.885,1.265-2.812.211-.061.251.046.285.162a2.176,2.176,0,0,1,1.283.058" transform="translate(-9475.631 1037.843)"/>
    <path id="パス_229" data-name="パス 229" class="cls-2" d="M1137.792,645.072a5.993,5.993,0,0,1,1.438-1.872c.477-.456,1.346-.985,2-1.548.367-.317.706-.775,1.076-1.076.084-.056.451.025.5-.052.15-.167.193-.571.646-.641s.445-.469.646-.642a6.617,6.617,0,0,0,.681-.453c.272-.252,1.028-.7,1.586-1.122a5.1,5.1,0,0,0,.68-.453,2.425,2.425,0,0,0,.395-.615c.382-.231.814-.077,1.215-.318.191-.116.207-.492.4-.616.086-.057.449.018.5-.052s.106-.354.182-.4.45.018.5-.052c.233-.288.168-.3.68-.453,0,0,.7-.249.715-.266a1.682,1.682,0,0,1,.68-.454c.089-.033.456,0,.5-.052.018-.018-.055-.178-.035-.187.358-.132,1.065-.206,1.464-.344a11.651,11.651,0,0,0,1.18-.505c.3,0,.441-.085.465-.239.307,0,.282.321.353.536-1.567,1.511-3.31,2.935-4.769,4.516-.462-.1-.577.2-.715.266a10.994,10.994,0,0,0-1.145.692c-.132.086.074.176-.215.214a3.475,3.475,0,0,0-1.146.694c-.2.132-.28.323-.43.427-.083.065-.447-.009-.5.052a2.274,2.274,0,0,1-.894.675c-.4.058-.777.448-1.155.695-.19.123-.27.315-.432.428-.073.055-.437-.019-.5.052-.12.156-.217.493-.4.615-.074.055-.438-.019-.5.052a5.737,5.737,0,0,1-1.645.745c-.068.032-.015.153-.215.214-.142.038-.374-.009-.5.052s-.312.375-.43.428a12.928,12.928,0,0,1-2.86,1.062" transform="translate(-9495.814 1039.209)"/>
    <path id="パス_230" data-name="パス 230" class="cls-2" d="M1143.534,622.992c-1.978-.025-2.507-1.509-3.086-2.932.847-.239,1.02.181,1.783.006.636.683,1.8,1.838,1.3,2.926" transform="translate(-9496.97 1044.723)"/>
    <path id="パス_231" data-name="パス 231" class="cls-2" d="M1136.3,619.9c.277,1.216,2.3,2.289,1.156,3.516-.415-.181-1.143-.049-1.137-.647a.906.906,0,0,1-.388-.725c.043-.452.061-.3-.172-.939a1.98,1.98,0,0,1-.028-1.528c.234.064.479.118.57.323" transform="translate(-9494.854 1044.899)"/>
    <path id="パス_232" data-name="パス 232" class="cls-2" d="M1130.66,624.455c-.164.2-.177.88-.9.667-.227-1.81.637-3,1.524-4.177.241-.018.24.207.319.35a8.417,8.417,0,0,1-.335,2.331c-.038.084-.193.045-.216.213-.057.43-.18.346-.395.616" transform="translate(-9492.306 1044.306)"/>
    <path id="パス_233" data-name="パス 233" class="cls-2" d="M1123.471,623.334c-.132-1.813,2.307-2.161,3.2-3.4.5.02-.131.668-.327.991-.124.188-.32.272-.431.428-.111.139-.024.449-.146.588-.157.177-.51.285-.68.454-.251.25-1.047,1.226-1.621.935" transform="translate(-9489.581 1044.743)"/>
    <path id="パス_234" data-name="パス 234" class="cls-2" d="M1134.026,606.472c-.083-.047.024-.329-.068-.375-.267-.115-.4-.094-.57-.324-.042-.059.012-.336-.069-.375-.532-.24-.87-2.022-.484-2.628.057-.094.182-.163.215-.214.065-.11.041-.475.147-.589.214-.221.956-.155.895-.667,2.688-.376,3.6,1.013,4.3,2.614a1.293,1.293,0,0,0-.4.615,2.01,2.01,0,0,1-.827,1.043c-.138.11-.288.333-.43.428s-.315.367-.43.427c-.24.136-.794-.045-.715.265-.245-.238-1.2-.01-1.568-.219" transform="translate(-9493.585 1052.88)"/>
    <path id="パス_235" data-name="パス 235" class="cls-2" d="M1134.639,611.421c.837-.239,1.008.181,1.783.006a4.547,4.547,0,0,0,2.541-1.413c1.078-.247,1.142.5,1.9.568.514,1.812.258,3.186-1.351,3.784-1.15.087-2.024-.451-3.032.124-.356-.609-1.34-.594-2.172-.731-.541-1.147.791-1.238.333-2.338" transform="translate(-9494.24 1049.083)"/>
    <path id="パス_236" data-name="パス 236" class="cls-2" d="M1123.445,609.9c.472-.145.473-.025.714-.266s1.661.027,2.284-.045c-.427.563.116.745.708,1.073.522.306-.022.059-.4.616-.048.077.144.32.069.376-.027.027-.244,0-.251.027-.029.075.136.328.069.375-.229.192-.229.534,0,1.348-1.155.414-1.443,1.323-2.894.875a3.813,3.813,0,0,1-2.07-1.506c-.033-.068-.231.015-.286-.17a1.581,1.581,0,0,1,.042-1.152c.12-.212.3-.254.441-.428a2.667,2.667,0,0,1,1.576-1.121" transform="translate(-9488.638 1049.27)"/>
    <path id="パス_237" data-name="パス 237" class="cls-2" d="M1309.784,685.707q.742-.02,1.486-.011c0-.108-.041-.236-.049-.345a3.323,3.323,0,0,1,.059-.964,3.089,3.089,0,0,0-.052-.376,10.19,10.19,0,0,1,.006-1.339,4.829,4.829,0,0,1,.058-.965c.044-.317-.078-.388.109-.589.049-.055-.074-.3-.052-.375.006-.024.167-.007.188-.026.033-.045-.06-.319-.052-.376.038-1.169-.273-2.378-.307-3.6a14.975,14.975,0,0,0,.037-2.493l-.938.13c.017.245-.207.292-.111.59-.015.01-.188.019-.187.026-.045.995.05,2.025.041,3.056-.018,1.086-.056,2.655-.129,3.278-.007.121.06.255.053.376-.019.895-.035,1.472-.056,2.3-.019.563-.066,1.135-.1,1.7" transform="translate(-9570.643 1021.116)"/>
    <path id="パス_238" data-name="パス 238" class="cls-2" d="M1309.635,655.682a16.306,16.306,0,0,1-.008-4.216c.077-.888-.213-2.339-.093-3.432a.366.366,0,0,1,.162-.214,10.091,10.091,0,0,1-.072-1.9c.013-.073.179-.032.161-.212-.01-.134-.08-.986.219-1.187-.25-.707-.33-.943-.02-1.528.21.019.177.358.428.324a6.041,6.041,0,0,1,.15,2.474c-.012.425.037.9,0,1.341-.035.379-.215.811-.22,1.179,0,.606.224,1.276.259,1.877s-.1,1.313-.115,1.93c-.024.7.118,1.37.072,1.9,0,.041-.177.048-.161.214a.772.772,0,0,1,.026.188,24.793,24.793,0,0,0-.412,2.552c-.415-.349-.3-.82-.371-1.289" transform="translate(-9570.516 1034.714)"/>
    <path id="パス_239" data-name="パス 239" class="cls-2" d="M1280.2,652.522c.162.073.48.125.8.272.136.061.309.268.428.324a8.574,8.574,0,0,1,1.444.756c.182.11.215.225.436.323a2.06,2.06,0,0,1,.4.136c.064.055-.025.33.052.376a20.436,20.436,0,0,1,2.163,1.8c.182.159.427.316.642.486.171.135.275.376.453.511.377.3.945.492,1.256.783.24.23.3.668.506.886a4.864,4.864,0,0,0,.641.486c.273.249.579.438.856.655.178.134.273.129.428.323a3.933,3.933,0,0,0,.24.35c.281.248.6.387.855.647.183.174.283.67.668.673-.28.4-.924.12-1.528.02-.286-.047-.782-.122-1.18-.219a9.018,9.018,0,0,1-1.391-.381c-.23-.1-.933-.174-1.392-.382-.077-.037-.189-.158-.214-.162-.21-.073-.5.006-.777-.084-.093-.034-.174-.334-.239-.349a5.178,5.178,0,0,1-1-.252c-.11-.049.007-.177-.206-.163-.251.027-.347-.319-.624-.3-.242.026-.656-.252-1.016-.433-.111-.057.007-.176-.214-.162-.251.026-.338-.32-.615-.3a5.77,5.77,0,0,1-1.471-.945c-.063-.055.019-.329-.051-.375-.043-.027-.146.051-.188.026a.733.733,0,0,1-.215-.162c-.165-.153-.286-.344-.453-.512-.056-.056-.371-.084-.4-.136-.051-.088.015-.3-.052-.375s-.361-.077-.4-.135c-.062-.1.015-.29-.052-.376-.058-.071-.362-.077-.4-.135a3.15,3.15,0,0,1-.317-.912c-.2-1.1.424-1.885.95-2.811.16-.062.19.046.215.162a1.254,1.254,0,0,1,.964.058" transform="translate(-9556.83 1030.671)"/>
    <path id="パス_240" data-name="パス 240" class="cls-2" d="M1312.9,661.558a6.15,6.15,0,0,1,1.08-1.872c.359-.456,1.012-.985,1.507-1.548.276-.316.531-.775.808-1.076.064-.057.339.025.375-.052.112-.167.145-.571.485-.641s.334-.469.486-.642a5.113,5.113,0,0,0,.511-.453c.2-.252.772-.7,1.192-1.122.175-.175.364-.25.511-.453a2.619,2.619,0,0,0,.3-.615c.287-.231.611-.077.912-.318.144-.116.155-.493.3-.616.064-.057.338.017.375-.052s.079-.354.137-.4.337.017.375-.052c.176-.288.127-.3.511-.453,0,0,.524-.248.538-.266a1.3,1.3,0,0,1,.511-.454c.067-.032.343,0,.375-.052.013-.017-.041-.178-.026-.188.268-.132.8-.206,1.1-.344a7.719,7.719,0,0,0,.886-.505c.223,0,.332-.085.35-.239.23,0,.212.321.264.536-1.177,1.511-2.488,2.935-3.583,4.516-.348-.1-.434.2-.538.266a8.212,8.212,0,0,0-.861.692c-.1.086.057.176-.161.214-.294.057-.584.448-.861.694-.149.132-.211.323-.323.427-.063.065-.336-.009-.376.052-.078.131-.448.628-.673.675-.3.058-.584.448-.868.695-.142.123-.2.315-.324.428-.056.055-.329-.018-.375.052-.09.156-.163.493-.3.615-.056.055-.329-.019-.375.052-.176.286-.66.417-1.237.745-.051.032-.011.153-.161.214-.107.038-.281-.009-.376.052s-.234.375-.323.428a8.369,8.369,0,0,1-2.149,1.062" transform="translate(-9571.999 1032.036)"/>
    <path id="パス_241" data-name="パス 241" class="cls-2" d="M1317.218,639.478c-1.486-.025-1.884-1.509-2.319-2.932.636-.239.766.181,1.34.006.478.683,1.355,1.838.979,2.926" transform="translate(-9572.867 1037.551)"/>
    <path id="パス_242" data-name="パス 242" class="cls-2" d="M1311.781,636.39c.208,1.216,1.728,2.289.868,3.516-.311-.181-.859-.049-.854-.647a1.007,1.007,0,0,1-.292-.725c.032-.452.045-.3-.13-.939a2.594,2.594,0,0,1-.021-1.528c.176.064.36.118.428.323" transform="translate(-9571.277 1037.726)"/>
    <path id="パス_243" data-name="パス 243" class="cls-2" d="M1307.543,640.941c-.123.2-.133.879-.673.667a6.571,6.571,0,0,1,1.145-4.177c.181-.018.18.207.24.35a11.024,11.024,0,0,1-.252,2.331c-.029.084-.145.045-.162.213-.043.43-.135.346-.3.616" transform="translate(-9569.362 1037.133)"/>
    <path id="パス_244" data-name="パス 244" class="cls-2" d="M1302.14,639.82c-.1-1.813,1.734-2.161,2.408-3.4.378.02-.1.668-.246.991-.093.188-.241.272-.323.428-.084.139-.018.449-.11.588-.119.177-.384.285-.511.454-.189.25-.787,1.226-1.219.935" transform="translate(-9567.314 1037.571)"/>
    <path id="パス_245" data-name="パス 245" class="cls-2" d="M1310.072,622.957c-.062-.047.018-.329-.051-.375-.2-.115-.3-.094-.428-.324-.032-.059.01-.336-.052-.375a3.317,3.317,0,0,1-.364-2.628c.044-.094.137-.163.162-.214.049-.11.03-.474.111-.589.16-.221.719-.155.673-.667,2.02-.376,2.707,1.013,3.231,2.614a1.39,1.39,0,0,0-.3.615,2.047,2.047,0,0,1-.621,1.043c-.1.11-.217.333-.324.428s-.236.367-.323.427c-.18.136-.6-.045-.537.265-.184-.238-.9-.01-1.178-.219" transform="translate(-9570.323 1045.707)"/>
    <path id="パス_246" data-name="パス 246" class="cls-2" d="M1310.533,627.907c.63-.239.758.181,1.34.006a3.346,3.346,0,0,0,1.909-1.413c.811-.247.859.5,1.426.568.386,1.812.194,3.186-1.015,3.784-.864.087-1.521-.451-2.279.124-.267-.609-1.007-.594-1.631-.731-.406-1.147.594-1.238.25-2.338" transform="translate(-9570.816 1041.91)"/>
    <path id="パス_247" data-name="パス 247" class="cls-2" d="M1302.12,626.387c.355-.145.355-.025.537-.266s1.249.027,1.716-.045c-.321.563.088.745.532,1.073.393.306-.016.059-.3.616-.037.077.108.32.052.376-.02.026-.183,0-.188.026-.022.075.1.328.051.375-.172.192-.172.534,0,1.349-.868.414-1.085,1.322-2.175.875a3.067,3.067,0,0,1-1.556-1.507c-.024-.068-.173.015-.215-.17a2.074,2.074,0,0,1,.032-1.153c.09-.212.228-.254.331-.428a2.161,2.161,0,0,1,1.185-1.121" transform="translate(-9566.605 1042.098)"/>
    <path id="パス_248" data-name="パス 248" class="cls-2" d="M1503.109,597.338q.742-.019,1.486-.011c0-.108-.041-.236-.048-.345a3.318,3.318,0,0,1,.059-.964,3.161,3.161,0,0,0-.052-.376,10.259,10.259,0,0,1,.006-1.34,4.857,4.857,0,0,1,.058-.965c.044-.317-.077-.388.109-.589.049-.055-.074-.3-.052-.375.006-.024.167-.007.188-.026.034-.045-.06-.319-.052-.376.037-1.169-.273-2.378-.307-3.6a14.986,14.986,0,0,0,.037-2.493l-.938.13c.017.245-.207.292-.111.59-.014.01-.188.019-.188.026-.045.995.05,2.025.041,3.056-.018,1.086-.056,2.655-.129,3.278-.007.122.06.255.052.376-.019.895-.035,1.472-.056,2.3-.019.563-.066,1.135-.1,1.7" transform="translate(-9654.752 1059.562)"/>
    <path id="パス_249" data-name="パス 249" class="cls-2" d="M1502.96,567.313a16.311,16.311,0,0,1-.009-4.216c.077-.887-.212-2.339-.093-3.431a.366.366,0,0,1,.162-.214,10.091,10.091,0,0,1-.072-1.9c.013-.073.179-.032.161-.212-.01-.135-.08-.986.219-1.187-.25-.707-.33-.943-.02-1.528.21.019.177.358.428.324a6.047,6.047,0,0,1,.15,2.474c-.012.425.037.9,0,1.341-.035.379-.215.811-.22,1.179,0,.606.224,1.276.259,1.877s-.1,1.313-.115,1.93c-.023.7.118,1.37.072,1.9,0,.041-.177.049-.162.214a.784.784,0,0,1,.027.188,24.855,24.855,0,0,0-.412,2.552c-.415-.349-.3-.82-.371-1.289" transform="translate(-9654.624 1073.161)"/>
    <path id="パス_250" data-name="パス 250" class="cls-2" d="M1473.53,564.153c.162.073.48.125.8.272.136.061.31.268.428.324a8.608,8.608,0,0,1,1.444.756c.182.11.215.226.436.323a2.091,2.091,0,0,1,.4.136c.063.055-.026.33.052.376a20.506,20.506,0,0,1,2.163,1.8c.182.159.426.316.641.486.171.135.275.376.454.511.376.3.945.492,1.256.783.24.231.3.668.506.886a4.921,4.921,0,0,0,.641.486c.273.249.579.438.856.655.179.134.273.129.428.323a3.916,3.916,0,0,0,.24.35c.281.248.6.387.856.647.182.174.282.67.667.673-.28.4-.924.12-1.528.02-.286-.047-.782-.122-1.18-.219a9.028,9.028,0,0,1-1.391-.381c-.23-.1-.933-.175-1.392-.382-.078-.037-.189-.158-.214-.162-.21-.073-.5.006-.777-.083-.093-.034-.174-.335-.24-.349a5.183,5.183,0,0,1-1-.252c-.11-.049.007-.177-.206-.163-.251.027-.347-.319-.623-.3-.243.026-.657-.252-1.016-.433-.112-.057.007-.176-.215-.162-.251.027-.338-.32-.615-.3a5.755,5.755,0,0,1-1.47-.945c-.063-.055.018-.329-.052-.375-.043-.027-.145.051-.188.026a.727.727,0,0,1-.214-.162c-.165-.153-.287-.344-.454-.512-.056-.056-.37-.084-.4-.135-.052-.088.015-.3-.052-.375s-.361-.077-.4-.135c-.062-.1.015-.29-.052-.376-.058-.071-.362-.077-.4-.136a3.147,3.147,0,0,1-.318-.912c-.2-1.1.424-1.885.95-2.811.159-.062.189.046.215.162a1.253,1.253,0,0,1,.964.058" transform="translate(-9640.939 1069.117)"/>
    <path id="パス_251" data-name="パス 251" class="cls-2" d="M1506.228,573.189a6.143,6.143,0,0,1,1.08-1.872c.359-.456,1.012-.985,1.507-1.548.276-.316.531-.775.809-1.076.064-.056.338.025.375-.052.112-.167.145-.571.484-.641s.335-.47.487-.642a4.924,4.924,0,0,0,.511-.453c.2-.252.773-.7,1.193-1.122.175-.175.364-.25.511-.453a2.644,2.644,0,0,0,.3-.615c.287-.231.611-.077.912-.318.145-.116.156-.493.3-.616.064-.057.337.017.375-.052s.079-.354.136-.4.338.018.375-.052c.176-.288.127-.3.511-.453,0,0,.524-.248.538-.266a1.306,1.306,0,0,1,.51-.454c.068-.032.344,0,.376-.052.014-.017-.041-.178-.025-.188.268-.132.8-.206,1.1-.344a7.768,7.768,0,0,0,.886-.505c.224,0,.332-.085.35-.239.231,0,.212.321.265.536-1.177,1.511-2.488,2.935-3.584,4.516-.348-.1-.434.2-.538.265a8.283,8.283,0,0,0-.86.692c-.1.086.056.176-.162.214-.294.057-.585.448-.862.694-.148.132-.21.323-.323.427-.063.065-.336-.009-.376.052-.078.131-.447.628-.673.675-.3.058-.583.449-.868.695-.142.123-.2.315-.324.428-.056.055-.329-.018-.375.052-.09.156-.163.493-.3.615-.056.055-.329-.019-.375.052-.176.286-.66.417-1.237.745-.051.032-.011.152-.162.214-.107.038-.281-.009-.376.052s-.235.375-.324.428a8.359,8.359,0,0,1-2.148,1.062" transform="translate(-9656.108 1070.483)"/>
    <path id="パス_252" data-name="パス 252" class="cls-2" d="M1510.543,551.109c-1.486-.025-1.884-1.509-2.319-2.932.636-.239.766.181,1.339.006.478.683,1.355,1.838.98,2.926" transform="translate(-9656.977 1075.997)"/>
    <path id="パス_253" data-name="パス 253" class="cls-2" d="M1505.106,548.021c.208,1.216,1.728,2.289.868,3.516-.311-.181-.859-.049-.854-.647a1.009,1.009,0,0,1-.292-.725,1.651,1.651,0,0,0-.129-.939,2.6,2.6,0,0,1-.021-1.528c.176.064.36.118.428.323" transform="translate(-9655.387 1076.172)"/>
    <path id="パス_254" data-name="パス 254" class="cls-2" d="M1500.868,552.572c-.124.2-.133.879-.673.667a6.571,6.571,0,0,1,1.145-4.177c.181-.018.18.207.24.35a11.049,11.049,0,0,1-.252,2.331c-.029.084-.145.045-.162.213-.043.43-.135.346-.3.616" transform="translate(-9653.472 1075.579)"/>
    <path id="パス_255" data-name="パス 255" class="cls-2" d="M1495.465,551.451c-.1-1.813,1.734-2.161,2.408-3.4.378.02-.1.668-.246.991-.093.188-.241.272-.323.428-.083.139-.018.449-.109.588-.119.177-.384.285-.511.454-.189.25-.787,1.226-1.219.935" transform="translate(-9651.424 1076.017)"/>
    <path id="パス_256" data-name="パス 256" class="cls-2" d="M1503.4,534.588c-.062-.047.018-.329-.052-.375-.2-.115-.3-.094-.428-.324-.032-.059.01-.336-.052-.375a3.317,3.317,0,0,1-.364-2.628c.043-.094.137-.163.161-.214.049-.11.03-.475.111-.589.161-.221.719-.155.673-.667,2.02-.377,2.707,1.012,3.231,2.614a1.39,1.39,0,0,0-.3.615,2.046,2.046,0,0,1-.621,1.043c-.1.11-.217.333-.324.428s-.236.368-.323.427c-.18.136-.6-.045-.537.266-.184-.238-.9-.011-1.178-.219" transform="translate(-9654.433 1084.154)"/>
    <path id="パス_257" data-name="パス 257" class="cls-2" d="M1503.858,539.538c.629-.239.758.181,1.34.006a3.347,3.347,0,0,0,1.91-1.412c.811-.248.859.5,1.426.568.386,1.812.194,3.186-1.015,3.785-.864.087-1.521-.451-2.279.124-.267-.609-1.007-.594-1.632-.731-.406-1.147.594-1.238.25-2.338" transform="translate(-9654.925 1080.356)"/>
    <path id="パス_258" data-name="パス 258" class="cls-2" d="M1495.445,538.019c.354-.145.355-.025.537-.266s1.249.027,1.716-.045c-.321.563.088.745.531,1.073.393.306-.016.059-.3.616-.037.077.107.32.052.376-.02.027-.183,0-.188.027-.022.075.1.328.051.375-.172.192-.172.534,0,1.348-.868.414-1.085,1.322-2.175.875a3.069,3.069,0,0,1-1.556-1.507c-.024-.068-.173.015-.215-.17a2.074,2.074,0,0,1,.032-1.152c.09-.212.228-.254.331-.428a2.158,2.158,0,0,1,1.185-1.121" transform="translate(-9650.715 1080.544)"/>
    <path id="パス_259" data-name="パス 259" class="cls-2" d="M1121.027,589.355q.741-.02,1.486-.011c0-.108-.041-.236-.048-.345a3.314,3.314,0,0,1,.059-.964,3.269,3.269,0,0,0-.052-.376,10.284,10.284,0,0,1,.005-1.339,4.863,4.863,0,0,1,.058-.965c.044-.317-.078-.388.109-.589.05-.055-.073-.3-.052-.376.006-.024.167-.006.188-.025.033-.045-.06-.319-.052-.376.037-1.169-.273-2.378-.307-3.6a15.013,15.013,0,0,0,.037-2.493l-.938.13c.017.245-.207.292-.111.59-.015.01-.188.019-.187.026-.045.995.05,2.025.041,3.056-.017,1.086-.055,2.655-.129,3.278-.007.121.06.255.052.376-.019.895-.035,1.472-.055,2.3-.019.563-.066,1.135-.1,1.7" transform="translate(-9488.521 1063.035)"/>
    <path id="パス_260" data-name="パス 260" class="cls-2" d="M1120.879,559.329a16.339,16.339,0,0,1-.009-4.216c.078-.887-.212-2.339-.092-3.431a.366.366,0,0,1,.161-.214,10.087,10.087,0,0,1-.072-1.9c.013-.073.179-.033.161-.213-.01-.135-.08-.986.219-1.187-.25-.707-.33-.943-.02-1.528.21.019.177.358.428.324a6.039,6.039,0,0,1,.15,2.473c-.012.425.037.9,0,1.341-.035.379-.215.811-.22,1.179,0,.606.224,1.276.259,1.877s-.1,1.313-.115,1.93c-.024.7.118,1.37.072,1.9,0,.041-.177.049-.162.214a.772.772,0,0,1,.027.188,24.875,24.875,0,0,0-.413,2.552c-.415-.349-.3-.82-.37-1.289" transform="translate(-9488.394 1076.634)"/>
    <path id="パス_261" data-name="パス 261" class="cls-2" d="M1091.448,556.169c.162.073.48.125.8.272.135.061.309.268.428.324a8.58,8.58,0,0,1,1.444.756c.182.11.215.225.436.323a2.083,2.083,0,0,1,.4.135c.063.055-.026.33.052.376a20.506,20.506,0,0,1,2.163,1.8c.182.159.427.316.641.486.171.135.275.376.453.511.376.3.945.491,1.256.783.24.23.3.668.506.886a4.9,4.9,0,0,0,.641.486c.273.249.579.438.856.655.179.134.274.129.428.323a3.931,3.931,0,0,0,.239.35c.281.248.6.387.855.647.183.174.283.67.667.673-.28.4-.924.12-1.528.02-.286-.047-.782-.122-1.18-.219a9.017,9.017,0,0,1-1.391-.381c-.23-.1-.933-.175-1.392-.382-.077-.037-.189-.158-.214-.162-.21-.073-.5.006-.777-.083-.093-.034-.174-.335-.24-.349a5.184,5.184,0,0,1-1-.252c-.11-.049.007-.177-.206-.163-.251.026-.348-.319-.623-.3-.243.026-.657-.252-1.017-.433-.111-.057.008-.176-.214-.162-.251.026-.338-.32-.615-.3a5.757,5.757,0,0,1-1.47-.945c-.063-.055.018-.329-.052-.375-.043-.027-.145.051-.187.026a.731.731,0,0,1-.215-.162c-.164-.153-.286-.344-.453-.512-.056-.056-.37-.084-.4-.136-.051-.088.015-.3-.052-.375s-.361-.077-.4-.135c-.062-.1.015-.29-.053-.376-.058-.071-.362-.077-.4-.136a3.148,3.148,0,0,1-.318-.912c-.2-1.1.424-1.885.95-2.811.159-.062.189.046.214.162a1.254,1.254,0,0,1,.964.058" transform="translate(-9474.708 1072.59)"/>
    <path id="パス_262" data-name="パス 262" class="cls-2" d="M1124.145,565.2a6.137,6.137,0,0,1,1.08-1.872c.359-.456,1.012-.985,1.508-1.548.275-.316.531-.774.808-1.076.064-.057.339.025.375-.052.113-.167.145-.571.485-.641s.334-.469.486-.642a5.011,5.011,0,0,0,.511-.453c.2-.252.772-.7,1.192-1.122.175-.175.364-.25.511-.453a2.623,2.623,0,0,0,.3-.615c.287-.231.611-.077.912-.318.144-.116.155-.493.3-.616.064-.056.338.018.375-.052s.079-.354.137-.4.337.018.375-.052c.176-.288.127-.3.511-.453,0,0,.524-.248.538-.266a1.305,1.305,0,0,1,.511-.454c.067-.032.343,0,.376-.052.013-.017-.041-.178-.026-.188.268-.132.8-.206,1.1-.344a7.747,7.747,0,0,0,.886-.505c.224,0,.332-.085.35-.239.231,0,.212.321.264.536-1.177,1.511-2.487,2.935-3.583,4.516-.348-.1-.435.2-.538.265a8.242,8.242,0,0,0-.861.692c-.1.086.057.176-.161.214-.294.057-.584.449-.861.694-.149.132-.211.323-.323.427-.063.065-.335-.009-.375.052-.078.131-.448.628-.673.675-.3.058-.583.448-.868.695-.142.123-.2.315-.324.428-.056.055-.329-.018-.375.052-.09.156-.163.493-.3.615-.056.055-.329-.019-.375.052-.176.286-.66.417-1.237.745-.051.032-.011.153-.162.214-.107.038-.281-.009-.376.052s-.234.375-.323.428a8.372,8.372,0,0,1-2.149,1.062" transform="translate(-9489.877 1073.956)"/>
    <path id="パス_263" data-name="パス 263" class="cls-2" d="M1128.461,543.125c-1.486-.025-1.884-1.509-2.319-2.932.636-.239.766.181,1.339.006.478.683,1.355,1.838.98,2.926" transform="translate(-9490.745 1079.471)"/>
    <path id="パス_264" data-name="パス 264" class="cls-2" d="M1123.024,540.037c.208,1.216,1.728,2.289.868,3.516-.311-.181-.859-.049-.854-.647a1.006,1.006,0,0,1-.292-.725c.032-.451.045-.3-.13-.939a2.591,2.591,0,0,1-.021-1.528c.176.064.36.118.428.323" transform="translate(-9489.155 1079.646)"/>
    <path id="パス_265" data-name="パス 265" class="cls-2" d="M1118.786,544.588c-.124.2-.133.879-.673.667a6.571,6.571,0,0,1,1.145-4.177c.181-.018.18.207.24.35a10.977,10.977,0,0,1-.251,2.331c-.029.084-.145.045-.162.213-.043.43-.136.346-.3.616" transform="translate(-9487.24 1079.053)"/>
    <path id="パス_266" data-name="パス 266" class="cls-2" d="M1113.383,543.468c-.1-1.813,1.734-2.161,2.408-3.4.378.02-.1.668-.246.991-.093.188-.241.272-.323.428-.084.139-.018.448-.11.588-.119.177-.384.285-.511.454-.189.25-.787,1.226-1.219.935" transform="translate(-9485.193 1079.49)"/>
    <path id="パス_267" data-name="パス 267" class="cls-2" d="M1121.315,526.6c-.062-.047.018-.329-.051-.375-.2-.115-.3-.094-.428-.324-.032-.059.01-.336-.052-.376a3.315,3.315,0,0,1-.364-2.628c.044-.094.137-.163.162-.214.049-.11.03-.475.111-.589.16-.221.719-.155.673-.667,2.02-.377,2.707,1.012,3.231,2.614a1.392,1.392,0,0,0-.3.615,2.048,2.048,0,0,1-.621,1.043c-.105.11-.217.333-.324.428s-.236.368-.323.427c-.18.136-.6-.045-.537.266-.184-.238-.9-.011-1.178-.219" transform="translate(-9488.201 1087.627)"/>
    <path id="パス_268" data-name="パス 268" class="cls-2" d="M1121.776,531.554c.629-.239.758.181,1.34.006a3.344,3.344,0,0,0,1.91-1.413c.811-.247.859.5,1.426.568.386,1.812.194,3.186-1.015,3.785-.864.087-1.521-.451-2.278.124-.268-.609-1.007-.594-1.632-.731-.406-1.147.594-1.238.25-2.338" transform="translate(-9488.694 1083.83)"/>
    <path id="パス_269" data-name="パス 269" class="cls-2" d="M1113.363,530.035c.355-.145.355-.025.537-.266s1.249.027,1.716-.045c-.321.563.088.745.532,1.073.393.306-.016.059-.3.616-.037.077.108.32.052.376-.02.027-.183,0-.188.027-.022.075.1.328.051.375-.172.192-.172.534,0,1.349-.868.414-1.085,1.322-2.175.875a3.068,3.068,0,0,1-1.556-1.507c-.024-.068-.173.015-.215-.17a2.074,2.074,0,0,1,.032-1.152c.09-.212.228-.254.331-.428a2.16,2.16,0,0,1,1.185-1.121" transform="translate(-9484.484 1084.017)"/>
    <path id="パス_270" data-name="パス 270" class="cls-2" d="M1057.339,623.442q.741-.02,1.486-.011c0-.108-.041-.236-.048-.345a3.314,3.314,0,0,1,.059-.964,3.189,3.189,0,0,0-.052-.376,10.129,10.129,0,0,1,.006-1.339,4.823,4.823,0,0,1,.058-.965c.044-.317-.077-.388.109-.589.049-.055-.073-.3-.052-.375.006-.024.167-.007.188-.026.033-.045-.06-.319-.052-.376.037-1.169-.273-2.378-.307-3.6a15.012,15.012,0,0,0,.037-2.493l-.938.13c.017.245-.207.292-.111.59-.014.01-.188.019-.187.026-.045.995.05,2.025.041,3.056-.018,1.086-.056,2.655-.129,3.278-.007.121.06.255.052.376-.019.895-.035,1.472-.056,2.3-.019.563-.065,1.135-.1,1.7" transform="translate(-9460.812 1048.205)"/>
    <path id="パス_271" data-name="パス 271" class="cls-2" d="M1057.191,593.417a16.3,16.3,0,0,1-.008-4.216c.077-.888-.213-2.339-.092-3.431a.363.363,0,0,1,.161-.214,10.1,10.1,0,0,1-.072-1.9c.013-.073.179-.033.161-.213-.01-.134-.08-.986.219-1.187-.25-.706-.33-.943-.02-1.528.21.019.177.358.427.324a6.041,6.041,0,0,1,.15,2.474c-.012.425.037.9,0,1.341-.035.379-.215.811-.22,1.179,0,.606.224,1.276.259,1.877s-.1,1.313-.115,1.93c-.023.7.118,1.37.072,1.9,0,.041-.177.049-.162.214a.765.765,0,0,1,.026.188,24.757,24.757,0,0,0-.412,2.552c-.415-.349-.3-.82-.37-1.289" transform="translate(-9460.685 1061.804)"/>
    <path id="パス_272" data-name="パス 272" class="cls-2" d="M1027.759,590.257c.162.073.48.125.8.272.135.061.309.268.428.324a8.581,8.581,0,0,1,1.444.756c.182.11.215.226.436.323a2.111,2.111,0,0,1,.4.136c.063.055-.025.33.052.376a20.485,20.485,0,0,1,2.163,1.8c.182.159.427.316.641.486.171.135.276.375.454.511.376.3.945.491,1.256.783.24.231.3.668.506.886a4.954,4.954,0,0,0,.641.486c.274.249.579.438.856.655.179.135.273.129.428.323a4.069,4.069,0,0,0,.24.35c.281.248.6.387.855.647.183.174.284.67.667.673-.28.4-.924.12-1.528.02-.286-.047-.782-.122-1.18-.219a9.044,9.044,0,0,1-1.392-.381c-.23-.1-.933-.175-1.392-.382-.077-.037-.189-.158-.214-.162-.21-.073-.5.006-.777-.084-.093-.034-.174-.334-.239-.349a5.174,5.174,0,0,1-1-.252c-.109-.049.008-.177-.206-.163-.251.026-.347-.319-.623-.3-.243.026-.657-.252-1.016-.433-.112-.057.007-.177-.215-.162-.25.027-.338-.32-.615-.3a5.763,5.763,0,0,1-1.47-.945c-.063-.055.019-.329-.052-.375-.043-.027-.145.051-.187.026a.753.753,0,0,1-.215-.162c-.164-.153-.286-.344-.453-.512-.056-.056-.37-.084-.4-.136-.052-.088.015-.3-.052-.375s-.361-.077-.4-.135c-.062-.1.015-.29-.052-.376-.058-.071-.362-.077-.4-.135a3.115,3.115,0,0,1-.317-.912c-.2-1.1.424-1.885.95-2.812.16-.061.189.046.214.162a1.254,1.254,0,0,1,.964.058" transform="translate(-9447 1057.76)"/>
    <path id="パス_273" data-name="パス 273" class="cls-2" d="M1060.457,599.293a6.139,6.139,0,0,1,1.08-1.872c.359-.457,1.012-.985,1.507-1.548.276-.317.531-.775.808-1.076.064-.057.339.025.375-.052.112-.167.144-.571.485-.641s.334-.47.486-.642a5.141,5.141,0,0,0,.511-.453c.2-.252.772-.7,1.192-1.122.175-.175.364-.25.511-.453a2.624,2.624,0,0,0,.3-.615c.287-.231.611-.077.912-.318.144-.116.155-.492.3-.616.064-.057.338.017.375-.052s.079-.354.137-.4.337.018.375-.052c.176-.288.127-.3.511-.453,0,0,.524-.249.538-.266a1.309,1.309,0,0,1,.511-.454c.067-.033.343,0,.375-.052.014-.018-.041-.178-.025-.188.268-.132.8-.206,1.1-.344a7.759,7.759,0,0,0,.886-.505c.224,0,.332-.085.35-.239.231,0,.212.321.265.536-1.178,1.511-2.488,2.935-3.584,4.516-.348-.1-.434.2-.538.266a8.193,8.193,0,0,0-.861.692c-.1.086.056.176-.162.214-.294.057-.584.449-.861.694-.149.132-.211.323-.323.427-.063.065-.335-.009-.375.052-.078.131-.448.628-.672.675-.3.058-.584.448-.868.695-.142.123-.2.315-.324.428-.056.055-.329-.019-.375.052-.09.156-.163.493-.3.615-.056.055-.329-.019-.375.052-.176.286-.66.417-1.237.745-.051.032-.011.153-.162.214-.107.038-.281-.009-.376.052s-.234.375-.323.428a8.368,8.368,0,0,1-2.149,1.062" transform="translate(-9462.168 1059.126)"/>
    <path id="パス_274" data-name="パス 274" class="cls-2" d="M1064.773,577.213c-1.486-.025-1.883-1.509-2.319-2.932.636-.239.766.181,1.339.006.478.683,1.355,1.838.979,2.926" transform="translate(-9463.037 1064.64)"/>
    <path id="パス_275" data-name="パス 275" class="cls-2" d="M1059.336,574.125c.208,1.216,1.728,2.289.868,3.516-.311-.181-.859-.049-.854-.647a1.008,1.008,0,0,1-.292-.725c.033-.451.046-.3-.129-.939a2.594,2.594,0,0,1-.021-1.528c.176.064.36.118.428.323" transform="translate(-9461.446 1064.816)"/>
    <path id="パス_276" data-name="パス 276" class="cls-2" d="M1055.1,578.676c-.123.2-.133.88-.673.667a6.571,6.571,0,0,1,1.145-4.177c.181-.018.18.207.24.35a11.04,11.04,0,0,1-.252,2.331c-.029.084-.145.045-.162.213-.043.431-.135.346-.3.616" transform="translate(-9459.532 1064.222)"/>
    <path id="パス_277" data-name="パス 277" class="cls-2" d="M1049.695,577.555c-.1-1.813,1.734-2.161,2.408-3.4.378.02-.1.668-.246.991-.093.188-.241.272-.323.428-.084.139-.018.449-.11.588-.119.177-.384.285-.511.454-.189.25-.787,1.226-1.219.935" transform="translate(-9457.484 1064.66)"/>
    <path id="パス_278" data-name="パス 278" class="cls-2" d="M1057.627,560.692c-.062-.047.018-.329-.051-.375-.2-.115-.3-.094-.428-.324-.032-.059.01-.336-.052-.375a3.317,3.317,0,0,1-.364-2.628c.043-.094.137-.163.161-.214.049-.11.03-.475.111-.589.16-.221.719-.155.673-.667,2.02-.376,2.707,1.013,3.231,2.614a1.393,1.393,0,0,0-.3.615,2.045,2.045,0,0,1-.621,1.043c-.1.11-.217.333-.324.428s-.235.368-.323.428c-.18.136-.6-.045-.537.265-.184-.238-.9-.011-1.179-.219" transform="translate(-9460.493 1072.797)"/>
    <path id="パス_279" data-name="パス 279" class="cls-2" d="M1058.088,565.642c.629-.239.758.181,1.34.006a3.345,3.345,0,0,0,1.91-1.413c.811-.247.859.5,1.426.568.385,1.812.194,3.186-1.015,3.784-.864.087-1.521-.451-2.279.124-.267-.609-1.007-.594-1.632-.731-.406-1.147.594-1.238.25-2.338" transform="translate(-9460.985 1069)"/>
    <path id="パス_280" data-name="パス 280" class="cls-2" d="M1049.675,564.123c.354-.145.355-.025.537-.266s1.249.027,1.716-.045c-.321.563.088.745.532,1.073.393.306-.016.059-.3.616-.037.077.107.32.052.376-.02.027-.183,0-.189.027-.021.075.1.328.052.375-.172.192-.172.534,0,1.349-.868.414-1.085,1.323-2.175.875a3.064,3.064,0,0,1-1.556-1.506c-.024-.068-.173.015-.215-.17a2.075,2.075,0,0,1,.032-1.152c.09-.212.228-.254.331-.428a2.16,2.16,0,0,1,1.185-1.121" transform="translate(-9456.776 1069.187)"/>
    <path id="パス_281" data-name="パス 281" class="cls-2" d="M1198.2,520.6q.741-.017,1.486-.009c0-.094-.041-.2-.048-.3a2.5,2.5,0,0,1,.059-.835,2.474,2.474,0,0,0-.053-.325,7.718,7.718,0,0,1,.006-1.16,3.656,3.656,0,0,1,.058-.836c.044-.274-.078-.336.109-.51.049-.048-.074-.261-.052-.325.006-.021.167-.006.188-.023.033-.039-.06-.276-.052-.325.037-1.012-.273-2.059-.307-3.118a11.273,11.273,0,0,0,.037-2.159l-.938.112c.017.212-.207.253-.111.511-.015.008-.188.016-.188.023-.045.862.05,1.754.041,2.646-.018.941-.056,2.3-.129,2.839-.007.1.06.22.052.325-.019.775-.034,1.274-.055,1.994-.019.488-.066.982-.1,1.474" transform="translate(-9522.097 1092.28)"/>
    <path id="パス_282" data-name="パス 282" class="cls-2" d="M1198.055,494.6a12.238,12.238,0,0,1-.008-3.651c.077-.768-.213-2.025-.093-2.972.015-.106.161-.185.161-.185a7.585,7.585,0,0,1-.072-1.649c.013-.063.179-.028.161-.184-.01-.116-.08-.854.219-1.028-.25-.612-.33-.817-.02-1.323.21.016.177.31.427.28a4.555,4.555,0,0,1,.15,2.142c-.012.368.037.776,0,1.161-.036.328-.215.7-.22,1.021,0,.525.224,1.105.259,1.625s-.1,1.137-.115,1.671c-.024.6.118,1.186.072,1.648,0,.035-.177.042-.162.185a.584.584,0,0,1,.026.163,18.8,18.8,0,0,0-.412,2.21c-.415-.3-.3-.71-.37-1.116" transform="translate(-9521.97 1104.055)"/>
    <path id="パス_283" data-name="パス 283" class="cls-2" d="M1168.624,491.862c.162.064.48.108.8.236.135.053.309.232.428.28a9.156,9.156,0,0,1,1.444.655c.182.095.215.195.436.279a2.386,2.386,0,0,1,.4.118c.063.048-.026.286.052.325a20.216,20.216,0,0,1,2.163,1.563c.182.137.427.274.641.421.171.117.275.325.454.443.376.259.945.425,1.256.678.24.2.3.578.506.767a4.95,4.95,0,0,0,.641.421c.273.215.579.379.856.567.179.117.274.112.428.28a3.434,3.434,0,0,0,.239.3c.281.215.6.335.856.56.182.151.282.58.667.583-.28.344-.924.1-1.528.017-.286-.041-.782-.106-1.18-.189a10.12,10.12,0,0,1-1.391-.33c-.23-.09-.933-.151-1.392-.33-.077-.032-.189-.136-.214-.141-.21-.063-.5.005-.777-.072-.093-.029-.174-.289-.24-.3a5.861,5.861,0,0,1-1-.218c-.109-.042.007-.154-.206-.141-.251.023-.347-.276-.623-.257a3.036,3.036,0,0,1-1.017-.375c-.111-.049.008-.152-.214-.14-.251.023-.338-.277-.615-.258a5.926,5.926,0,0,1-1.47-.818c-.063-.047.018-.285-.052-.325-.043-.023-.145.045-.188.023a.736.736,0,0,1-.215-.14c-.164-.133-.286-.3-.453-.443-.056-.049-.37-.073-.4-.118-.051-.076.015-.256-.052-.325s-.361-.067-.4-.117c-.062-.083.015-.251-.052-.326s-.362-.067-.4-.117a2.489,2.489,0,0,1-.318-.79c-.2-.956.424-1.633.95-2.434.159-.053.189.04.214.14a1.428,1.428,0,0,1,.964.05" transform="translate(-9508.285 1100.554)"/>
    <path id="パス_284" data-name="パス 284" class="cls-2" d="M1201.322,499.687a5.186,5.186,0,0,1,1.08-1.621c.359-.395,1.012-.852,1.507-1.34.276-.275.531-.671.808-.932.064-.049.338.021.375-.045.112-.145.145-.494.485-.555s.334-.406.486-.556a4.947,4.947,0,0,0,.511-.393c.2-.218.772-.6,1.192-.971a3.8,3.8,0,0,0,.511-.393,2.151,2.151,0,0,0,.3-.532c.287-.2.611-.067.912-.275.144-.1.156-.427.3-.534.064-.049.338.015.375-.045s.079-.306.137-.347.337.015.375-.045c.176-.249.127-.258.511-.393,0,0,.524-.215.538-.23a1.266,1.266,0,0,1,.51-.393c.068-.028.344,0,.376-.045.014-.015-.041-.154-.025-.163.268-.114.8-.178,1.1-.3a8.087,8.087,0,0,0,.886-.437c.223,0,.332-.074.35-.207.23,0,.212.279.264.464-1.177,1.308-2.487,2.542-3.583,3.911-.348-.083-.434.176-.538.23a8.207,8.207,0,0,0-.861.6c-.1.075.056.153-.162.185-.294.05-.584.389-.861.6-.149.115-.211.28-.323.37-.063.056-.336-.008-.376.045-.078.114-.447.544-.673.585-.3.05-.583.388-.868.6-.142.107-.2.273-.324.371-.056.048-.329-.016-.375.045-.09.135-.163.427-.3.533-.056.047-.329-.016-.375.045-.177.247-.661.361-1.237.645-.051.027-.011.132-.161.185-.107.033-.281-.008-.376.045s-.234.325-.323.371a8.949,8.949,0,0,1-2.149.92" transform="translate(-9523.454 1101.737)"/>
    <path id="パス_285" data-name="パス 285" class="cls-2" d="M1205.637,480.567c-1.486-.022-1.883-1.307-2.319-2.539.636-.207.766.157,1.339.005.478.591,1.355,1.591.979,2.534" transform="translate(-9524.322 1106.512)"/>
    <path id="パス_286" data-name="パス 286" class="cls-2" d="M1200.2,477.895c.208,1.052,1.727,1.982.868,3.044-.311-.156-.859-.042-.854-.56a.819.819,0,0,1-.292-.628c.032-.391.046-.261-.129-.813a1.96,1.96,0,0,1-.021-1.323c.176.055.36.1.428.28" transform="translate(-9522.731 1106.663)"/>
    <path id="パス_287" data-name="パス 287" class="cls-2" d="M1195.962,481.835c-.124.173-.133.762-.673.577a5.149,5.149,0,0,1,1.145-3.617c.181-.015.18.179.24.3a8.337,8.337,0,0,1-.252,2.018c-.029.072-.145.038-.162.184-.043.373-.135.3-.3.534" transform="translate(-9520.816 1106.15)"/>
    <path id="パス_288" data-name="パス 288" class="cls-2" d="M1190.559,480.864c-.1-1.57,1.734-1.872,2.408-2.94.378.017-.1.578-.246.858-.093.163-.241.236-.323.371s-.018.389-.11.51c-.119.153-.384.246-.511.393-.189.216-.787,1.061-1.219.81" transform="translate(-9518.77 1106.529)"/>
    <path id="パス_289" data-name="パス 289" class="cls-2" d="M1198.491,466.262c-.062-.041.018-.285-.051-.325-.2-.1-.3-.081-.429-.281-.032-.051.01-.291-.052-.325a2.546,2.546,0,0,1-.363-2.276c.043-.081.137-.14.161-.185.049-.1.029-.411.11-.51.161-.191.72-.134.673-.577,2.02-.327,2.707.877,3.231,2.263a1.156,1.156,0,0,0-.3.532,1.736,1.736,0,0,1-.621.9c-.1.095-.217.288-.324.371s-.236.318-.323.369c-.18.118-.6-.039-.537.23-.185-.206-.9-.009-1.179-.19" transform="translate(-9521.778 1113.575)"/>
    <path id="パス_290" data-name="パス 290" class="cls-2" d="M1198.952,470.548c.629-.207.758.157,1.34.005a3.344,3.344,0,0,0,1.91-1.224c.811-.214.859.436,1.426.492.386,1.569.194,2.759-1.015,3.277-.864.076-1.521-.39-2.279.108-.267-.528-1.007-.515-1.632-.633-.406-.993.594-1.072.25-2.025" transform="translate(-9522.271 1110.287)"/>
    <path id="パス_291" data-name="パス 291" class="cls-2" d="M1190.539,469.233c.354-.125.355-.022.537-.23s1.249.023,1.716-.04c-.321.488.088.645.532.93.393.264-.016.051-.3.533-.037.067.108.277.052.325-.02.023-.183,0-.188.023-.022.065.1.285.052.325-.172.166-.172.463,0,1.168-.868.359-1.085,1.145-2.175.757a2.924,2.924,0,0,1-1.556-1.3c-.024-.059-.173.014-.215-.147a1.568,1.568,0,0,1,.032-1c.09-.183.228-.22.331-.371a2.051,2.051,0,0,1,1.185-.971" transform="translate(-9518.061 1110.449)"/>
  </g>
</svg>
