<svg xmlns="http://www.w3.org/2000/svg" width="265.609" height="27.646" viewBox="0 0 265.609 27.646">
  <defs>
    <style>
      .cls-1 {
        fill: #6cb82d;
      }
    </style>
  </defs>
  <g id="グループ_9089" data-name="グループ 9089" transform="translate(0 0.001)">
    <g id="グループ_9090" data-name="グループ 9090">
      <path id="パス_348" data-name="パス 348" class="cls-1" d="M181.536.8c-.4.472-.873,3.78-3.973,7.967-2.338,3.156-8.9,4.666-12.683,5.48a21.5,21.5,0,0,0-4.551,1.588,6.155,6.155,0,0,0-.725.657c-.424.342-.743,1.072-.851.993-.036-.026-.487-.166-.426-.389.081-.291.672-.905.868-1.3a1.348,1.348,0,0,0,.1-.567,16.335,16.335,0,0,1,5.1-11.853C169.453-1.007,177.15.133,179.173.131c2.3-.2,2.363.673,2.363.673"/>
      <path id="パス_352" data-name="パス 352" class="cls-1" d="M146.862,26.54c-1.327-1.786-3.349-8.905-7.653-10.843-3.86-1.739-9.41-.981-12.752-.222q-.261.06-.5.118a8.9,8.9,0,0,1-1.8-.586c-.277-.184-.464.7-.353.73a3.719,3.719,0,0,1,1.746.885c.048.262.1.522.151.776.785,3.8,2.2,6.813,5.967,8.51,4.3,1.938,10.573,1.466,13.209,1.5,1.754.023,2.4.412,2.466.143s-.481-1.011-.481-1.011"/>
      <path id="パス_356" data-name="パス 356" class="cls-1" d="M89.87,20.081c.9-.892,4.76-1.1,8.646-2.859,5.468-2.469,8.166-9.513,6.69-14.581-7.742-1.608-13.114,2.55-14.713,6.121s-.719,9.829-1.416,10.919a2.339,2.339,0,0,1-.6.734c-.269.168.283.854.535.664a7.638,7.638,0,0,0,.855-1"/>
      <path id="パス_360" data-name="パス 360" class="cls-1" d="M63.928,21.084a4.1,4.1,0,0,1-.323-2.3,15.16,15.16,0,0,0,.058-3.187,14.321,14.321,0,0,0-2.3-6.47,15.683,15.683,0,0,0-4.8-4.512c-.918-.58-1.866-1.111-2.775-1.706-.811-.53-1.59-1.149-2.43-1.614-1.872,1.4-1.989,4.365-1.582,6.446a13.462,13.462,0,0,0,3.743,6.85,21.242,21.242,0,0,0,6.246,3.852A12.919,12.919,0,0,1,62.4,19.77a2.867,2.867,0,0,1,1,1.323c.135.449.615.166.524-.009h0"/>
      <path id="パス_361" data-name="パス 361" class="cls-1" d="M265.594,21.084a4.1,4.1,0,0,1-.323-2.3,15.093,15.093,0,0,0,.057-3.187,14.307,14.307,0,0,0-2.3-6.47,15.683,15.683,0,0,0-4.8-4.512c-.918-.58-1.866-1.111-2.775-1.706-.81-.53-1.59-1.149-2.431-1.614-1.871,1.4-1.988,4.365-1.582,6.446a13.471,13.471,0,0,0,3.744,6.85,21.242,21.242,0,0,0,6.246,3.852,12.918,12.918,0,0,1,2.644,1.33,2.867,2.867,0,0,1,1,1.323c.135.449.615.166.524-.009h0"/>
      <path id="パス_364" data-name="パス 364" class="cls-1" d="M1.395,25.309c-.962.986-2.319.756-.5-.924,2.664-2.456,4-6.822,10.567-12.364,3.5-2.958,6.206-2.837,9.806-6.074,1.539-1.384,1.628-2.075,1.352.7s-.244,10.026-8.476,15.266C9.922,24.6,3.329,23.327,1.395,25.309"/>
      <path id="パス_365" data-name="パス 365" class="cls-1" d="M203.06,25.309c-.962.986-2.319.756-.5-.924,2.664-2.456,4-6.822,10.567-12.364,3.5-2.958,6.206-2.837,9.806-6.074,1.54-1.384,1.628-2.075,1.352.7s-.244,10.026-8.476,15.266c-4.226,2.689-10.819,1.413-12.753,3.4"/>
    </g>
  </g>
</svg>
