<svg xmlns="http://www.w3.org/2000/svg" width="18.357" height="21.417" viewBox="0 0 18.357 21.417">
  <path id="Icon_metro-file-pdf" data-name="Icon metro-file-pdf" d="M20.115,6.745a2.781,2.781,0,0,1,.574.908,2.758,2.758,0,0,1,.239,1.052V22.473a1.143,1.143,0,0,1-1.147,1.147H3.718a1.143,1.143,0,0,1-1.147-1.147V3.351A1.143,1.143,0,0,1,3.718,2.2H14.426a2.759,2.759,0,0,1,1.052.239,2.781,2.781,0,0,1,.908.574ZM14.809,3.829V8.323H19.3a1.306,1.306,0,0,0-.263-.49L15.3,4.092a1.305,1.305,0,0,0-.49-.263ZM19.4,22.09V9.852H14.426a1.143,1.143,0,0,1-1.147-1.147V3.733H4.1V22.09H19.4ZM13.255,15a9.094,9.094,0,0,0,1,.669,11.859,11.859,0,0,1,1.4-.084q1.757,0,2.115.586a.578.578,0,0,1,.024.621.034.034,0,0,1-.012.024l-.024.024v.012q-.072.454-.849.454a4.93,4.93,0,0,1-1.374-.239,8.714,8.714,0,0,1-1.554-.633,21.521,21.521,0,0,0-4.685.992q-1.829,3.131-2.892,3.131a.7.7,0,0,1-.335-.084l-.287-.143q-.012-.012-.072-.06a.494.494,0,0,1-.072-.43,2.6,2.6,0,0,1,.669-1.094A5.776,5.776,0,0,1,7.889,17.6a.174.174,0,0,1,.275.072.069.069,0,0,1,.024.048q.621-1.016,1.279-2.354a18.241,18.241,0,0,0,1.243-3.131,9.661,9.661,0,0,1-.365-1.906A4.647,4.647,0,0,1,10.423,8.8q.131-.478.5-.478h.263a.5.5,0,0,1,.418.179.955.955,0,0,1,.108.813.259.259,0,0,1-.048.1.311.311,0,0,1,.012.1v.359a15.65,15.65,0,0,1-.167,2.295A6.046,6.046,0,0,0,13.255,15ZM6.371,19.915a5.277,5.277,0,0,0,1.637-1.888,6.813,6.813,0,0,0-1.046,1A3.972,3.972,0,0,0,6.371,19.915Zm4.757-11A3.554,3.554,0,0,0,11.1,10.5q.012-.084.084-.526,0-.036.084-.514a.269.269,0,0,1,.048-.1.034.034,0,0,1-.012-.024.024.024,0,0,0-.006-.018A.024.024,0,0,1,11.3,9.3a.688.688,0,0,0-.155-.43.034.034,0,0,1-.012.024V8.92Zm-1.482,7.9a17.53,17.53,0,0,1,3.394-.968,1.8,1.8,0,0,1-.155-.114,2.14,2.14,0,0,1-.191-.161,6.331,6.331,0,0,1-1.518-2.1,15.971,15.971,0,0,1-.992,2.354q-.359.669-.538.992Zm7.721-.191a2.86,2.86,0,0,0-1.673-.287,4.521,4.521,0,0,0,1.482.335,1.159,1.159,0,0,0,.215-.012q0-.012-.024-.036Z" transform="translate(-2.571 -2.203)" fill="#ff4545"/>
</svg>
