<svg xmlns="http://www.w3.org/2000/svg" xmlns:xlink="http://www.w3.org/1999/xlink" width="240" height="137.38" viewBox="0 0 240 137.38">
  <defs>
    <clipPath id="clip-path">
      <rect id="長方形_4620" data-name="長方形 4620" width="142.745" height="121.38" fill="none"/>
    </clipPath>
    <clipPath id="clip-path-2">
      <rect id="長方形_4620-2" data-name="長方形 4620" width="129.947" height="110.497" fill="none"/>
    </clipPath>
  </defs>
  <g id="グループ_9069" data-name="グループ 9069" transform="translate(-630 -2394)">
    <g id="グループ_9060" data-name="グループ 9060" transform="translate(630 2410)">
      <g id="グループ_9059" data-name="グループ 9059" clip-path="url(#clip-path)">
        <path id="パス_292" data-name="パス 292" d="M45.569,26.864c-.409-.255-.992-.64-1.092-.681-.242-.088-.641.266-.887.206-.125-.024-.275-.509-.434-.524-.426-.043-1.527.251-2.14.185-.347-.036-.428.4-.524.433a5.341,5.341,0,0,0-1.411.64c-.1.075-.064.56-.159.661-.243.289-.653.2-.818.5-.331.583-.1,1.361-.248,1.618a3.771,3.771,0,0,0,.531,3.632,11,11,0,0,0,1.163.976,7.021,7.021,0,0,0,.955.09,6.167,6.167,0,0,0,2.869.27c.582-.072.729.114.889-.207.035-.074.507-.1.591-.137,1.619-.583,2.342-.882,2.753-1.575a5.438,5.438,0,0,0,.386-1.025c.767-2.516-.872-4.1-2.423-5.064" transform="translate(-4.272 -2.94)" fill="#5c7aa2"/>
        <path id="パス_293" data-name="パス 293" d="M24.979,26.042c.014.093.019.191.03.286,1.15.323,1.015,1.028,2.613.582a1.974,1.974,0,0,0,.82-.5,3.479,3.479,0,0,0,1.59-2.553,7.073,7.073,0,0,0,.043-2.5c-.006-.025-.27.075-.3.068-.075-.047-.1-.495-.136-.591-.087-.318-.287-.116-.364-.227-.27-.379-.242-.815-.572-1.116a5.248,5.248,0,0,0-2.414-1c-.29.042-.26-.226-.364-.227a6.305,6.305,0,0,0-2.958.687,11.705,11.705,0,0,0-1.886,2.619c-.327.779-.864,2.436-.133,3.462.7.981,1.656.641,3.075,1.157.183.008.343.024.491.043,0-.054.01-.11.012-.166a.229.229,0,0,1,.452-.023" transform="translate(-2.34 -2.075)" fill="#5c7aa2"/>
        <path id="パス_294" data-name="パス 294" d="M7.129,33.177c.225-.289.413-.55.528-.695.81-.98,2.123-2.713,2.2-3.94a2.773,2.773,0,0,0-.207-.888,3.355,3.355,0,0,0-2.848-1.522c-.326.05-.217-.209-.364-.227a7.355,7.355,0,0,0-3.1.094c-.231.066-.206.347-.227.365-.355.148-.852.081-1.183.275-.094.047-.349.626-.456.729-.19.186-.675.275-.83.5a7.18,7.18,0,0,0-.09.955c-.07.2-.391.494-.454.729a3.584,3.584,0,0,0,.253,2.437c.092.174.035.433.137.591a5.672,5.672,0,0,0,1.6,1.5c.111.078.476-.189.591-.137.16.067.276.456.446.521.452.207.974-.005,1.548-.048.386-.012.484.238.956.09a3.154,3.154,0,0,0,1.226-1c-.014-.049-.036-.09-.049-.142a.2.2,0,0,1,.319-.19" transform="translate(0 -2.931)" fill="#5c7aa2"/>
        <path id="パス_295" data-name="パス 295" d="M36.093,35.028a17.13,17.13,0,0,1-8.087,5.65,59.223,59.223,0,0,0-7.131,3.476c.224-.947.557-1.877.775-2.807a68.818,68.818,0,0,0,1.407-7,30.986,30.986,0,0,0,.485-7.041c-.012-.095-.017-.193-.03-.286a.229.229,0,0,0-.452.023c0,.056-.009.112-.012.166a73.853,73.853,0,0,1-3.088,16.184c-.883-1.112-2.879-1.453-3.863-2.569a7.738,7.738,0,0,0-1.775-.981,7.911,7.911,0,0,1-2.8-2.7c-.982-1.368-2.516-2.4-3.486-3.824-.01-.013-.027-.013-.037-.023a.2.2,0,0,0-.319.189c.012.053.035.094.049.143a7.028,7.028,0,0,0,1.35,2.3,12.6,12.6,0,0,0,1.777,1.821c.621.565.9,1.45,1.587,2a47.29,47.29,0,0,0,3.875,2.719,33.717,33.717,0,0,1,3.388,1.9,17.036,17.036,0,0,0,.131,5.471c.292,2.99-.377,5.98.364,8.928.184.733,1.419.61,1.343-.175-.282-2.911-.072-5.844-.416-8.746-.157-1.322-.455-2.557-.487-3.906a6.191,6.191,0,0,1,.106-1.235c1.535-.59,2.881-1.513,4.422-2.151,1.685-.7,3.419-1.252,5.089-1.978a16.877,16.877,0,0,0,6.268-4.718.388.388,0,0,0,.378-.472c-.011-.07-.021-.139-.034-.21a.433.433,0,0,0-.778-.143" transform="translate(-0.873 -3.051)" fill="#5c7aa2"/>
        <path id="パス_296" data-name="パス 296" d="M158.039,86.316c-.31-.194-.752-.485-.828-.516-.183-.066-.485.2-.672.156-.094-.019-.208-.386-.329-.4-.324-.032-1.157.191-1.621.14-.263-.027-.324.3-.4.329a4.057,4.057,0,0,0-1.07.485c-.074.057-.048.425-.121.5-.183.219-.495.153-.62.378-.252.442-.075,1.032-.188,1.226a2.855,2.855,0,0,0,.4,2.752,8.181,8.181,0,0,0,.881.739,5.375,5.375,0,0,0,.723.069,4.687,4.687,0,0,0,2.174.2c.441-.055.552.087.674-.157.026-.055.384-.08.448-.1,1.227-.442,1.774-.668,2.086-1.194a4.123,4.123,0,0,0,.292-.776c.581-1.906-.661-3.1-1.836-3.837" transform="translate(-17.277 -9.726)" fill="#5c7aa2"/>
        <path id="パス_297" data-name="パス 297" d="M142.439,85.693c.011.07.014.145.023.217.87.244.768.779,1.98.44a1.493,1.493,0,0,0,.62-.379,2.634,2.634,0,0,0,1.2-1.933,5.382,5.382,0,0,0,.033-1.9c-.005-.02-.2.057-.225.051-.057-.035-.077-.375-.1-.448-.066-.241-.217-.088-.276-.172-.2-.287-.183-.618-.433-.846a3.976,3.976,0,0,0-1.829-.756c-.22.032-.2-.172-.276-.172a4.78,4.78,0,0,0-2.242.52,8.9,8.9,0,0,0-1.429,1.984c-.247.59-.655,1.845-.1,2.623.527.744,1.255.486,2.33.877.139.006.26.019.372.033,0-.041.007-.082.009-.126a.174.174,0,0,1,.342-.017" transform="translate(-15.813 -9.071)" fill="#5c7aa2"/>
        <path id="パス_298" data-name="パス 298" d="M128.914,91.1c.17-.219.313-.417.4-.526a6.878,6.878,0,0,0,1.669-2.985,2.109,2.109,0,0,0-.156-.673,2.544,2.544,0,0,0-2.158-1.153c-.246.037-.164-.159-.276-.172a5.572,5.572,0,0,0-2.345.072c-.175.051-.157.262-.172.277-.269.113-.645.06-.9.208-.071.035-.264.474-.345.552-.144.141-.512.208-.629.383a5.36,5.36,0,0,0-.068.723c-.054.151-.3.374-.344.552a2.719,2.719,0,0,0,.191,1.846c.07.132.027.328.1.448a4.29,4.29,0,0,0,1.209,1.137c.083.059.361-.143.448-.1.121.051.209.346.338.394.342.158.737,0,1.174-.035.292-.01.366.18.723.067a2.367,2.367,0,0,0,.93-.76c-.011-.037-.027-.068-.037-.108a.152.152,0,0,1,.242-.144" transform="translate(-14.041 -9.719)" fill="#5c7aa2"/>
        <path id="パス_299" data-name="パス 299" d="M150.86,92.5a12.98,12.98,0,0,1-6.127,4.281,44.86,44.86,0,0,0-5.4,2.633c.169-.717.423-1.422.587-2.126a51.826,51.826,0,0,0,1.066-5.3,23.392,23.392,0,0,0,.367-5.334c-.008-.072-.012-.147-.022-.217a.173.173,0,0,0-.342.017c0,.043-.007.085-.009.126a55.964,55.964,0,0,1-2.34,12.262c-.668-.843-2.181-1.1-2.927-1.946a5.841,5.841,0,0,0-1.345-.743,5.994,5.994,0,0,1-2.119-2.044c-.745-1.037-1.907-1.816-2.641-2.9-.007-.011-.02-.011-.028-.018a.152.152,0,0,0-.242.144c.009.04.027.071.037.108a5.325,5.325,0,0,0,1.023,1.74,9.52,9.52,0,0,0,1.346,1.379c.471.428.686,1.1,1.2,1.512.9.714,1.981,1.449,2.936,2.061a25.638,25.638,0,0,1,2.566,1.439,12.922,12.922,0,0,0,.1,4.145c.222,2.265-.285,4.531.277,6.764.14.556,1.074.462,1.018-.132-.214-2.205-.054-4.428-.315-6.627-.12-1-.346-1.937-.37-2.959a4.715,4.715,0,0,1,.081-.935c1.163-.448,2.183-1.147,3.349-1.63,1.277-.528,2.591-.949,3.856-1.5a12.8,12.8,0,0,0,4.75-3.575.293.293,0,0,0,.285-.357c-.008-.052-.016-.1-.026-.159a.328.328,0,0,0-.589-.108" transform="translate(-14.702 -9.81)" fill="#5c7aa2"/>
        <path id="パス_300" data-name="パス 300" d="M77.424,81.794c.2-.4.475-.98.532-1.057.144-.177.581-.019.738-.172.082-.072,0-.572.109-.65.3-.211,1.229-.389,1.655-.7.242-.173.477.188.561.182a3.778,3.778,0,0,1,1.3.011c.1.027.273.481.385.534.3.164.565-.08.8.123.48.4.623,1.194.836,1.366A4.431,4.431,0,0,1,85.42,84.94a11.4,11.4,0,0,1-.464,1.354c-.041.113-.6.387-.67.467a4.562,4.562,0,0,1-2.009,1.4c-.458.17-.493.4-.74.172-.055-.052-.417.109-.492.113-1.43.125-2.084.146-2.669-.316a5.744,5.744,0,0,1-.7-.772,4.891,4.891,0,0,1-.254-5.568" transform="translate(-8.716 -9)" fill="#5c7aa2"/>
        <path id="パス_301" data-name="パス 301" d="M92.361,72.747c.027.09.064.182.093.272-.719.756-.334,1.341-1.695,1.582a1.484,1.484,0,0,1-.807-.123,3.246,3.246,0,0,1-2.2-1.672,8.276,8.276,0,0,1-1.041-2.253c-.005-.025.23-.041.246-.057.036-.074-.124-.49-.137-.592-.065-.323.165-.221.177-.353.047-.452-.151-.836-.028-1.242a4.474,4.474,0,0,1,1.38-1.878c.231-.08.1-.31.177-.353a4.4,4.4,0,0,1,2.462-.572,10.568,10.568,0,0,1,2.45,1.613c.556.574,1.62,1.859,1.5,3.084-.118,1.17-.964,1.25-1.8,2.289a3.914,3.914,0,0,0-.345.238c-.024-.048-.051-.095-.075-.145-.114-.227-.417-.086-.343.161" transform="translate(-9.856 -7.444)" fill="#5c7aa2"/>
        <path id="パス_302" data-name="パス 302" d="M108.342,72.006c-.283-.171-.528-.332-.67-.417a8.727,8.727,0,0,1-3.218-2.682,3.388,3.388,0,0,1-.206-.888,3.031,3.031,0,0,1,1.489-2.529c.261-.087.077-.277.178-.352a5.237,5.237,0,0,1,2.324-1.165c.2-.033.292.231.315.239.322-.009.662-.27.985-.229.088.005.511.426.63.478.216.092.611-.025.818.121a8.6,8.6,0,0,1,.452.83c.132.152.487.289.629.477a4.24,4.24,0,0,1,.8,2.311c0,.195.148.407.136.591a5.852,5.852,0,0,1-.572,2c-.05.115-.428.021-.492.114-.09.125-.02.525-.12.651-.25.37-.721.388-1.162.582-.291.145-.261.41-.671.467a2.472,2.472,0,0,1-1.31-.415c-.01-.05-.009-.1-.021-.149a.162.162,0,0,0-.311-.043" transform="translate(-11.85 -7.272)" fill="#5c7aa2"/>
        <path id="パス_303" data-name="パス 303" d="M86.181,85.928a13.055,13.055,0,0,0,8.253,1.858,42.373,42.373,0,0,1,6.669.272c-.548-.768-1.17-1.476-1.705-2.231-1.306-1.84-2.717-3.793-3.864-5.778a35.7,35.7,0,0,1-3.2-6.185c-.03-.09-.066-.183-.093-.272-.074-.247.229-.388.343-.162.024.051.051.1.074.146A82.083,82.083,0,0,0,101.47,87c.2-1.365,1.54-2.479,1.815-3.887A7.028,7.028,0,0,1,104.2,81.5a8.218,8.218,0,0,0,.978-3.574c.173-1.636.891-3.188,1.03-4.872,0-.017.015-.023.019-.036a.162.162,0,0,1,.312.043c.012.053.012.1.021.149a8.1,8.1,0,0,1-.069,2.626,13.327,13.327,0,0,1-.578,2.367c-.23.763-.083,1.68-.366,2.449-.492,1.331-1.158,2.788-1.765,4.028a30.8,30.8,0,0,0-1.734,3.09,20.064,20.064,0,0,1,2.11,5.011c.991,2.828,2.691,5.267,3.334,8.238.16.739-.8,1.126-1.062.384-.967-2.751-2.306-5.326-3.224-8.095-.417-1.261-.7-2.5-1.216-3.737a7.145,7.145,0,0,0-.577-1.076c-1.372.084-2.738-.208-4.133-.166-1.526.049-3.03.245-4.557.261a13.04,13.04,0,0,1-6.533-1.746c-.168.074-.385.012-.469-.276-.02-.067-.041-.134-.06-.2a.358.358,0,0,1,.518-.443" transform="translate(-9.736 -8.289)" fill="#5c7aa2"/>
        <path id="パス_304" data-name="パス 304" d="M50.766,88.088c-.386-.2-.937-.5-1.027-.531-.211-.057-.44.327-.648.3-.1-.01-.342-.458-.472-.455-.346.007-1.141.412-1.641.417-.282,0-.238.431-.306.475a3.361,3.361,0,0,0-.955.772c-.06.083.087.545.035.651-.121.306-.465.269-.523.572-.119.6.255,1.318.2,1.58a4.672,4.672,0,0,0,1.306,3.425,11.228,11.228,0,0,0,1.155.807c.1.067.678-.046.776-.02a4.173,4.173,0,0,0,2.327-.063c.44-.134.6.029.65-.3.01-.074.373-.158.433-.2,1.134-.741,1.631-1.109,1.785-1.82a5.627,5.627,0,0,0,.053-1.026,5.106,5.106,0,0,0-3.147-4.587" transform="translate(-5.139 -9.935)" fill="#5c7aa2"/>
        <path id="パス_305" data-name="パス 305" d="M34.36,89.612c.034.088.062.182.093.271.986.181,1.051.873,2.2.266.32-.16.36-.358.524-.573a3.2,3.2,0,0,0,.63-2.627,8.711,8.711,0,0,0-.579-2.407c-.011-.024-.194.1-.217.1-.071-.036-.2-.464-.253-.552-.145-.3-.253-.079-.342-.177-.306-.332-.39-.754-.723-1.006a4.279,4.279,0,0,0-2.147-.686c-.219.072-.26-.189-.342-.177a3.909,3.909,0,0,0-2.164.99,10.352,10.352,0,0,0-.847,2.725,4.738,4.738,0,0,0,.741,3.336c.789.863,1.462.43,2.707.765a3.485,3.485,0,0,1,.4-.013c-.011-.052-.02-.106-.032-.16-.051-.248.257-.313.351-.073" transform="translate(-3.429 -9.326)" fill="#5c7aa2"/>
        <path id="パス_306" data-name="パス 306" d="M22.009,98.455c.106-.3.191-.574.246-.726A8.681,8.681,0,0,0,23.03,93.7a3.537,3.537,0,0,0-.379-.829,2.952,2.952,0,0,0-2.616-1.141c-.246.084-.222-.176-.343-.176a4.706,4.706,0,0,0-2.417.437c-.167.09-.078.356-.09.376-.244.183-.652.173-.866.4-.062.056-.122.64-.181.752-.1.2-.465.339-.532.577a8.887,8.887,0,0,0,.162.927c-.007.2-.188.518-.179.75a4.487,4.487,0,0,0,.8,2.31c.115.156.134.41.253.551a5.945,5.945,0,0,0,1.624,1.261c.106.063.33-.234.433-.2.143.047.329.407.479.45.407.148.767-.114,1.209-.219.3-.055.44.173.776-.021a2.3,2.3,0,0,0,.721-1.1c-.023-.046-.051-.082-.074-.132-.074-.163.077-.308.206-.217" transform="translate(-1.772 -10.406)" fill="#5c7aa2"/>
        <path id="パス_307" data-name="パス 307" d="M45.372,96.837a12.022,12.022,0,0,1-4.994,6.328,38.133,38.133,0,0,0-4.772,4.135c-.055-.933-.019-1.864-.074-2.78-.136-2.234-.261-4.62-.6-6.876a37.5,37.5,0,0,0-1.338-6.809c-.031-.09-.059-.184-.093-.272-.094-.24-.4-.175-.351.073.012.054.02.108.032.16a85.434,85.434,0,0,1,1.52,15.875c-.968-.968-2.624-1.071-3.673-2.031a6.889,6.889,0,0,0-1.639-.742,8.387,8.387,0,0,1-2.865-2.274c-1.109-1.2-2.569-2.018-3.682-3.279-.012-.012-.025-.01-.035-.019-.129-.09-.28.054-.206.218.023.05.051.085.074.131a8.494,8.494,0,0,0,1.626,2.053,13.685,13.685,0,0,0,1.845,1.548c.628.472,1.068,1.29,1.738,1.736,1.161.772,2.528,1.542,3.719,2.174a30.227,30.227,0,0,1,3.134,1.444,21.225,21.225,0,0,0,1.44,5.235c.962,2.836,1.164,5.78,2.468,8.526.324.682,1.267.425,1.016-.318-.933-2.761-1.484-5.6-2.464-8.346-.447-1.251-.984-2.4-1.339-3.692a7.541,7.541,0,0,1-.217-1.2c1.065-.738,1.9-1.774,2.959-2.56,1.158-.858,2.39-1.586,3.528-2.468a12.068,12.068,0,0,0,3.789-5.23c.169-.039.292-.216.182-.495-.025-.066-.051-.13-.077-.2-.143-.363-.558-.345-.649-.05" transform="translate(-2.567 -10.278)" fill="#5c7aa2"/>
        <path id="パス_308" data-name="パス 308" d="M37.346,54.435c.378-.256.917-.64,1.01-.681.223-.088.592.266.821.206.114-.024.253-.509.4-.524.394-.043,1.411.251,1.978.185.322-.036.4.4.484.433a4.774,4.774,0,0,1,1.306.64c.091.074.058.56.147.66.224.29.6.2.756.5.308.583.092,1.361.23,1.617a4.017,4.017,0,0,1-.491,3.632,10.463,10.463,0,0,1-1.075.977,6.141,6.141,0,0,1-.884.09,5.3,5.3,0,0,1-2.654.27c-.537-.072-.674.114-.822-.207-.033-.074-.469-.105-.547-.137-1.5-.583-2.165-.882-2.546-1.575A5.82,5.82,0,0,1,35.1,59.5c-.709-2.516.807-4.1,2.242-5.064" transform="translate(-3.97 -6.074)" fill="#5c7aa2"/>
        <path id="パス_309" data-name="パス 309" d="M43.9,61.622a15.905,15.905,0,0,0,7.48,5.65,53.33,53.33,0,0,1,6.6,3.476c-.208-.946-.517-1.877-.717-2.807-.489-2.266-1.036-4.684-1.3-7A33.434,33.434,0,0,1,55.51,53.9c-1.064.322-.939,1.027-2.418.581a1.816,1.816,0,0,1-.758-.5,3.521,3.521,0,0,1-1.47-2.553,7.65,7.65,0,0,1-.039-2.5c.005-.025.249.076.274.068.07-.047.094-.495.127-.591.08-.318.265-.115.337-.226.25-.379.223-.815.529-1.117a4.668,4.668,0,0,1,2.233-1c.269.042.24-.225.337-.227a5.491,5.491,0,0,1,2.736.687,11.749,11.749,0,0,1,1.744,2.619c.3.779.8,2.436.123,3.462-.643.981-1.532.641-2.844,1.157a4.5,4.5,0,0,0-.455.044,79.219,79.219,0,0,0,2.857,16.183c.816-1.112,2.663-1.453,3.572-2.568a7,7,0,0,1,1.642-.982,7.611,7.611,0,0,0,2.588-2.7c.908-1.368,2.327-2.4,3.224-3.824.01-.013.025-.013.035-.023-.207-.289-.381-.55-.487-.695-.75-.98-1.964-2.713-2.038-3.941a2.968,2.968,0,0,1,.191-.887,3.049,3.049,0,0,1,2.634-1.522c.3.05.2-.209.337-.226a6.3,6.3,0,0,1,2.864.093c.214.067.191.348.209.365.329.148.788.082,1.095.275.087.047.323.626.422.73.175.186.625.273.768.5a7.8,7.8,0,0,1,.082.955c.066.2.363.494.42.729a3.846,3.846,0,0,1-.234,2.437c-.086.175-.033.433-.128.59a5.411,5.411,0,0,1-1.475,1.5c-.1.079-.441-.189-.548-.137-.147.068-.254.456-.411.522-.418.206-.9-.006-1.432-.048-.358-.012-.448.237-.885.089a2.961,2.961,0,0,1-1.134-1,7.172,7.172,0,0,1-1.248,2.3,12.27,12.27,0,0,1-1.643,1.821c-.575.565-.838,1.451-1.468,2a43.908,43.908,0,0,1-3.584,2.718,30.726,30.726,0,0,0-3.132,1.9,18.429,18.429,0,0,1-.121,5.471c-.271,2.99.347,5.979-.337,8.927a.63.63,0,0,1-1.243-.174c.261-2.912.066-5.845.385-8.747.145-1.322.421-2.557.451-3.906a6.845,6.845,0,0,0-.1-1.235c-1.421-.589-2.665-1.512-4.09-2.151-1.559-.7-3.162-1.252-4.707-1.978a15.781,15.781,0,0,1-5.8-4.718.378.378,0,0,1-.348-.471c.009-.071.02-.139.031-.21a.391.391,0,0,1,.72-.144" transform="translate(-4.904 -5.209)" fill="#5c7aa2"/>
        <path id="パス_310" data-name="パス 310" d="M65.624,107.513c.3-.206.739-.515.814-.549.18-.07.478.214.661.166.092-.019.2-.409.324-.422.317-.035,1.137.2,1.594.149.259-.028.319.321.39.349a3.835,3.835,0,0,1,1.051.516c.074.06.048.451.119.533.181.233.487.163.61.4.246.471.074,1.1.184,1.3a3.237,3.237,0,0,1-.4,2.926,8.359,8.359,0,0,1-.866.786,4.83,4.83,0,0,1-.712.073,4.267,4.267,0,0,1-2.138.218c-.433-.058-.543.093-.662-.166-.027-.059-.378-.085-.441-.111-1.206-.47-1.744-.711-2.051-1.269a4.6,4.6,0,0,1-.287-.825,3.56,3.56,0,0,1,1.805-4.079" transform="translate(-7.238 -12.13)" fill="#5c7aa2"/>
        <path id="パス_311" data-name="パス 311" d="M70.9,113.3a12.811,12.811,0,0,0,6.025,4.551,42.87,42.87,0,0,1,5.313,2.8c-.167-.762-.416-1.512-.577-2.26-.394-1.826-.835-3.774-1.049-5.641a26.866,26.866,0,0,1-.361-5.671c-.857.259-.756.828-1.947.469a1.466,1.466,0,0,1-.611-.4,2.839,2.839,0,0,1-1.185-2.055,6.166,6.166,0,0,1-.031-2.017c0-.02.2.06.221.055.056-.038.075-.4.1-.477.065-.256.214-.093.271-.183.2-.3.18-.656.426-.9a3.757,3.757,0,0,1,1.8-.8c.216.034.193-.182.271-.183a4.415,4.415,0,0,1,2.2.553,9.46,9.46,0,0,1,1.4,2.11c.244.628.643,1.961.1,2.788-.519.791-1.234.517-2.291.932-.136.006-.255.019-.366.035a63.8,63.8,0,0,0,2.3,13.037c.658-.9,2.145-1.17,2.878-2.07a5.669,5.669,0,0,1,1.322-.79,6.124,6.124,0,0,0,2.085-2.173c.732-1.1,1.875-1.931,2.6-3.08.007-.012.02-.012.028-.02-.168-.232-.308-.443-.394-.559a7.513,7.513,0,0,1-1.641-3.174,2.411,2.411,0,0,1,.154-.715,2.457,2.457,0,0,1,2.122-1.226c.243.04.161-.168.271-.183a5.082,5.082,0,0,1,2.306.075c.173.054.153.28.169.294.265.12.635.065.882.222.069.038.26.5.339.588.142.15.5.221.62.406a6.236,6.236,0,0,1,.066.77c.053.16.292.4.339.587a3.1,3.1,0,0,1-.189,1.963c-.069.139-.027.348-.1.476a4.381,4.381,0,0,1-1.189,1.209c-.082.063-.355-.152-.441-.111-.119.054-.2.368-.331.42-.337.167-.726,0-1.154-.039-.288-.01-.36.191-.713.073a2.4,2.4,0,0,1-.913-.808,5.788,5.788,0,0,1-1.006,1.85,9.8,9.8,0,0,1-1.323,1.467c-.464.456-.675,1.168-1.182,1.608a35.488,35.488,0,0,1-2.888,2.19,24.578,24.578,0,0,0-2.523,1.532,14.825,14.825,0,0,1-.1,4.407c-.218,2.408.28,4.816-.271,7.192a.507.507,0,0,1-1-.141c.21-2.344.053-4.707.309-7.045.117-1.065.339-2.06.363-3.146a5.4,5.4,0,0,0-.079-.994c-1.144-.476-2.147-1.219-3.294-1.733-1.256-.562-2.547-1.01-3.792-1.594a12.724,12.724,0,0,1-4.67-3.8.307.307,0,0,1-.282-.38c.008-.056.016-.111.026-.168a.315.315,0,0,1,.58-.115" transform="translate(-7.991 -11.433)" fill="#5c7aa2"/>
        <path id="パス_312" data-name="パス 312" d="M53.787,6.935c.3-.206.739-.515.814-.549.18-.07.478.214.661.166.092-.019.2-.409.324-.422.317-.035,1.137.2,1.594.149.259-.028.319.321.39.349a3.835,3.835,0,0,1,1.051.516c.074.06.048.451.119.533.181.233.487.163.61.4.247.471.074,1.1.184,1.3a3.237,3.237,0,0,1-.4,2.926,8.359,8.359,0,0,1-.866.786,4.829,4.829,0,0,1-.712.073,4.268,4.268,0,0,1-2.138.218c-.433-.058-.543.092-.662-.167-.027-.058-.378-.084-.441-.11-1.206-.47-1.744-.711-2.051-1.269a4.6,4.6,0,0,1-.287-.825,3.56,3.56,0,0,1,1.805-4.079" transform="translate(-5.893 -0.697)" fill="#5c7aa2"/>
        <path id="パス_313" data-name="パス 313" d="M59.067,12.725a12.811,12.811,0,0,0,6.025,4.551,42.988,42.988,0,0,1,5.313,2.8c-.167-.762-.416-1.512-.577-2.26-.394-1.826-.835-3.774-1.049-5.641A26.866,26.866,0,0,1,68.418,6.5c-.857.26-.756.828-1.947.469a1.474,1.474,0,0,1-.611-.4,2.839,2.839,0,0,1-1.185-2.056A6.166,6.166,0,0,1,64.644,2.5c0-.02.2.06.221.055.056-.038.075-.4.1-.477.065-.255.214-.093.271-.183.2-.3.18-.656.426-.9a3.746,3.746,0,0,1,1.8-.8c.216.033.193-.183.271-.183a4.415,4.415,0,0,1,2.2.553,9.46,9.46,0,0,1,1.4,2.11c.244.628.643,1.961.1,2.788-.518.791-1.234.517-2.291.932-.136.006-.255.019-.366.035a63.8,63.8,0,0,0,2.3,13.037c.658-.9,2.145-1.17,2.878-2.07a5.669,5.669,0,0,1,1.322-.79,6.124,6.124,0,0,0,2.085-2.173c.732-1.1,1.875-1.931,2.6-3.08.007-.012.02-.012.028-.019-.168-.232-.308-.443-.394-.559A7.513,7.513,0,0,1,77.961,7.6a2.411,2.411,0,0,1,.154-.715,2.457,2.457,0,0,1,2.122-1.226c.243.04.161-.168.271-.183a5.082,5.082,0,0,1,2.306.075c.173.054.153.28.169.294.265.12.635.065.882.222.069.038.26.5.339.588.142.15.5.221.62.407a6.208,6.208,0,0,1,.066.769c.053.16.292.4.339.587a3.1,3.1,0,0,1-.189,1.963c-.069.14-.027.348-.1.476a4.381,4.381,0,0,1-1.189,1.209c-.082.063-.355-.152-.44-.111-.119.054-.2.368-.331.42-.337.167-.726,0-1.154-.039-.288-.009-.36.191-.713.073A2.4,2.4,0,0,1,80.2,11.6a5.779,5.779,0,0,1-1.006,1.85,9.8,9.8,0,0,1-1.323,1.467c-.464.456-.675,1.168-1.182,1.608a35.491,35.491,0,0,1-2.888,2.19,24.735,24.735,0,0,0-2.523,1.532,14.825,14.825,0,0,1-.1,4.407c-.218,2.408.28,4.816-.271,7.192a.507.507,0,0,1-1-.141c.21-2.344.053-4.707.309-7.045.117-1.065.339-2.06.363-3.146a5.4,5.4,0,0,0-.079-.994c-1.144-.476-2.147-1.219-3.294-1.733-1.256-.562-2.547-1.01-3.792-1.594a12.724,12.724,0,0,1-4.67-3.8.306.306,0,0,1-.282-.379c.008-.057.016-.112.026-.169a.315.315,0,0,1,.58-.115" transform="translate(-6.645 0)" fill="#5c7aa2"/>
      </g>
    </g>
    <g id="グループ_9061" data-name="グループ 9061" transform="translate(740.054 2394)">
      <g id="グループ_9059-2" data-name="グループ 9059" clip-path="url(#clip-path-2)">
        <path id="パス_292-2" data-name="パス 292" d="M44.853,26.774c-.373-.232-.9-.583-.994-.62-.22-.08-.583.242-.808.187-.114-.022-.25-.463-.4-.477-.388-.039-1.39.228-1.948.169-.316-.033-.39.362-.477.395a4.862,4.862,0,0,0-1.285.583c-.09.069-.058.51-.144.6-.221.263-.595.184-.745.455-.3.531-.09,1.239-.226,1.473a3.433,3.433,0,0,0,.483,3.306,10.017,10.017,0,0,0,1.059.888,6.392,6.392,0,0,0,.869.082,5.614,5.614,0,0,0,2.612.246c.53-.065.664.1.809-.188.032-.067.462-.1.538-.125,1.474-.531,2.132-.8,2.506-1.434a4.95,4.95,0,0,0,.351-.933c.7-2.291-.794-3.729-2.206-4.61" transform="translate(-7.259 -4.995)" fill="#5c7aa2"/>
        <path id="パス_293-2" data-name="パス 293" d="M24.585,25.344c.013.085.017.174.027.261,1.046.294.924.936,2.379.53a1.8,1.8,0,0,0,.746-.456,3.167,3.167,0,0,0,1.448-2.324,6.439,6.439,0,0,0,.039-2.279c-.006-.023-.246.069-.27.062-.069-.043-.093-.45-.124-.538-.079-.29-.261-.106-.332-.207-.246-.345-.22-.742-.52-1.016a4.778,4.778,0,0,0-2.2-.909c-.264.038-.236-.206-.332-.207a5.74,5.74,0,0,0-2.692.625,10.656,10.656,0,0,0-1.717,2.384c-.3.709-.787,2.217-.121,3.152.633.893,1.507.583,2.8,1.053.167.007.312.022.447.04,0-.049.009-.1.01-.151a.209.209,0,0,1,.411-.021" transform="translate(-3.976 -3.526)" fill="#5c7aa2"/>
        <path id="パス_294-2" data-name="パス 294" d="M6.489,32.514c.2-.263.376-.5.481-.633.737-.892,1.932-2.47,2.005-3.586a2.524,2.524,0,0,0-.188-.808A3.055,3.055,0,0,0,6.195,26.1c-.3.045-.2-.19-.332-.207a6.7,6.7,0,0,0-2.818.086c-.211.061-.187.316-.207.332-.324.135-.775.073-1.077.25-.086.043-.318.57-.415.664-.173.169-.615.25-.756.459a6.536,6.536,0,0,0-.082.87c-.064.182-.356.449-.413.664a3.262,3.262,0,0,0,.231,2.218c.084.158.032.394.125.538A5.163,5.163,0,0,0,1.9,33.342c.1.071.433-.172.538-.125.145.061.251.416.406.474.411.189.887,0,1.41-.044.352-.01.441.216.871.082a2.871,2.871,0,0,0,1.116-.914c-.013-.044-.033-.081-.044-.129a.183.183,0,0,1,.29-.173" transform="translate(0 -4.981)" fill="#5c7aa2"/>
        <path id="パス_295-2" data-name="パス 295" d="M33.546,34.293a15.594,15.594,0,0,1-7.362,5.144A53.913,53.913,0,0,0,19.692,42.6c.2-.862.508-1.709.705-2.555a62.648,62.648,0,0,0,1.281-6.373,28.208,28.208,0,0,0,.441-6.41c-.01-.086-.015-.176-.027-.261a.209.209,0,0,0-.411.021c0,.051-.008.1-.01.151a67.231,67.231,0,0,1-2.811,14.733c-.8-1.013-2.621-1.322-3.516-2.338a7.045,7.045,0,0,0-1.616-.893,7.2,7.2,0,0,1-2.547-2.455c-.894-1.246-2.291-2.183-3.173-3.482-.009-.012-.024-.012-.034-.021a.182.182,0,0,0-.29.172c.011.048.031.086.044.13a6.4,6.4,0,0,0,1.229,2.091,11.47,11.47,0,0,0,1.618,1.658c.566.514.824,1.32,1.444,1.816a43.05,43.05,0,0,0,3.528,2.475,30.7,30.7,0,0,1,3.084,1.73,15.508,15.508,0,0,0,.119,4.981c.266,2.722-.343,5.444.332,8.127.168.667,1.292.555,1.222-.159-.257-2.65-.065-5.32-.378-7.962-.143-1.2-.414-2.328-.444-3.556a5.636,5.636,0,0,1,.1-1.124c1.4-.537,2.623-1.377,4.025-1.958,1.534-.635,3.112-1.14,4.633-1.8a15.364,15.364,0,0,0,5.706-4.295.353.353,0,0,0,.344-.429c-.01-.064-.019-.127-.031-.191a.394.394,0,0,0-.708-.13" transform="translate(-1.483 -5.184)" fill="#5c7aa2"/>
        <path id="パス_296-2" data-name="パス 296" d="M157.5,86.247c-.282-.177-.684-.441-.754-.47-.166-.061-.441.183-.612.142-.086-.017-.19-.351-.3-.361-.295-.029-1.053.173-1.476.127-.24-.024-.3.275-.361.3a3.694,3.694,0,0,0-.974.441c-.068.052-.044.386-.11.456-.167.2-.45.14-.564.345-.229.4-.069.939-.171,1.116a2.6,2.6,0,0,0,.366,2.505,7.451,7.451,0,0,0,.8.673,4.894,4.894,0,0,0,.658.063,4.267,4.267,0,0,0,1.979.186c.4-.05.5.079.613-.143.023-.05.349-.073.407-.094,1.117-.4,1.615-.608,1.9-1.087a3.753,3.753,0,0,0,.266-.706c.529-1.736-.6-2.826-1.672-3.493" transform="translate(-29.355 -16.525)" fill="#5c7aa2"/>
        <path id="パス_297-2" data-name="パス 297" d="M142.14,85.164c.01.064.013.132.021.2.792.222.7.709,1.8.4a1.359,1.359,0,0,0,.565-.345,2.4,2.4,0,0,0,1.1-1.76,4.9,4.9,0,0,0,.03-1.727c0-.018-.186.052-.2.047-.052-.032-.07-.341-.094-.407-.06-.219-.2-.08-.251-.157-.186-.261-.167-.562-.395-.77a3.619,3.619,0,0,0-1.665-.688c-.2.029-.179-.157-.251-.157a4.352,4.352,0,0,0-2.041.474,8.1,8.1,0,0,0-1.3,1.807,2.721,2.721,0,0,0-.092,2.387c.48.677,1.143.442,2.121.8.127.006.236.017.339.03,0-.037.006-.075.008-.115a.158.158,0,0,1,.311-.015" transform="translate(-26.868 -15.412)" fill="#5c7aa2"/>
        <path id="パス_298-2" data-name="パス 298" d="M128.43,90.6c.155-.2.285-.38.364-.479a6.262,6.262,0,0,0,1.519-2.717,1.92,1.92,0,0,0-.142-.612,2.316,2.316,0,0,0-1.965-1.05c-.224.034-.149-.144-.251-.157a5.072,5.072,0,0,0-2.135.065c-.16.046-.143.239-.157.252-.245.1-.587.055-.817.19-.065.032-.24.432-.314.5-.132.128-.466.19-.573.349a4.879,4.879,0,0,0-.062.658c-.049.137-.27.34-.313.5a2.475,2.475,0,0,0,.174,1.681c.064.12.025.3.1.407a3.906,3.906,0,0,0,1.1,1.035c.076.054.328-.13.407-.094.11.046.19.315.307.359.311.144.671,0,1.068-.032.266-.009.333.164.658.061a2.155,2.155,0,0,0,.846-.691c-.01-.034-.025-.062-.034-.1a.138.138,0,0,1,.22-.131" transform="translate(-23.856 -16.514)" fill="#5c7aa2"/>
        <path id="パス_299-2" data-name="パス 299" d="M148.929,91.944a11.817,11.817,0,0,1-5.578,3.9,40.836,40.836,0,0,0-4.919,2.4c.154-.653.385-1.294.534-1.936a47.182,47.182,0,0,0,.971-4.829,21.3,21.3,0,0,0,.334-4.856c-.007-.065-.01-.134-.02-.2a.158.158,0,0,0-.311.015c0,.04-.006.077-.008.115a50.946,50.946,0,0,1-2.13,11.163c-.608-.767-1.986-1-2.664-1.772a5.317,5.317,0,0,0-1.225-.676,5.456,5.456,0,0,1-1.929-1.861c-.678-.944-1.736-1.653-2.4-2.638-.006-.01-.019-.01-.026-.016a.138.138,0,0,0-.22.131c.008.036.024.065.034.1a4.848,4.848,0,0,0,.931,1.584,8.667,8.667,0,0,0,1.226,1.255c.428.39.624,1,1.094,1.376.815.65,1.8,1.319,2.673,1.876a23.341,23.341,0,0,1,2.336,1.31,11.764,11.764,0,0,0,.09,3.774c.2,2.062-.259,4.125.252,6.158.127.506.978.42.926-.12-.194-2.007-.049-4.031-.286-6.033-.109-.912-.315-1.764-.336-2.694a4.293,4.293,0,0,1,.073-.851c1.059-.407,1.987-1.044,3.049-1.484,1.163-.481,2.358-.864,3.511-1.364a11.655,11.655,0,0,0,4.324-3.255.267.267,0,0,0,.26-.325c-.007-.048-.015-.1-.023-.144a.3.3,0,0,0-.537-.1" transform="translate(-24.979 -16.667)" fill="#5c7aa2"/>
        <path id="パス_300-2" data-name="パス 300" d="M77.357,81.559c.182-.361.432-.892.484-.963.132-.161.528-.017.672-.157.075-.065,0-.52.1-.591.271-.192,1.119-.354,1.506-.633.22-.157.434.171.511.165a3.439,3.439,0,0,1,1.184.01c.094.025.249.438.35.487.269.149.514-.073.733.112.437.36.567,1.087.761,1.243a4.034,4.034,0,0,1,.978,3.191,10.376,10.376,0,0,1-.422,1.233c-.037.1-.549.353-.61.425a4.153,4.153,0,0,1-1.829,1.277c-.417.155-.449.363-.674.157-.05-.048-.379.1-.448.1-1.3.114-1.9.133-2.429-.288a5.23,5.23,0,0,1-.635-.7,4.453,4.453,0,0,1-.232-5.069" transform="translate(-14.809 -15.292)" fill="#5c7aa2"/>
        <path id="パス_301-2" data-name="パス 301" d="M91.854,72.1c.025.081.058.165.085.248-.654.688-.3,1.221-1.543,1.44a1.351,1.351,0,0,1-.735-.112,2.955,2.955,0,0,1-2.007-1.522,7.534,7.534,0,0,1-.948-2.051c0-.023.209-.037.224-.052.033-.067-.113-.446-.125-.539-.059-.294.15-.2.161-.321.043-.411-.137-.761-.026-1.13a4.073,4.073,0,0,1,1.256-1.71c.211-.073.092-.282.161-.321a4,4,0,0,1,2.241-.52,9.621,9.621,0,0,1,2.23,1.468,4.114,4.114,0,0,1,1.361,2.807c-.107,1.065-.878,1.138-1.643,2.084a3.562,3.562,0,0,0-.314.216c-.022-.044-.047-.086-.069-.132-.1-.207-.379-.078-.312.147" transform="translate(-16.747 -12.648)" fill="#5c7aa2"/>
        <path id="パス_302-2" data-name="パス 302" d="M107.974,71.285c-.257-.156-.481-.3-.61-.379a7.944,7.944,0,0,1-2.93-2.442,3.084,3.084,0,0,1-.187-.808,2.759,2.759,0,0,1,1.356-2.3c.238-.079.07-.252.162-.32a4.768,4.768,0,0,1,2.116-1.06c.18-.03.265.211.286.218.293-.008.6-.246.9-.208.08,0,.465.388.574.435.2.084.556-.023.745.111a7.834,7.834,0,0,1,.412.756c.12.138.444.263.573.434a3.86,3.86,0,0,1,.725,2.1c0,.178.135.37.124.538a5.327,5.327,0,0,1-.52,1.824c-.045.1-.39.019-.448.1-.082.114-.019.478-.109.593-.228.337-.656.353-1.058.53-.265.132-.238.374-.611.425a2.25,2.25,0,0,1-1.193-.378c-.009-.045-.008-.087-.019-.136a.147.147,0,0,0-.283-.039" transform="translate(-20.134 -12.356)" fill="#5c7aa2"/>
        <path id="パス_303-2" data-name="パス 303" d="M86.133,84.761a11.884,11.884,0,0,0,7.513,1.691,38.574,38.574,0,0,1,6.071.248c-.5-.7-1.065-1.343-1.552-2.031-1.188-1.675-2.474-3.453-3.518-5.26a32.5,32.5,0,0,1-2.913-5.63c-.027-.082-.061-.166-.085-.248-.067-.225.208-.353.312-.148.022.047.046.09.068.133a74.723,74.723,0,0,0,8.023,12.219c.185-1.243,1.4-2.257,1.652-3.539a6.4,6.4,0,0,1,.833-1.462,7.481,7.481,0,0,0,.89-3.253c.157-1.489.811-2.9.938-4.435,0-.015.014-.021.017-.033a.148.148,0,0,1,.284.039c.011.048.011.09.019.136a7.374,7.374,0,0,1-.063,2.391,12.131,12.131,0,0,1-.526,2.155c-.21.695-.076,1.53-.333,2.229-.448,1.212-1.055,2.538-1.606,3.667a28.038,28.038,0,0,0-1.578,2.813A18.265,18.265,0,0,1,102.5,91c.9,2.575,2.45,4.8,3.035,7.5.145.673-.729,1.025-.967.349-.88-2.5-2.1-4.848-2.935-7.369-.38-1.148-.633-2.277-1.107-3.4A6.5,6.5,0,0,0,100,87.1c-1.249.077-2.492-.19-3.762-.151-1.389.044-2.759.223-4.148.238a11.871,11.871,0,0,1-5.947-1.59c-.153.068-.35.01-.427-.251-.019-.061-.037-.122-.055-.186a.326.326,0,0,1,.471-.4" transform="translate(-16.541 -14.084)" fill="#5c7aa2"/>
        <path id="パス_304-2" data-name="パス 304" d="M50.267,88.026c-.351-.182-.853-.457-.935-.483-.192-.052-.4.3-.59.271-.1-.009-.311-.417-.429-.414-.315.006-1.038.375-1.494.38-.257,0-.217.392-.278.432a3.06,3.06,0,0,0-.87.7c-.055.076.079.5.032.593-.11.278-.424.244-.476.52-.108.544.232,1.2.182,1.439A4.253,4.253,0,0,0,46.6,94.585a10.221,10.221,0,0,0,1.051.734c.087.061.617-.042.706-.019a3.8,3.8,0,0,0,2.119-.057c.4-.122.549.027.591-.27.009-.068.34-.144.394-.181,1.032-.675,1.485-1.009,1.625-1.656a5.123,5.123,0,0,0,.048-.934,4.648,4.648,0,0,0-2.865-4.175" transform="translate(-8.731 -16.881)" fill="#5c7aa2"/>
        <path id="パス_305-2" data-name="パス 305" d="M33.984,88.933c.031.08.056.165.085.247.9.165.957.795,2.005.242.291-.145.328-.326.477-.521a2.91,2.91,0,0,0,.574-2.392,7.93,7.93,0,0,0-.527-2.191c-.01-.022-.177.093-.2.09-.065-.033-.183-.422-.23-.5-.132-.269-.231-.072-.311-.161-.278-.3-.355-.687-.658-.916a3.9,3.9,0,0,0-1.954-.625c-.2.065-.236-.172-.311-.161a3.558,3.558,0,0,0-1.97.9,9.424,9.424,0,0,0-.771,2.481,4.313,4.313,0,0,0,.675,3.037c.718.786,1.331.391,2.464.7a3.172,3.172,0,0,1,.362-.012c-.01-.048-.018-.1-.029-.146-.046-.226.234-.285.32-.066" transform="translate(-5.826 -15.846)" fill="#5c7aa2"/>
        <path id="パス_306-2" data-name="パス 306" d="M21.434,97.835c.1-.275.173-.523.224-.661a7.9,7.9,0,0,0,.7-3.666,3.22,3.22,0,0,0-.345-.754,2.687,2.687,0,0,0-2.382-1.038c-.223.077-.2-.161-.312-.161a4.284,4.284,0,0,0-2.2.4c-.152.082-.071.324-.081.342-.222.166-.594.157-.788.361-.056.051-.111.583-.165.684-.1.182-.424.308-.484.525a8.09,8.09,0,0,0,.148.844c-.006.181-.171.471-.163.683a4.085,4.085,0,0,0,.724,2.1c.1.142.122.374.23.5a5.413,5.413,0,0,0,1.478,1.148c.1.057.3-.213.394-.181.13.043.3.37.436.41.37.135.7-.1,1.1-.2.275-.05.4.157.707-.019a2.1,2.1,0,0,0,.656-1c-.021-.042-.046-.075-.067-.12-.068-.148.07-.28.187-.2" transform="translate(-3.011 -17.681)" fill="#5c7aa2"/>
        <path id="パス_307-2" data-name="パス 307" d="M43.328,96.261a10.944,10.944,0,0,1-4.547,5.761,34.713,34.713,0,0,0-4.344,3.764c-.05-.85-.017-1.7-.068-2.53-.124-2.033-.238-4.206-.548-6.26A34.142,34.142,0,0,0,32.6,90.8c-.028-.081-.054-.168-.085-.248-.086-.219-.366-.16-.32.066.011.049.019.1.029.146a77.774,77.774,0,0,1,1.384,14.452c-.881-.881-2.389-.975-3.344-1.849a6.271,6.271,0,0,0-1.492-.675,7.635,7.635,0,0,1-2.608-2.07c-1.009-1.095-2.339-1.837-3.352-2.985-.01-.01-.023-.009-.032-.017-.117-.082-.255.049-.187.2.021.045.046.077.067.119a7.733,7.733,0,0,0,1.48,1.869,12.458,12.458,0,0,0,1.68,1.409c.571.43.972,1.174,1.582,1.581,1.057.7,2.3,1.4,3.386,1.979a27.518,27.518,0,0,1,2.853,1.314,19.322,19.322,0,0,0,1.311,4.765c.875,2.582,1.059,5.262,2.247,7.761.3.621,1.154.387.925-.29-.85-2.513-1.351-5.1-2.243-7.6-.407-1.138-.9-2.187-1.219-3.361a6.866,6.866,0,0,1-.2-1.09c.97-.672,1.731-1.615,2.694-2.33,1.055-.781,2.175-1.443,3.212-2.247a10.986,10.986,0,0,0,3.449-4.761c.154-.035.265-.2.165-.45-.023-.061-.046-.119-.07-.18-.13-.331-.508-.314-.591-.045" transform="translate(-4.361 -17.463)" fill="#5c7aa2"/>
        <path id="パス_308-2" data-name="パス 308" d="M37.129,54.345c.345-.233.835-.583.92-.62.2-.08.539.242.747.187.1-.022.231-.463.366-.477.358-.039,1.285.228,1.8.169.293-.033.361.362.441.395a4.346,4.346,0,0,1,1.188.583c.083.068.053.51.134.6.2.264.55.185.688.456.28.531.084,1.239.209,1.472a3.657,3.657,0,0,1-.447,3.306,9.526,9.526,0,0,1-.979.889,5.591,5.591,0,0,1-.8.082,4.823,4.823,0,0,1-2.416.246c-.489-.065-.613.1-.748-.188-.03-.067-.427-.1-.5-.125-1.363-.531-1.971-.8-2.318-1.434a5.3,5.3,0,0,1-.324-.933c-.645-2.291.735-3.729,2.041-4.61" transform="translate(-6.745 -10.32)" fill="#5c7aa2"/>
        <path id="パス_309-2" data-name="パス 309" d="M43.833,60.206a14.479,14.479,0,0,0,6.809,5.144,48.549,48.549,0,0,1,6,3.164c-.19-.861-.47-1.709-.653-2.555-.445-2.063-.943-4.264-1.185-6.373a30.436,30.436,0,0,1-.407-6.41c-.968.293-.854.935-2.2.529a1.653,1.653,0,0,1-.69-.456,3.206,3.206,0,0,1-1.339-2.324,6.964,6.964,0,0,1-.035-2.279c0-.023.227.069.249.062.064-.043.086-.45.115-.538.073-.29.241-.1.307-.206.228-.345.2-.742.482-1.017a4.25,4.25,0,0,1,2.032-.909c.244.038.219-.2.307-.207a5,5,0,0,1,2.491.625,10.7,10.7,0,0,1,1.588,2.384c.275.709.728,2.217.112,3.152-.586.893-1.394.583-2.589,1.053a4.093,4.093,0,0,0-.414.04,72.117,72.117,0,0,0,2.6,14.732c.743-1.013,2.424-1.322,3.252-2.337a6.375,6.375,0,0,1,1.5-.894,6.928,6.928,0,0,0,2.356-2.455c.827-1.246,2.119-2.183,2.935-3.482.009-.012.023-.012.031-.021-.189-.263-.347-.5-.444-.633-.683-.892-1.788-2.47-1.855-3.587a2.7,2.7,0,0,1,.173-.808,2.775,2.775,0,0,1,2.4-1.385c.275.045.183-.19.307-.206a5.731,5.731,0,0,1,2.607.085c.194.061.173.317.19.332.3.135.717.074,1,.25.079.043.294.57.384.665.16.169.569.249.7.459a7.1,7.1,0,0,1,.075.869c.06.182.33.449.382.664a3.5,3.5,0,0,1-.213,2.218c-.078.159-.03.395-.116.537a4.926,4.926,0,0,1-1.343,1.367c-.094.072-.4-.172-.5-.125-.134.062-.232.415-.374.475-.381.187-.821-.006-1.3-.044-.326-.011-.407.215-.805.081a2.7,2.7,0,0,1-1.033-.913,6.529,6.529,0,0,1-1.136,2.091,11.171,11.171,0,0,1-1.5,1.657c-.524.515-.762,1.321-1.336,1.817a39.97,39.97,0,0,1-3.263,2.475A27.971,27.971,0,0,0,57.63,68.7a16.776,16.776,0,0,1-.111,4.981c-.247,2.722.316,5.443-.307,8.127a.573.573,0,0,1-1.131-.158c.237-2.651.061-5.321.35-7.963.132-1.2.383-2.328.411-3.556a6.232,6.232,0,0,0-.09-1.124c-1.293-.537-2.426-1.377-3.723-1.958-1.419-.635-2.879-1.14-4.285-1.8a14.366,14.366,0,0,1-5.278-4.295.345.345,0,0,1-.317-.428c.008-.065.018-.127.028-.191a.356.356,0,0,1,.655-.131" transform="translate(-8.333 -8.851)" fill="#5c7aa2"/>
        <path id="パス_310-2" data-name="パス 310" d="M65.449,107.441c.278-.187.673-.469.741-.5.164-.064.435.2.6.151.084-.018.186-.373.295-.384.289-.031,1.035.184,1.451.136.236-.026.29.292.355.318a3.491,3.491,0,0,1,.957.47c.067.055.044.411.108.485.165.212.443.148.555.366.224.428.067,1,.168,1.186a2.947,2.947,0,0,1-.36,2.663,7.609,7.609,0,0,1-.788.716,4.4,4.4,0,0,1-.648.066,3.885,3.885,0,0,1-1.946.2c-.395-.052-.495.085-.6-.151-.024-.054-.344-.077-.4-.1-1.1-.428-1.588-.647-1.867-1.155a4.182,4.182,0,0,1-.261-.751,3.24,3.24,0,0,1,1.644-3.713" transform="translate(-12.298 -20.609)" fill="#5c7aa2"/>
        <path id="パス_311-2" data-name="パス 311" d="M70.849,112.162a11.663,11.663,0,0,0,5.485,4.143,39.028,39.028,0,0,1,4.836,2.549c-.152-.694-.378-1.376-.525-2.057-.359-1.662-.76-3.436-.955-5.135a24.457,24.457,0,0,1-.328-5.162c-.78.236-.688.754-1.773.427a1.335,1.335,0,0,1-.556-.368,2.584,2.584,0,0,1-1.079-1.871,5.613,5.613,0,0,1-.028-1.836c0-.019.182.055.2.05.051-.035.069-.363.093-.434.059-.233.194-.085.247-.166.184-.278.164-.6.388-.818a3.42,3.42,0,0,1,1.637-.732c.2.031.176-.165.247-.166a4.02,4.02,0,0,1,2.007.5,8.612,8.612,0,0,1,1.279,1.921,3.1,3.1,0,0,1,.09,2.538c-.472.72-1.123.47-2.086.848-.124.006-.232.018-.333.032A58.077,58.077,0,0,0,81.791,118.3c.6-.816,1.953-1.065,2.62-1.884a5.161,5.161,0,0,1,1.2-.719,5.575,5.575,0,0,0,1.9-1.978c.666-1,1.707-1.758,2.364-2.8.006-.01.018-.01.026-.018-.152-.211-.28-.4-.358-.509a6.84,6.84,0,0,1-1.494-2.889,2.194,2.194,0,0,1,.14-.651,2.237,2.237,0,0,1,1.932-1.116c.221.036.147-.153.247-.166a4.626,4.626,0,0,1,2.1.069c.157.049.14.255.154.268.241.109.578.059.8.2.063.035.236.459.308.535.129.136.458.2.564.37a5.676,5.676,0,0,1,.061.7c.048.146.266.361.308.534a2.82,2.82,0,0,1-.172,1.787c-.063.127-.024.317-.093.433a3.988,3.988,0,0,1-1.083,1.1c-.074.057-.323-.138-.4-.1-.108.049-.186.335-.3.382-.307.152-.661,0-1.051-.036-.262-.009-.328.174-.649.066a2.185,2.185,0,0,1-.831-.736,5.27,5.27,0,0,1-.916,1.684,8.917,8.917,0,0,1-1.2,1.335c-.422.415-.615,1.063-1.076,1.464a32.307,32.307,0,0,1-2.629,1.994,22.375,22.375,0,0,0-2.3,1.394,13.5,13.5,0,0,1-.089,4.012c-.2,2.192.255,4.384-.247,6.547a.462.462,0,0,1-.911-.128c.191-2.134.048-4.285.282-6.414.107-.97.309-1.875.331-2.864a4.918,4.918,0,0,0-.072-.905c-1.042-.433-1.954-1.109-3-1.577-1.143-.512-2.319-.919-3.452-1.451a11.583,11.583,0,0,1-4.251-3.46.279.279,0,0,1-.257-.346c.007-.051.015-.1.023-.153a.287.287,0,0,1,.528-.1" transform="translate(-13.577 -19.426)" fill="#5c7aa2"/>
        <path id="パス_312-2" data-name="パス 312" d="M53.612,6.863c.278-.187.673-.469.741-.5.164-.064.435.2.6.151.084-.018.186-.373.295-.384.289-.031,1.035.184,1.451.136.236-.026.29.292.355.318a3.491,3.491,0,0,1,.957.47c.067.055.044.411.108.485.165.212.443.148.555.366.225.428.067,1,.168,1.186a2.947,2.947,0,0,1-.36,2.663,7.609,7.609,0,0,1-.788.716,4.4,4.4,0,0,1-.648.066,3.885,3.885,0,0,1-1.946.2c-.395-.052-.495.084-.6-.152-.024-.053-.344-.077-.4-.1-1.1-.428-1.588-.647-1.867-1.155a4.183,4.183,0,0,1-.261-.751,3.24,3.24,0,0,1,1.644-3.713" transform="translate(-10.012 -1.183)" fill="#5c7aa2"/>
        <path id="パス_313-2" data-name="パス 313" d="M59.012,11.584A11.663,11.663,0,0,0,64.5,15.727a39.134,39.134,0,0,1,4.836,2.549c-.152-.694-.378-1.376-.525-2.057-.359-1.662-.76-3.436-.955-5.135a24.457,24.457,0,0,1-.328-5.162c-.78.236-.688.754-1.773.427a1.342,1.342,0,0,1-.556-.367,2.584,2.584,0,0,1-1.079-1.872,5.613,5.613,0,0,1-.028-1.836c0-.019.182.055.2.05.051-.035.069-.363.093-.434.059-.232.194-.085.247-.166.184-.278.164-.6.388-.818A3.411,3.411,0,0,1,66.655.174c.2.03.176-.166.247-.167a4.02,4.02,0,0,1,2.007.5,8.612,8.612,0,0,1,1.279,1.921,3.1,3.1,0,0,1,.09,2.538c-.472.72-1.123.47-2.086.848-.124.006-.232.018-.333.032a58.076,58.076,0,0,0,2.095,11.868c.6-.816,1.953-1.065,2.62-1.884a5.161,5.161,0,0,1,1.2-.719,5.575,5.575,0,0,0,1.9-1.978c.666-1,1.707-1.758,2.364-2.8.006-.01.018-.01.026-.018-.152-.211-.28-.4-.358-.509a6.84,6.84,0,0,1-1.494-2.889,2.194,2.194,0,0,1,.14-.651,2.237,2.237,0,0,1,1.932-1.116c.221.036.147-.153.247-.166a4.626,4.626,0,0,1,2.1.069c.157.049.14.255.154.268.241.109.578.059.8.2.063.035.236.459.308.535.129.136.458.2.564.37a5.651,5.651,0,0,1,.061.7c.048.146.266.361.308.534a2.82,2.82,0,0,1-.172,1.787c-.063.127-.024.317-.093.433a3.988,3.988,0,0,1-1.083,1.1c-.074.057-.323-.138-.4-.1-.108.049-.186.335-.3.382-.307.152-.661,0-1.051-.036-.262-.008-.328.174-.649.066a2.185,2.185,0,0,1-.831-.736,5.261,5.261,0,0,1-.916,1.684,8.916,8.916,0,0,1-1.2,1.335c-.422.415-.615,1.063-1.076,1.464a32.308,32.308,0,0,1-2.629,1.994,22.518,22.518,0,0,0-2.3,1.394,13.5,13.5,0,0,1-.089,4.012c-.2,2.192.255,4.384-.247,6.547a.462.462,0,0,1-.911-.128c.191-2.134.048-4.285.282-6.414.107-.97.309-1.875.331-2.864a4.919,4.919,0,0,0-.072-.905c-1.042-.433-1.954-1.109-3-1.577-1.143-.512-2.319-.919-3.452-1.451a11.583,11.583,0,0,1-4.251-3.46.279.279,0,0,1-.257-.345c.007-.052.015-.1.023-.154a.287.287,0,0,1,.528-.1" transform="translate(-11.29 0)" fill="#5c7aa2"/>
      </g>
    </g>
  </g>
</svg>
