<svg xmlns="http://www.w3.org/2000/svg" xmlns:xlink="http://www.w3.org/1999/xlink" width="185.68" height="113.574" viewBox="0 0 185.68 113.574">
  <defs>
    <style>
      .cls-1 {
        fill: none;
      }

      .cls-2 {
        clip-path: url(#clip-path);
      }

      .cls-3 {
        fill: #fc9e8b;
      }

      .cls-4 {
        clip-path: url(#clip-path-2);
      }
    </style>
    <clipPath id="clip-path">
      <rect id="長方形_4619" data-name="長方形 4619" class="cls-1" width="85.548" height="95.57"/>
    </clipPath>
    <clipPath id="clip-path-2">
      <rect id="長方形_4619-2" data-name="長方形 4619" class="cls-1" width="85.548" height="95.482"/>
    </clipPath>
  </defs>
  <g id="グループ_9081" data-name="グループ 9081" transform="translate(-827.591 -635.426)">
    <g id="グループ_9055" data-name="グループ 9055" transform="translate(927.724 653.43)">
      <g id="グループ_9053" data-name="グループ 9053" class="cls-2">
        <path id="パス_145" data-name="パス 145" class="cls-3" d="M25.025,79.409c.2-.122.474-.306.522-.326.116-.042.307.127.425.1.059-.011.131-.243.208-.251.2-.02.73.12,1.022.088.167-.017.205.191.251.208a2.534,2.534,0,0,1,.675.306c.048.036.03.267.076.316.117.139.313.1.391.239.159.279.048.651.119.773A1.8,1.8,0,0,1,28.46,82.6a5.287,5.287,0,0,1-.556.467,3.405,3.405,0,0,1-.457.044,2.947,2.947,0,0,1-1.372.129c-.278-.034-.348.056-.425-.1-.017-.035-.243-.05-.283-.066-.774-.279-1.12-.421-1.317-.753a2.652,2.652,0,0,1-.184-.49,2.064,2.064,0,0,1,1.159-2.422" transform="translate(40.774 -26.043)"/>
        <path id="パス_146" data-name="パス 146" class="cls-3" d="M15.5,77.842c-.007.044-.009.092-.014.137-.55.155-.486.492-1.25.279a.957.957,0,0,1-.392-.239,1.664,1.664,0,0,1-.76-1.221,3.373,3.373,0,0,1-.02-1.2c0-.012.129.036.141.033.036-.023.049-.237.066-.283.042-.152.137-.055.174-.109.129-.181.115-.389.273-.533a2.51,2.51,0,0,1,1.154-.477c.139.02.124-.109.174-.109a3.018,3.018,0,0,1,1.414.328,5.6,5.6,0,0,1,.9,1.252,1.887,1.887,0,0,1,.064,1.656c-.333.47-.792.307-1.471.553-.088,0-.163.011-.235.021,0-.026,0-.052,0-.08a.11.11,0,0,0-.216-.011" transform="translate(59.219 -24.455)"/>
        <path id="パス_147" data-name="パス 147" class="cls-3" d="M1.307,82.417c-.107-.138-.2-.263-.253-.332A4.349,4.349,0,0,1,0,80.2a1.324,1.324,0,0,1,.1-.424,1.6,1.6,0,0,1,1.362-.728c.156.023.1-.1.174-.109a3.5,3.5,0,0,1,1.48.045c.111.031.1.166.109.174.17.071.407.039.566.131.045.023.167.3.218.349.09.089.323.131.4.241a3.508,3.508,0,0,1,.043.457c.034.1.188.236.217.348a1.713,1.713,0,0,1-.121,1.165c-.044.083-.017.207-.066.283a2.714,2.714,0,0,1-.763.718c-.053.038-.228-.09-.283-.066-.076.032-.131.218-.213.249-.216.1-.465,0-.74-.023-.185-.006-.231.113-.457.043a1.509,1.509,0,0,1-.586-.48c.007-.023.017-.043.023-.068a.1.1,0,0,0-.153-.09" transform="translate(80.832 -26.027)"/>
        <path id="パス_148" data-name="パス 148" class="cls-3" d="M5.248,83.463a8.194,8.194,0,0,0,3.868,2.7,28.25,28.25,0,0,1,3.41,1.662c-.107-.452-.267-.9-.371-1.342a32.821,32.821,0,0,1-.673-3.348,14.8,14.8,0,0,1-.232-3.367c.005-.045.007-.092.014-.137a.11.11,0,0,1,.216.011c0,.027,0,.054.005.08a35.337,35.337,0,0,0,1.477,7.74c.422-.532,1.377-.695,1.847-1.229a3.683,3.683,0,0,1,.849-.469A3.784,3.784,0,0,0,17,84.476c.47-.654,1.2-1.146,1.666-1.829,0-.007.013-.007.018-.011a.1.1,0,0,1,.153.09c-.006.025-.017.045-.023.068a3.361,3.361,0,0,1-.645,1.1,6.07,6.07,0,0,1-.85.871c-.3.27-.434.693-.759.954-.565.451-1.25.915-1.853,1.3a16.112,16.112,0,0,0-1.62.909,8.167,8.167,0,0,1-.062,2.616c-.141,1.43.18,2.86-.175,4.27-.088.351-.678.292-.642-.083.135-1.392.034-2.795.2-4.183.076-.632.218-1.223.234-1.867a3,3,0,0,0-.051-.59c-.734-.283-1.378-.724-2.115-1.029-.806-.333-1.635-.6-2.434-.945a8.077,8.077,0,0,1-3-2.257.185.185,0,0,1-.18-.225c0-.034.01-.066.016-.1a.207.207,0,0,1,.372-.068" transform="translate(63.457 -26.246)"/>
        <path id="パス_149" data-name="パス 149" class="cls-3" d="M34.472,122.293c-.126-.251-.3-.618-.336-.667-.09-.112-.367-.011-.466-.109-.052-.046,0-.361-.068-.41-.188-.133-.775-.245-1.045-.44-.153-.109-.3.119-.354.115a2.394,2.394,0,0,0-.82.007c-.066.017-.173.3-.243.337-.187.1-.356-.05-.509.078-.3.249-.393.754-.528.862a2.8,2.8,0,0,0-.677,2.213,7.1,7.1,0,0,0,.293.855c.025.071.381.244.422.295a2.886,2.886,0,0,0,1.268.885c.289.107.311.252.467.109.035-.033.263.069.31.072.9.078,1.316.092,1.685-.2a3.555,3.555,0,0,0,.441-.487,3.087,3.087,0,0,0,.16-3.514" transform="translate(30.906 -39.804)"/>
        <path id="パス_150" data-name="パス 150" class="cls-3" d="M39.4,113.8c-.017.057-.04.115-.059.172.454.477.211.846,1.069,1a.931.931,0,0,0,.51-.078,2.046,2.046,0,0,0,1.391-1.055,5.216,5.216,0,0,0,.658-1.422c0-.016-.145-.025-.156-.036-.023-.046.079-.309.087-.373.041-.2-.1-.139-.112-.223-.029-.285.094-.527.017-.783a2.823,2.823,0,0,0-.871-1.186c-.145-.05-.063-.2-.112-.222a2.777,2.777,0,0,0-1.553-.361,6.691,6.691,0,0,0-1.546,1.018,2.854,2.854,0,0,0-.944,1.946c.074.738.609.789,1.139,1.445a2.588,2.588,0,0,1,.218.15c.015-.03.032-.06.048-.092.072-.143.263-.054.216.1" transform="translate(17.272 -36.035)"/>
        <path id="パス_151" data-name="パス 151" class="cls-3" d="M55.354,113.019c.178-.108.332-.21.423-.263a5.5,5.5,0,0,0,2.03-1.693,2.07,2.07,0,0,0,.13-.56,1.907,1.907,0,0,0-.939-1.6c-.165-.055-.048-.175-.112-.222a3.32,3.32,0,0,0-1.467-.735c-.125-.021-.185.146-.2.151-.2-.006-.417-.171-.622-.145-.056,0-.322.269-.4.3-.136.058-.385-.015-.516.077a5.2,5.2,0,0,0-.285.524c-.084.1-.308.182-.4.3a2.681,2.681,0,0,0-.5,1.459c0,.123-.094.256-.086.373a3.692,3.692,0,0,0,.361,1.265c.031.073.27.014.311.072.057.079.012.331.074.411.158.234.456.245.734.367.183.092.165.259.423.295a1.559,1.559,0,0,0,.827-.261c.006-.032.005-.061.013-.094a.1.1,0,0,1,.2-.027" transform="translate(-7.512 -35.617)"/>
        <path id="パス_152" data-name="パス 152" class="cls-3" d="M50.348,123.629a8.24,8.24,0,0,1-5.209,1.173,26.724,26.724,0,0,0-4.209.172c.346-.484.738-.931,1.076-1.408.823-1.162,1.715-2.395,2.439-3.647a22.519,22.519,0,0,0,2.02-3.9c.019-.057.042-.115.059-.172.046-.156-.144-.245-.216-.1-.015.032-.032.062-.048.092A51.781,51.781,0,0,1,40.7,124.3c-.128-.861-.972-1.565-1.146-2.453a4.455,4.455,0,0,0-.578-1.014,5.186,5.186,0,0,1-.617-2.255c-.109-1.033-.562-2.012-.651-3.076,0-.01-.009-.015-.011-.023a.1.1,0,0,0-.2.027c-.008.034-.007.062-.013.094a5.108,5.108,0,0,0,.044,1.658,8.4,8.4,0,0,0,.364,1.494c.146.482.053,1.061.232,1.546.31.84.731,1.76,1.114,2.542a19.468,19.468,0,0,1,1.094,1.951A12.677,12.677,0,0,0,39,127.958c-.625,1.785-1.7,3.325-2.1,5.2-.1.466.506.71.671.243.61-1.737,1.455-3.362,2.034-5.11.263-.8.439-1.579.767-2.359a4.538,4.538,0,0,1,.364-.679c.866.053,1.729-.132,2.609-.1.963.03,1.912.154,2.876.165a8.235,8.235,0,0,0,4.123-1.1c.107.047.243.007.3-.174.013-.043.025-.085.038-.129a.226.226,0,0,0-.326-.28" transform="translate(10.146 -38.083)"/>
        <path id="パス_153" data-name="パス 153" class="cls-3" d="M100.61,99.309c-.192-.13-.466-.325-.514-.346-.113-.045-.3.135-.417.1-.059-.013-.129-.259-.2-.267-.2-.021-.718.127-1.006.094-.163-.019-.2.2-.247.22a2.431,2.431,0,0,0-.663.326c-.046.038-.03.285-.074.336-.115.147-.308.1-.385.254-.156.3-.046.692-.117.822a2.044,2.044,0,0,0,.25,1.847,5.233,5.233,0,0,0,.547.5,3.086,3.086,0,0,0,.449.046,2.7,2.7,0,0,0,1.349.137c.273-.037.342.058.417-.105.017-.038.239-.054.278-.07.761-.3,1.1-.448,1.295-.8a2.929,2.929,0,0,0,.182-.521,2.248,2.248,0,0,0-1.14-2.574" transform="translate(-81.19 -32.599)"/>
        <path id="パス_154" data-name="パス 154" class="cls-3" d="M118.943,101.714a8.094,8.094,0,0,1-3.8,2.873,26.929,26.929,0,0,0-3.353,1.767c.105-.481.262-.954.365-1.427.249-1.152.527-2.381.661-3.559a16.98,16.98,0,0,0,.228-3.58c.541.164.478.523,1.229.3a.923.923,0,0,0,.386-.255,1.79,1.79,0,0,0,.747-1.3,3.882,3.882,0,0,0,.02-1.273c0-.013-.127.038-.139.035-.036-.024-.048-.251-.064-.3-.041-.161-.135-.059-.172-.115-.127-.192-.113-.414-.269-.568a2.37,2.37,0,0,0-1.135-.507c-.137.021-.122-.115-.172-.115a2.791,2.791,0,0,0-1.391.349,5.976,5.976,0,0,0-.886,1.332,2.15,2.15,0,0,0-.063,1.76c.328.5.779.326,1.447.588.086,0,.161.012.23.022a40.278,40.278,0,0,1-1.452,8.229c-.415-.566-1.354-.739-1.817-1.306a3.558,3.558,0,0,0-.835-.5,3.868,3.868,0,0,1-1.315-1.372c-.462-.7-1.183-1.219-1.64-1.944,0-.007-.012-.007-.017-.012.106-.147.194-.28.249-.353a4.738,4.738,0,0,0,1.035-2,1.505,1.505,0,0,0-.1-.452,1.552,1.552,0,0,0-1.339-.773c-.153.025-.1-.107-.172-.115a3.2,3.2,0,0,0-1.455.048c-.109.034-.1.176-.107.186-.167.075-.4.041-.556.139-.044.024-.164.318-.214.371-.089.094-.318.139-.391.257a3.957,3.957,0,0,0-.042.486c-.034.1-.184.251-.213.371a1.958,1.958,0,0,0,.119,1.239c.044.088.017.22.065.3a2.765,2.765,0,0,0,.75.763c.052.04.224-.1.278-.07.075.034.13.232.21.265.212.105.458,0,.728-.024.182-.006.227.121.45.046a1.508,1.508,0,0,0,.576-.51,3.66,3.66,0,0,0,.635,1.168,6.243,6.243,0,0,0,.836.925c.292.287.425.738.746,1.014a22.332,22.332,0,0,0,1.823,1.383,15.563,15.563,0,0,1,1.593.966,9.358,9.358,0,0,0,.062,2.781c.138,1.52-.177,3.04.172,4.54a.32.32,0,0,0,.631-.089c-.133-1.479-.034-2.971-.195-4.447-.074-.672-.214-1.3-.23-1.985a3.442,3.442,0,0,1,.05-.628c.722-.3,1.355-.769,2.079-1.094.793-.354,1.607-.637,2.393-1.005a8.037,8.037,0,0,0,2.948-2.4.193.193,0,0,0,.178-.239c0-.036-.01-.071-.016-.107a.2.2,0,0,0-.366-.072" transform="translate(-102.381 -30.911)"/>
        <path id="パス_155" data-name="パス 155" class="cls-3" d="M58.969,39.325c.324-.2.785-.506.864-.539.191-.069.507.211.7.163.1-.019.217-.4.344-.415.337-.034,1.207.2,1.693.147.275-.029.338.315.413.343a4.162,4.162,0,0,1,1.117.506c.078.059.05.444.126.523.192.23.517.16.647.4.263.461.078,1.077.2,1.279a2.982,2.982,0,0,1-.42,2.875,8.727,8.727,0,0,1-.92.773,5.7,5.7,0,0,1-.756.072,4.891,4.891,0,0,1-2.271.214c-.46-.057-.577.09-.7-.164-.027-.058-.4-.083-.467-.108-1.282-.462-1.853-.7-2.179-1.247a4.352,4.352,0,0,1-.306-.81c-.606-1.991.691-3.243,1.918-4.008" transform="translate(-17.866 -12.713)"/>
        <path id="パス_156" data-name="パス 156" class="cls-3" d="M43.21,36.732c-.011.073-.015.152-.023.226-.911.255-.8.813-2.069.461a1.567,1.567,0,0,1-.648-.4A2.754,2.754,0,0,1,39.211,35a5.632,5.632,0,0,1-.034-1.982c0-.019.214.06.235.054.06-.038.08-.392.109-.468.068-.251.226-.091.288-.18.214-.3.192-.645.452-.882a4.157,4.157,0,0,1,1.911-.79c.229.034.205-.179.288-.18a4.99,4.99,0,0,1,2.341.543,9.3,9.3,0,0,1,1.492,2.073c.259.616.683,1.927.105,2.739-.551.777-1.311.508-2.434.916-.145.006-.271.019-.389.034,0-.043-.007-.086-.009-.131a.182.182,0,0,0-.358-.018" transform="translate(12.659 -10.086)"/>
        <path id="パス_157" data-name="パス 157" class="cls-3" d="M19.717,44.3c-.178-.228-.327-.436-.418-.549a7.2,7.2,0,0,1-1.743-3.118,2.2,2.2,0,0,1,.163-.7,2.656,2.656,0,0,1,2.254-1.2c.259.039.172-.166.288-.18a5.829,5.829,0,0,1,2.45.074c.183.053.163.275.18.289.281.118.673.064.936.218.074.037.276.5.36.578.151.147.535.216.658.4a5.811,5.811,0,0,1,.071.756c.056.157.31.391.359.577a2.842,2.842,0,0,1-.2,1.928c-.074.137-.029.342-.109.467A4.493,4.493,0,0,1,23.7,45.022c-.087.062-.377-.149-.468-.109-.126.053-.218.361-.352.412-.358.164-.771,0-1.226-.038-.306-.009-.383.188-.756.071a2.5,2.5,0,0,1-.97-.794c.011-.039.029-.071.039-.113a.159.159,0,0,0-.253-.15" transform="translate(48.426 -12.688)"/>
        <path id="パス_158" data-name="パス 158" class="cls-3" d="M26.241,46.034a13.567,13.567,0,0,0,6.4,4.472,46.9,46.9,0,0,1,5.643,2.751c-.178-.749-.442-1.486-.613-2.221A54.268,54.268,0,0,1,36.557,45.5a24.535,24.535,0,0,1-.383-5.572c.009-.074.013-.153.024-.226a.181.181,0,0,1,.357.018c0,.045.007.088.009.131a58.479,58.479,0,0,0,2.444,12.808c.7-.88,2.278-1.15,3.057-2.033a6.15,6.15,0,0,1,1.405-.777,6.25,6.25,0,0,0,2.214-2.135c.778-1.082,1.992-1.9,2.759-3.026.008-.011.021-.011.03-.019a.159.159,0,0,1,.253.15c-.01.042-.028.074-.039.113a5.566,5.566,0,0,1-1.068,1.818,10.034,10.034,0,0,1-1.406,1.441c-.492.447-.716,1.147-1.256,1.579-.935.746-2.068,1.514-3.067,2.152a26.661,26.661,0,0,0-2.68,1.5,13.523,13.523,0,0,1-.1,4.33c-.232,2.366.3,4.732-.288,7.066-.147.58-1.123.482-1.063-.138.223-2.3.057-4.625.329-6.922.125-1.046.36-2.024.386-3.091a4.914,4.914,0,0,0-.084-.977c-1.215-.468-2.28-1.2-3.5-1.7-1.333-.552-2.706-.992-4.028-1.565a13.363,13.363,0,0,1-4.96-3.734.307.307,0,0,1-.3-.373c.008-.055.017-.109.027-.166a.342.342,0,0,1,.616-.113" transform="translate(19.671 -13.051)"/>
        <path id="パス_159" data-name="パス 159" class="cls-3" d="M83.422,83.114c.243-.126.592-.317.649-.335.133-.036.277.206.409.188.066-.006.215-.289.3-.287.218,0,.721.26,1.036.263.179,0,.151.272.194.3a2.141,2.141,0,0,1,.6.487c.038.052-.054.344-.023.411.076.192.294.169.33.361.075.377-.161.831-.126,1a2.954,2.954,0,0,1-.824,2.162,6.982,6.982,0,0,1-.729.509c-.061.043-.427-.028-.489-.012a2.643,2.643,0,0,1-1.469-.04c-.278-.085-.381.017-.41-.188-.006-.047-.236-.1-.273-.125-.716-.468-1.029-.7-1.126-1.148a3.636,3.636,0,0,1-.034-.647,3.225,3.225,0,0,1,1.987-2.9" transform="translate(-55.95 -27.28)"/>
        <path id="パス_160" data-name="パス 160" class="cls-3" d="M71.082,82.985c-.021.055-.039.115-.059.172-.622.114-.663.55-1.39.168-.2-.1-.226-.226-.33-.361a2.018,2.018,0,0,1-.4-1.658,5.516,5.516,0,0,1,.365-1.52c.007-.015.123.064.137.062.045-.023.127-.292.159-.348.092-.186.16-.05.216-.112.192-.21.245-.476.456-.635a2.7,2.7,0,0,1,1.355-.434c.138.046.164-.119.216-.112a2.467,2.467,0,0,1,1.366.625,6.558,6.558,0,0,1,.535,1.72,2.991,2.991,0,0,1-.468,2.106c-.5.545-.923.271-1.709.482a2.379,2.379,0,0,0-.251-.009c.007-.033.012-.066.02-.1.033-.156-.162-.2-.221-.046" transform="translate(-34.333 -25.804)"/>
        <path id="パス_161" data-name="パス 161" class="cls-3" d="M57.386,90.5c-.067-.191-.121-.363-.155-.458a5.489,5.489,0,0,1-.488-2.542,2.236,2.236,0,0,1,.239-.523,1.862,1.862,0,0,1,1.652-.72c.154.052.14-.112.216-.112a2.968,2.968,0,0,1,1.526.276c.105.056.049.224.057.237.153.115.411.109.546.25.04.036.077.4.114.474.066.126.294.214.336.364a5.509,5.509,0,0,1-.1.586c0,.125.119.326.113.473a2.831,2.831,0,0,1-.5,1.458c-.072.1-.084.259-.159.348a3.749,3.749,0,0,1-1.025.8c-.068.04-.208-.147-.273-.125-.09.029-.208.257-.3.284-.257.094-.484-.072-.763-.138-.19-.035-.277.109-.489-.013a1.452,1.452,0,0,1-.456-.695c.015-.028.032-.051.047-.082.047-.1-.049-.194-.13-.137" transform="translate(-13.888 -28.421)"/>
        <path id="パス_162" data-name="パス 162" class="cls-3" d="M63.029,89.251a7.585,7.585,0,0,0,3.153,3.994,24.073,24.073,0,0,1,3.012,2.61c.034-.589.011-1.176.047-1.754.086-1.41.165-2.917.38-4.34a23.644,23.644,0,0,1,.844-4.3c.02-.056.038-.116.059-.171.059-.152.254-.111.222.046-.008.034-.013.068-.02.1a53.907,53.907,0,0,0-.96,10.02c.61-.611,1.656-.676,2.318-1.282a4.379,4.379,0,0,1,1.035-.468,5.291,5.291,0,0,0,1.808-1.435c.7-.759,1.622-1.274,2.324-2.069.007-.007.015-.007.022-.011.082-.057.177.034.13.137-.014.031-.032.054-.046.082a5.369,5.369,0,0,1-1.026,1.3,8.569,8.569,0,0,1-1.165.978c-.4.3-.675.814-1.1,1.1-.733.487-1.6.973-2.347,1.372a19.22,19.22,0,0,0-1.979.911,13.373,13.373,0,0,1-.909,3.3c-.607,1.79-.735,3.648-1.558,5.381-.205.431-.8.269-.641-.2.589-1.742.937-3.534,1.555-5.267.282-.789.621-1.516.845-2.33a4.744,4.744,0,0,0,.137-.756c-.673-.466-1.2-1.12-1.868-1.615-.73-.541-1.508-1-2.227-1.558a7.619,7.619,0,0,1-2.391-3.3c-.108-.025-.184-.137-.115-.312l.049-.125c.09-.23.352-.218.409-.031" transform="translate(-33.775 -28.11)"/>
        <path id="パス_163" data-name="パス 163" class="cls-3" d="M77.515,54.954c-.239-.161-.579-.4-.638-.43-.141-.056-.374.168-.518.13-.072-.015-.16-.321-.253-.331-.249-.027-.891.158-1.249.117-.2-.023-.249.251-.306.273a3.013,3.013,0,0,0-.823.4c-.058.047-.038.353-.092.417-.142.183-.382.128-.478.316-.194.369-.058.86-.145,1.021a2.535,2.535,0,0,0,.31,2.292,6.624,6.624,0,0,0,.679.616,3.91,3.91,0,0,0,.557.057,3.344,3.344,0,0,0,1.675.17c.339-.045.425.073.519-.13.021-.046.3-.066.345-.086.945-.369,1.367-.557,1.607-.994a3.606,3.606,0,0,0,.226-.647,2.79,2.79,0,0,0-1.415-3.2" transform="translate(-42.31 -17.923)"/>
        <path id="パス_164" data-name="パス 164" class="cls-3" d="M100.274,57.94a10.047,10.047,0,0,1-4.721,3.567A33.493,33.493,0,0,0,91.39,63.7c.131-.6.326-1.185.453-1.772.309-1.431.654-2.957.821-4.419a21.123,21.123,0,0,0,.283-4.444c.671.2.592.649,1.526.367a1.151,1.151,0,0,0,.478-.316,2.223,2.223,0,0,0,.928-1.611,4.837,4.837,0,0,0,.025-1.581c0-.015-.157.048-.173.044-.044-.03-.06-.313-.08-.374-.05-.2-.167-.073-.212-.143-.158-.239-.141-.515-.334-.7a2.935,2.935,0,0,0-1.409-.63c-.17.026-.152-.143-.213-.143a3.455,3.455,0,0,0-1.727.434,7.423,7.423,0,0,0-1.1,1.653,2.67,2.67,0,0,0-.078,2.185c.406.62.967.4,1.8.73.107,0,.2.015.287.027a50.035,50.035,0,0,1-1.8,10.216c-.515-.7-1.681-.917-2.255-1.622a4.458,4.458,0,0,0-1.037-.619,4.8,4.8,0,0,1-1.634-1.7c-.574-.864-1.469-1.513-2.035-2.414-.005-.009-.015-.009-.022-.015.131-.182.241-.348.308-.439a5.87,5.87,0,0,0,1.286-2.487,1.863,1.863,0,0,0-.12-.56,1.923,1.923,0,0,0-1.663-.96c-.19.031-.127-.133-.212-.143a3.975,3.975,0,0,0-1.807.059c-.135.042-.121.219-.133.23-.207.094-.5.051-.691.174-.054.029-.2.395-.265.46-.111.117-.395.173-.485.318a5.055,5.055,0,0,0-.053.6c-.041.126-.228.312-.265.46a2.428,2.428,0,0,0,.148,1.538c.054.11.021.273.08.373a3.44,3.44,0,0,0,.931.947c.065.049.278-.119.346-.087.092.043.161.288.26.329.264.131.568,0,.9-.03.226-.007.282.15.558.057a1.883,1.883,0,0,0,.716-.633,4.546,4.546,0,0,0,.788,1.449,7.7,7.7,0,0,0,1.037,1.149c.363.357.529.915.926,1.26a27.67,27.67,0,0,0,2.263,1.716,19.39,19.39,0,0,1,1.977,1.2,11.616,11.616,0,0,0,.076,3.453c.171,1.888-.22,3.774.212,5.635a.4.4,0,0,0,.784-.11c-.164-1.837-.042-3.689-.243-5.521-.092-.834-.265-1.613-.285-2.464a4.256,4.256,0,0,1,.062-.779c.9-.373,1.682-.955,2.581-1.358.984-.44,2-.791,2.971-1.248a9.974,9.974,0,0,0,3.66-2.978.239.239,0,0,0,.22-.3c-.006-.044-.012-.087-.019-.133a.247.247,0,0,0-.454-.09" transform="translate(-68.617 -15.828)"/>
        <path id="パス_165" data-name="パス 165" class="cls-3" d="M68.536,7.053c-.241-.163-.585-.408-.644-.434-.143-.056-.378.17-.523.131-.073-.015-.161-.324-.256-.334-.251-.027-.9.159-1.262.118-.2-.023-.252.254-.308.276a3.034,3.034,0,0,0-.832.408c-.059.048-.038.357-.094.421-.143.184-.386.129-.482.318-.2.373-.059.868-.147,1.031a2.563,2.563,0,0,0,.313,2.316,6.724,6.724,0,0,0,.685.622,3.9,3.9,0,0,0,.564.058,3.386,3.386,0,0,0,1.691.172c.343-.046.43.073.525-.132.021-.047.3-.067.348-.087.954-.372,1.38-.562,1.623-1a3.692,3.692,0,0,0,.228-.653,2.818,2.818,0,0,0-1.429-3.228" transform="translate(-27.298 -2.116)"/>
        <path id="パス_166" data-name="パス 166" class="cls-3" d="M91.523,10.069a10.148,10.148,0,0,1-4.768,3.6,33.752,33.752,0,0,0-4.2,2.216c.132-.6.329-1.2.457-1.789.312-1.445.661-2.986.83-4.464a21.27,21.27,0,0,0,.285-4.488c.678.206.6.655,1.541.371a1.154,1.154,0,0,0,.483-.32,2.245,2.245,0,0,0,.937-1.627,4.878,4.878,0,0,0,.025-1.6c0-.016-.159.048-.175.044-.045-.03-.06-.316-.081-.377-.051-.2-.169-.074-.214-.145C86.48,1.255,86.5.977,86.3.786A2.971,2.971,0,0,0,84.879.149c-.172.027-.153-.144-.215-.145A3.5,3.5,0,0,0,82.92.443a7.49,7.49,0,0,0-1.112,1.67,2.7,2.7,0,0,0-.078,2.206c.411.626.976.409,1.813.738a2.836,2.836,0,0,1,.29.027A50.521,50.521,0,0,1,82.011,15.4c-.52-.709-1.7-.926-2.277-1.638a4.514,4.514,0,0,0-1.047-.626,4.842,4.842,0,0,1-1.65-1.719c-.579-.872-1.483-1.528-2.055-2.438-.006-.009-.016-.009-.022-.015.133-.184.243-.351.311-.443a5.939,5.939,0,0,0,1.3-2.512,1.879,1.879,0,0,0-.122-.566,1.943,1.943,0,0,0-1.679-.97c-.192.031-.128-.133-.215-.145a4.024,4.024,0,0,0-1.825.06c-.136.043-.121.222-.133.233-.21.094-.5.051-.7.175-.055.03-.205.4-.268.465-.112.119-.4.175-.49.322a4.889,4.889,0,0,0-.053.609c-.042.127-.231.315-.268.465a2.449,2.449,0,0,0,.149,1.553c.055.111.021.275.081.377a3.461,3.461,0,0,0,.941.957c.065.05.281-.12.348-.088.094.043.163.291.263.332.267.132.574,0,.913-.03.228-.008.285.151.564.057a1.9,1.9,0,0,0,.723-.639,4.571,4.571,0,0,0,.8,1.464A7.815,7.815,0,0,0,76.644,11.8c.367.36.534.925.936,1.272a28.2,28.2,0,0,0,2.284,1.733,19.515,19.515,0,0,1,2,1.212,11.733,11.733,0,0,0,.077,3.487c.173,1.906-.222,3.813.215,5.692a.4.4,0,0,0,.792-.111c-.166-1.856-.042-3.726-.245-5.576-.092-.843-.269-1.63-.287-2.49a4.338,4.338,0,0,1,.062-.787c.905-.377,1.7-.965,2.607-1.372.994-.445,2.016-.8,3-1.261a10.074,10.074,0,0,0,3.7-3.008.242.242,0,0,0,.222-.3c-.006-.044-.012-.088-.019-.133a.249.249,0,0,0-.459-.091" transform="translate(-53.869 0)"/>
      </g>
    </g>
    <g id="グループ_9056" data-name="グループ 9056" transform="translate(827.591 635.426)">
      <g id="グループ_9053-2" data-name="グループ 9053" class="cls-4">
        <path id="パス_145-2" data-name="パス 145" class="cls-3" d="M27.593,79.408c-.2-.122-.474-.305-.522-.325-.116-.042-.307.127-.425.1-.059-.011-.131-.243-.208-.25-.2-.02-.73.12-1.022.088-.167-.017-.205.191-.251.208a2.535,2.535,0,0,0-.675.306c-.048.035-.03.267-.076.315-.117.139-.313.1-.391.239-.159.278-.048.651-.119.773a1.8,1.8,0,0,0,.253,1.735,5.287,5.287,0,0,0,.556.467,3.408,3.408,0,0,0,.457.044,2.949,2.949,0,0,0,1.372.129c.278-.034.348.056.425-.1.017-.035.243-.05.283-.066.774-.278,1.12-.421,1.317-.752a2.648,2.648,0,0,0,.184-.489,2.062,2.062,0,0,0-1.159-2.419" transform="translate(-7.844 -26.091)"/>
        <path id="パス_146-2" data-name="パス 146" class="cls-3" d="M15.123,77.839c.007.044.009.092.014.137.55.155.486.491,1.25.278a.957.957,0,0,0,.392-.239,1.663,1.663,0,0,0,.76-1.22,3.367,3.367,0,0,0,.02-1.2c0-.012-.129.035-.141.033-.036-.023-.049-.237-.066-.283-.042-.152-.137-.055-.174-.108-.129-.181-.115-.389-.273-.533a2.511,2.511,0,0,0-1.154-.477c-.139.02-.124-.108-.174-.108a3.02,3.02,0,0,0-1.414.328,5.593,5.593,0,0,0-.9,1.251,1.883,1.883,0,0,0-.064,1.654c.333.469.792.307,1.471.553.088,0,.163.011.235.021,0-.026,0-.052,0-.08a.11.11,0,0,1,.216-.011" transform="translate(-4.296 -24.501)"/>
        <path id="パス_147-2" data-name="パス 147" class="cls-3" d="M3.409,82.413c.107-.138.2-.263.253-.332A4.344,4.344,0,0,0,4.715,80.2a1.322,1.322,0,0,0-.1-.424,1.6,1.6,0,0,0-1.362-.727c-.156.023-.1-.1-.174-.108a3.507,3.507,0,0,0-1.48.045c-.111.031-.1.165-.109.174-.17.071-.407.039-.566.131-.045.023-.167.3-.218.349-.09.089-.323.131-.4.241a3.5,3.5,0,0,0-.043.457c-.034.1-.188.236-.217.348a1.71,1.71,0,0,0,.121,1.164c.044.083.017.207.066.282A2.713,2.713,0,0,0,1,82.848c.053.037.228-.09.283-.066.076.032.131.218.213.249.216.1.465,0,.74-.023.185-.006.231.113.457.043a1.509,1.509,0,0,0,.586-.479c-.007-.023-.017-.043-.023-.068a.1.1,0,0,1,.153-.09" transform="translate(0 -26.076)"/>
        <path id="パス_148-2" data-name="パス 148" class="cls-3" d="M18.445,83.46a8.194,8.194,0,0,1-3.868,2.7,28.262,28.262,0,0,0-3.41,1.66c.107-.452.267-.9.371-1.341a32.765,32.765,0,0,0,.673-3.345,14.777,14.777,0,0,0,.232-3.364c-.005-.045-.007-.092-.014-.137a.11.11,0,0,0-.216.011c0,.027,0,.054-.005.08a35.276,35.276,0,0,1-1.477,7.733c-.422-.532-1.377-.694-1.847-1.228a3.684,3.684,0,0,0-.849-.469A3.783,3.783,0,0,1,6.7,84.471c-.47-.653-1.2-1.145-1.666-1.827,0-.007-.013-.007-.018-.011a.1.1,0,0,0-.153.09c.006.025.017.045.023.068a3.357,3.357,0,0,0,.645,1.1,6.067,6.067,0,0,0,.85.87c.3.27.434.693.759.953.565.451,1.25.914,1.853,1.3a16.115,16.115,0,0,1,1.62.908,8.153,8.153,0,0,0,.062,2.613c.141,1.429-.18,2.857.175,4.266.088.351.678.292.642-.083-.135-1.391-.034-2.792-.2-4.179-.076-.631-.218-1.222-.234-1.866a2.993,2.993,0,0,1,.051-.59c.734-.283,1.378-.723,2.115-1.028.806-.333,1.635-.6,2.434-.945a8.077,8.077,0,0,0,3-2.255.185.185,0,0,0,.18-.225c0-.033-.01-.066-.016-.1a.207.207,0,0,0-.372-.068" transform="translate(-1.602 -26.295)"/>
        <path id="パス_149-2" data-name="パス 149" class="cls-3" d="M29.869,122.292c.126-.25.3-.618.336-.667.09-.112.367-.011.466-.108.052-.046,0-.361.068-.41.188-.133.775-.245,1.045-.439.153-.108.3.119.354.114a2.4,2.4,0,0,1,.82.007c.066.017.173.3.243.337.187.1.356-.05.509.078.3.249.393.753.528.862a2.793,2.793,0,0,1,.677,2.21,7.092,7.092,0,0,1-.293.854c-.025.071-.381.244-.422.295a2.886,2.886,0,0,1-1.268.884c-.289.107-.311.252-.467.108-.035-.033-.263.069-.31.072-.9.078-1.316.092-1.685-.2a3.554,3.554,0,0,1-.441-.487,3.082,3.082,0,0,1-.16-3.511" transform="translate(-9.698 -39.879)"/>
        <path id="パス_150-2" data-name="パス 150" class="cls-3" d="M41.34,113.791c.017.057.04.114.059.171-.454.477-.211.845-1.069,1a.932.932,0,0,1-.51-.078,2.046,2.046,0,0,1-1.391-1.054,5.209,5.209,0,0,1-.658-1.421c0-.016.145-.025.156-.036.023-.046-.079-.309-.087-.373-.041-.2.1-.139.112-.223.029-.285-.094-.527-.017-.783a2.821,2.821,0,0,1,.871-1.185c.145-.05.063-.2.112-.222a2.779,2.779,0,0,1,1.553-.361,6.692,6.692,0,0,1,1.546,1.018,2.85,2.85,0,0,1,.944,1.945c-.074.738-.609.788-1.139,1.443a2.589,2.589,0,0,0-.218.15c-.015-.03-.032-.06-.048-.092-.072-.143-.263-.054-.216.1" transform="translate(-12.462 -36.102)"/>
        <path id="パス_151-2" data-name="パス 151" class="cls-3" d="M55,113.014c-.178-.108-.332-.21-.423-.263a5.493,5.493,0,0,1-2.03-1.691,2.067,2.067,0,0,1-.13-.56,1.9,1.9,0,0,1,.939-1.595c.165-.055.048-.175.112-.222a3.321,3.321,0,0,1,1.467-.734c.125-.021.185.146.2.151.2-.006.417-.171.622-.145.056,0,.322.269.4.3.136.058.385-.015.516.077a5.194,5.194,0,0,1,.285.523c.084.1.308.182.4.3a2.677,2.677,0,0,1,.5,1.457c0,.123.094.256.086.372a3.686,3.686,0,0,1-.361,1.264c-.031.073-.27.014-.311.072-.057.079-.012.331-.074.411-.158.234-.456.245-.734.367-.183.092-.165.259-.423.295a1.56,1.56,0,0,1-.827-.261c-.006-.032-.005-.061-.013-.094a.1.1,0,0,0-.2-.027" transform="translate(-17.294 -35.684)"/>
        <path id="パス_152-2" data-name="パス 152" class="cls-3" d="M37.224,123.622a8.246,8.246,0,0,0,5.209,1.172,26.747,26.747,0,0,1,4.209.171c-.346-.484-.738-.931-1.076-1.406-.823-1.161-1.715-2.393-2.439-3.644a22.491,22.491,0,0,1-2.02-3.9c-.019-.057-.042-.115-.059-.171-.046-.156.144-.245.216-.1.015.032.032.062.048.092a51.729,51.729,0,0,0,5.562,8.464c.128-.86.972-1.563,1.146-2.451a4.45,4.45,0,0,1,.578-1.013,5.178,5.178,0,0,0,.617-2.253c.109-1.032.562-2.01.651-3.073,0-.01.009-.015.011-.023a.1.1,0,0,1,.2.027c.008.033.007.062.013.094a5.1,5.1,0,0,1-.044,1.656,8.389,8.389,0,0,1-.364,1.493c-.146.481-.053,1.06-.232,1.544-.31.839-.731,1.759-1.114,2.54a19.441,19.441,0,0,0-1.094,1.949,12.66,12.66,0,0,1,1.332,3.16c.625,1.783,1.7,3.322,2.1,5.2.1.466-.506.71-.671.242-.61-1.736-1.455-3.359-2.034-5.105-.263-.8-.439-1.577-.767-2.356a4.533,4.533,0,0,0-.364-.678c-.866.053-1.729-.132-2.609-.1-.963.03-1.912.154-2.876.165a8.241,8.241,0,0,1-4.123-1.1c-.107.047-.243.007-.3-.173-.013-.043-.025-.085-.038-.129a.225.225,0,0,1,.326-.28" transform="translate(-12.17 -38.154)"/>
        <path id="パス_153-2" data-name="パス 153" class="cls-3" d="M98.085,99.308c.192-.13.466-.325.514-.345.113-.045.3.135.417.1.059-.013.129-.258.2-.266.2-.021.718.127,1.006.094.163-.019.2.2.247.22a2.432,2.432,0,0,1,.663.325c.046.038.03.285.074.336.115.147.308.1.385.254.156.3.046.692.117.821a2.041,2.041,0,0,1-.25,1.845,5.232,5.232,0,0,1-.547.5,3.09,3.09,0,0,1-.449.046,2.7,2.7,0,0,1-1.349.137c-.273-.037-.342.058-.417-.105-.017-.037-.239-.054-.278-.07-.761-.3-1.1-.448-1.295-.8a2.924,2.924,0,0,1-.182-.521,2.245,2.245,0,0,1,1.14-2.572" transform="translate(-31.957 -32.659)"/>
        <path id="パス_154-2" data-name="パス 154" class="cls-3" d="M102.766,101.707a8.093,8.093,0,0,0,3.8,2.871,26.939,26.939,0,0,1,3.353,1.765c-.105-.481-.262-.953-.365-1.426-.249-1.151-.527-2.379-.661-3.556a16.949,16.949,0,0,1-.228-3.577c-.541.164-.478.522-1.229.3a.923.923,0,0,1-.386-.254,1.788,1.788,0,0,1-.747-1.3,3.875,3.875,0,0,1-.02-1.272c0-.013.127.038.139.035.036-.024.048-.251.064-.3.041-.161.135-.059.172-.115.127-.192.113-.414.269-.567a2.371,2.371,0,0,1,1.135-.507c.137.021.122-.115.172-.115a2.793,2.793,0,0,1,1.391.349,5.969,5.969,0,0,1,.886,1.331,2.146,2.146,0,0,1,.063,1.759c-.328.5-.779.325-1.447.587-.086,0-.161.012-.23.022a40.205,40.205,0,0,0,1.452,8.221c.415-.565,1.354-.738,1.817-1.3a3.559,3.559,0,0,1,.835-.5,3.866,3.866,0,0,0,1.315-1.37c.462-.695,1.183-1.218,1.64-1.942,0-.007.012-.007.017-.012-.106-.147-.194-.28-.249-.353a4.732,4.732,0,0,1-1.035-2,1.5,1.5,0,0,1,.1-.451,1.552,1.552,0,0,1,1.339-.773c.153.025.1-.106.172-.115a3.2,3.2,0,0,1,1.455.048c.109.034.1.176.107.185.167.075.4.041.556.139.044.024.164.318.214.371.089.094.318.139.391.256a3.95,3.95,0,0,1,.042.485c.033.1.184.25.213.37a1.954,1.954,0,0,1-.119,1.238c-.044.088-.017.22-.065.3a2.764,2.764,0,0,1-.75.762c-.052.039-.224-.1-.278-.07-.075.034-.13.232-.21.264-.212.105-.458,0-.728-.024-.182-.006-.227.12-.45.046A1.507,1.507,0,0,1,116.1,101a3.656,3.656,0,0,1-.635,1.167,6.238,6.238,0,0,1-.836.924c-.292.287-.425.737-.746,1.014a22.326,22.326,0,0,1-1.823,1.382,15.568,15.568,0,0,0-1.593.965,9.341,9.341,0,0,1-.062,2.779c-.138,1.519.177,3.037-.172,4.535a.32.32,0,0,1-.631-.089c.133-1.478.033-2.968.195-4.443.074-.671.214-1.3.23-1.984a3.437,3.437,0,0,0-.05-.627c-.722-.3-1.355-.769-2.079-1.093-.793-.354-1.607-.636-2.393-1a8.036,8.036,0,0,1-2.948-2.4.193.193,0,0,1-.178-.239c0-.036.01-.071.016-.107a.2.2,0,0,1,.366-.072" transform="translate(-33.781 -30.968)"/>
        <path id="パス_155-2" data-name="パス 155" class="cls-3" d="M63.218,39.324c-.324-.2-.785-.505-.864-.538-.191-.069-.507.211-.7.163-.1-.019-.217-.4-.344-.415-.337-.033-1.207.2-1.693.147-.275-.029-.338.315-.413.343a4.164,4.164,0,0,0-1.117.505c-.078.059-.05.443-.126.522-.192.23-.517.16-.647.4-.263.461-.078,1.076-.2,1.278a2.978,2.978,0,0,0,.42,2.872,8.725,8.725,0,0,0,.92.772,5.7,5.7,0,0,0,.756.072,4.895,4.895,0,0,0,2.271.214c.46-.057.577.09.7-.164.027-.058.4-.083.467-.108,1.282-.462,1.853-.7,2.179-1.246a4.345,4.345,0,0,0,.306-.809c.606-1.99-.691-3.24-1.918-4" transform="translate(-18.773 -12.737)"/>
        <path id="パス_156-2" data-name="パス 156" class="cls-3" d="M42.581,36.726c.011.073.015.152.023.226.911.255.8.813,2.069.461a1.568,1.568,0,0,0,.648-.4A2.751,2.751,0,0,0,46.58,35a5.622,5.622,0,0,0,.034-1.98c0-.019-.214.06-.235.054-.06-.037-.08-.392-.109-.468-.068-.251-.226-.091-.288-.179-.214-.3-.192-.644-.452-.882a4.159,4.159,0,0,0-1.911-.789c-.229.033-.205-.179-.288-.179a4.994,4.994,0,0,0-2.341.543A9.292,9.292,0,0,0,39.5,33.19c-.259.616-.683,1.925-.105,2.737.551.777,1.311.507,2.434.915.145.006.271.019.389.034,0-.043.007-.086.009-.131a.182.182,0,0,1,.358-.018" transform="translate(-12.902 -10.105)"/>
        <path id="パス_157-2" data-name="パス 157" class="cls-3" d="M23.2,44.3c.178-.228.327-.435.418-.549a7.191,7.191,0,0,0,1.743-3.116,2.2,2.2,0,0,0-.163-.7,2.657,2.657,0,0,0-2.254-1.2c-.259.039-.172-.165-.288-.179a5.834,5.834,0,0,0-2.45.074c-.183.053-.163.274-.18.289-.281.118-.673.064-.936.218-.074.037-.276.495-.36.577-.151.147-.535.216-.658.4a5.8,5.8,0,0,0-.071.756c-.056.157-.31.39-.359.576a2.837,2.837,0,0,0,.2,1.927c.074.137.029.341.109.467a4.491,4.491,0,0,0,1.262,1.187c.087.062.377-.149.468-.108.126.053.218.361.352.412.358.164.771,0,1.226-.037.306-.009.383.187.756.071a2.5,2.5,0,0,0,.97-.793c-.011-.039-.029-.071-.039-.112a.159.159,0,0,1,.253-.15" transform="translate(-5.792 -12.711)"/>
        <path id="パス_158-2" data-name="パス 158" class="cls-3" d="M48.08,46.029a13.567,13.567,0,0,1-6.4,4.468,46.922,46.922,0,0,0-5.643,2.748c.178-.748.442-1.484.613-2.219a54.175,54.175,0,0,0,1.114-5.536,24.49,24.49,0,0,0,.383-5.567c-.009-.074-.013-.153-.024-.226a.181.181,0,0,0-.357.018c0,.045-.007.088-.009.131a58.378,58.378,0,0,1-2.444,12.8c-.7-.88-2.278-1.149-3.057-2.031a6.152,6.152,0,0,0-1.405-.776A6.247,6.247,0,0,1,28.638,47.7c-.778-1.081-1.992-1.9-2.759-3.023-.008-.011-.021-.011-.03-.019a.159.159,0,0,0-.253.15c.01.042.028.074.039.112A5.56,5.56,0,0,0,26.7,46.739a10.029,10.029,0,0,0,1.406,1.44c.492.447.716,1.146,1.256,1.577.935.746,2.068,1.512,3.067,2.15a26.669,26.669,0,0,1,2.68,1.5,13.5,13.5,0,0,0,.1,4.326c.232,2.364-.3,4.728.288,7.059.147.579,1.123.482,1.063-.138-.223-2.3-.057-4.621-.329-6.916-.125-1.045-.36-2.022-.386-3.088a4.905,4.905,0,0,1,.084-.976c1.215-.467,2.28-1.2,3.5-1.7,1.333-.552,2.706-.991,4.028-1.564a13.362,13.362,0,0,0,4.96-3.731.307.307,0,0,0,.3-.373c-.008-.055-.017-.109-.027-.165a.343.343,0,0,0-.616-.113" transform="translate(-8.444 -13.075)"/>
        <path id="パス_159-2" data-name="パス 159" class="cls-3" d="M84.945,83.114c-.243-.126-.592-.317-.649-.335-.133-.035-.277.206-.409.187-.066-.006-.215-.289-.3-.287-.218,0-.721.26-1.036.263-.179,0-.151.272-.194.3a2.141,2.141,0,0,0-.6.487c-.038.052.054.343.023.411-.076.192-.294.169-.33.361-.075.376.161.83.126,1a2.949,2.949,0,0,0,.824,2.16,6.983,6.983,0,0,0,.729.508c.061.043.427-.028.489-.012a2.645,2.645,0,0,0,1.469-.039c.278-.085.381.017.41-.188.006-.047.236-.1.273-.125.716-.467,1.029-.7,1.126-1.147a3.628,3.628,0,0,0,.034-.647,3.222,3.222,0,0,0-1.987-2.893" transform="translate(-26.869 -27.331)"/>
        <path id="パス_160-2" data-name="パス 160" class="cls-3" d="M71.526,82.981c.021.055.039.114.059.171.622.114.663.55,1.39.167.2-.1.226-.226.33-.361a2.015,2.015,0,0,0,.4-1.657,5.507,5.507,0,0,0-.365-1.518c-.007-.015-.123.064-.137.062-.045-.023-.127-.292-.159-.348-.092-.186-.16-.05-.216-.112-.192-.21-.245-.475-.456-.634a2.7,2.7,0,0,0-1.355-.433c-.138.046-.164-.118-.216-.112a2.468,2.468,0,0,0-1.366.625A6.548,6.548,0,0,0,68.9,80.55a2.986,2.986,0,0,0,.468,2.1c.5.544.923.27,1.709.482a2.383,2.383,0,0,1,.251-.009c-.007-.033-.012-.066-.02-.1-.033-.156.162-.2.221-.046" transform="translate(-22.727 -25.852)"/>
        <path id="パス_161-2" data-name="パス 161" class="cls-3" d="M60.761,90.5c.067-.191.121-.362.155-.458a5.48,5.48,0,0,0,.488-2.54,2.233,2.233,0,0,0-.239-.522,1.863,1.863,0,0,0-1.652-.719c-.154.052-.14-.112-.216-.112a2.97,2.97,0,0,0-1.526.276c-.105.056-.049.224-.057.237-.153.114-.411.108-.546.25-.04.035-.077.4-.114.474-.066.126-.294.214-.336.363a5.5,5.5,0,0,0,.1.585c0,.125-.119.326-.113.473a2.826,2.826,0,0,0,.5,1.457c.072.1.084.259.159.347a3.749,3.749,0,0,0,1.025.8c.068.039.208-.147.273-.125.09.029.208.257.3.284.257.094.484-.072.763-.138.19-.035.277.109.489-.013a1.451,1.451,0,0,0,.456-.694c-.015-.028-.032-.051-.047-.082-.047-.1.049-.194.13-.137" transform="translate(-18.711 -28.474)"/>
        <path id="パス_162-2" data-name="パス 162" class="cls-3" d="M76.93,89.247a7.579,7.579,0,0,1-3.153,3.991,24.068,24.068,0,0,0-3.012,2.607c-.034-.588-.011-1.175-.047-1.753-.086-1.409-.165-2.914-.38-4.336a23.6,23.6,0,0,0-.844-4.294c-.02-.056-.038-.116-.059-.171-.059-.152-.254-.11-.222.046.008.034.013.068.02.1a53.809,53.809,0,0,1,.96,10.011c-.61-.611-1.656-.675-2.318-1.281a4.381,4.381,0,0,0-1.035-.468,5.29,5.29,0,0,1-1.808-1.434c-.7-.758-1.622-1.273-2.324-2.067-.007-.007-.015-.007-.022-.011-.082-.057-.177.033-.13.137.014.031.032.054.046.082A5.365,5.365,0,0,0,63.629,91.7a8.568,8.568,0,0,0,1.165.977c.4.3.675.813,1.1,1.1.733.487,1.6.972,2.347,1.37a19.228,19.228,0,0,1,1.979.91,13.352,13.352,0,0,0,.909,3.3c.607,1.789.735,3.644,1.558,5.376.205.43.8.268.641-.2-.589-1.741-.937-3.531-1.555-5.262-.282-.789-.621-1.515-.845-2.328a4.735,4.735,0,0,1-.137-.755c.673-.466,1.2-1.119,1.868-1.614.73-.541,1.508-1,2.227-1.556a7.612,7.612,0,0,0,2.391-3.3c.108-.025.184-.137.115-.312l-.049-.125c-.09-.23-.352-.218-.409-.031" transform="translate(-20.636 -28.163)"/>
        <path id="パス_163-2" data-name="パス 163" class="cls-3" d="M74.38,54.954c.239-.161.579-.4.638-.429.141-.056.374.167.518.13.072-.015.16-.321.253-.331.249-.027.891.158,1.249.117.2-.023.249.251.306.273a3.014,3.014,0,0,1,.824.4c.058.047.038.353.092.416.142.183.382.128.478.315.194.368.058.859.145,1.02a2.531,2.531,0,0,1-.31,2.29,6.621,6.621,0,0,1-.679.616,3.913,3.913,0,0,1-.557.057,3.347,3.347,0,0,1-1.675.17c-.339-.045-.425.073-.519-.13-.021-.046-.3-.066-.345-.086-.945-.368-1.367-.556-1.607-.993a3.6,3.6,0,0,1-.226-.646,2.787,2.787,0,0,1,1.415-3.193" transform="translate(-24.037 -17.957)"/>
        <path id="パス_164-2" data-name="パス 164" class="cls-3" d="M80.192,57.931a10.046,10.046,0,0,0,4.721,3.563,33.5,33.5,0,0,1,4.163,2.192c-.131-.6-.326-1.184-.453-1.77-.309-1.429-.654-2.954-.821-4.415a21.084,21.084,0,0,1-.283-4.44c-.671.2-.592.648-1.526.367a1.151,1.151,0,0,1-.478-.316,2.221,2.221,0,0,1-.928-1.609,4.828,4.828,0,0,1-.025-1.579c0-.015.157.048.173.044.044-.03.06-.313.08-.374.05-.2.167-.073.212-.143.158-.239.141-.514.334-.7a2.936,2.936,0,0,1,1.409-.629c.17.026.152-.143.213-.143a3.457,3.457,0,0,1,1.727.433,7.416,7.416,0,0,1,1.1,1.651,2.665,2.665,0,0,1,.078,2.183c-.406.619-.967.4-1.8.73-.107,0-.2.015-.287.027a49.947,49.947,0,0,0,1.8,10.206c.515-.7,1.681-.916,2.255-1.62a4.459,4.459,0,0,1,1.037-.619,4.8,4.8,0,0,0,1.634-1.7c.574-.863,1.469-1.512,2.035-2.411.005-.009.015-.009.022-.015-.131-.182-.241-.347-.308-.438A5.862,5.862,0,0,1,95,53.917a1.86,1.86,0,0,1,.12-.56A1.923,1.923,0,0,1,96.78,52.4c.19.031.127-.133.212-.143a3.978,3.978,0,0,1,1.807.059c.135.042.121.219.133.23.207.094.5.051.691.173.054.029.2.394.265.46.111.117.395.173.485.318a5.046,5.046,0,0,1,.053.6c.041.126.228.311.265.46a2.424,2.424,0,0,1-.148,1.536c-.054.11-.021.273-.08.373a3.439,3.439,0,0,1-.931.947c-.065.049-.278-.119-.346-.087-.092.043-.161.288-.26.329-.264.131-.568,0-.9-.03-.226-.007-.282.15-.558.057a1.883,1.883,0,0,1-.716-.633,4.541,4.541,0,0,1-.788,1.448,7.7,7.7,0,0,1-1.037,1.148C94.56,60,94.395,60.56,94,60.9a27.667,27.667,0,0,1-2.263,1.714,19.392,19.392,0,0,0-1.977,1.2,11.6,11.6,0,0,1-.076,3.45c-.171,1.886.22,3.771-.212,5.63a.4.4,0,0,1-.784-.11c.164-1.836.042-3.686.243-5.516.092-.833.265-1.612.285-2.462a4.248,4.248,0,0,0-.062-.779c-.9-.373-1.682-.955-2.581-1.357-.984-.44-2-.79-2.971-1.247a9.972,9.972,0,0,1-3.66-2.976.239.239,0,0,1-.22-.3c.006-.044.012-.087.019-.133a.247.247,0,0,1,.454-.09" transform="translate(-26.302 -15.857)"/>
        <path id="パス_165-2" data-name="パス 165" class="cls-3" d="M65.37,7.053c.241-.163.585-.408.644-.434.143-.056.378.169.523.131.073-.015.161-.324.256-.333.251-.027.9.159,1.262.118.2-.023.252.254.308.276a3.035,3.035,0,0,1,.832.408c.059.048.038.357.094.421.143.184.386.129.482.318.2.372.059.868.147,1.03A2.558,2.558,0,0,1,69.6,11.3a6.72,6.72,0,0,1-.685.621,3.9,3.9,0,0,1-.564.058,3.389,3.389,0,0,1-1.691.172c-.343-.046-.43.073-.525-.132-.021-.047-.3-.067-.348-.087-.954-.372-1.38-.562-1.623-1a3.687,3.687,0,0,1-.228-.652A2.814,2.814,0,0,1,65.37,7.053" transform="translate(-21.059 -2.12)"/>
        <path id="パス_166-2" data-name="パス 166" class="cls-3" d="M71.239,10.06a10.148,10.148,0,0,0,4.768,3.6,33.762,33.762,0,0,1,4.2,2.214c-.132-.6-.329-1.2-.457-1.787-.312-1.443-.661-2.984-.83-4.46a21.231,21.231,0,0,1-.285-4.484c-.678.206-.6.655-1.541.371a1.154,1.154,0,0,1-.483-.319,2.242,2.242,0,0,1-.937-1.625,4.869,4.869,0,0,1-.025-1.595c0-.016.159.048.175.044.045-.03.06-.315.081-.377.051-.2.169-.074.214-.145.159-.241.143-.519.337-.71A2.972,2.972,0,0,1,77.884.149c.172.027.153-.144.215-.145a3.5,3.5,0,0,1,1.744.438A7.483,7.483,0,0,1,80.955,2.11a2.694,2.694,0,0,1,.078,2.2c-.411.625-.976.408-1.813.737a2.838,2.838,0,0,0-.29.027,50.433,50.433,0,0,0,1.821,10.308c.52-.708,1.7-.925,2.277-1.636a4.514,4.514,0,0,1,1.047-.625,4.84,4.84,0,0,0,1.65-1.718c.579-.871,1.483-1.526,2.055-2.435.006-.009.016-.009.022-.015-.133-.184-.243-.351-.311-.442a5.932,5.932,0,0,1-1.3-2.51,1.876,1.876,0,0,1,.122-.565,1.943,1.943,0,0,1,1.679-.969c.192.031.128-.133.215-.145a4.028,4.028,0,0,1,1.825.06c.136.043.121.222.133.233.21.094.5.051.7.175.055.03.205.4.268.465.112.118.4.175.49.321a4.88,4.88,0,0,1,.053.609c.042.127.231.315.268.465a2.444,2.444,0,0,1-.149,1.552c-.055.11-.021.275-.081.376a3.46,3.46,0,0,1-.941.956c-.065.05-.281-.12-.348-.088-.094.043-.163.291-.263.332-.267.132-.574,0-.913-.03-.228-.008-.285.151-.564.057a1.9,1.9,0,0,1-.723-.639,4.566,4.566,0,0,1-.8,1.463,7.809,7.809,0,0,1-1.047,1.159c-.367.36-.534.924-.936,1.271A28.2,28.2,0,0,1,82.9,14.794a19.518,19.518,0,0,0-2,1.211,11.711,11.711,0,0,1-.077,3.484c-.173,1.9.222,3.809-.215,5.687a.4.4,0,0,1-.792-.111c.166-1.854.042-3.723.245-5.571.092-.842.269-1.629.287-2.488a4.329,4.329,0,0,0-.062-.786c-.905-.376-1.7-.964-2.607-1.37-.994-.445-2.016-.8-3-1.26a10.072,10.072,0,0,1-3.7-3.005.242.242,0,0,1-.222-.3c.006-.044.012-.088.019-.133a.249.249,0,0,1,.459-.091" transform="translate(-23.346 0)"/>
      </g>
    </g>
  </g>
</svg>
