<svg xmlns="http://www.w3.org/2000/svg" xmlns:xlink="http://www.w3.org/1999/xlink" width="136.335" height="109.784" viewBox="0 0 136.335 109.784">
  <defs>
    <style>
      .cls-1 {
        fill: none;
      }

      .cls-2 {
        fill: #f29d3e;
      }

      .cls-3 {
        clip-path: url(#clip-path);
      }

      .cls-4 {
        fill: #fa9627;
      }

      .cls-5 {
        fill: #e89d49;
      }

      .cls-6 {
        fill: #252122;
      }

      .cls-7 {
        fill: #231f20;
      }

      .cls-8 {
        fill: #d1d3d4;
      }

      .cls-9 {
        fill: #fff;
      }
    </style>
    <clipPath id="clip-path">
      <rect id="長方形_4621" data-name="長方形 4621" class="cls-1" width="136.335" height="109.784"/>
    </clipPath>
  </defs>
  <g id="グループ_9071" data-name="グループ 9071" transform="translate(-445.122 -1663)">
    <path id="合体_1" data-name="合体 1" class="cls-2" d="M7434.5,75.449A35.977,35.977,0,0,1,7424,77c-15.954,0-29.264-10.291-32.334-23.97C7380.62,48.18,7373,37.9,7373,26c0-13.3,9.513-24.573,22.69-28.508C7400.065-14.416,7412.43-23,7427-23a35.043,35.043,0,0,1,19.872,6.048c15.729.8,28.519,11.617,30.774,25.548C7485.179,14.094,7490,22.535,7490,32c0,9.98-5.362,18.822-13.608,24.276C7472.093,68.3,7459.663,77,7445,77A35.976,35.976,0,0,1,7434.5,75.449Z" transform="translate(-6921 1690)"/>
    <g id="グループ_9070" data-name="グループ 9070" transform="translate(445.122 1663)">
      <g id="グループ_9063" data-name="グループ 9063" class="cls-3">
        <path id="パス_314" data-name="パス 314" class="cls-4" d="M119.149,289.72a27.12,27.12,0,0,1,.946-6.9,75.954,75.954,0,0,1,2.442-8.446c1.044-2.984,2.238-5.908,3.547-8.79a76.828,76.828,0,0,1,5.731-10.36,43.766,43.766,0,0,1,7.013-8.215,19.462,19.462,0,0,1,3.361-2.653,2.163,2.163,0,0,1,.961-.332c.575-.033.846.3.74.882a15.413,15.413,0,0,1-2.021,4.727,36.223,36.223,0,0,1-2.852,3.854,31.388,31.388,0,0,0-3.2,6.258,89.334,89.334,0,0,0-3.63,9.8,74.11,74.11,0,0,0-3.047,13.421,21.116,21.116,0,0,0,.186,7.468,8.083,8.083,0,0,0,1.231,3.084,2.612,2.612,0,0,0,3.089,1.017,16.988,16.988,0,0,0,3.824-1.966c.649-.379,1.355-.941,2.056-.518a2.381,2.381,0,0,1,.978,2.224c-.061,1.08-.309,2.149-.47,3.224a34.124,34.124,0,0,0-.352,6.676,38.309,38.309,0,0,0,.395,4.681c.067.389-.059.554-.509.585a19.586,19.586,0,0,1-11.611-3.075,16.724,16.724,0,0,1-6.679-7.04,19.56,19.56,0,0,1-2.125-9.6" transform="translate(-101.347 -207.581)"/>
        <path id="パス_315" data-name="パス 315" class="cls-4" d="M704.732,256.384a4.782,4.782,0,0,0,.579-2.25,45.251,45.251,0,0,0,.3-7.711c-.151-2.58-.05-5.159-.134-7.737a11.364,11.364,0,0,1,.165-2.064c.043-.289.115-.637.465-.679a.832.832,0,0,1,.728.416,10.118,10.118,0,0,1,1.637,3.843c.708,2.682.823,5.493,1.774,8.122a4.231,4.231,0,0,0,.626,1.251c.839,1.039,1.614,1.09,3.155.23a13.25,13.25,0,0,0,4.713-5.2,33.266,33.266,0,0,0,3.785-9.194,14.99,14.99,0,0,0,.061-5.888,44.305,44.305,0,0,0-4.744-13.067,90.2,90.2,0,0,0-7.215-11.684,17.787,17.787,0,0,0-3.643-3.491,37.257,37.257,0,0,1-4.611-4.261c-.28-.306-.736-.745-.457-1.129.259-.357.815-.131,1.246,0,2.421.736,4.941,1.091,7.333,1.944a19.417,19.417,0,0,1,8.3,5.352,14.361,14.361,0,0,1,2.469,4.444,56.3,56.3,0,0,1,2.592,10.195c.474,2.606.768,5.246,1.453,7.815a9.233,9.233,0,0,0,.544,1.289c.064.147.119.347.36.3a.38.38,0,0,0,.318-.363,21.886,21.886,0,0,0,.289-2.262c.047-1.566.1-3.139,0-4.7a53.286,53.286,0,0,0-.682-5.561,11.309,11.309,0,0,1-.057-1.186c-.042-.674.3-.622.735-.4a2.2,2.2,0,0,1,.9,1.4,28.326,28.326,0,0,1,1.193,5.536c.309,2.091.564,4.193.735,6.3a34.658,34.658,0,0,1,.295,4.054,25.928,25.928,0,0,1-1.12,6.221,61.083,61.083,0,0,1-4.653,11.49,47.367,47.367,0,0,1-6.258,9.561,13.653,13.653,0,0,1-11.542,4.832,18.088,18.088,0,0,1-1.891-.308,14.047,14.047,0,0,0,.257-5.47" transform="translate(-597.032 -166.479)"/>
        <path id="パス_316" data-name="パス 316" class="cls-4" d="M306.132,395.855c.638-.287,1.011-.959,1.7-1.171a3.32,3.32,0,0,1,.556-.188c.507-.059.8-.043.629.691a15.667,15.667,0,0,0,.167,7.547c.19.744.362,1.493.552,2.236a1.881,1.881,0,0,0,.891,1.31,1.919,1.919,0,0,1,.634.511c1.173,1.612,2.574,1,3.945.4a19.8,19.8,0,0,0,9.328-8.855,34.758,34.758,0,0,0,3.389-9.864,2.1,2.1,0,0,1,1.244-1.372c.475-.253.953.053,1.123.627a13.846,13.846,0,0,1,.141,4.933c-.156,2.443-1.618,4.321-2.694,6.341a80.029,80.029,0,0,1-5.284,8.543c-1.366,1.933-2.85,3.769-4.356,5.595a2.038,2.038,0,0,1-2.082.752c-2.243-.266-4.488-.533-6.711-.944a43.746,43.746,0,0,1-5.447-1.3,13.453,13.453,0,0,1-5.795-3.079,3.857,3.857,0,0,1-1.084-2.324c-1.61,1.9-3.759,2.47-5.955,2.957-.41.091-.528-.012-.538-.419-.065-2.575.241-5.13.359-7.694.124-2.678,1.477-4.926,2.171-7.4,1.125-4,2.306-7.989,3.709-11.905a52.564,52.564,0,0,1,5.967-12.339,21.675,21.675,0,0,1,7.967-7.146,2.67,2.67,0,0,1,1.419-.354c.6.04.826.324.692.917a17.1,17.1,0,0,1-2.286,4.95c-1.634,2.726-3.458,5.325-5.3,7.915a18.04,18.04,0,0,0-1.711,4c-.97,2.474-1.868,4.976-2.789,7.469a1.948,1.948,0,0,0-.057.434,3.237,3.237,0,0,1-.426,1.234,29.594,29.594,0,0,0-2.389,5.694c-1.017,3.491-1.3,6.98.249,10.419.266.592.729.76,1.2.328s1-.807,1.431-1.262a31.911,31.911,0,0,0,2.911-3.58c1.018-1.441,1.655-3.085,2.524-4.6" transform="translate(-247.104 -307.891)"/>
        <path id="パス_317" data-name="パス 317" class="cls-5" d="M461.539,216.089a36.785,36.785,0,0,1-.52,4.958c-.13,1.446-.375,2.882-.526,4.328-.261,2.5-.513,5.006-.866,7.5-.309,2.175-.511,4.365-.788,6.545-.3,2.326-.6,4.65-.945,6.97-.356,2.416-.749,4.826-1.141,7.237a54.791,54.791,0,0,1-1.982,8.964,10.732,10.732,0,0,1-5.182,5.986,1.272,1.272,0,0,1-1.709-.293,11.334,11.334,0,0,1-3.5-7.416,7.857,7.857,0,0,1,.923-4.307A79.654,79.654,0,0,0,451.3,241.7c1.826-5.876,3.444-11.808,4.732-17.83.614-2.869,1.188-5.744,1.578-8.649a15.065,15.065,0,0,0,.191-3.184,3.763,3.763,0,0,1,.266-1.6c.318-.862.852-.96,1.514-.325a6.341,6.341,0,0,1,1.605,3.218,6.941,6.941,0,0,1,.35,2.756" transform="translate(-378.013 -178.392)"/>
        <path id="パス_318" data-name="パス 318" class="cls-4" d="M553.384,386.37a9.512,9.512,0,0,1-.448,3.227,12.225,12.225,0,0,0,.172,4.579,9.055,9.055,0,0,1-1.257,6.667,32.388,32.388,0,0,1-4.763,6.578,17.939,17.939,0,0,1-3.879,2.812c-2.927,1.583-5.857,3.19-9.19,3.77a20.287,20.287,0,0,1-4.426.326,1.58,1.58,0,0,1-1.428-1.28,1.3,1.3,0,0,1,1.023-1.7,30.489,30.489,0,0,0,5.8-2.151,24.049,24.049,0,0,0,6.3-4.49c.306-.314.629-.632.951-.9,1.66-1.4,1.929-3.389,2.351-5.294.687-3.1.439-6.264.432-9.406-.006-2.629.049-5.271-.188-7.883a38.756,38.756,0,0,1,.475-7.351c.1-1.028.1-2.081.207-3.1.217-2.165-.139-4.362.406-6.5.1-.4.179-.852.619-.928.465-.08.755.327.99.674a15.849,15.849,0,0,1,1.658,3.566,77.434,77.434,0,0,1,3.918,15.542,18.043,18.043,0,0,1,.273,3.247" transform="translate(-449.267 -309.078)"/>
        <path id="パス_319" data-name="パス 319" class="cls-4" d="M90.659,135.494a12.528,12.528,0,0,0-2.415,1.247c-2.183,1.168-4.244,2.561-6.536,3.528a4.127,4.127,0,0,1-1.217.323.953.953,0,0,1-1.056-1.23,9.848,9.848,0,0,1,2.344-4.3,42.75,42.75,0,0,1,6.323-5.882,13.877,13.877,0,0,1,7.49-2.916,77.049,77.049,0,0,1,9.525-.23,42.7,42.7,0,0,1,7.156.7,6.081,6.081,0,0,1,2.215.812c.738.5.741.939.01,1.485a6.214,6.214,0,0,1-2.67,1.089c-4.229.743-7.858,2.8-11.409,5.056a99.174,99.174,0,0,0-8.939,6.4c-.378.3-.62.242-.943-.085a4.167,4.167,0,0,1-.029-5.6.39.39,0,0,0,.153-.4" transform="translate(-67.546 -107.164)"/>
        <path id="パス_320" data-name="パス 320" class="cls-5" d="M353.934,159.377a40.759,40.759,0,0,0-2.1,9.674q-.592,4.475-1.2,8.948a1.492,1.492,0,0,1-.3.821c-1.731-2.933-4.722-3.718-7.678-4.512a9.42,9.42,0,0,0-3.945-.349,3.132,3.132,0,0,1-3.3-1.786,8.7,8.7,0,0,0-1.315-1.7,2.267,2.267,0,0,0-2.42-.7,2,2,0,0,1-.457.028c.014-.348.29-.473.47-.648a60.232,60.232,0,0,1,14.222-10.5,39.655,39.655,0,0,1,3.635-1.7,6.16,6.16,0,0,0,4.394,2.421" transform="translate(-281.755 -133.519)"/>
        <path id="パス_321" data-name="パス 321" class="cls-5" d="M570.917,152.821a27.264,27.264,0,0,1,2.715,5.186c.981,2.05,1.777,4.225,3.551,5.784A59.461,59.461,0,0,0,582,167.5c2.4,1.7,4.967,3.181,7.04,5.313a6.474,6.474,0,0,1,1.036,1.523,1.7,1.7,0,0,1-.415,2.212c-1.077.98-2.209,1.9-3.365,2.789a3.257,3.257,0,0,1-2.835.311,31.6,31.6,0,0,0-3.746-.854,3.853,3.853,0,0,0-3.937,1.722c-.366.558-.723,1.123-1.079,1.688-.171.271-.33.654-.682.577-.3-.065-.328-.479-.369-.758a15.865,15.865,0,0,1-.29-2.641c.032-1.369-.15-2.72-.195-4.081a48.669,48.669,0,0,0-.748-6.9,38.591,38.591,0,0,0-2.386-8.308c-.519-1.229-1.188-2.393-1.789-3.587a8.663,8.663,0,0,0,2.68-3.682" transform="translate(-483.387 -130.001)"/>
        <path id="パス_322" data-name="パス 322" class="cls-4" d="M29.379,299.837c-.3-2.091.939-3.638,2.167-5.216a76.542,76.542,0,0,1,5.249-6.094,61.862,61.862,0,0,1,7.954-7.58c.465-.337,1.05-.839,1.569-.462.579.421.024,1.067-.168,1.53a48.465,48.465,0,0,1-2.3,4.463,96.681,96.681,0,0,0-5.216,10.163,6.061,6.061,0,0,0-.345,2.254,9.047,9.047,0,0,1-1.014,4.2,3.986,3.986,0,0,1-2.2,1.91,3.647,3.647,0,0,0-2.418,2.68c-.077.307-.2.59-.537.64s-.471-.268-.607-.475a14.97,14.97,0,0,1-1.995-5.708,9.157,9.157,0,0,1-.147-2.31" transform="translate(-24.955 -238.488)"/>
        <path id="パス_323" data-name="パス 323" class="cls-6" d="M104.675,150.8a23.724,23.724,0,0,0-4.266,1.347,47.143,47.143,0,0,0-10.843,6,47.736,47.736,0,0,0-6.436,5.785c-.519.544-.959.546-1.308.06A.836.836,0,0,1,82,162.867a20.578,20.578,0,0,1,2.407-2.388c.621-.479,1.147-1.052,1.752-1.543a55.733,55.733,0,0,1,5.9-4.26,47.969,47.969,0,0,1,7.293-3.708,43.594,43.594,0,0,1,8.478-2.548c1-.179,1.987-.412,2.987-.576a1.087,1.087,0,0,1,.933.111.773.773,0,0,1-.2,1.3c-1.41.674-2.848,1.294-4.24,2a68.194,68.194,0,0,0-11.07,7.029,74.792,74.792,0,0,0-8.771,8.074,72.759,72.759,0,0,0-6.511,8.176,71.064,71.064,0,0,0-4.558,7.626A72.53,72.53,0,0,0,71.959,192.7a28.653,28.653,0,0,1-1.753,5.1,4,4,0,0,1-4.219,2.266,2.1,2.1,0,0,1-1.577-1.445,2.225,2.225,0,0,1,.324-2.393,1.666,1.666,0,0,1,1.493-.789c.346.033.6.159.673.46a.78.78,0,0,1-.385.881c-.873.5-.978.678-.646,1.319.277.536.867.667,1.578.358a3.335,3.335,0,0,0,1.859-2.214c.885-2.815,1.707-5.648,2.825-8.386a74.114,74.114,0,0,1,3.687-7.829A71.73,71.73,0,0,1,79.7,173.7q2.2-3.155,4.685-6.093a58.95,58.95,0,0,1,4.695-5.088c1.774-1.65,3.558-3.294,5.476-4.795,1.7-1.329,3.427-2.607,5.213-3.8,1.48-.992,3.035-1.873,4.567-2.786.129-.077.26-.117.345-.333" transform="translate(-54.615 -125.723)"/>
        <path id="パス_324" data-name="パス 324" class="cls-5" d="M249.98,54.955a5.855,5.855,0,0,1-1.91-1.341,26.991,26.991,0,0,0-7.391-4.453,29.534,29.534,0,0,0-4.861-.9,41.87,41.87,0,0,0-6.853-.61,23.641,23.641,0,0,0-8.3,1.357A3.306,3.306,0,0,1,218,48.916a8.564,8.564,0,0,0-1.884-.663c-.481-.092-.389-.24-.135-.5a16.242,16.242,0,0,1,3.237-2.343,35.012,35.012,0,0,1,6.2-3.031,9.489,9.489,0,0,1,7.421.328c1.907.836,3.773,1.769,5.653,2.666a8.816,8.816,0,0,0,2.523.54,11.849,11.849,0,0,1,4.7,2.127,23.861,23.861,0,0,1,4.953,4.234,8.671,8.671,0,0,0-.692,2.682" transform="translate(-183.555 -35.534)"/>
        <path id="パス_325" data-name="パス 325" class="cls-7" d="M731.73,222.5c-.568-.118-1.178-.039-1.793-.158-.7-.137-.8-.529-.7-1.046.1-.55.594-.556,1.009-.469a9.794,9.794,0,0,0,2.865.173,13.052,13.052,0,0,0,6.815-2.766,33.532,33.532,0,0,0,8.254-9.772,48.8,48.8,0,0,0,4.238-9.147,47.5,47.5,0,0,0,1.887-7.26,66.251,66.251,0,0,0,.77-6.907,42.748,42.748,0,0,0-.31-7.423,45.288,45.288,0,0,0-2.412-10.559,49.67,49.67,0,0,0-4.623-9.606,51.71,51.71,0,0,0-4.243-5.873c-1.384-1.665-2.986-3.152-4.532-4.677-.41-.4-.458-.845-.142-1.151a.851.851,0,0,1,1.177.089,47.543,47.543,0,0,1,8.3,9.636,49.769,49.769,0,0,1,6.26,13.5,44.062,44.062,0,0,1,1.57,7.582c.192,1.755.291,3.514.457,5.266a33.681,33.681,0,0,1-.214,6.272,48.425,48.425,0,0,1-2.035,10.067,53.354,53.354,0,0,1-3.963,9.5,39.852,39.852,0,0,1-5,7.29,25.907,25.907,0,0,1-5.469,5,13.58,13.58,0,0,1-8.17,2.449" transform="translate(-620.32 -123.914)"/>
        <path id="パス_326" data-name="パス 326" class="cls-7" d="M0,141.606a53.839,53.839,0,0,1,.327-7.348,52.9,52.9,0,0,1,2.547-10.747A55.118,55.118,0,0,1,8.329,112.24a39,39,0,0,1,6.525-7.971,21.571,21.571,0,0,1,9.368-5.277,19.561,19.561,0,0,1,6.966-.165c.276.031.693.106.662.539a.771.771,0,0,1-.57.815,3.827,3.827,0,0,1-1.268,0,21.424,21.424,0,0,0-5.831.481,20.75,20.75,0,0,0-7.245,3.782,27.6,27.6,0,0,0-4.889,5.012,47.6,47.6,0,0,0-5.942,9.991,54.341,54.341,0,0,0-3.684,11.2,48.534,48.534,0,0,0-.941,10.15A40.2,40.2,0,0,0,4.994,157.1a37.163,37.163,0,0,0,5.6,8.939,25.367,25.367,0,0,1,1.816,2.043c.278.412.242.7-.1.95s-.722.418-1.1-.013c-.783-.9-1.618-1.76-2.369-2.687A37.215,37.215,0,0,1,5.8,161.945a40.9,40.9,0,0,1-3.953-8.866A44.352,44.352,0,0,1,.339,146.16c-.215-1.516-.27-3.033-.336-4.554" transform="translate(0 -83.874)"/>
        <path id="パス_327" data-name="パス 327" class="cls-7" d="M343.152,262.4c-.869,1.52-1.506,3.164-2.524,4.6a31.908,31.908,0,0,1-2.911,3.58c-.432.455-.96.832-1.431,1.262s-.936.264-1.2-.328c-1.547-3.439-1.265-6.928-.249-10.419a29.594,29.594,0,0,1,2.389-5.694,3.237,3.237,0,0,0,.426-1.234c.624-.317.784-1,1.093-1.521,2.241-3.808,4.843-7.378,7.279-11.056,2.291-3.459,4.562-6.922,6.552-10.567a56.592,56.592,0,0,0,4.392-10.289,34.725,34.725,0,0,0,1.291-6.157,27.381,27.381,0,0,0,.286-5.816c-.082-.9-.213-1.791-.3-2.688-.056-.584.133-1.031.812-1.023s.625.519.685.993a26.294,26.294,0,0,1,.308,5.963,48.8,48.8,0,0,1-1.443,8.481,56.806,56.806,0,0,1-4.47,10.806,127.506,127.506,0,0,1-7.518,12.18c-3.11,4.594-6.357,9.105-8.826,14.1a23.61,23.61,0,0,0-2.221,6.643,12.056,12.056,0,0,0,.274,5.139c.132.483.261.6.695.179a22.683,22.683,0,0,0,6.286-11.341c.153-.64.205-1.3.343-1.947.086-.4.379-.678.791-.554a.676.676,0,0,1,.578.819,22.033,22.033,0,0,1-1.3,5.316c-.06.155-.288.349-.086.567" transform="translate(-284.124 -174.436)"/>
        <path id="パス_328" data-name="パス 328" class="cls-7" d="M614.023,176.695c.219.614.372,1.036.521,1.46a.7.7,0,0,1-.5.983c-.469.165-.681-.078-.863-.523-.408-1-.9-1.969-1.352-2.952-.146-.316-.37-.633-.116-.991.2-.284.359-.48.834-.3a32.659,32.659,0,0,1,5.7,2.943,49.644,49.644,0,0,1,6.965,5.266,51.9,51.9,0,0,1,8.143,9.4,48.193,48.193,0,0,1,4.668,8.62,47.3,47.3,0,0,1,2.978,9.852,46.154,46.154,0,0,1,.937,7.89c.022,2.174-.206,4.372-2,5.995a3.949,3.949,0,0,1-5,.5,4.059,4.059,0,0,1-1.424-2.462c-.417-1.732.03-3.439.21-5.16.164-1.562.437-3.217-1.037-4.438a.776.776,0,0,1-.085-1.2c.374-.346.82-.179,1.211.205,1.547,1.522,1.591,3.393,1.392,5.374-.168,1.683-.6,3.364-.1,5.073a2.173,2.173,0,0,0,3.73,1.118,4.355,4.355,0,0,0,1.406-2.725,25.4,25.4,0,0,0-.3-7.306,43.962,43.962,0,0,0-1.8-7.958,49.11,49.11,0,0,0-6.614-13.4,50.339,50.339,0,0,0-4.455-5.434,48.676,48.676,0,0,0-9.613-7.929,30.141,30.141,0,0,0-3.429-1.9" transform="translate(-520.27 -148.274)"/>
        <path id="パス_329" data-name="パス 329" class="cls-5" d="M588.376,93.612a5.427,5.427,0,0,0,2.922-1.64,15.088,15.088,0,0,1,8.162-4.142,11.3,11.3,0,0,1,5.741.935,5.2,5.2,0,0,0,3.081.533c1.32-.278,2.153.587,2.786,1.5,1.635,2.354,3.767,4.275,5.515,6.524a7.4,7.4,0,0,1,1.177,1.524l0,0a10.278,10.278,0,0,1-2.451-1.345,52.378,52.378,0,0,0-10.424-4.714,15.25,15.25,0,0,0-10.1.82,42.616,42.616,0,0,1-4.215,1.667,3.207,3.207,0,0,1-2.1.122c.139-.6-.2-1.18-.092-1.782" transform="translate(-500.499 -74.65)"/>
        <path id="パス_330" data-name="パス 330" class="cls-7" d="M227.162.012a48.713,48.713,0,0,1,6.2.325,45.919,45.919,0,0,1,9.754,2.069c.979.322,1.938.7,2.914,1.032.44.15.5.459.506.863,0,.485-.373.589-.68.614-.717.056-1.441.016-2.162.02-.309,0-.482-.147-.445-.452.066-.546-.307-.519-.675-.64a40.75,40.75,0,0,0-4.949-1.306,47.247,47.247,0,0,0-5.255-.758,49.951,49.951,0,0,0-5.6-.269,53.94,53.94,0,0,0-5.979.565,44.92,44.92,0,0,0-6.516,1.344,58.39,58.39,0,0,0-5.906,2.1,46.7,46.7,0,0,0-8.4,4.637c-.636.44-1.259.9-1.891,1.344-.32.226-.682.542-.986.036a.881.881,0,0,1,.142-1.272c.772-.585,1.53-1.2,2.345-1.717a55.184,55.184,0,0,1,6.59-3.75,52.7,52.7,0,0,1,10.624-3.593,44.655,44.655,0,0,1,5.966-.921,40.681,40.681,0,0,1,4.4-.274" transform="translate(-167.49 0)"/>
        <path id="パス_331" data-name="パス 331" class="cls-6" d="M444.841,88.975a8.672,8.672,0,0,1,.692-2.682,6.353,6.353,0,0,1,3.831-3.172c.6-.175,1.366-.528,1.681.485.068.22.246.156.33.031.189-.28.523-.352.748-.572a11.741,11.741,0,0,1,4.3-1.3,6.243,6.243,0,0,1,4.013.934,3.211,3.211,0,0,1,1.316,2.779,3.082,3.082,0,0,1-2.083,2.974,2.345,2.345,0,0,1-1.172.041.66.66,0,0,1-.518-.688.8.8,0,0,1,.554-.773c1.362-.373,1.619-.588,1.621-1.382,0-1.251-.45-1.966-1.649-2.193a7,7,0,0,0-6.919,2.062,2.416,2.416,0,0,0,.6,3.663,1.3,1.3,0,0,0,1.314.078c.479-.233.96-.325,1.207.318.235.611-.1.864-.638,1.086a2.986,2.986,0,0,1-3.881-1.387c-1.164-1.751-.963-3,.215-4.769a2.455,2.455,0,0,0-1.735.585,5,5,0,0,0-2.378,3.937,4.89,4.89,0,0,0,2.971,4.55,4.825,4.825,0,0,0,2.4.466c.44-.028.743.178.707.635-.032.4-.192.758-.731.713a10.208,10.208,0,0,0-1.042.015,6.159,6.159,0,0,1-4.394-2.421,5.785,5.785,0,0,1-1.36-4.016" transform="translate(-378.416 -69.554)"/>
        <path id="パス_332" data-name="パス 332" class="cls-6" d="M115.233,605.222a26.554,26.554,0,0,1-13.958-3.485,27.625,27.625,0,0,1-5.513-4.152,28.991,28.991,0,0,1-6-8.374c-.291-.6-.219-1.037.313-1.285s.8.152,1.019.62a26.632,26.632,0,0,0,15.182,13.807,25.85,25.85,0,0,0,10.348,1.323,28.4,28.4,0,0,0,5.217-.89c.2-.051.481-.13.548-.276.139-.3.227-.6.629-.609a3.955,3.955,0,0,1,2.055.376c.36.2.143.953-.39,1.147-1.057.384-2.137.718-3.224,1.007a20.53,20.53,0,0,1-6.231.791" transform="translate(-76.219 -500.073)"/>
        <path id="パス_333" data-name="パス 333" class="cls-7" d="M379.7,702.315a50.3,50.3,0,0,1-12.947-1.585,70.749,70.749,0,0,1-7.92-2.63c-.478-.179-.868-.516-.631-1.056.251-.572.837-.511,1.3-.325,1.581.639,3.154,1.3,4.789,1.785a60.134,60.134,0,0,0,7.457,1.739,45.285,45.285,0,0,0,9.411.554q2.919-.13,5.833-.537a47.147,47.147,0,0,0,8.651-2.013,18.442,18.442,0,0,1,2.171-.839c.845-.176,1.275.108,1.277.818,0,.448-.315.536-.587.642a47.7,47.7,0,0,1-5.546,1.789A67.39,67.39,0,0,1,385.98,702c-.53.076-1.075.106-1.606.135a35.213,35.213,0,0,1-4.677.176" transform="translate(-304.652 -592.572)"/>
        <path id="パス_334" data-name="パス 334" class="cls-6" d="M565.276,15.984a44.356,44.356,0,0,1,9.868,1.3,36.913,36.913,0,0,1,12.563,6.183,41.606,41.606,0,0,1,5.206,4.8,35.241,35.241,0,0,1,4.079,5.609c.247.391.243.825-.206.987-.356.129-.8.307-1.137-.263a32.914,32.914,0,0,0-6.308-7.832,34.865,34.865,0,0,0-13.4-7.668,37.577,37.577,0,0,0-6.639-1.362c-1.249-.14-2.5.013-3.745-.231a13.911,13.911,0,0,0-2.347.142c-.54-.009-.788-.234-.844-.691s.294-.687.683-.822a7.591,7.591,0,0,1,2.224-.161" transform="translate(-478.39 -13.597)"/>
        <path id="パス_335" data-name="パス 335" class="cls-5" d="M458.978,44.288a11.741,11.741,0,0,0-4.3,1.3,5.909,5.909,0,0,0-1.62-2.614,40.183,40.183,0,0,0-4.781-4.786c-.109-.092-.193-.212-.434-.481.946.251,1.691.459,2.44.646a23.818,23.818,0,0,0,6.469.744.935.935,0,0,1,1.034.624,11.4,11.4,0,0,1,1.188,4.57" transform="translate(-380.974 -32.074)"/>
        <path id="パス_336" data-name="パス 336" class="cls-6" d="M516.7,114.973c-.112.6.231,1.179.092,1.782l-.439,2.076a8.663,8.663,0,0,1-2.68,3.682,9.381,9.381,0,0,1-3.258,1.338,8.154,8.154,0,0,1-5.866-1.07.822.822,0,0,1-.3-1.213c.3-.471.755-.375,1.172-.107a6.45,6.45,0,0,0,7.718-.51,5.832,5.832,0,0,0,2.029-4.288,6.79,6.79,0,0,0-.267-2.757.694.694,0,0,1,.461-1.007.744.744,0,0,1,1,.592c.119.492.221.987.331,1.481" transform="translate(-428.825 -96.011)"/>
        <path id="パス_337" data-name="パス 337" class="cls-6" d="M206.713,487.868a3.406,3.406,0,0,1,3.44,2.179,3.006,3.006,0,0,1-.16,2.619.614.614,0,0,1-.9.343c-.382-.2-.61-.434-.439-.951a1.851,1.851,0,0,0-.909-2.545,2.432,2.432,0,0,0-2.753.733,4.507,4.507,0,0,0-1,3.94,15.464,15.464,0,0,0,.591,2.4.793.793,0,0,1-.436,1.091c-.507.209-.823-.1-.985-.557-.827-2.348-1.179-4.726.015-7.039a3.668,3.668,0,0,1,3.539-2.213" transform="translate(-172.179 -415.015)"/>
        <path id="パス_338" data-name="パス 338" class="cls-6" d="M677.474,589.95a14.047,14.047,0,0,1-.257,5.47,13.256,13.256,0,0,1-1.834,3.5,9.43,9.43,0,0,1-4.428,3.275c-.422.137-.865.406-1.106-.335-.216-.663.173-.915.608-1.079a8.164,8.164,0,0,0,4.356-3.769,8.561,8.561,0,0,0,.774-7.59,2.153,2.153,0,0,1-.209-.916.617.617,0,0,1,.485-.65c.32-.064.642-.091.854.327a9,9,0,0,0,.757,1.767" transform="translate(-569.774 -500.045)"/>
        <path id="パス_339" data-name="パス 339" class="cls-6" d="M72.286,269.992a2.469,2.469,0,0,1,2.45,1.533,2.615,2.615,0,0,1-.533,2.853,2.694,2.694,0,0,1-1.845.7.705.705,0,0,1-.795-.681c.013-.317.158-.859.732-.819a.98.98,0,0,0,1.125-.7.836.836,0,0,0-.33-1.045A1.543,1.543,0,0,0,71.6,271.6a2.153,2.153,0,0,0-1.145,1.974,6.141,6.141,0,0,0,0,1.191c.052.544-.312.665-.706.748-.518.109-.72-.243-.786-.654a4.777,4.777,0,0,1,.628-3.537,2.908,2.908,0,0,1,2.7-1.328" transform="translate(-58.591 -229.675)"/>
        <path id="パス_340" data-name="パス 340" class="cls-6" d="M311.052,306.751c.937-.181,1.661.456,2.306,1.2a2.486,2.486,0,0,1-.436,2.959,2.653,2.653,0,0,1-2.03.628,1.23,1.23,0,0,1-1.009-.837c-.129-.335.185-.473.361-.663.2-.216.418-.15.67-.072a.953.953,0,0,0,1.249-.665c.1-.461-.358-.979-.939-1.05a2.3,2.3,0,0,0-2.412,2.323,1.852,1.852,0,0,1-.1.715c-.2.432-.477.636-.92.532-.4-.093-.478-.412-.481-.8a4.254,4.254,0,0,1,2.345-4.1,3.252,3.252,0,0,1,1.394-.17" transform="translate(-261.424 -260.92)"/>
        <path id="パス_341" data-name="パス 341" class="cls-6" d="M564.521,474.177a4.3,4.3,0,0,0-.841,3.144c.047,1.1-.151,1.481-.778,1.435-.953-.069-.658-.844-.7-1.4a6.4,6.4,0,0,1,1.982-5.269c.56-.558,1.132-.489,1.469.225a6.115,6.115,0,0,1-.094,5.478.648.648,0,0,1-.937.324.713.713,0,0,1-.432-.948,6.2,6.2,0,0,0,.551-2.457c-.013-.2.015-.4-.215-.528" transform="translate(-478.228 -401.275)"/>
        <path id="パス_342" data-name="パス 342" class="cls-6" d="M312.525,91.788c2.143.094,3.727.666,4.853,2.252a.632.632,0,0,1-.113,1.007,3.138,3.138,0,0,1-4.781-.652c-.025-.04-.1-.077-.093-.107.174-1.183-.577-.794-1.154-.675a.767.767,0,0,1-.944-.58c-.16-.488.237-.731.609-.855a4.736,4.736,0,0,1,1.622-.39m1.157,1.667a1.851,1.851,0,0,0,1.987.827,2.887,2.887,0,0,0-1.987-.827" transform="translate(-263.929 -78.076)"/>
        <path id="パス_343" data-name="パス 343" class="cls-6" d="M663.171,139.275c.745,1.05,1.416,2.071,2.169,3.027.37.469.3.863-.076,1.143a.743.743,0,0,1-1.1-.213c-.988-1.342-2.021-2.651-2.967-4.022-.321-.466.051-.9.473-1.153,1.378-.82,4.591-.214,5.538,1.045a.789.789,0,0,1-.029,1.129.674.674,0,0,1-1.039-.071,3.145,3.145,0,0,0-2.973-.885" transform="translate(-562.366 -117.124)"/>
        <path id="パス_344" data-name="パス 344" class="cls-6" d="M384.575,46.62a3.851,3.851,0,0,1-1.465-.143.647.647,0,0,1-.518-.754.759.759,0,0,1,.793-.709,11.07,11.07,0,0,1,4.942,1.249,9.615,9.615,0,0,1,3.1,2.777c.242.34.586.681.107,1.109-.453.406-.824.308-1.191-.124a10.9,10.9,0,0,0-1.863-1.855,8.636,8.636,0,0,0-3.9-1.55" transform="translate(-325.455 -38.291)"/>
        <path id="パス_345" data-name="パス 345" class="cls-6" d="M612.337,66.972c.075,0,.149,0,.223,0,.539-.009,1.178-.117,1.214.68s-.72.761-1.169.789a7.035,7.035,0,0,0-5.811,3.445.813.813,0,0,1-1.252.289c-.422-.311-.291-.748-.032-1.162A8.949,8.949,0,0,1,611.373,67a4.386,4.386,0,0,1,.964-.01v-.014" transform="translate(-514.889 -56.963)"/>
        <path id="パス_346" data-name="パス 346" class="cls-8" d="M785.283,162.013a.206.206,0,0,1,.05.025c.008.007.006.025.009.038l-.057-.066,0,0" transform="translate(-668.023 -137.818)"/>
        <path id="パス_347" data-name="パス 347" class="cls-9" d="M333.2,102.962a2.887,2.887,0,0,1,1.987.827,1.851,1.851,0,0,1-1.987-.827" transform="translate(-283.442 -87.583)"/>
      </g>
    </g>
  </g>
</svg>
