<svg id="グループ_9013" data-name="グループ 9013" xmlns="http://www.w3.org/2000/svg" xmlns:xlink="http://www.w3.org/1999/xlink" width="26.537" height="24.588" viewBox="0 0 26.537 24.588">
  <defs>
    <style>
      .cls-1 {
        fill: #fff;
      }

      .cls-2 {
        clip-path: url(#clip-path);
      }
    </style>
    <clipPath id="clip-path">
      <rect id="長方形_4600" data-name="長方形 4600" class="cls-1" width="26.537" height="24.588"/>
    </clipPath>
  </defs>
  <g id="グループ_9012" data-name="グループ 9012" class="cls-2">
    <path id="パス_99" data-name="パス 99" class="cls-1" d="M26.538,5.793c-.119.528-.247,1.054-.357,1.583q-.739,3.58-1.47,7.161a1.33,1.33,0,0,1-1.487,1.145H7.3l.38,1.86h.341q7.5,0,15,0a2.045,2.045,0,0,1,.412.031.642.642,0,0,1-.045,1.262,2.215,2.215,0,0,1-.336.02H7.9a1.347,1.347,0,0,1-1.531-1.248Q4.837,10.168,3.311,2.727a.448.448,0,0,0-.305-.364C2.148,2,1.294,1.629.442,1.254A.66.66,0,0,1,.006.56.618.618,0,0,1,.513.008.873.873,0,0,1,.962.066c.938.4,1.87.8,2.8,1.213a1.257,1.257,0,0,1,.758.925c.119.549.246,1.1.34,1.65.045.264.129.36.421.36Q15.143,4.2,25,4.2a1.4,1.4,0,0,1,1.226.481,3.855,3.855,0,0,1,.309.59Zm-3.125,8.582L25.23,5.533h-20a1.826,1.826,0,0,0,.017.2q.858,4.178,1.713,8.356c.047.232.131.3.368.3q7.891-.012,15.782-.006h.3" transform="translate(-0.001 0)"/>
    <path id="パス_100" data-name="パス 100" class="cls-1" d="M127.082,289.931a2.332,2.332,0,1,1,4.664.018,2.332,2.332,0,1,1-4.664-.018m1.3.017a1.033,1.033,0,0,0,1.02,1.028,1.033,1.033,0,0,0,.01-2.067,1.023,1.023,0,0,0-1.03,1.039" transform="translate(-118.282 -267.692)"/>
    <path id="パス_101" data-name="パス 101" class="cls-1" d="M245.307,289.936a2.332,2.332,0,1,1,4.663.007,2.332,2.332,0,1,1-4.663-.007m1.3-.005a1.026,1.026,0,1,0,1.02-1.022,1.031,1.031,0,0,0-1.02,1.022" transform="translate(-228.321 -267.692)"/>
    <path id="パス_102" data-name="パス 102" class="cls-1" d="M148.334,109.776q2.28,0,4.56,0a.652.652,0,1,1,.13,1.3,2.5,2.5,0,0,1-.259,0h-8.914c-.06,0-.121,0-.181,0a.658.658,0,0,1-.68-.666.643.643,0,0,1,.679-.634c1.555,0,3.109,0,4.664,0" transform="translate(-133.09 -102.174)"/>
    <path id="パス_103" data-name="パス 103" class="cls-1" d="M155.2,159.951q-2.046,0-4.091,0a.655.655,0,0,1-.72-.562.645.645,0,0,1,.623-.736c.258-.012.518,0,.777,0h7.458a.657.657,0,0,1,.748.616.639.639,0,0,1-.7.684c-1.062,0-2.123,0-3.185,0H155.2" transform="translate(-139.967 -147.66)"/>
  </g>
</svg>
