<svg id="グループ_9037" data-name="グループ 9037" xmlns="http://www.w3.org/2000/svg" xmlns:xlink="http://www.w3.org/1999/xlink" width="146" height="117.5" viewBox="0 0 146 117.5">
  <defs>
    <style>
      .cls-1 {
        fill: none;
      }

      .cls-2 {
        clip-path: url(#clip-path);
      }

      .cls-3 {
        fill: #f15f4a;
      }

      .cls-4 {
        fill: #242021;
      }

      .cls-5 {
        fill: #252122;
      }

      .cls-6 {
        fill: #fff;
      }

      .cls-7 {
        fill: #7d7b7b;
      }
    </style>
    <clipPath id="clip-path">
      <rect id="長方形_4584" data-name="長方形 4584" class="cls-1" width="146" height="117.5"/>
    </clipPath>
  </defs>
  <g id="グループ_8990" data-name="グループ 8990" class="cls-2">
    <path id="パス_33" data-name="パス 33" class="cls-3" d="M245.531,281.163a17.709,17.709,0,0,1,2.521-9.971,11.115,11.115,0,0,1,8.535-5.5,20.19,20.19,0,0,1,6.541.368,2.3,2.3,0,0,0,1.141-.163,24.113,24.113,0,0,1,7.231-1.129,14.994,14.994,0,0,1,12.2,5.935,18.444,18.444,0,0,1,3.831,13.459c-.449,5.294-3.2,9.28-7.662,12.109a25.342,25.342,0,0,1-11.318,3.9,23.281,23.281,0,0,1-20.632-9.994,16.414,16.414,0,0,1-2.2-6.216,15.9,15.9,0,0,1-.194-2.8m19.413-1.966a19.99,19.99,0,0,0-4.256.2,14.637,14.637,0,0,0-8.063,4.183.892.892,0,0,0-.232.969.789.789,0,0,0,.753.631c1.249-.029,2.495.046,3.75-.071a29.9,29.9,0,0,1,5.991-.049,10.312,10.312,0,0,0-2.613,5.834,7.643,7.643,0,0,0,.2,2.384c.1.71.948.767,1.741.1,2.512-2.112,5-4.251,7.509-6.367a1.259,1.259,0,0,0,.464-.921c.654.615.577,1.462.683,2.24a31.509,31.509,0,0,1,.025,5.878,2.036,2.036,0,0,1-.3.53c-.616.569-.633,1.119.032,1.636.7.548,1.048-.128,1.368-.516a9.773,9.773,0,0,0,2.339-7.606.209.209,0,0,0,.152-.065q2.251,1.21,4.5,2.419c.553.3,1.1.605,1.668.874.906.428,1.375.128,1.376-.863a3.981,3.981,0,0,0-.1-.787,10.083,10.083,0,0,0-4.791-6.713c-.455-.289-.368-.39,0-.655,1.52-1.1,2.991-2.276,4.544-3.329.6-.4.868-.852.671-1.479-.189-.6-.792-.543-1.3-.541-1.916.01-3.833.021-5.749.052-.493.008-.689-.054-.537-.649.481-1.889.892-3.8,1.319-5.7.12-.536.316-1.184-.176-1.544a1.523,1.523,0,0,0-1.6.127,11.27,11.27,0,0,0-5.986,7.328,7.607,7.607,0,0,0-3.391,2.471" transform="translate(-201.347 -217.042)"/>
    <path id="パス_34" data-name="パス 34" class="cls-3" d="M607,449.362c.625,1.124.872,1.122,1.888.079.191-.2.248-.662.618-.545.424.135.206.571.211.864a12.478,12.478,0,0,1-3.1,8.433c-2.832,3.38-6.595,5.209-10.691,6.491a25.379,25.379,0,0,1-8.045,1.167,15.5,15.5,0,0,1-9.252-3.209,16.757,16.757,0,0,1-5.495-7.453.281.281,0,0,1,.045-.369,6.052,6.052,0,0,0,1.985,1.056,3.932,3.932,0,0,0,3.715-1.469,7.307,7.307,0,0,0,2.074-5.263c-.033-2.993-.821-3.951-3.789-4.446a9.637,9.637,0,0,0-1.316-.18,2.82,2.82,0,0,0-2.873,1.4c-.094.175-.181.529-.506.37-.265-.129-.171-.428-.137-.651a18.245,18.245,0,0,1,3.535-8.364,15.646,15.646,0,0,1,9.718-6.014,15.025,15.025,0,0,1,6.02-.283c.557.114.494.291.34.717-.5,1.382-.758,2.767.342,4.023a1.456,1.456,0,0,1-.358.231,10.629,10.629,0,0,0-4.412,2.46,10.757,10.757,0,0,0-2.858,3.818,1.168,1.168,0,0,0,.267,1.38c.469.457.849.052,1.161-.216a10.966,10.966,0,0,1,6.387-2.636,5.836,5.836,0,0,1,3.2.424,4.815,4.815,0,0,0,2.372.672c-.389.953.195,1.685.559,2.466a1.87,1.87,0,0,0-.754.949c-.925,1.841-1.844,3.686-2.819,5.5a1.093,1.093,0,0,0,.045,1.3,1.011,1.011,0,0,0,1.2.353,6.979,6.979,0,0,0,3.59-2.225c.542-.635,1.03-1.316,1.559-1.962a5.118,5.118,0,0,1,2.765-2.025,1.46,1.46,0,0,1,1.567.567.947.947,0,0,1-.085,1.287,1.06,1.06,0,0,0,0,1.465c.492.531.914.052,1.343-.172" transform="translate(-469.309 -353.13)"/>
    <path id="パス_35" data-name="パス 35" class="cls-3" d="M28.611,374.812a4.58,4.58,0,0,1-3.716-3.062c-.99-4.359-1.033-8.648,1.2-12.71a15.555,15.555,0,0,1,6.177-6,19.385,19.385,0,0,1,10.5-2.853,17.514,17.514,0,0,1,12.278,5.661c-.1.067-.156.128-.177.117-2.559-1.313-4.2.628-5.018,2.518-1.047,2.425.307,5.092,1.947,6.629a4.932,4.932,0,0,0,2.279,1.349,1.871,1.871,0,0,0,2.116-.8,9.778,9.778,0,0,0,1.538-3.544,10.079,10.079,0,0,1,1.095,3.788c.389,4.686-1.8,8.088-5.391,10.779a15.053,15.053,0,0,1-10.04,3.187,13.158,13.158,0,0,1-4.727-1.12,12.493,12.493,0,0,1,3.839-6.346,15.062,15.062,0,0,1,2.242-1.635,1,1,0,0,0,.428-1.093.637.637,0,0,0-.684-.584,18.042,18.042,0,0,0-2.962.029,9.787,9.787,0,0,0-5.966,3.075c-.222.242-.369.411-.66,0a7.086,7.086,0,0,1-1.049-6.6,3.046,3.046,0,0,0,.34-1.191c-.037-.389.162-.924-.4-1.071a1.166,1.166,0,0,0-1.256.435,15.862,15.862,0,0,0-3.927,11.042" transform="translate(-19.883 -287.054)"/>
    <path id="パス_36" data-name="パス 36" class="cls-3" d="M75.51,225.925c-1.1-5.215-1.22-10.378,1.5-15.164A16.717,16.717,0,0,1,89.1,202.293c4.856-.86,9.032.938,12.856,3.764a28.688,28.688,0,0,1,4.9,4.722c.462.552.446.9-.072,1.419a35.3,35.3,0,0,0-6.872,9.14,9.232,9.232,0,0,0-1.075,3.937c-.008.422-.172.536-.562.623a26.34,26.34,0,0,0-3.832.829,21.137,21.137,0,0,0-5-1.892,32.077,32.077,0,0,0-3.985-.468,23.813,23.813,0,0,0-4.142.137,21.074,21.074,0,0,0-5.816,1.42" transform="translate(-61.324 -165.652)"/>
    <path id="パス_37" data-name="パス 37" class="cls-3" d="M590.405,132.238a17.375,17.375,0,0,1-.908,5.263,10.562,10.562,0,0,1-4.392,5.821,11.457,11.457,0,0,1-4.031,1.417,15.8,15.8,0,0,1-7.214-.514,9.48,9.48,0,0,1-5.885-5.1,9.76,9.76,0,0,1-1.08-4.31,12.626,12.626,0,0,1,1-4.865,17.857,17.857,0,0,1,3-4.92.611.611,0,0,0,.128-.788,3.321,3.321,0,0,0-2.862-1.811c-2.566-.253-4.34,1.227-6.092,2.743a29.463,29.463,0,0,0-3.424,3.906,6.516,6.516,0,0,1,.383-2.579,15.545,15.545,0,0,1,3.8-7.091,11.633,11.633,0,0,1,7.243-3.58,21.038,21.038,0,0,1,11.37,1.736,17.582,17.582,0,0,1,7.937,7.747,1,1,0,0,1,.089.341c.006.048-.04.1-.082.2a6.378,6.378,0,0,0-1.892-1.258c-1.642-.555-4.546.485-5.822,2-2.248,2.668-1.521,7.324.492,9.458a2.644,2.644,0,0,0,2.624.77,7.124,7.124,0,0,0,3.687-2.369c.61-.644,1.168-1.337,1.926-2.211" transform="translate(-458.102 -94.839)"/>
    <path id="パス_38" data-name="パス 38" class="cls-3" d="M429.442,57.284a11.108,11.108,0,0,1-3.887,7.985,20.066,20.066,0,0,1-9.466,5.036,10.831,10.831,0,0,1-9.613-2.729,10.528,10.528,0,0,1-3.442-5.743,11.606,11.606,0,0,1,.186-5.369,10.066,10.066,0,0,1,7.045-7.726,18.2,18.2,0,0,1,13.185.844,3.5,3.5,0,0,1,2.052,2.031c.1.288.227.642-.338.444-2.68-.938-4.754,1.752-5.137,3.966a5.1,5.1,0,0,0,.9,4.487c1.746,2.009,5.555,1.684,7.158-.616a17.023,17.023,0,0,0,1.361-2.612" transform="translate(-330.317 -39.246)"/>
    <path id="パス_39" data-name="パス 39" class="cls-4" d="M572.265,395.256c-.426-1.09-.791-2.01-1.144-2.935a.879.879,0,0,1,.754-1.288,8.42,8.42,0,0,1,7.565,3.553,5.938,5.938,0,0,1,1.15,2.178c.156.691.417.536.807.268,1.943-1.339,3.894-2.668,5.826-4.025a1.83,1.83,0,0,1,.7-.336c.415-.076.855-.092,1.084.387a.884.884,0,0,1-.334,1.179c-.641.476-1.3.93-1.954,1.384-1.9,1.309-3.789,2.62-5.693,3.916-1.021.695-1.633.461-1.823-.746a6.914,6.914,0,0,0-4.033-5.367,3.2,3.2,0,0,0-1.829-.394c.941,2.319,1.855,4.626,2.82,6.912.235.556.273,1.054-.284,1.29a.942.942,0,0,1-1.373-.549c-.443-1.118-.928-2.218-1.388-3.329-.172-.416-.4-.685-.859-.353a.993.993,0,0,1-.926.093,17.29,17.29,0,0,0-7.786-.162,18.867,18.867,0,0,0-6.609,2.561,18.07,18.07,0,0,0-7.546,9.012,19.04,19.04,0,0,0-1.287,8.874,20.683,20.683,0,0,0,4.625,11.412,20.952,20.952,0,0,0,11.846,7.053,20.461,20.461,0,0,0,8.59-.048,22.7,22.7,0,0,0,9.067-4.048,22.092,22.092,0,0,0,8.441-14.384,21.852,21.852,0,0,0,.095-5.32,23.992,23.992,0,0,0-2.276-8.019c-.247-.522-.271-1.111.319-1.4.633-.306,1.1.1,1.356.654a25.51,25.51,0,0,1,1.812,5.063,23.669,23.669,0,0,1,.7,6.757,24.28,24.28,0,0,1-4.787,13.465,23.587,23.587,0,0,1-8.848,7.215,26.747,26.747,0,0,1-5.528,1.78,22.518,22.518,0,0,1-5.629.465,21.769,21.769,0,0,1-9.926-2.673,22.135,22.135,0,0,1-8.627-8.218,20.6,20.6,0,0,1-2.828-7.811,21.878,21.878,0,0,1,2.209-13.717,19.021,19.021,0,0,1,3.8-5.046,21.3,21.3,0,0,1,10.384-5.41A22.023,22.023,0,0,1,569,394.8c1.046.081,2.083.288,3.26.458" transform="translate(-447.954 -320.537)"/>
    <path id="パス_40" data-name="パス 40" class="cls-5" d="M554.446,136.139a16.791,16.791,0,0,1-9.732-2.694c-.326-.2-.675-.419-.738-.81-.049-.306-.116-.77.2-.908a1.391,1.391,0,0,1,1.359.088,14.93,14.93,0,0,0,5.091,2.095,16.249,16.249,0,0,0,13.925-3.007,16.6,16.6,0,0,0,6.415-10.714A16.944,16.944,0,0,0,569.53,109.6a18.252,18.252,0,0,0-5.837-6.828,17.02,17.02,0,0,0-7.085-3.154,22.767,22.767,0,0,0-6.382-.1,16.517,16.517,0,0,0-6.435,2.04c-4.576,2.544-7.75,6.205-8.874,11.477a13,13,0,0,0,1.13,9.053,11.065,11.065,0,0,0,3.854,4.088.87.87,0,0,1,.305,1.348.893.893,0,0,1-1.334.162,13.468,13.468,0,0,1-5.908-8.861,15.724,15.724,0,0,1-.109-5.431,16.98,16.98,0,0,1,3.109-7.361,20,20,0,0,1,8.3-6.71,21.933,21.933,0,0,1,7.249-1.8,19.894,19.894,0,0,1,18.713,9.6,19.009,19.009,0,0,1,2.728,7.848,18.673,18.673,0,0,1-1.127,9.129,18.018,18.018,0,0,1-8.493,9.826,16.9,16.9,0,0,1-8.886,2.215" transform="translate(-436.82 -79.89)"/>
    <path id="パス_41" data-name="パス 41" class="cls-4" d="M388.589,7.537c-.82-.317-1.56.2-2.127-.447-.237-.271-.434-.511-.276-.854.141-.3.254-.6.726-.656a25.981,25.981,0,0,1,2.6-.058c1.2-.024,2.392,0,3.587-.015a1.961,1.961,0,0,0,1.132-.362,5.545,5.545,0,0,0-3.212-1.332c-1.077-.077-1.514-.424-1.46-1.235.034-.5.291-.768.8-.727a8.622,8.622,0,0,1,5.485,2.186c.431.41.571.348.769-.168.394-1.03.848-2.036,1.258-3.059a.811.811,0,0,1,.931-.617,4.017,4.017,0,0,0,1.219-.138,1.971,1.971,0,0,1,2.227.911A2.556,2.556,0,0,1,402,3.8a19.091,19.091,0,0,1,4.4.334c.747.189,1.145.457.957,1.221-.2.824-.922.671-1.476.58a7.788,7.788,0,0,0-2.62-.268,18.12,18.12,0,0,1,6.068,3.2,18.69,18.69,0,0,1,5.872,7.922c.172.461.3.942.512,1.383.254.529.068.947-.389,1.084-.423.126-.99.26-1.275-.38-.426-.953-.753-1.942-1.223-2.883A16.4,16.4,0,0,0,402.1,7.311a17.551,17.551,0,0,0-6.855-.281,14.074,14.074,0,0,0-8.653,4.358,12.958,12.958,0,0,0-3.7,8.038,13.408,13.408,0,0,0,4.7,11.836,12.164,12.164,0,0,0,9.4,2.885,12.82,12.82,0,0,0,7.473-2.826,1.9,1.9,0,0,1,1.434-.294c.386.021.435.4.536.638.182.428-.232.654-.491.858a16.87,16.87,0,0,1-5.451,2.836,19.24,19.24,0,0,1-3.99.565,13.748,13.748,0,0,1-6.937-1.3,12.986,12.986,0,0,1-5.962-5.11,17.8,17.8,0,0,1-2.23-5.168,17.246,17.246,0,0,1-.345-4.249,13.79,13.79,0,0,1,3.146-8.726,13.231,13.231,0,0,1,4.412-3.837m9.655-2.7a1.009,1.009,0,0,0,.26.029c.053-.013.136-.057.14-.095.1-.85.7-1.207,1.374-1.58.459-.254.932-.671.6-1.378-.414.42-1.222-.09-1.459.754a21.378,21.378,0,0,1-.912,2.27" transform="translate(-312.468 0)"/>
    <path id="パス_42" data-name="パス 42" class="cls-5" d="M15.158,327.049a21.076,21.076,0,0,1,5.816-1.42,23.809,23.809,0,0,1,4.142-.137,32.074,32.074,0,0,1,3.985.468,21.138,21.138,0,0,1,5,1.892A20.611,20.611,0,0,1,44.19,341.159a19.773,19.773,0,0,1,.258,7.153,15.92,15.92,0,0,1-4.932,9.776,18.671,18.671,0,0,1-8.7,4.813,19.859,19.859,0,0,1-5.443.482,11.783,11.783,0,0,1-2.233-.369c-.67-.148-.711-.676-.661-1.249.057-.654.529-.507.93-.53.723-.042,1.393.325,2.08.338a16.919,16.919,0,0,0,9.617-2.414A16.472,16.472,0,0,0,41.6,351.97a14.743,14.743,0,0,0,1.22-5.285,17.876,17.876,0,0,0-1.648-8.726,18.328,18.328,0,0,0-5.2-6.577A18.885,18.885,0,0,0,26.5,327.4a20.278,20.278,0,0,0-6.752.268,21.669,21.669,0,0,0-5.269,1.676,21.19,21.19,0,0,0-6.179,4.5,18.659,18.659,0,0,0-4.813,8.729,15.818,15.818,0,0,0,2.032,12.585c.309.483.48,1.012-.11,1.38a.9.9,0,0,1-1.44-.383,19.987,19.987,0,0,1-2.38-5.846,17.81,17.81,0,0,1-.109-6.972,20.539,20.539,0,0,1,4.253-9.36,22.322,22.322,0,0,1,9.111-6.781c.107-.044.211-.094.317-.141" transform="translate(-0.972 -266.776)"/>
    <path id="パス_43" data-name="パス 43" class="cls-5" d="M68.378,155.719c.6-.118,1.19-.241,1.787-.353a7.5,7.5,0,0,1,6.856,2.119c.307,1.624,1.761,1.351,2.821,1.665a21.221,21.221,0,0,1,11.418,7.831c.436.59.82,1.2,1.223,1.812a.833.833,0,0,1-.163,1.246.76.76,0,0,1-1.257-.16c-.7-.935-1.359-1.9-2.068-2.828a15.394,15.394,0,0,0-4.07-3.558,18.155,18.155,0,0,0-5.761-2.556,19.982,19.982,0,0,0-6.961-.553,18.689,18.689,0,0,0-5.461,1.39,17.558,17.558,0,0,0-6.035,4.537,20.667,20.667,0,0,0-3.493,5.607,17.608,17.608,0,0,0-1.434,5.383,17.408,17.408,0,0,0,.341,5.858.782.782,0,0,1-.587,1.029c-.5.081-1.078.192-1.2-.616a22.972,22.972,0,0,1-.411-5.586,25,25,0,0,1,1.688-6.955,22.858,22.858,0,0,1,1.6-3.111c.071-.122.283-.215.2-.366-.851-1.584.3-2.692.994-3.833a7.462,7.462,0,0,1,3.648-3.089,4.8,4.8,0,0,0-4,1.266c-.424.417-.934.88-1.512.251-.522-.568-.192-1.116.241-1.554a5.469,5.469,0,0,1,5.425-1.642c.514.118.889.064,1.176-.653a8.2,8.2,0,0,1,4.109-4.285,1,1,0,0,1,1.282.275c.449.581-.044,1.015-.377,1.446a2.258,2.258,0,0,0-1.573,1.01c-.032.064-.108.169-.091.187.107.115.186.021.26-.061.479-.363,1.186-.452,1.386-1.152m6.63,2.693.208-.021-.11-.16a5.59,5.59,0,0,0-8.2,1.407,19.534,19.534,0,0,1,8.1-1.225m-9.028-.833c-.032.04-.087.078-.089.119s.048.086.075.129c.032-.044.081-.085.09-.134.006-.033-.047-.075-.075-.115m.453-.514.061.108c.018-.018.054-.041.051-.055a.517.517,0,0,0-.052-.109l-.059.056" transform="translate(-44.178 -126.153)"/>
    <path id="パス_44" data-name="パス 44" class="cls-4" d="M299.251,285.844a24.866,24.866,0,0,1-10.734-2.727,16.847,16.847,0,0,1-1.837-.985c-.358-.226-.783-.543-.708-1.018.123-.784.54-1.2,1.347-.736a28.707,28.707,0,0,0,5.522,2.53,23.876,23.876,0,0,0,8.13,1.242,24.284,24.284,0,0,0,11.472-3.095A20.837,20.837,0,0,0,319,275.011a21.818,21.818,0,0,0,3.9-9.809,17.74,17.74,0,0,0-3.535-13.732,19.435,19.435,0,0,0-6.519-5.5,19.663,19.663,0,0,0-6.533-2.018,15.965,15.965,0,0,0-5.945.343c-.478.118-1.223.386-1.56-.5a.827.827,0,0,1,.565-1.226,23.529,23.529,0,0,1,3.9-.6,21.507,21.507,0,0,1,13.22,4.128,19.437,19.437,0,0,1,7.174,9.534,19.832,19.832,0,0,1,1.229,7.147,23.514,23.514,0,0,1-5.975,15.244,22.619,22.619,0,0,1-6.019,4.824,25.134,25.134,0,0,1-13.652,3" transform="translate(-234.507 -198.35)"/>
    <path id="パス_45" data-name="パス 45" class="cls-5" d="M653.9,445.868a4.814,4.814,0,0,1-2.372-.672,5.839,5.839,0,0,0-3.2-.424,10.966,10.966,0,0,0-6.387,2.636c-.312.268-.692.673-1.161.216a1.168,1.168,0,0,1-.267-1.38,10.757,10.757,0,0,1,2.858-3.818,10.627,10.627,0,0,1,4.412-2.46,1.457,1.457,0,0,0,.359-.231c.684.056,1.319-.277,2.016-.225.5.037.976.1,1,.634a1,1,0,0,1-.863,1.137,16.934,16.934,0,0,0-1.969.4,7.837,7.837,0,0,0-3.066,1.525c.573.313,1.034.006,1.5-.084a13.9,13.9,0,0,1,6.412.568c.36.1.409.2.612-.28a28.2,28.2,0,0,1,1.841-3.34c.206-.349.675-.27.9-.157a1.562,1.562,0,0,0,1.879-.483,15.237,15.237,0,0,1,8.33-3.657,16,16,0,0,1,3.409-.01.96.96,0,0,1,1.018,1.094c-.069.7-.591.715-1.125.689a15.306,15.306,0,0,0-7.642,1.442,13.828,13.828,0,0,0-3.393,2.35.881.881,0,0,0-.174,1.049,2.927,2.927,0,0,1-.222,2.331.964.964,0,0,1-1.414.477c-.512-.244-.521-.7-.235-1.207a1.466,1.466,0,0,0-.357-1.927c-.473,1.191-1.489,2.061-1.788,3.321-.142.594-.578.384-.911.483" transform="translate(-525.164 -357.145)"/>
    <path id="パス_46" data-name="パス 46" class="cls-5" d="M48.5,434.461a15.862,15.862,0,0,1,3.927-11.041,1.165,1.165,0,0,1,1.256-.435c.563.147.365.681.4,1.07a3.046,3.046,0,0,1-.34,1.192,7.086,7.086,0,0,0,1.049,6.6c.292.408.439.239.66,0a9.787,9.787,0,0,1,5.966-3.075,18.039,18.039,0,0,1,2.962-.029.637.637,0,0,1,.684.584,1,1,0,0,1-.428,1.093,15.06,15.06,0,0,0-2.242,1.635,12.492,12.492,0,0,0-3.839,6.346,2.319,2.319,0,0,0-.318.308.8.8,0,0,1-1.041.22.746.746,0,0,1-.422-.894,11.969,11.969,0,0,1,1.473-3.838,19.171,19.171,0,0,1,2.5-3.281c-1.215-.124-1.991.617-2.867,1.113a10.106,10.106,0,0,0-2.05,2.073c-.518.53-.926.526-1.5.012a8.629,8.629,0,0,1-2.577-4.575c-.07-.292-.193-.546-.328-.961a6.309,6.309,0,0,0-.932,2.818A8.663,8.663,0,0,0,50.457,435c.112.5.13,1.126-.605,1.292-.814.184-1.129-.085-1.184-.92-.02-.3.175-.663-.168-.912" transform="translate(-39.772 -346.703)"/>
    <path id="パス_47" data-name="パス 47" class="cls-5" d="M709.759,481.21c-.428.224-.851.7-1.343.172a1.06,1.06,0,0,1,0-1.465.947.947,0,0,0,.086-1.287,1.46,1.46,0,0,0-1.568-.567,5.119,5.119,0,0,0-2.765,2.025c-.529.647-1.017,1.328-1.559,1.962a6.979,6.979,0,0,1-3.59,2.225,1.011,1.011,0,0,1-1.2-.354,1.093,1.093,0,0,1-.045-1.3c.975-1.815,1.893-3.66,2.819-5.5a1.869,1.869,0,0,1,.754-.949c1.132.114,1.542.742.969,1.627-.729,1.128-1.187,2.388-1.906,3.606.583-.008.756-.454,1.016-.765a26.865,26.865,0,0,1,2.009-2.473c2.463-2.322,3.544-2.486,6.428-.93.561-2.646-.817-4.567-2.878-5.695-.253-.138-.621-.17-.731-.438-.145-.352-.431-.72-.1-1.155a.929.929,0,0,1,1.19-.18,7.005,7.005,0,0,1,4.412,5.962c.02.659.036,1.321-.007,1.978-.038.577-.209,1.12-.921,1.187-.212.02-.353.062-.325.3.1.8-.428,1.373-.752,2.018" transform="translate(-572.065 -384.979)"/>
    <path id="パス_48" data-name="パス 48" class="cls-4" d="M237.654,253.133a14.648,14.648,0,0,0-12.737,6.6,13,13,0,0,0-2.5,6.624c-.02.269-.178.48-.207.758a.868.868,0,0,1-1.131.786c-.583-.1-.7-.613-.635-1.092a18.023,18.023,0,0,1,4.574-10.067,17.59,17.59,0,0,1,8.511-5.122,15.887,15.887,0,0,1,6.22-.272c.547.069.67.472.666.988,0,.625-.455.739-.874.783a18.053,18.053,0,0,1-1.885.017" transform="translate(-180.762 -205.893)"/>
    <path id="パス_49" data-name="パス 49" class="cls-4" d="M5.978,513.674a19.563,19.563,0,0,0,5.049-.136c1.242-.244,1.339,0,1.865,1.186a5.544,5.544,0,0,0,3.968,3.3,4.78,4.78,0,0,0,1.57.187c.469-.048.73.138.738.656s-.123.9-.685.958a6.43,6.43,0,0,1-5.119-1.56,5.943,5.943,0,0,1-1.5-1.749A1.716,1.716,0,0,0,9.9,515.5a18.461,18.461,0,0,1-8.593-1.08c-.107-.043-.224-.062-.332-.1-.53-.2-1.05-.493-.969-1.13.084-.658.715-.885,1.256-.911a32.09,32.09,0,0,1,4.586-.377c.3.028.755-.2.853.219s.224.968-.323,1.281c-.094.054-.18.12-.4.271" transform="translate(0 -419.6)"/>
    <path id="パス_50" data-name="パス 50" class="cls-5" d="M577.337,176.485a10.981,10.981,0,0,1,3.87-8.435.947.947,0,0,1,1.419.131c.446.475.261.892-.182,1.253a8.972,8.972,0,0,0-3.135,5.717,8.836,8.836,0,0,0,2.188,7.571c.371.437.508.907.021,1.3a.9.9,0,0,1-1.335-.116,10.427,10.427,0,0,1-2.665-5.3,10.568,10.568,0,0,1-.179-2.12" transform="translate(-473.451 -137.543)"/>
    <path id="パス_51" data-name="パス 51" class="cls-5" d="M61.977,498.044c-.372-.513-.65-.884-1.264-.833-.519.043-1.09-.107-.656.772.216.437-.214.721-.526.921a.771.771,0,0,1-1.046-.123,2.108,2.108,0,0,1,.415-3c1.371-1.113,3.866-.194,4.532.983a2.24,2.24,0,0,1-.075,2.346,1.667,1.667,0,0,1-1.72.819c-.584-.017-.98-.279-.992-.855s.221-1.049.952-.96a1.693,1.693,0,0,0,.38-.073" transform="translate(-47.584 -406.005)"/>
    <path id="パス_52" data-name="パス 52" class="cls-5" d="M370.639,296.379a11.271,11.271,0,0,1,5.986-7.328,1.524,1.524,0,0,1,1.6-.127c.492.361.3,1.009.176,1.544-.428,1.9-.838,3.809-1.319,5.7-.151.595.045.657.537.649,1.916-.031,3.833-.043,5.749-.052.506,0,1.109-.06,1.3.541.2.627-.074,1.074-.671,1.479-1.553,1.053-3.024,2.226-4.544,3.329-.365.264-.451.366,0,.655a10.083,10.083,0,0,1,4.791,6.713,4.017,4.017,0,0,1,.1.787c0,.991-.47,1.291-1.376.863-.567-.268-1.115-.577-1.668-.873q-2.253-1.207-4.5-2.419c-.113-.126-.166-.111-.152.065a9.774,9.774,0,0,1-2.339,7.606c-.32.388-.664,1.063-1.368.516-.665-.517-.648-1.067-.031-1.636a2.025,2.025,0,0,0,.3-.53,1.537,1.537,0,0,0,.556-.663,8.3,8.3,0,0,0,.593-6.921c-.207-.736.057-1.07.818-1.071a3.123,3.123,0,0,1,1.478.511l5.231,2.809a6.081,6.081,0,0,0-2.038-3.134,10.166,10.166,0,0,0-2.9-1.828c-.927-.455-.913-1.359-.052-1.944.475-.323.969-.618,1.431-.958.827-.608,1.636-1.241,2.67-2.029-.57,0-.859,0-1.148,0-1.287.018-2.574.059-3.861.048-.814-.007-1.364-.559-1.144-1.209.133-.395.156-.8.263-1.19.427-1.562.752-3.152,1.134-4.814-2.862,1.47-4.47,5.792-4.027,8.557.427-.349.922-.154,1.381-.232a2.137,2.137,0,0,1,2.252,1.35,2.728,2.728,0,0,1-.882,3.043c-.575.43-1.183.546-1.623-.06-.42-.579-.048-1.033.521-1.322a.619.619,0,0,0,.135-.117.56.56,0,0,0,.178-.767c-.187-.388-.448-.311-.724-.311-.359,0-.442.257-.448.548s.032.6.017.9a.687.687,0,0,1-.748.7c-.367.009-.72.1-.907-.46a3.339,3.339,0,0,1,.43-2.885c-1.215-.14-1.417-.45-1.507-1.6-.068-.858.4-1.6.353-2.433m10.417,2.25c-.019-.018-.038-.05-.058-.051s-.041.03-.061.047c.019.018.038.05.058.05s.04-.03.061-.047" transform="translate(-303.651 -236.696)"/>
    <path id="パス_53" data-name="パス 53" class="cls-6" d="M315.993,308.755c.052.833-.42,1.575-.353,2.433.09,1.15.293,1.459,1.507,1.6a3.34,3.34,0,0,0-.43,2.885c.187.559.54.469.907.46a.687.687,0,0,0,.748-.7c.014-.3-.024-.6-.018-.9s.09-.548.448-.548c.277,0,.537-.077.724.311a.56.56,0,0,1-.178.767.616.616,0,0,1-.135.117c-.569.289-.941.743-.521,1.322.44.606,1.048.49,1.623.06a2.727,2.727,0,0,0,.882-3.043,2.137,2.137,0,0,0-2.252-1.35c-.459.078-.953-.117-1.381.232-.444-2.764,1.165-7.087,4.027-8.557-.382,1.662-.707,3.252-1.134,4.814-.107.391-.129.8-.262,1.19-.219.65.331,1.2,1.144,1.209,1.287.011,2.574-.03,3.861-.048.289,0,.578,0,1.148,0-1.033.788-1.843,1.421-2.67,2.029-.462.34-.956.635-1.431.958-.86.585-.875,1.489.052,1.944a10.16,10.16,0,0,1,2.9,1.828,6.08,6.08,0,0,1,2.038,3.134L322,318.089a3.123,3.123,0,0,0-1.478-.511c-.76,0-1.025.335-.818,1.071a8.3,8.3,0,0,1-.593,6.921,1.537,1.537,0,0,1-.556.663,31.471,31.471,0,0,0-.024-5.878c-.106-.778-.029-1.625-.683-2.24-.7-.895-1.222-.936-2.1-.174q-2.609,2.27-5.222,4.535c-.2.171-.383.391-.723.3a7.8,7.8,0,0,1,4.073-5.993.872.872,0,0,0,.493-1.119.9.9,0,0,0-1.034-.611c-1.017.036-2.035.038-3.053.033-2.192-.01-4.381.259-6.643.123a12.169,12.169,0,0,1,4.818-1.973,17.57,17.57,0,0,1,4.093-.159c.391.025.83.007.928-.461a.981.981,0,0,0-.467-1.217c-.133-.065-.275-.112-.413-.168a7.61,7.61,0,0,1,3.391-2.471" transform="translate(-249.005 -249.072)"/>
    <path id="パス_54" data-name="パス 54" class="cls-5" d="M296,344.677c.138.055.28.1.413.168a.98.98,0,0,1,.467,1.216c-.1.468-.537.486-.928.461a17.589,17.589,0,0,0-4.093.159,12.167,12.167,0,0,0-4.818,1.973c2.262.135,4.451-.133,6.643-.123,1.018,0,2.036,0,3.053-.033a.9.9,0,0,1,1.034.611.872.872,0,0,1-.493,1.119,7.8,7.8,0,0,0-4.072,5.994c.34.1.525-.124.723-.3q2.613-2.265,5.222-4.535c.876-.762,1.4-.721,2.1.174a1.259,1.259,0,0,1-.464.921c-2.509,2.116-5,4.255-7.509,6.367-.793.667-1.637.61-1.741-.1a7.644,7.644,0,0,1-.2-2.384,10.311,10.311,0,0,1,2.613-5.834,29.9,29.9,0,0,0-5.991.049c-1.256.117-2.5.041-3.75.071a.789.789,0,0,1-.753-.631.892.892,0,0,1,.232-.969,14.638,14.638,0,0,1,8.063-4.183,19.99,19.99,0,0,1,4.256-.2" transform="translate(-232.402 -282.522)"/>
    <path id="パス_55" data-name="パス 55" class="cls-7" d="M405.621,394.359c-.014-.176.039-.191.152-.065a.211.211,0,0,1-.152.065" transform="translate(-332.631 -323.153)"/>
    <path id="パス_56" data-name="パス 56" class="cls-6" d="M476.69,13.062a21.392,21.392,0,0,0,.912-2.27c.236-.844,1.045-.334,1.459-.754.336.706-.137,1.124-.6,1.378-.676.373-1.279.731-1.374,1.58,0,.038-.087.081-.14.095a1.008,1.008,0,0,1-.26-.029" transform="translate(-390.914 -8.229)"/>
    <path id="パス_57" data-name="パス 57" class="cls-6" d="M134.437,172.719a19.53,19.53,0,0,0-8.1,1.225,5.59,5.59,0,0,1,8.2-1.407l-.1.182" transform="translate(-103.605 -140.46)"/>
    <path id="パス_58" data-name="パス 58" class="cls-7" d="M125.844,165.051a2.262,2.262,0,0,1,1.574-1.01l-.017-.016c-.2.7-.907.789-1.386,1.152l-.17-.126" transform="translate(-103.2 -134.459)"/>
    <path id="パス_59" data-name="パス 59" class="cls-7" d="M120.767,174.351c.026.038.079.081.073.113-.008.048-.058.089-.09.134-.027-.043-.077-.088-.074-.129s.057-.08.091-.118" transform="translate(-98.961 -142.923)"/>
    <path id="パス_60" data-name="パス 60" class="cls-7" d="M171.34,178.139l.1-.182.111.16-.208.021" transform="translate(-140.509 -145.879)"/>
    <path id="パス_61" data-name="パス 61" class="cls-7" d="M123.685,171.24l.059-.056a.516.516,0,0,1,.052.109c0,.014-.033.036-.051.055l-.061-.108" transform="translate(-101.429 -140.327)"/>
    <path id="パス_62" data-name="パス 62" class="cls-7" d="M125.594,169.842c-.074.082-.153.176-.26.061-.017-.018.059-.123.091-.187l.169.126" transform="translate(-102.779 -139.124)"/>
    <path id="パス_63" data-name="パス 63" class="cls-7" d="M429.626,343.359c-.02.017-.041.048-.061.047s-.039-.032-.058-.05c.02-.017.041-.047.061-.047s.039.032.058.05" transform="translate(-352.221 -281.426)"/>
  </g>
</svg>
