<svg xmlns="http://www.w3.org/2000/svg" xmlns:xlink="http://www.w3.org/1999/xlink" width="76" height="48" viewBox="0 0 76 48">
  <defs>
    <style>
      .cls-1 {
        fill: none;
      }

      .cls-2 {
        clip-path: url(#clip-path);
      }
    </style>
    <clipPath id="clip-path">
      <rect id="長方形_4625" data-name="長方形 4625" class="cls-1" width="76" height="48"/>
    </clipPath>
  </defs>
  <g id="グループ_9094" data-name="グループ 9094" transform="translate(-658.056 -3804)">
    <g id="グループ_9093" data-name="グループ 9093" transform="translate(658.056 3804)">
      <g id="グループ_9092" data-name="グループ 9092" class="cls-2">
        <path id="パス_366" data-name="パス 366" d="M76,39.564a1.626,1.626,0,0,1-1.666.848c-1.107-.035-2.217-.009-3.382-.009a7.68,7.68,0,0,1-2.969,6.015,7.36,7.36,0,0,1-4.911,1.574,7.635,7.635,0,0,1-7.289-7.533H29.024a7.6,7.6,0,0,1-3.26,6.177,7.293,7.293,0,0,1-4.834,1.345A7.637,7.637,0,0,1,13.866,40.4h-.774c-1.782,0-3.565.008-5.347,0a2.5,2.5,0,0,1-2.735-2.713c-.007-.761,0-1.521,0-2.373-1.2,0-2.334.006-3.466,0-.294,0-.686.051-.86-.109-.315-.29-.694-.727-.684-1.093s.417-.773.746-1.047c.188-.157.568-.112.862-.112q5.236-.009,10.471,0a4.454,4.454,0,0,1,.519.014,1.2,1.2,0,0,1,1.149,1.217A1.157,1.157,0,0,1,12.523,35.3c-1.411.024-2.822.009-4.233.011h-.85v2.718H9.9c1.287,0,2.575-.016,3.862.009a.712.712,0,0,0,.766-.506,7.238,7.238,0,0,1,6.951-4.557,7.221,7.221,0,0,1,6.888,4.539.727.727,0,0,0,.759.525q11.846-.02,23.691-.012c.12,0,.24-.018.429-.034.013-.286.034-.547.034-.808,0-2.593-.027-5.187.028-7.779a1.925,1.925,0,0,1,.59-1.321c.736-.589,1.745.058,1.757,1.085.021,1.8.007,3.606.007,5.408,0,.939-.013,1.877.011,2.815a2.151,2.151,0,0,0,.218.621c.181-.159.437-.283.53-.482a7.548,7.548,0,0,1,13.8-.162.921.921,0,0,0,1.039.673c.758-.055,1.522-.014,2.323-.014v-5.26c-.508,0-1,.019-1.483,0a3.66,3.66,0,0,1-3.54-3.585c-.024-.839-.019-1.679,0-2.519a1.187,1.187,0,0,1,1.34-1.319c1.133-.017,2.267,0,3.409,0A3.4,3.4,0,0,0,70.164,22.7c-4.8-.057-9.6-.021-14.5-.021,0,.443.013.853,0,1.263a1.173,1.173,0,0,1-1.187,1.242,1.2,1.2,0,0,1-1.18-1.191c-.019-.221-.007-.444-.007-.666q0-10,0-20v-.91H7.39v.88q0,10.039,0,20.078a7.129,7.129,0,0,1-.015.74,1.1,1.1,0,0,1-1.051,1.06,1.085,1.085,0,0,1-1.232-.841,3.15,3.15,0,0,1-.079-.878q-.006-10.261,0-20.522C5.01.92,5.941,0,7.973,0H52.755c1.994,0,2.9.907,2.908,2.89,0,.687,0,1.374,0,2.131.318.015.58.037.842.037,2.55,0,5.1.052,7.649-.011,3.214-.08,6,2.138,5.436,6.464-.051.393-.473.739-.817,1.248.567,2.264,1.175,4.727,1.812,7.182a.772.772,0,0,0,.454.474A6.209,6.209,0,0,1,75.9,25.441a.781.781,0,0,0,.1.192Zm-20.27-27v7.691H68.135a5.164,5.164,0,0,0-.074-.54c-.542-2.176-1.111-4.346-1.618-6.53-.132-.567-.4-.67-.918-.666-3.018.019-6.036.009-9.055.011-.241,0-.482.022-.741.034m7.618,33.066a5.149,5.149,0,1,0-5.14-5.161,5.2,5.2,0,0,0,5.14,5.161m-41.9,0a5.149,5.149,0,1,0-5.16-5.136,5.181,5.181,0,0,0,5.16,5.136M55.708,10.084H67.2a2.523,2.523,0,0,0-2.7-2.638c-2.745-.017-5.49-.006-8.235,0a5.019,5.019,0,0,0-.561.061ZM73.571,30.363v-2.59H70.978c-.218,2.337.209,2.766,2.593,2.59" transform="translate(0 0)"/>
        <path id="パス_367" data-name="パス 367" d="M115.994,68.768l9.62-9.607c.332-.332.656-.674,1-.992a1.189,1.189,0,1,1,1.662,1.691c-1.88,1.9-3.776,3.777-5.666,5.663q-2.7,2.7-5.411,5.395c-.84.834-1.374.836-2.2.009Q112.05,68,109.11,65.062a1.311,1.311,0,0,1-.48-1.447,1.185,1.185,0,0,1,2.045-.345c1.572,1.54,3.125,3.1,4.676,4.661a8.727,8.727,0,0,1,.643.838" transform="translate(-87.014 -46.341)"/>
        <path id="パス_368" data-name="パス 368" d="M163.508,169.08q-4.158,0-8.317,0a4.591,4.591,0,0,1-.814-.038.983.983,0,0,1-.905-1.082,2.124,2.124,0,0,1,.763-1.128c.2-.171.615-.117.933-.117q8.317-.009,16.633,0c1.2,0,1.784.389,1.793,1.183s-.561,1.186-1.77,1.186h-8.317" transform="translate(-123.006 -133.766)"/>
        <path id="パス_369" data-name="パス 369" d="M21.281,143.434q-3.636,0-7.272,0c-.957,0-1.493-.41-1.516-1.141s.563-1.226,1.525-1.227q7.31-.005,14.619,0c.97,0,1.582.576,1.469,1.345a1.2,1.2,0,0,1-1.33,1.02c-2.5.008-5,0-7.5,0" transform="translate(-10.012 -113.189)"/>
        <path id="パス_371" data-name="パス 371" d="M309.419,192.509a2.438,2.438,0,0,1,2.457,2.441,2.458,2.458,0,1,1-4.915-.006,2.428,2.428,0,0,1,2.458-2.436" transform="translate(-246.041 -154.47)"/>
        <path id="パス_372" data-name="パス 372" d="M100.582,194.987a2.457,2.457,0,0,1-2.485,2.422,2.508,2.508,0,0,1-2.426-2.5,2.451,2.451,0,0,1,2.505-2.4,2.41,2.41,0,0,1,2.406,2.479" transform="translate(-76.684 -154.469)"/>
      </g>
    </g>
  </g>
</svg>
